%TF.GenerationSoftware,KiCad,Pcbnew,9.0.0*%
%TF.CreationDate,2025-07-06T23:44:28+07:00*%
%TF.ProjectId,MiniDrone_aDat,4d696e69-4472-46f6-9e65-5f614461742e,rev?*%
%TF.SameCoordinates,Original*%
%TF.FileFunction,Plated,1,2,PTH,Drill*%
%TF.FilePolarity,Positive*%
%FSLAX46Y46*%
G04 Gerber Fmt 4.6, Leading zero omitted, Abs format (unit mm)*
G04 Created by KiCad (PCBNEW 9.0.0) date 2025-07-06 23:44:28*
%MOMM*%
%LPD*%
G01*
G04 APERTURE LIST*
%TA.AperFunction,ViaDrill*%
%ADD10C,0.300000*%
%TD*%
%TA.AperFunction,ComponentDrill*%
%ADD11C,1.000000*%
%TD*%
%TA.AperFunction,ComponentDrill*%
%ADD12C,1.200000*%
%TD*%
%TA.AperFunction,ComponentDrill*%
%ADD13C,2.100000*%
%TD*%
%TA.AperFunction,ComponentDrill*%
%ADD14C,7.050000*%
%TD*%
G04 APERTURE END LIST*
D10*
X77000000Y-81540000D03*
X79480000Y-109660000D03*
X83250000Y-112030000D03*
X84290000Y-76810000D03*
X85470000Y-122650000D03*
X86030000Y-93030000D03*
X86780000Y-87010000D03*
X87400000Y-99990000D03*
X88600000Y-91205000D03*
X88870000Y-100190000D03*
X89480000Y-86580000D03*
X89580000Y-103550000D03*
X90030000Y-96030000D03*
X91020000Y-112980000D03*
X92670000Y-114660000D03*
X92750000Y-82690000D03*
X92820000Y-88310000D03*
X93580000Y-86890000D03*
X95140000Y-104310000D03*
X95520000Y-100750000D03*
X95725000Y-89670000D03*
X96490000Y-96980000D03*
X97500000Y-94898581D03*
X97500000Y-95700000D03*
X97685421Y-93712149D03*
X97950000Y-91880000D03*
X98220000Y-107020000D03*
X98300000Y-93200000D03*
X99365000Y-86360000D03*
X99760000Y-93680000D03*
X99920000Y-120660000D03*
X100270000Y-89710000D03*
X100550000Y-101380000D03*
X100740000Y-98840000D03*
X101480000Y-106520000D03*
X101520000Y-92830000D03*
X101990000Y-103010000D03*
X102920000Y-97680000D03*
X103270000Y-109790000D03*
X103610000Y-101680000D03*
X104130000Y-109170000D03*
X104300000Y-93990000D03*
X105380000Y-99510000D03*
X105632500Y-114857500D03*
X105888275Y-106221725D03*
X106780000Y-92030000D03*
X106940000Y-107230000D03*
X107070000Y-90640000D03*
X107160158Y-89765713D03*
X107205000Y-114880000D03*
X107360000Y-88360000D03*
X107520000Y-86990000D03*
X107660000Y-99760000D03*
X107720000Y-103940000D03*
X107768275Y-108101725D03*
X107870000Y-102950000D03*
X108910000Y-109230000D03*
X109200000Y-104440000D03*
X111180000Y-85520000D03*
X112050000Y-122430000D03*
X112160000Y-109700000D03*
X112460000Y-87895000D03*
X113590000Y-84700000D03*
X113930000Y-78230000D03*
X113942180Y-113779702D03*
X114380000Y-106930000D03*
X114510000Y-94120000D03*
X115790000Y-100400000D03*
X116010000Y-97970000D03*
X116830000Y-92180000D03*
X117270000Y-88290000D03*
X117770000Y-85350000D03*
X118420000Y-96180000D03*
X121180000Y-81870000D03*
X123940000Y-117600000D03*
D11*
%TO.C,J9*%
X83200000Y-83400000D03*
X83200000Y-85940000D03*
X83200000Y-88480000D03*
X83200000Y-91020000D03*
%TO.C,J8*%
X83245000Y-96170000D03*
X83245000Y-98710000D03*
X83245000Y-101250000D03*
X83245000Y-103790000D03*
X85785000Y-96170000D03*
X85785000Y-98710000D03*
X85785000Y-101250000D03*
X85785000Y-103790000D03*
%TO.C,J6*%
X93000000Y-91720000D03*
X93000000Y-94260000D03*
X93000000Y-96800000D03*
X93000000Y-99340000D03*
X93000000Y-101880000D03*
X93000000Y-104420000D03*
X93000000Y-106960000D03*
X93000000Y-109500000D03*
%TO.C,J7*%
X117300000Y-109980000D03*
X117300000Y-112520000D03*
X117300000Y-115060000D03*
X117300000Y-117600000D03*
%TO.C,J10*%
X119500000Y-87140000D03*
X119500000Y-89680000D03*
X119500000Y-92220000D03*
X119500000Y-94760000D03*
D12*
%TO.C,J2*%
X71284505Y-73207627D03*
%TO.C,J4*%
X71541576Y-127539444D03*
%TO.C,J2*%
X73080556Y-71411576D03*
%TO.C,J4*%
X73337627Y-129335495D03*
%TO.C,J5*%
X118707500Y-98995000D03*
X118707500Y-101535000D03*
%TO.C,J1*%
X127552373Y-71154505D03*
%TO.C,J3*%
X127749444Y-129288424D03*
%TO.C,J1*%
X129348424Y-72950556D03*
%TO.C,J3*%
X129545495Y-127492373D03*
D13*
%TO.C,Scr12*%
X56940000Y-143320000D03*
%TO.C,Scr5*%
X57490000Y-56840000D03*
%TO.C,Scr11*%
X62858840Y-70824801D03*
%TO.C,Scr15*%
X62858840Y-129787431D03*
%TO.C,Scr8*%
X70874811Y-62808830D03*
%TO.C,Scr7*%
X70880229Y-137808820D03*
%TO.C,Scr2*%
X77020000Y-76900000D03*
%TO.C,Scr4*%
X77070000Y-123510000D03*
%TO.C,Scr1*%
X124100000Y-76890000D03*
%TO.C,Scr3*%
X124260000Y-123460000D03*
%TO.C,Scr9*%
X129840407Y-62808830D03*
%TO.C,Scr16*%
X129852126Y-137808820D03*
%TO.C,Scr6*%
X137858840Y-70827263D03*
%TO.C,Scr13*%
X137858840Y-129802106D03*
%TO.C,Scr14*%
X142990000Y-56640000D03*
%TO.C,Scr10*%
X143920000Y-143110000D03*
D14*
%TO.C,Mt2*%
X62858842Y-62808826D03*
%TO.C,Mt3*%
X62858842Y-137808824D03*
%TO.C,Mt1*%
X137750000Y-62400000D03*
%TO.C,Mt4*%
X137858842Y-137808825D03*
M02*
