%TF.GenerationSoftware,KiCad,Pcbnew,9.0.0*%
%TF.CreationDate,2025-07-06T23:34:01+07:00*%
%TF.ProjectId,MiniDrone_aDat,4d696e69-4472-46f6-9e65-5f614461742e,rev?*%
%TF.SameCoordinates,Original*%
%TF.FileFunction,Paste,Top*%
%TF.FilePolarity,Positive*%
%FSLAX46Y46*%
G04 Gerber Fmt 4.6, Leading zero omitted, Abs format (unit mm)*
G04 Created by KiCad (PCBNEW 9.0.0) date 2025-07-06 23:34:01*
%MOMM*%
%LPD*%
G01*
G04 APERTURE LIST*
G04 Aperture macros list*
%AMRoundRect*
0 Rectangle with rounded corners*
0 $1 Rounding radius*
0 $2 $3 $4 $5 $6 $7 $8 $9 X,Y pos of 4 corners*
0 Add a 4 corners polygon primitive as box body*
4,1,4,$2,$3,$4,$5,$6,$7,$8,$9,$2,$3,0*
0 Add four circle primitives for the rounded corners*
1,1,$1+$1,$2,$3*
1,1,$1+$1,$4,$5*
1,1,$1+$1,$6,$7*
1,1,$1+$1,$8,$9*
0 Add four rect primitives between the rounded corners*
20,1,$1+$1,$2,$3,$4,$5,0*
20,1,$1+$1,$4,$5,$6,$7,0*
20,1,$1+$1,$6,$7,$8,$9,0*
20,1,$1+$1,$8,$9,$2,$3,0*%
%AMRotRect*
0 Rectangle, with rotation*
0 The origin of the aperture is its center*
0 $1 length*
0 $2 width*
0 $3 Rotation angle, in degrees counterclockwise*
0 Add horizontal line*
21,1,$1,$2,0,0,$3*%
G04 Aperture macros list end*
%ADD10RoundRect,0.225000X-0.250000X0.225000X-0.250000X-0.225000X0.250000X-0.225000X0.250000X0.225000X0*%
%ADD11RoundRect,0.225000X-0.225000X-0.250000X0.225000X-0.250000X0.225000X0.250000X-0.225000X0.250000X0*%
%ADD12RoundRect,0.250000X-0.600000X0.400000X-0.600000X-0.400000X0.600000X-0.400000X0.600000X0.400000X0*%
%ADD13RoundRect,0.225000X0.250000X-0.225000X0.250000X0.225000X-0.250000X0.225000X-0.250000X-0.225000X0*%
%ADD14RoundRect,0.200000X0.800000X-0.200000X0.800000X0.200000X-0.800000X0.200000X-0.800000X-0.200000X0*%
%ADD15RoundRect,0.225000X0.017678X-0.335876X0.335876X-0.017678X-0.017678X0.335876X-0.335876X0.017678X0*%
%ADD16RoundRect,0.225000X-0.017678X0.335876X-0.335876X0.017678X0.017678X-0.335876X0.335876X-0.017678X0*%
%ADD17RotRect,2.000000X2.400000X135.000000*%
%ADD18RoundRect,0.225000X0.225000X0.250000X-0.225000X0.250000X-0.225000X-0.250000X0.225000X-0.250000X0*%
%ADD19RoundRect,0.075000X-0.415425X-0.521491X0.521491X0.415425X0.415425X0.521491X-0.521491X-0.415425X0*%
%ADD20RoundRect,0.075000X0.415425X-0.521491X0.521491X-0.415425X-0.415425X0.521491X-0.521491X0.415425X0*%
%ADD21RoundRect,0.150000X-0.150000X0.512500X-0.150000X-0.512500X0.150000X-0.512500X0.150000X0.512500X0*%
%ADD22RoundRect,0.225000X0.335876X0.017678X0.017678X0.335876X-0.335876X-0.017678X-0.017678X-0.335876X0*%
%ADD23RoundRect,0.225000X-0.335876X-0.017678X-0.017678X-0.335876X0.335876X0.017678X0.017678X0.335876X0*%
G04 APERTURE END LIST*
D10*
%TO.C,C16*%
X113960000Y-95845000D03*
X113960000Y-97395000D03*
%TD*%
D11*
%TO.C,R8*%
X112960000Y-94120000D03*
X114510000Y-94120000D03*
%TD*%
D10*
%TO.C,R5*%
X110340000Y-102785000D03*
X110340000Y-104335000D03*
%TD*%
%TO.C,C5*%
X95900000Y-108625000D03*
X95900000Y-110175000D03*
%TD*%
D12*
%TO.C,D2*%
X102860000Y-114500000D03*
X102860000Y-118000000D03*
%TD*%
D10*
%TO.C,C4*%
X100860000Y-114475000D03*
X100860000Y-116025000D03*
%TD*%
D11*
%TO.C,R7*%
X105655000Y-114880000D03*
X107205000Y-114880000D03*
%TD*%
D13*
%TO.C,C2*%
X103070000Y-92725000D03*
X103070000Y-91175000D03*
%TD*%
D14*
%TO.C,SW1*%
X96360000Y-118450000D03*
X96360000Y-114250000D03*
%TD*%
D10*
%TO.C,C14*%
X111960000Y-95845000D03*
X111960000Y-97395000D03*
%TD*%
D15*
%TO.C,C23*%
X131497487Y-132540381D03*
X132593503Y-131444365D03*
%TD*%
D11*
%TO.C,R6*%
X112185000Y-101120000D03*
X113735000Y-101120000D03*
%TD*%
%TO.C,C1*%
X115685000Y-104620000D03*
X117235000Y-104620000D03*
%TD*%
D16*
%TO.C,C19*%
X69332513Y-68159619D03*
X68236497Y-69255635D03*
%TD*%
D10*
%TO.C,R1*%
X98860000Y-114475000D03*
X98860000Y-116025000D03*
%TD*%
D13*
%TO.C,R9*%
X110910000Y-92395000D03*
X110910000Y-90845000D03*
%TD*%
D17*
%TO.C,Y1*%
X90356156Y-117856156D03*
X87739860Y-115239860D03*
%TD*%
D18*
%TO.C,C11*%
X113735000Y-99120000D03*
X112185000Y-99120000D03*
%TD*%
%TO.C,R2*%
X100265000Y-89720000D03*
X98715000Y-89720000D03*
%TD*%
D11*
%TO.C,C8*%
X115685000Y-106620000D03*
X117235000Y-106620000D03*
%TD*%
D19*
%TO.C,U1*%
X97112124Y-100998788D03*
X97465678Y-101352342D03*
X97819231Y-101705895D03*
X98172785Y-102059449D03*
X98526338Y-102413002D03*
X98879891Y-102766555D03*
X99233445Y-103120109D03*
X99586998Y-103473662D03*
X99940551Y-103827215D03*
X100294105Y-104180769D03*
X100647658Y-104534322D03*
X101001212Y-104887876D03*
D20*
X102998788Y-104887876D03*
X103352342Y-104534322D03*
X103705895Y-104180769D03*
X104059449Y-103827215D03*
X104413002Y-103473662D03*
X104766555Y-103120109D03*
X105120109Y-102766555D03*
X105473662Y-102413002D03*
X105827215Y-102059449D03*
X106180769Y-101705895D03*
X106534322Y-101352342D03*
X106887876Y-100998788D03*
D19*
X106887876Y-99001212D03*
X106534322Y-98647658D03*
X106180769Y-98294105D03*
X105827215Y-97940551D03*
X105473662Y-97586998D03*
X105120109Y-97233445D03*
X104766555Y-96879891D03*
X104413002Y-96526338D03*
X104059449Y-96172785D03*
X103705895Y-95819231D03*
X103352342Y-95465678D03*
X102998788Y-95112124D03*
D20*
X101001212Y-95112124D03*
X100647658Y-95465678D03*
X100294105Y-95819231D03*
X99940551Y-96172785D03*
X99586998Y-96526338D03*
X99233445Y-96879891D03*
X98879891Y-97233445D03*
X98526338Y-97586998D03*
X98172785Y-97940551D03*
X97819231Y-98294105D03*
X97465678Y-98647658D03*
X97112124Y-99001212D03*
%TD*%
D21*
%TO.C,U4*%
X114410000Y-89982500D03*
X113460000Y-89982500D03*
X112510000Y-89982500D03*
X112510000Y-92257500D03*
X114410000Y-92257500D03*
%TD*%
D18*
%TO.C,R3*%
X97265000Y-89720000D03*
X95715000Y-89720000D03*
%TD*%
D13*
%TO.C,C20*%
X112460000Y-87895000D03*
X112460000Y-86345000D03*
%TD*%
D10*
%TO.C,D1*%
X99300000Y-108625000D03*
X99300000Y-110175000D03*
%TD*%
%TO.C,C7*%
X95775000Y-94000000D03*
X95775000Y-95550000D03*
%TD*%
D13*
%TO.C,C18*%
X114460000Y-87895000D03*
X114460000Y-86345000D03*
%TD*%
D22*
%TO.C,C17*%
X132600381Y-69202513D03*
X131504365Y-68106497D03*
%TD*%
D13*
%TO.C,C6*%
X104770000Y-92725000D03*
X104770000Y-91175000D03*
%TD*%
D10*
%TO.C,R4*%
X97600000Y-108625000D03*
X97600000Y-110175000D03*
%TD*%
D13*
%TO.C,C12*%
X110500000Y-100775000D03*
X110500000Y-99225000D03*
%TD*%
D23*
%TO.C,C21*%
X68289619Y-131287487D03*
X69385635Y-132383503D03*
%TD*%
%TO.C,C10*%
X85000000Y-116500000D03*
X86096016Y-117596016D03*
%TD*%
D22*
%TO.C,C9*%
X89096016Y-120596016D03*
X88000000Y-119500000D03*
%TD*%
D21*
%TO.C,U2*%
X113910000Y-102982500D03*
X112960000Y-102982500D03*
X112010000Y-102982500D03*
X112010000Y-105257500D03*
X113910000Y-105257500D03*
%TD*%
M02*
