%TF.GenerationSoftware,KiCad,Pcbnew,9.0.0*%
%TF.CreationDate,2025-07-06T23:34:01+07:00*%
%TF.ProjectId,MiniDrone_aDat,4d696e69-4472-46f6-9e65-5f614461742e,rev?*%
%TF.SameCoordinates,Original*%
%TF.FileFunction,Copper,L2,Bot*%
%TF.FilePolarity,Positive*%
%FSLAX46Y46*%
G04 Gerber Fmt 4.6, Leading zero omitted, Abs format (unit mm)*
G04 Created by KiCad (PCBNEW 9.0.0) date 2025-07-06 23:34:01*
%MOMM*%
%LPD*%
G01*
G04 APERTURE LIST*
G04 Aperture macros list*
%AMRoundRect*
0 Rectangle with rounded corners*
0 $1 Rounding radius*
0 $2 $3 $4 $5 $6 $7 $8 $9 X,Y pos of 4 corners*
0 Add a 4 corners polygon primitive as box body*
4,1,4,$2,$3,$4,$5,$6,$7,$8,$9,$2,$3,0*
0 Add four circle primitives for the rounded corners*
1,1,$1+$1,$2,$3*
1,1,$1+$1,$4,$5*
1,1,$1+$1,$6,$7*
1,1,$1+$1,$8,$9*
0 Add four rect primitives between the rounded corners*
20,1,$1+$1,$2,$3,$4,$5,0*
20,1,$1+$1,$4,$5,$6,$7,0*
20,1,$1+$1,$6,$7,$8,$9,0*
20,1,$1+$1,$8,$9,$2,$3,0*%
G04 Aperture macros list end*
%TA.AperFunction,ComponentPad*%
%ADD10C,2.500000*%
%TD*%
%TA.AperFunction,ComponentPad*%
%ADD11C,9.000000*%
%TD*%
%TA.AperFunction,ComponentPad*%
%ADD12R,1.700000X1.700000*%
%TD*%
%TA.AperFunction,ComponentPad*%
%ADD13O,1.700000X1.700000*%
%TD*%
%TA.AperFunction,ComponentPad*%
%ADD14RoundRect,0.250000X0.750000X-0.750000X0.750000X0.750000X-0.750000X0.750000X-0.750000X-0.750000X0*%
%TD*%
%TA.AperFunction,ComponentPad*%
%ADD15C,2.000000*%
%TD*%
%TA.AperFunction,ComponentPad*%
%ADD16RoundRect,0.250000X0.000000X1.060660X-1.060660X0.000000X0.000000X-1.060660X1.060660X0.000000X0*%
%TD*%
%TA.AperFunction,SMDPad,CuDef*%
%ADD17RoundRect,0.225000X0.250000X-0.225000X0.250000X0.225000X-0.250000X0.225000X-0.250000X-0.225000X0*%
%TD*%
%TA.AperFunction,ComponentPad*%
%ADD18RoundRect,0.250000X1.060660X0.000000X0.000000X1.060660X-1.060660X0.000000X0.000000X-1.060660X0*%
%TD*%
%TA.AperFunction,SMDPad,CuDef*%
%ADD19RoundRect,0.150000X-0.150000X0.850000X-0.150000X-0.850000X0.150000X-0.850000X0.150000X0.850000X0*%
%TD*%
%TA.AperFunction,SMDPad,CuDef*%
%ADD20RoundRect,0.250000X-0.550000X1.050000X-0.550000X-1.050000X0.550000X-1.050000X0.550000X1.050000X0*%
%TD*%
%TA.AperFunction,ComponentPad*%
%ADD21RoundRect,0.250000X0.000000X-1.060660X1.060660X0.000000X0.000000X1.060660X-1.060660X0.000000X0*%
%TD*%
%TA.AperFunction,ComponentPad*%
%ADD22RoundRect,0.250000X-1.060660X0.000000X0.000000X-1.060660X1.060660X0.000000X0.000000X1.060660X0*%
%TD*%
%TA.AperFunction,SMDPad,CuDef*%
%ADD23RoundRect,0.150000X0.150000X-0.850000X0.150000X0.850000X-0.150000X0.850000X-0.150000X-0.850000X0*%
%TD*%
%TA.AperFunction,SMDPad,CuDef*%
%ADD24RoundRect,0.250000X1.050000X0.550000X-1.050000X0.550000X-1.050000X-0.550000X1.050000X-0.550000X0*%
%TD*%
%TA.AperFunction,ViaPad*%
%ADD25C,0.600000*%
%TD*%
%TA.AperFunction,Conductor*%
%ADD26C,0.270000*%
%TD*%
%TA.AperFunction,Conductor*%
%ADD27C,0.200000*%
%TD*%
%TA.AperFunction,Conductor*%
%ADD28C,0.400000*%
%TD*%
G04 APERTURE END LIST*
D10*
%TO.P,Scr11,GND,GND*%
%TO.N,GND*%
X62858840Y-70824801D03*
%TD*%
D11*
%TO.P,Mt4,GND,GND*%
%TO.N,GND*%
X137858842Y-137808825D03*
%TD*%
%TO.P,Mt3,GND,GND*%
%TO.N,GND*%
X62858842Y-137808824D03*
%TD*%
D12*
%TO.P,J9,1,Pin_1*%
%TO.N,/TopLevelDesign/SWCLK*%
X83200000Y-83400000D03*
D13*
%TO.P,J9,2,Pin_2*%
%TO.N,/TopLevelDesign/SWDIO*%
X83200000Y-85940000D03*
%TO.P,J9,3,Pin_3*%
%TO.N,GND*%
X83200000Y-88480000D03*
%TO.P,J9,4,Pin_4*%
%TO.N,+3V3*%
X83200000Y-91020000D03*
%TD*%
D10*
%TO.P,Scr5,GND,GND*%
%TO.N,GND*%
X57490000Y-56840000D03*
%TD*%
%TO.P,Scr6,GND,GND*%
%TO.N,GND*%
X137858840Y-70827263D03*
%TD*%
%TO.P,Scr7,GND,GND*%
%TO.N,GND*%
X70880229Y-137808820D03*
%TD*%
D11*
%TO.P,Mt2,GND,GND*%
%TO.N,GND*%
X62858842Y-62808826D03*
%TD*%
D10*
%TO.P,Scr15,GND,GND*%
%TO.N,GND*%
X62858840Y-129787431D03*
%TD*%
%TO.P,Scr10,GND,GND*%
%TO.N,GND*%
X143920000Y-143110000D03*
%TD*%
%TO.P,Scr9,GND,GND*%
%TO.N,GND*%
X129840407Y-62808830D03*
%TD*%
D12*
%TO.P,J7,1,Pin_1*%
%TO.N,/TopLevelDesign/PA2*%
X117300000Y-117600000D03*
D13*
%TO.P,J7,2,Pin_2*%
%TO.N,/TopLevelDesign/PA3*%
X117300000Y-115060000D03*
%TO.P,J7,3,Pin_3*%
%TO.N,/TopLevelDesign/PA4*%
X117300000Y-112520000D03*
%TO.P,J7,4,Pin_4*%
%TO.N,GND*%
X117300000Y-109980000D03*
%TD*%
D10*
%TO.P,Scr16,GND,GND*%
%TO.N,GND*%
X129852126Y-137808820D03*
%TD*%
%TO.P,Scr12,GND,GND*%
%TO.N,GND*%
X56940000Y-143320000D03*
%TD*%
D11*
%TO.P,Mt1,GND,GND*%
%TO.N,GND*%
X137750000Y-62400000D03*
%TD*%
D14*
%TO.P,J5,1,Pin_1*%
%TO.N,GND*%
X118707500Y-101535000D03*
D15*
%TO.P,J5,2,Pin_2*%
%TO.N,Vin*%
X118707500Y-98995000D03*
%TD*%
D10*
%TO.P,Scr14,GND,GND*%
%TO.N,GND*%
X142990000Y-56640000D03*
%TD*%
%TO.P,Scr8,GND,GND*%
%TO.N,GND*%
X70874811Y-62808830D03*
%TD*%
%TO.P,Scr13,GND,GND*%
%TO.N,GND*%
X137858840Y-129802106D03*
%TD*%
D16*
%TO.P,J3,1,Pin_1*%
%TO.N,/TopLevelDesign/HBridge/H2_OUTA2*%
X129545495Y-127492373D03*
D15*
%TO.P,J3,2,Pin_2*%
%TO.N,/TopLevelDesign/HBridge/H2_OUTB2*%
X127749444Y-129288424D03*
%TD*%
D17*
%TO.P,C3,1*%
%TO.N,+3V3*%
X88600000Y-91205000D03*
%TO.P,C3,2*%
%TO.N,GND*%
X88600000Y-89655000D03*
%TD*%
D18*
%TO.P,J4,1,Pin_1*%
%TO.N,/TopLevelDesign/HBridge/H2_OUTA1*%
X73337627Y-129335495D03*
D15*
%TO.P,J4,2,Pin_2*%
%TO.N,/TopLevelDesign/HBridge/H2_OUTB1*%
X71541576Y-127539444D03*
%TD*%
D10*
%TO.P,Scr2,GND,GND*%
%TO.N,GND*%
X77020000Y-76900000D03*
%TD*%
D19*
%TO.P,U3,1,VCC*%
%TO.N,+3V3*%
X95555000Y-113500000D03*
%TO.P,U3,2,INA1*%
%TO.N,/TopLevelDesign/HBridge/H2_INA1*%
X96825000Y-113500000D03*
%TO.P,U3,3,INB1*%
%TO.N,/TopLevelDesign/HBridge/H2_INB1*%
X98095000Y-113500000D03*
%TO.P,U3,4,VDD*%
%TO.N,Vin*%
X99365000Y-113500000D03*
%TO.P,U3,5,VCC*%
%TO.N,+3V3*%
X100635000Y-113500000D03*
%TO.P,U3,6,INA2*%
%TO.N,/TopLevelDesign/HBridge/H2_INA2*%
X101905000Y-113500000D03*
%TO.P,U3,7,INB2*%
%TO.N,/TopLevelDesign/HBridge/H2_INB2*%
X103175000Y-113500000D03*
%TO.P,U3,8,VDD*%
%TO.N,Vin*%
X104445000Y-113500000D03*
%TO.P,U3,9,OUTB2*%
%TO.N,/TopLevelDesign/HBridge/H2_OUTB2*%
X104445000Y-118500000D03*
%TO.P,U3,10,GND*%
%TO.N,GND*%
X103175000Y-118500000D03*
%TO.P,U3,11,GND*%
X101905000Y-118500000D03*
%TO.P,U3,12,OUTA2*%
%TO.N,/TopLevelDesign/HBridge/H2_OUTA2*%
X100635000Y-118500000D03*
%TO.P,U3,13,OUTB1*%
%TO.N,/TopLevelDesign/HBridge/H2_OUTB1*%
X99365000Y-118500000D03*
%TO.P,U3,14,GND*%
%TO.N,GND*%
X98095000Y-118500000D03*
%TO.P,U3,15,GND*%
X96825000Y-118500000D03*
%TO.P,U3,16,OUTA1*%
%TO.N,/TopLevelDesign/HBridge/H2_OUTA1*%
X95555000Y-118500000D03*
%TD*%
D12*
%TO.P,J10,1,Pin_1*%
%TO.N,+3V3*%
X119500000Y-94760000D03*
D13*
%TO.P,J10,2,Pin_2*%
%TO.N,GND*%
X119500000Y-92220000D03*
%TO.P,J10,3,Pin_3*%
%TO.N,/TopLevelDesign/PB10*%
X119500000Y-89680000D03*
%TO.P,J10,4,Pin_4*%
%TO.N,/TopLevelDesign/PB11*%
X119500000Y-87140000D03*
%TD*%
D12*
%TO.P,J8,1,Pin_1*%
%TO.N,GND*%
X85785000Y-96170000D03*
D13*
%TO.P,J8,2,Pin_2*%
%TO.N,+3V3*%
X83245000Y-96170000D03*
%TO.P,J8,3,Pin_3*%
%TO.N,/TopLevelDesign/PA12*%
X85785000Y-98710000D03*
%TO.P,J8,4,Pin_4*%
%TO.N,/TopLevelDesign/PB12*%
X83245000Y-98710000D03*
%TO.P,J8,5,Pin_5*%
%TO.N,/TopLevelDesign/PB13*%
X85785000Y-101250000D03*
%TO.P,J8,6,Pin_6*%
%TO.N,/TopLevelDesign/PB15*%
X83245000Y-101250000D03*
%TO.P,J8,7,Pin_7*%
%TO.N,/TopLevelDesign/PB14*%
X85785000Y-103790000D03*
%TO.P,J8,8,Pin_8*%
%TO.N,/TopLevelDesign/PA15*%
X83245000Y-103790000D03*
%TD*%
D20*
%TO.P,C15,1*%
%TO.N,Vin*%
X109000000Y-114900000D03*
%TO.P,C15,2*%
%TO.N,GND*%
X109000000Y-118500000D03*
%TD*%
D10*
%TO.P,Scr1,GND,GND*%
%TO.N,GND*%
X124100000Y-76890000D03*
%TD*%
D21*
%TO.P,J2,1,Pin_1*%
%TO.N,/TopLevelDesign/HBridge/H1_OUTA2*%
X71284505Y-73207627D03*
D15*
%TO.P,J2,2,Pin_2*%
%TO.N,/TopLevelDesign/HBridge/H1_OUTB2*%
X73080556Y-71411576D03*
%TD*%
D22*
%TO.P,J1,1,Pin_1*%
%TO.N,/TopLevelDesign/HBridge/H1_OUTA1*%
X127552373Y-71154505D03*
D15*
%TO.P,J1,2,Pin_2*%
%TO.N,/TopLevelDesign/HBridge/H1_OUTB1*%
X129348424Y-72950556D03*
%TD*%
D10*
%TO.P,Scr3,GND,GND*%
%TO.N,GND*%
X124260000Y-123460000D03*
%TD*%
%TO.P,Scr4,GND,GND*%
%TO.N,GND*%
X77070000Y-123510000D03*
%TD*%
D12*
%TO.P,J6,1,Pin_1*%
%TO.N,+3V3*%
X93000000Y-109500000D03*
D13*
%TO.P,J6,2,Pin_2*%
%TO.N,GND*%
X93000000Y-106960000D03*
%TO.P,J6,3,Pin_3*%
%TO.N,/TopLevelDesign/PB6*%
X93000000Y-104420000D03*
%TO.P,J6,4,Pin_4*%
%TO.N,/TopLevelDesign/PB7*%
X93000000Y-101880000D03*
%TO.P,J6,5,Pin_5*%
%TO.N,unconnected-(J6-Pin_5-Pad5)*%
X93000000Y-99340000D03*
%TO.P,J6,6,Pin_6*%
%TO.N,unconnected-(J6-Pin_6-Pad6)*%
X93000000Y-96800000D03*
%TO.P,J6,7,Pin_7*%
%TO.N,/TopLevelDesign/PB4*%
X93000000Y-94260000D03*
%TO.P,J6,8,Pin_8*%
%TO.N,/TopLevelDesign/PB5*%
X93000000Y-91720000D03*
%TD*%
D23*
%TO.P,U5,1,VCC*%
%TO.N,+3V3*%
X104445000Y-87500000D03*
%TO.P,U5,2,INA1*%
%TO.N,/TopLevelDesign/HBridge/H1_INA1*%
X103175000Y-87500000D03*
%TO.P,U5,3,INB1*%
%TO.N,/TopLevelDesign/HBridge/H1_INB1*%
X101905000Y-87500000D03*
%TO.P,U5,4,VDD*%
%TO.N,Vin*%
X100635000Y-87500000D03*
%TO.P,U5,5,VCC*%
%TO.N,+3V3*%
X99365000Y-87500000D03*
%TO.P,U5,6,INA2*%
%TO.N,/TopLevelDesign/HBridge/H1_INA2*%
X98095000Y-87500000D03*
%TO.P,U5,7,INB2*%
%TO.N,/TopLevelDesign/HBridge/H1_INB2*%
X96825000Y-87500000D03*
%TO.P,U5,8,VDD*%
%TO.N,Vin*%
X95555000Y-87500000D03*
%TO.P,U5,9,OUTB2*%
%TO.N,/TopLevelDesign/HBridge/H1_OUTB2*%
X95555000Y-82500000D03*
%TO.P,U5,10,GND*%
%TO.N,GND*%
X96825000Y-82500000D03*
%TO.P,U5,11,GND*%
X98095000Y-82500000D03*
%TO.P,U5,12,OUTA2*%
%TO.N,/TopLevelDesign/HBridge/H1_OUTA2*%
X99365000Y-82500000D03*
%TO.P,U5,13,OUTB1*%
%TO.N,/TopLevelDesign/HBridge/H1_OUTB1*%
X100635000Y-82500000D03*
%TO.P,U5,14,GND*%
%TO.N,GND*%
X101905000Y-82500000D03*
%TO.P,U5,15,GND*%
X103175000Y-82500000D03*
%TO.P,U5,16,OUTA1*%
%TO.N,/TopLevelDesign/HBridge/H1_OUTA1*%
X104445000Y-82500000D03*
%TD*%
D24*
%TO.P,C13,1*%
%TO.N,+3V3*%
X110770000Y-83310000D03*
%TO.P,C13,2*%
%TO.N,GND*%
X107170000Y-83310000D03*
%TD*%
D25*
%TO.N,+3V3*%
X95725000Y-89670000D03*
X99365000Y-86360000D03*
X88600000Y-91205000D03*
X103270000Y-109790000D03*
X105632500Y-114857500D03*
%TO.N,GND*%
X79480000Y-109660000D03*
X107660000Y-99760000D03*
X92750000Y-82690000D03*
X86780000Y-87010000D03*
X92820000Y-88310000D03*
X100550000Y-101380000D03*
X105380000Y-99510000D03*
X104130000Y-109170000D03*
X115790000Y-100400000D03*
X102920000Y-97680000D03*
X109200000Y-104440000D03*
X117270000Y-88290000D03*
X86030000Y-93030000D03*
X116010000Y-97970000D03*
X83250000Y-112030000D03*
X111180000Y-85520000D03*
X97950000Y-91880000D03*
X117770000Y-85350000D03*
X99760000Y-93680000D03*
X100270000Y-89710000D03*
X91020000Y-112980000D03*
X95140000Y-104310000D03*
X92670000Y-114660000D03*
X101520000Y-92830000D03*
X107520000Y-86990000D03*
X84290000Y-76810000D03*
X98220000Y-107020000D03*
X77000000Y-81540000D03*
X103610000Y-101680000D03*
X99920000Y-120660000D03*
X101480000Y-106520000D03*
X123940000Y-117600000D03*
X113590000Y-84700000D03*
X112160000Y-109700000D03*
X89580000Y-103550000D03*
X93580000Y-86890000D03*
X121180000Y-81870000D03*
X89480000Y-86580000D03*
X95520000Y-100750000D03*
X100740000Y-98840000D03*
X116830000Y-92180000D03*
X118420000Y-96180000D03*
X90030000Y-96030000D03*
X96490000Y-96980000D03*
X114380000Y-106930000D03*
X113930000Y-78230000D03*
X85470000Y-122650000D03*
X112050000Y-122430000D03*
X104300000Y-93990000D03*
X87400000Y-99990000D03*
X113942180Y-113779702D03*
%TO.N,Vin*%
X107205000Y-114880000D03*
X114510000Y-94120000D03*
%TO.N,/TopLevelDesign/MCU/PA0*%
X112460000Y-87895000D03*
X101990000Y-103010000D03*
%TO.N,/TopLevelDesign/PB7*%
X97500000Y-95700000D03*
%TO.N,/TopLevelDesign/PB5*%
X97685421Y-93712149D03*
%TO.N,/TopLevelDesign/PB6*%
X97500000Y-94898581D03*
%TO.N,/TopLevelDesign/PB4*%
X98300000Y-93200000D03*
%TO.N,/TopLevelDesign/PA15*%
X88870000Y-100190000D03*
%TO.N,/TopLevelDesign/PB11*%
X107870000Y-102950000D03*
%TO.N,/TopLevelDesign/PB10*%
X107720000Y-103940000D03*
%TO.N,/TopLevelDesign/HBridge/H2_INB2*%
X108910000Y-109230000D03*
%TO.N,/TopLevelDesign/HBridge/H1_INB2*%
X106780000Y-92030000D03*
%TO.N,/TopLevelDesign/HBridge/H2_INA1*%
X105888275Y-106221725D03*
%TO.N,/TopLevelDesign/HBridge/H1_INA2*%
X107070000Y-90640000D03*
%TO.N,/TopLevelDesign/HBridge/H1_INB1*%
X107160158Y-89765713D03*
%TO.N,/TopLevelDesign/HBridge/H2_INB1*%
X106940000Y-107230000D03*
%TO.N,/TopLevelDesign/HBridge/H1_INA1*%
X107360000Y-88360000D03*
%TO.N,/TopLevelDesign/HBridge/H2_INA2*%
X107768275Y-108101725D03*
%TD*%
D26*
%TO.N,+3V3*%
X118820000Y-83320000D02*
X121000000Y-85500000D01*
X102954999Y-85010000D02*
X104445000Y-86500001D01*
X100635000Y-112335000D02*
X100635000Y-113500000D01*
X121000000Y-93000000D02*
X119500000Y-94500000D01*
X118000000Y-83320000D02*
X118820000Y-83320000D01*
X121000000Y-85500000D02*
X121000000Y-93000000D01*
X119500000Y-94500000D02*
X119500000Y-94760000D01*
X104445000Y-86500001D02*
X104445000Y-87500000D01*
X95555000Y-112215000D02*
X95555000Y-113500000D01*
X104660000Y-115830000D02*
X96885001Y-115830000D01*
X110670000Y-82660000D02*
X111330000Y-83320000D01*
X95555000Y-114499999D02*
X96885001Y-115830000D01*
X88600000Y-91205000D02*
X83385000Y-91205000D01*
X94940000Y-89670000D02*
X94530000Y-89260000D01*
X94530000Y-89260000D02*
X94530000Y-85930000D01*
X94530000Y-85930000D02*
X95450000Y-85010000D01*
X105632500Y-114857500D02*
X104660000Y-115830000D01*
X95450000Y-85010000D02*
X102954999Y-85010000D01*
X93000000Y-109500000D02*
X93000000Y-109660000D01*
X111330000Y-83320000D02*
X118000000Y-83320000D01*
X95555000Y-113500000D02*
X95555000Y-114499999D01*
X102680000Y-110380000D02*
X102590000Y-110380000D01*
X95725000Y-89670000D02*
X94940000Y-89670000D01*
X93000000Y-109660000D02*
X95555000Y-112215000D01*
X102590000Y-110380000D02*
X100635000Y-112335000D01*
X83385000Y-91205000D02*
X83200000Y-91020000D01*
X99365000Y-87500000D02*
X99365000Y-86360000D01*
X103270000Y-109790000D02*
X102680000Y-110380000D01*
X118000000Y-83320000D02*
X118110000Y-83320000D01*
D27*
%TO.N,GND*%
X83200000Y-88480000D02*
X84375000Y-89655000D01*
X84375000Y-89655000D02*
X88600000Y-89655000D01*
D28*
%TO.N,Vin*%
X108880000Y-98550000D02*
X110780000Y-96650000D01*
X114510000Y-87370000D02*
X114510000Y-94120000D01*
X100635000Y-86195000D02*
X100030000Y-85590000D01*
X99365000Y-114499999D02*
X99365000Y-113500000D01*
X100030000Y-85590000D02*
X96420000Y-85590000D01*
X104525000Y-113580000D02*
X104445000Y-113500000D01*
X110780000Y-96650000D02*
X110780000Y-87440000D01*
X109810000Y-114090000D02*
X109810000Y-107940000D01*
X95555000Y-86455000D02*
X95555000Y-87500000D01*
X96420000Y-85590000D02*
X95555000Y-86455000D01*
X110780000Y-87440000D02*
X111430000Y-86790000D01*
X109810000Y-107940000D02*
X118707500Y-99042500D01*
X100635000Y-87500000D02*
X100635000Y-86195000D01*
X118707500Y-99042500D02*
X118707500Y-98995000D01*
X107285000Y-114900000D02*
X106635000Y-114250000D01*
X104445000Y-114499999D02*
X103754999Y-115190000D01*
X111430000Y-86790000D02*
X113930000Y-86790000D01*
X109000000Y-114900000D02*
X109810000Y-114090000D01*
X100055001Y-115190000D02*
X99365000Y-114499999D01*
X103754999Y-115190000D02*
X100055001Y-115190000D01*
X106635000Y-114250000D02*
X105965000Y-113580000D01*
X95555000Y-88335000D02*
X105770000Y-98550000D01*
X95555000Y-87500000D02*
X95555000Y-88335000D01*
X113930000Y-86790000D02*
X114510000Y-87370000D01*
X105965000Y-113580000D02*
X104525000Y-113580000D01*
X104445000Y-113500000D02*
X104445000Y-114499999D01*
X105770000Y-98550000D02*
X108880000Y-98550000D01*
X109000000Y-114900000D02*
X107285000Y-114900000D01*
D27*
%TO.N,/TopLevelDesign/HBridge/H1_OUTB1*%
X102250000Y-80180000D02*
X100635000Y-81795000D01*
X128348424Y-73950556D02*
X128348424Y-76071576D01*
X128348424Y-76071576D02*
X124240000Y-80180000D01*
X124240000Y-80180000D02*
X102250000Y-80180000D01*
X129348424Y-72950556D02*
X128348424Y-73950556D01*
X100635000Y-81795000D02*
X100635000Y-82500000D01*
%TO.N,/TopLevelDesign/HBridge/H1_OUTA1*%
X132040000Y-73490000D02*
X124490000Y-81040000D01*
X130120000Y-70320000D02*
X132040000Y-72240000D01*
X124490000Y-81040000D02*
X105905000Y-81040000D01*
X132040000Y-72240000D02*
X132040000Y-73490000D01*
X127552373Y-71154505D02*
X128386878Y-70320000D01*
X105905000Y-81040000D02*
X104445000Y-82500000D01*
X128386878Y-70320000D02*
X130120000Y-70320000D01*
%TO.N,/TopLevelDesign/MCU/PA0*%
X106210000Y-103010000D02*
X112460000Y-96760000D01*
X112460000Y-96760000D02*
X112460000Y-87895000D01*
X101990000Y-103010000D02*
X106210000Y-103010000D01*
%TO.N,/TopLevelDesign/HBridge/H1_OUTB2*%
X93994000Y-80939000D02*
X95555000Y-82500000D01*
X72538980Y-70870000D02*
X71110000Y-70870000D01*
X69170000Y-73990000D02*
X76119000Y-80939000D01*
X71110000Y-70870000D02*
X69170000Y-72810000D01*
X69170000Y-72810000D02*
X69170000Y-73990000D01*
X73080556Y-71411576D02*
X72538980Y-70870000D01*
X76119000Y-80939000D02*
X93994000Y-80939000D01*
%TO.N,/TopLevelDesign/HBridge/H1_OUTA2*%
X76981320Y-80220000D02*
X97570000Y-80220000D01*
X97570000Y-80220000D02*
X99365000Y-82015000D01*
X99365000Y-82015000D02*
X99365000Y-82500000D01*
X71284505Y-74523185D02*
X76981320Y-80220000D01*
X71284505Y-73207627D02*
X71284505Y-74523185D01*
%TO.N,/TopLevelDesign/HBridge/H2_OUTB1*%
X99365000Y-118871968D02*
X99365000Y-118500000D01*
X97896968Y-120340000D02*
X99365000Y-118871968D01*
X76420000Y-120340000D02*
X97896968Y-120340000D01*
X71541576Y-125218424D02*
X76420000Y-120340000D01*
X71541576Y-127539444D02*
X71541576Y-125218424D01*
%TO.N,/TopLevelDesign/HBridge/H2_OUTA1*%
X73337627Y-129335495D02*
X73043122Y-129630000D01*
X95365000Y-118690000D02*
X95555000Y-118500000D01*
X73043122Y-129630000D02*
X70890000Y-129630000D01*
X76670000Y-118690000D02*
X95365000Y-118690000D01*
X69210000Y-127950000D02*
X69210000Y-126150000D01*
X70890000Y-129630000D02*
X69210000Y-127950000D01*
X69210000Y-126150000D02*
X76670000Y-118690000D01*
%TO.N,/TopLevelDesign/HBridge/H2_OUTA2*%
X100635000Y-119475000D02*
X100635000Y-118500000D01*
X129545495Y-125875495D02*
X124640000Y-120970000D01*
X124640000Y-120970000D02*
X102130000Y-120970000D01*
X102130000Y-120970000D02*
X100635000Y-119475000D01*
X129545495Y-127492373D02*
X129545495Y-125875495D01*
%TO.N,/TopLevelDesign/HBridge/H2_OUTB2*%
X104445000Y-118500000D02*
X105561878Y-118500000D01*
X130270000Y-129880000D02*
X128341020Y-129880000D01*
X128341020Y-129880000D02*
X127749444Y-129288424D01*
X107471878Y-120410000D02*
X125170000Y-120410000D01*
X125170000Y-120410000D02*
X131500000Y-126740000D01*
X105561878Y-118500000D02*
X107471878Y-120410000D01*
X131500000Y-128650000D02*
X130270000Y-129880000D01*
X131500000Y-126740000D02*
X131500000Y-128650000D01*
%TO.N,/TopLevelDesign/PB7*%
X97480000Y-97400000D02*
X97480000Y-95780000D01*
X97400000Y-95700000D02*
X97500000Y-95700000D01*
X93000000Y-101880000D02*
X97480000Y-97400000D01*
X97480000Y-95780000D02*
X97400000Y-95700000D01*
%TO.N,/TopLevelDesign/PB5*%
X95320000Y-91720000D02*
X93000000Y-91720000D01*
X97685421Y-93712149D02*
X97312149Y-93712149D01*
X97312149Y-93712149D02*
X95320000Y-91720000D01*
%TO.N,/TopLevelDesign/PB6*%
X98330000Y-99090000D02*
X93000000Y-104420000D01*
X97500000Y-94898581D02*
X97501416Y-94899997D01*
X97501416Y-94899997D02*
X97899997Y-94899997D01*
X97899997Y-94899997D02*
X98330000Y-95330000D01*
X98330000Y-95330000D02*
X98330000Y-99090000D01*
%TO.N,/TopLevelDesign/PB4*%
X91950000Y-90440000D02*
X95450000Y-90440000D01*
X98210000Y-93200000D02*
X98300000Y-93200000D01*
X93000000Y-94260000D02*
X91480000Y-92740000D01*
X95450000Y-90440000D02*
X98210000Y-93200000D01*
X91480000Y-90910000D02*
X91950000Y-90440000D01*
X91480000Y-92740000D02*
X91480000Y-90910000D01*
%TO.N,/TopLevelDesign/PA15*%
X83245000Y-104615000D02*
X85180000Y-106550000D01*
X83245000Y-103790000D02*
X83245000Y-104615000D01*
X88230000Y-105160000D02*
X88870000Y-104520000D01*
X85180000Y-106550000D02*
X86840000Y-106550000D01*
X88870000Y-104520000D02*
X88870000Y-100190000D01*
X86840000Y-106550000D02*
X88230000Y-105160000D01*
%TO.N,/TopLevelDesign/PB11*%
X107820000Y-102900000D02*
X107820000Y-102340000D01*
X107820000Y-102340000D02*
X115330000Y-94830000D01*
X107870000Y-102950000D02*
X107820000Y-102900000D01*
X115330000Y-94830000D02*
X115330000Y-91310000D01*
X115330000Y-91310000D02*
X119500000Y-87140000D01*
%TO.N,/TopLevelDesign/PB10*%
X117500000Y-91680000D02*
X119500000Y-89680000D01*
X117500000Y-94530000D02*
X117500000Y-91680000D01*
X107720000Y-103940000D02*
X108090000Y-103940000D01*
X108090000Y-103940000D02*
X117500000Y-94530000D01*
%TO.N,/TopLevelDesign/HBridge/H2_INB2*%
X107870000Y-110270000D02*
X105405001Y-110270000D01*
X108910000Y-109230000D02*
X107870000Y-110270000D01*
X103175000Y-112500001D02*
X103175000Y-113500000D01*
X105405001Y-110270000D02*
X103175000Y-112500001D01*
%TO.N,/TopLevelDesign/HBridge/H1_INB2*%
X96825000Y-88475000D02*
X96825000Y-87500000D01*
X100380000Y-92030000D02*
X96825000Y-88475000D01*
X106780000Y-92030000D02*
X100380000Y-92030000D01*
%TO.N,/TopLevelDesign/HBridge/H2_INA1*%
X104540000Y-107570000D02*
X101755001Y-107570000D01*
X96825000Y-112500001D02*
X96825000Y-113500000D01*
X101755001Y-107570000D02*
X96825000Y-112500001D01*
X105888275Y-106221725D02*
X104540000Y-107570000D01*
%TO.N,/TopLevelDesign/HBridge/H1_INA2*%
X107070000Y-91037692D02*
X106877692Y-91230000D01*
X107070000Y-90640000D02*
X107070000Y-91037692D01*
X106443686Y-91230000D02*
X106443683Y-91229997D01*
X100839997Y-91229997D02*
X98095000Y-88485000D01*
X106443683Y-91229997D02*
X100839997Y-91229997D01*
X98095000Y-88485000D02*
X98095000Y-87500000D01*
X106877692Y-91230000D02*
X106443686Y-91230000D01*
%TO.N,/TopLevelDesign/HBridge/H1_INB1*%
X102810000Y-90040000D02*
X101905000Y-89135000D01*
X101905000Y-89135000D02*
X101905000Y-87500000D01*
X106885871Y-90040000D02*
X102810000Y-90040000D01*
X107160158Y-89765713D02*
X106885871Y-90040000D01*
%TO.N,/TopLevelDesign/HBridge/H2_INB1*%
X98095000Y-113500000D02*
X98095000Y-112500001D01*
X105730000Y-108440000D02*
X106940000Y-107230000D01*
X102155001Y-108440000D02*
X105730000Y-108440000D01*
X98095000Y-112500001D02*
X102155001Y-108440000D01*
%TO.N,/TopLevelDesign/HBridge/H1_INA1*%
X103175000Y-88675000D02*
X103175000Y-87500000D01*
X107360000Y-88360000D02*
X107360000Y-88850000D01*
X103680000Y-89180000D02*
X103175000Y-88675000D01*
X107030000Y-89180000D02*
X103680000Y-89180000D01*
X107360000Y-88850000D02*
X107030000Y-89180000D01*
%TO.N,/TopLevelDesign/HBridge/H2_INA2*%
X107768275Y-108101725D02*
X106550000Y-109320000D01*
X105085001Y-109320000D02*
X101905000Y-112500001D01*
X101905000Y-112500001D02*
X101905000Y-113500000D01*
X106550000Y-109320000D02*
X105085001Y-109320000D01*
%TD*%
%TA.AperFunction,Conductor*%
%TO.N,GND*%
G36*
X104989559Y-108854852D02*
G01*
X105003911Y-108889500D01*
X104989559Y-108924148D01*
X104967594Y-108936830D01*
X104930415Y-108946792D01*
X104930411Y-108946793D01*
X104839087Y-108999520D01*
X104839087Y-108999521D01*
X103954148Y-109884460D01*
X103919500Y-109898812D01*
X103884852Y-109884460D01*
X103870500Y-109849812D01*
X103870500Y-109710940D01*
X103870499Y-109710939D01*
X103861851Y-109678665D01*
X103829577Y-109558216D01*
X103829576Y-109558215D01*
X103829576Y-109558213D01*
X103750524Y-109421290D01*
X103750521Y-109421287D01*
X103750520Y-109421284D01*
X103638716Y-109309480D01*
X103638713Y-109309478D01*
X103638709Y-109309475D01*
X103501786Y-109230423D01*
X103501782Y-109230422D01*
X103349060Y-109189500D01*
X103349057Y-109189500D01*
X103190943Y-109189500D01*
X103190940Y-109189500D01*
X103038217Y-109230422D01*
X103038213Y-109230423D01*
X102901290Y-109309475D01*
X102901281Y-109309482D01*
X102789482Y-109421281D01*
X102789475Y-109421290D01*
X102710423Y-109558213D01*
X102710422Y-109558217D01*
X102669500Y-109710939D01*
X102669500Y-109754313D01*
X102655148Y-109788961D01*
X102496795Y-109947313D01*
X102474830Y-109959995D01*
X102421905Y-109974177D01*
X102421901Y-109974178D01*
X102322596Y-110031513D01*
X102322596Y-110031514D01*
X100286514Y-112067596D01*
X100286513Y-112067596D01*
X100229179Y-112166900D01*
X100229179Y-112166902D01*
X100199499Y-112277664D01*
X100199081Y-112280846D01*
X100197599Y-112280651D01*
X100185148Y-112310712D01*
X100179598Y-112315489D01*
X100162848Y-112327851D01*
X100082208Y-112437114D01*
X100082204Y-112437123D01*
X100046250Y-112539876D01*
X100021261Y-112567840D01*
X99983817Y-112569943D01*
X99955853Y-112544954D01*
X99953750Y-112539876D01*
X99917795Y-112437123D01*
X99917791Y-112437114D01*
X99837150Y-112327849D01*
X99727885Y-112247208D01*
X99727876Y-112247204D01*
X99599698Y-112202353D01*
X99569275Y-112199500D01*
X99569266Y-112199500D01*
X99160734Y-112199500D01*
X99160724Y-112199500D01*
X99130304Y-112202353D01*
X99069490Y-112223632D01*
X99032046Y-112221528D01*
X99007056Y-112193564D01*
X99009160Y-112156120D01*
X99018656Y-112142736D01*
X102306542Y-108854852D01*
X102341190Y-108840500D01*
X104954911Y-108840500D01*
X104989559Y-108854852D01*
G37*
%TD.AperFunction*%
%TA.AperFunction,Conductor*%
G36*
X120544301Y-87743353D02*
G01*
X120563897Y-87775329D01*
X120564500Y-87782995D01*
X120564500Y-89037004D01*
X120550148Y-89071652D01*
X120515500Y-89086004D01*
X120480852Y-89071652D01*
X120475858Y-89065805D01*
X120454933Y-89037004D01*
X120377553Y-88930499D01*
X120377551Y-88930497D01*
X120377548Y-88930493D01*
X120249507Y-88802452D01*
X120249502Y-88802448D01*
X120246821Y-88800500D01*
X120102994Y-88696004D01*
X119941639Y-88613789D01*
X119941638Y-88613788D01*
X119941637Y-88613788D01*
X119769409Y-88557829D01*
X119769406Y-88557828D01*
X119632007Y-88536066D01*
X119590546Y-88529500D01*
X119409454Y-88529500D01*
X119375794Y-88534831D01*
X119230593Y-88557828D01*
X119230590Y-88557829D01*
X119058362Y-88613788D01*
X118897006Y-88696004D01*
X118750497Y-88802448D01*
X118622448Y-88930497D01*
X118516004Y-89077006D01*
X118433788Y-89238362D01*
X118377829Y-89410590D01*
X118377828Y-89410593D01*
X118349500Y-89589454D01*
X118349500Y-89770545D01*
X118377828Y-89949406D01*
X118377829Y-89949409D01*
X118433789Y-90121639D01*
X118433792Y-90121647D01*
X118437264Y-90128461D01*
X118440205Y-90165848D01*
X118428252Y-90185353D01*
X117179521Y-91434085D01*
X117179520Y-91434086D01*
X117126793Y-91525410D01*
X117126792Y-91525412D01*
X117105949Y-91603204D01*
X117105949Y-91603205D01*
X117099500Y-91627271D01*
X117099500Y-94343811D01*
X117085148Y-94378459D01*
X108554148Y-102909459D01*
X108519500Y-102923811D01*
X108484852Y-102909459D01*
X108470500Y-102874811D01*
X108470500Y-102870940D01*
X108470499Y-102870939D01*
X108429577Y-102718217D01*
X108429576Y-102718213D01*
X108350524Y-102581290D01*
X108350521Y-102581287D01*
X108350520Y-102581284D01*
X108282462Y-102513226D01*
X108268110Y-102478578D01*
X108282462Y-102443930D01*
X111925847Y-98800545D01*
X115650480Y-95075913D01*
X115703207Y-94984588D01*
X115730499Y-94882730D01*
X115730500Y-94882730D01*
X115730500Y-91496187D01*
X115744851Y-91461540D01*
X118994646Y-88211744D01*
X119029293Y-88197393D01*
X119051539Y-88202735D01*
X119058361Y-88206211D01*
X119230591Y-88262171D01*
X119409454Y-88290500D01*
X119409455Y-88290500D01*
X119590545Y-88290500D01*
X119590546Y-88290500D01*
X119769409Y-88262171D01*
X119941639Y-88206211D01*
X120102994Y-88123996D01*
X120249501Y-88017553D01*
X120249504Y-88017549D01*
X120249507Y-88017548D01*
X120377548Y-87889507D01*
X120377549Y-87889504D01*
X120377553Y-87889501D01*
X120475859Y-87754193D01*
X120507834Y-87734598D01*
X120544301Y-87743353D01*
G37*
%TD.AperFunction*%
%TA.AperFunction,Conductor*%
G36*
X101314147Y-88455045D02*
G01*
X101316250Y-88460123D01*
X101352204Y-88562876D01*
X101352208Y-88562885D01*
X101432845Y-88672144D01*
X101432847Y-88672146D01*
X101432850Y-88672150D01*
X101484598Y-88710341D01*
X101503953Y-88742461D01*
X101504500Y-88749765D01*
X101504500Y-89187730D01*
X101531792Y-89289587D01*
X101531793Y-89289589D01*
X101547813Y-89317336D01*
X101584520Y-89380913D01*
X102564087Y-90360480D01*
X102630938Y-90399077D01*
X102655410Y-90413206D01*
X102655412Y-90413207D01*
X102757269Y-90440499D01*
X102757270Y-90440500D01*
X102757273Y-90440500D01*
X106437915Y-90440500D01*
X106472563Y-90454852D01*
X106486915Y-90489500D01*
X106485245Y-90502183D01*
X106469500Y-90560941D01*
X106469500Y-90719060D01*
X106482564Y-90767815D01*
X106477669Y-90804997D01*
X106447916Y-90827827D01*
X106435234Y-90829497D01*
X101026186Y-90829497D01*
X100991538Y-90815145D01*
X99041732Y-88865339D01*
X99027380Y-88830691D01*
X99041732Y-88796043D01*
X99076380Y-88781691D01*
X99092562Y-88784440D01*
X99130301Y-88797646D01*
X99160734Y-88800500D01*
X99160744Y-88800500D01*
X99569256Y-88800500D01*
X99569266Y-88800500D01*
X99599699Y-88797646D01*
X99727882Y-88752793D01*
X99741882Y-88742461D01*
X99837150Y-88672150D01*
X99917791Y-88562885D01*
X99917791Y-88562884D01*
X99917793Y-88562882D01*
X99941506Y-88495113D01*
X99953750Y-88460123D01*
X99978739Y-88432159D01*
X100016183Y-88430056D01*
X100044147Y-88455045D01*
X100046250Y-88460123D01*
X100082204Y-88562876D01*
X100082208Y-88562885D01*
X100162849Y-88672150D01*
X100272114Y-88752791D01*
X100272117Y-88752792D01*
X100272118Y-88752793D01*
X100272120Y-88752793D01*
X100272123Y-88752795D01*
X100354704Y-88781691D01*
X100400301Y-88797646D01*
X100430734Y-88800500D01*
X100430744Y-88800500D01*
X100839256Y-88800500D01*
X100839266Y-88800500D01*
X100869699Y-88797646D01*
X100997882Y-88752793D01*
X101011882Y-88742461D01*
X101107150Y-88672150D01*
X101187791Y-88562885D01*
X101187791Y-88562884D01*
X101187793Y-88562882D01*
X101211506Y-88495113D01*
X101223750Y-88460123D01*
X101248739Y-88432159D01*
X101286183Y-88430056D01*
X101314147Y-88455045D01*
G37*
%TD.AperFunction*%
%TA.AperFunction,Conductor*%
G36*
X138403619Y-50821746D02*
G01*
X138406390Y-50821872D01*
X139084596Y-50872143D01*
X139087330Y-50872424D01*
X139761592Y-50961193D01*
X139764339Y-50961635D01*
X140432436Y-51088610D01*
X140435115Y-51089198D01*
X141094938Y-51253976D01*
X141097584Y-51254717D01*
X141746958Y-51456760D01*
X141749584Y-51457660D01*
X142386397Y-51696306D01*
X142388938Y-51697341D01*
X143011197Y-51971847D01*
X143013655Y-51973016D01*
X143505601Y-52224382D01*
X143619251Y-52282453D01*
X143621697Y-52283792D01*
X144208687Y-52627160D01*
X144211053Y-52628636D01*
X144431544Y-52775058D01*
X144777562Y-53004839D01*
X144779831Y-53006440D01*
X145324030Y-53414263D01*
X145326213Y-53415998D01*
X145846330Y-53854113D01*
X145848410Y-53855969D01*
X146342759Y-54322956D01*
X146344731Y-54324928D01*
X146811716Y-54819277D01*
X146813572Y-54821357D01*
X147251686Y-55341475D01*
X147253421Y-55343658D01*
X147661237Y-55887850D01*
X147662845Y-55890128D01*
X148039045Y-56456637D01*
X148040521Y-56459003D01*
X148383889Y-57045993D01*
X148385228Y-57048439D01*
X148694648Y-57654006D01*
X148695846Y-57656524D01*
X148970327Y-58278729D01*
X148971379Y-58281311D01*
X149210015Y-58918102D01*
X149210919Y-58920740D01*
X149412952Y-59570089D01*
X149413704Y-59572774D01*
X149578472Y-60232556D01*
X149579070Y-60235279D01*
X149706037Y-60903351D01*
X149706480Y-60906104D01*
X149795245Y-61580344D01*
X149795530Y-61583118D01*
X149845797Y-62261297D01*
X149845924Y-62264082D01*
X149857535Y-62944033D01*
X149857503Y-62946822D01*
X149830417Y-63626317D01*
X149830227Y-63629099D01*
X149764532Y-64305966D01*
X149764184Y-64308732D01*
X149660096Y-64980767D01*
X149659591Y-64983509D01*
X149517441Y-65648544D01*
X149516780Y-65651253D01*
X149337041Y-66307091D01*
X149336228Y-66309758D01*
X149119467Y-66954334D01*
X149118504Y-66956951D01*
X148865428Y-67588156D01*
X148864317Y-67590714D01*
X148575744Y-68206506D01*
X148574489Y-68208996D01*
X148251367Y-68807356D01*
X148249973Y-68809770D01*
X147893328Y-69388798D01*
X147891799Y-69391130D01*
X147502795Y-69948932D01*
X147501135Y-69951173D01*
X147081043Y-70485933D01*
X147079259Y-70488076D01*
X146629420Y-70998082D01*
X146627517Y-71000119D01*
X146149392Y-71483717D01*
X146147376Y-71485644D01*
X145642514Y-71941264D01*
X145640392Y-71943072D01*
X145235158Y-72268940D01*
X145110459Y-72369216D01*
X145108237Y-72370901D01*
X144554896Y-72766228D01*
X144552582Y-72767784D01*
X143977643Y-73131000D01*
X143975244Y-73132421D01*
X143380598Y-73462332D01*
X143378122Y-73463615D01*
X142765662Y-73759174D01*
X142763117Y-73760314D01*
X142134835Y-74020556D01*
X142132230Y-74021549D01*
X141490174Y-74245628D01*
X141487516Y-74246472D01*
X140833740Y-74433670D01*
X140831039Y-74434361D01*
X140167673Y-74584068D01*
X140164937Y-74584604D01*
X139494140Y-74696334D01*
X139491377Y-74696714D01*
X138815302Y-74770106D01*
X138812523Y-74770328D01*
X138133360Y-74805146D01*
X138130572Y-74805209D01*
X137450551Y-74801337D01*
X137447764Y-74801242D01*
X136769038Y-74758695D01*
X136766262Y-74758441D01*
X136091079Y-74677358D01*
X136088321Y-74676947D01*
X135418837Y-74557588D01*
X135416107Y-74557021D01*
X134786075Y-74407279D01*
X134785405Y-74407115D01*
X134781685Y-74406175D01*
X134759605Y-74396744D01*
X134724468Y-74391723D01*
X134721960Y-74391090D01*
X134721889Y-74391037D01*
X134721280Y-74390913D01*
X134689486Y-74382395D01*
X134689485Y-74382395D01*
X134659161Y-74382395D01*
X134629145Y-74378107D01*
X134593551Y-74382395D01*
X134557700Y-74382395D01*
X134557698Y-74382395D01*
X134531773Y-74389340D01*
X134524957Y-74390657D01*
X134498305Y-74393869D01*
X134467756Y-74406130D01*
X134465022Y-74407227D01*
X134430407Y-74416503D01*
X134404148Y-74431662D01*
X134400914Y-74432961D01*
X134376007Y-74442958D01*
X134376000Y-74442962D01*
X134349676Y-74462704D01*
X134344780Y-74465937D01*
X134316277Y-74482395D01*
X134316275Y-74482396D01*
X134297298Y-74501373D01*
X134292051Y-74505924D01*
X133879754Y-74815148D01*
X133016051Y-75510513D01*
X132176719Y-76235140D01*
X131362785Y-76988141D01*
X130575171Y-77768662D01*
X129814824Y-78575766D01*
X129416062Y-79029292D01*
X129082646Y-79408497D01*
X129082629Y-79408518D01*
X128379487Y-80265882D01*
X127706184Y-81146909D01*
X127063543Y-82050518D01*
X126452288Y-82975692D01*
X125873177Y-83921283D01*
X125326880Y-84886198D01*
X124853956Y-85792784D01*
X124814028Y-85869326D01*
X124736849Y-86030546D01*
X124335234Y-86869482D01*
X123891078Y-87885466D01*
X123482056Y-88916136D01*
X123108684Y-89960192D01*
X122771363Y-91016513D01*
X122493008Y-92003995D01*
X122470525Y-92083755D01*
X122411876Y-92322991D01*
X122206504Y-93160722D01*
X121979625Y-94246092D01*
X121790147Y-95338628D01*
X121638296Y-96437014D01*
X121524249Y-97539994D01*
X121448146Y-98646202D01*
X121410070Y-99754399D01*
X121410070Y-100863250D01*
X121448146Y-101971447D01*
X121524249Y-103077655D01*
X121638296Y-104180635D01*
X121790147Y-105279021D01*
X121979625Y-106371557D01*
X122206504Y-107456927D01*
X122274186Y-107733009D01*
X122470525Y-108533895D01*
X122490607Y-108605136D01*
X122771363Y-109601136D01*
X123108684Y-110657457D01*
X123482056Y-111701513D01*
X123891078Y-112732183D01*
X124335234Y-113748167D01*
X124335239Y-113748177D01*
X124814028Y-114748324D01*
X124954374Y-115017365D01*
X125326880Y-115731451D01*
X125873177Y-116696366D01*
X126452288Y-117641957D01*
X127063543Y-118567131D01*
X127706173Y-119470725D01*
X127706190Y-119470748D01*
X127799503Y-119592850D01*
X128379487Y-120351767D01*
X128489453Y-120485852D01*
X129082646Y-121209153D01*
X129661023Y-121866960D01*
X129814814Y-122041872D01*
X129814827Y-122041886D01*
X130575170Y-122848987D01*
X131362779Y-123629503D01*
X131591526Y-123841125D01*
X132176719Y-124382509D01*
X132984829Y-125080181D01*
X133016047Y-125107132D01*
X133879756Y-125802503D01*
X134294836Y-126113813D01*
X134316278Y-126135255D01*
X134347326Y-126153180D01*
X134349676Y-126154943D01*
X134349676Y-126154944D01*
X134376004Y-126174689D01*
X134376007Y-126174691D01*
X134404148Y-126185986D01*
X134430407Y-126201147D01*
X134465031Y-126210424D01*
X134498307Y-126223781D01*
X134498306Y-126223781D01*
X134504317Y-126224505D01*
X134528414Y-126227408D01*
X134557700Y-126235255D01*
X134593551Y-126235255D01*
X134629145Y-126239543D01*
X134652765Y-126236168D01*
X134655718Y-126235747D01*
X134659162Y-126235255D01*
X134689485Y-126235255D01*
X134724114Y-126225976D01*
X134759605Y-126220906D01*
X134778164Y-126212977D01*
X134786066Y-126210372D01*
X135416119Y-126060626D01*
X135418826Y-126060064D01*
X136088342Y-125940699D01*
X136091060Y-125940294D01*
X136766276Y-125859207D01*
X136769025Y-125858956D01*
X137447766Y-125816407D01*
X137450549Y-125816313D01*
X138130607Y-125812441D01*
X138133326Y-125812503D01*
X138812547Y-125847323D01*
X138815278Y-125847542D01*
X139491406Y-125920940D01*
X139494110Y-125921311D01*
X140164953Y-126033049D01*
X140167657Y-126033578D01*
X140831048Y-126183291D01*
X140833730Y-126183977D01*
X141487539Y-126371185D01*
X141490150Y-126372014D01*
X142132239Y-126596104D01*
X142134827Y-126597090D01*
X142763136Y-126857343D01*
X142765643Y-126858466D01*
X143243141Y-127088896D01*
X143378122Y-127154035D01*
X143380598Y-127155318D01*
X143975244Y-127485229D01*
X143977633Y-127486644D01*
X144552581Y-127849866D01*
X144554894Y-127851421D01*
X145108248Y-128246758D01*
X145110445Y-128248425D01*
X145640391Y-128674577D01*
X145642507Y-128676379D01*
X146052932Y-129046774D01*
X146147375Y-129132005D01*
X146149391Y-129133932D01*
X146627517Y-129617531D01*
X146629420Y-129619568D01*
X147079258Y-130129574D01*
X147081042Y-130131717D01*
X147501135Y-130666476D01*
X147502795Y-130668717D01*
X147891798Y-131226520D01*
X147893327Y-131228851D01*
X148249972Y-131807878D01*
X148251366Y-131810293D01*
X148574489Y-132408653D01*
X148575744Y-132411143D01*
X148864316Y-133026935D01*
X148865427Y-133029493D01*
X149118503Y-133660698D01*
X149119466Y-133663315D01*
X149336227Y-134307891D01*
X149337040Y-134310558D01*
X149516779Y-134966396D01*
X149517440Y-134969105D01*
X149659590Y-135634140D01*
X149660095Y-135636882D01*
X149764183Y-136308917D01*
X149764531Y-136311683D01*
X149830226Y-136988550D01*
X149830416Y-136991332D01*
X149857502Y-137670827D01*
X149857534Y-137673616D01*
X149845923Y-138353567D01*
X149845796Y-138356352D01*
X149795529Y-139034531D01*
X149795244Y-139037305D01*
X149706479Y-139711545D01*
X149706036Y-139714298D01*
X149579069Y-140382370D01*
X149578471Y-140385093D01*
X149413703Y-141044875D01*
X149412951Y-141047560D01*
X149210918Y-141696908D01*
X149210014Y-141699546D01*
X148971378Y-142336338D01*
X148970326Y-142338920D01*
X148695845Y-142961125D01*
X148694647Y-142963643D01*
X148385227Y-143569209D01*
X148383888Y-143571655D01*
X148040521Y-144158645D01*
X148039045Y-144161011D01*
X147662844Y-144727521D01*
X147661236Y-144729799D01*
X147253421Y-145273990D01*
X147251686Y-145276173D01*
X146813571Y-145796291D01*
X146811715Y-145798371D01*
X146344730Y-146292721D01*
X146342758Y-146294693D01*
X145848409Y-146761679D01*
X145846329Y-146763535D01*
X145326212Y-147201651D01*
X145324029Y-147203386D01*
X144779839Y-147611202D01*
X144777561Y-147612810D01*
X144211052Y-147989012D01*
X144208686Y-147990488D01*
X143621696Y-148333856D01*
X143619250Y-148335195D01*
X143013669Y-148644624D01*
X143011151Y-148645821D01*
X142388977Y-148920290D01*
X142386395Y-148921343D01*
X141749589Y-149159986D01*
X141746951Y-149160890D01*
X141097603Y-149362925D01*
X141094918Y-149363677D01*
X140435137Y-149528445D01*
X140432414Y-149529043D01*
X139764342Y-149656012D01*
X139761589Y-149656455D01*
X139087349Y-149745222D01*
X139084575Y-149745507D01*
X138406397Y-149795775D01*
X138403612Y-149795902D01*
X137723660Y-149807514D01*
X137720871Y-149807482D01*
X137041375Y-149780397D01*
X137038594Y-149780207D01*
X136361730Y-149714515D01*
X136358963Y-149714167D01*
X135686926Y-149610079D01*
X135684184Y-149609574D01*
X135019148Y-149467425D01*
X135016439Y-149466764D01*
X134360595Y-149287026D01*
X134357928Y-149286213D01*
X133713364Y-149069456D01*
X133710747Y-149068493D01*
X133079529Y-148815413D01*
X133076972Y-148814302D01*
X132461192Y-148525737D01*
X132458701Y-148524482D01*
X131860326Y-148201354D01*
X131857912Y-148199960D01*
X131278899Y-147843325D01*
X131276567Y-147841796D01*
X130718757Y-147452789D01*
X130716516Y-147451129D01*
X130181755Y-147031037D01*
X130179612Y-147029253D01*
X129669596Y-146579408D01*
X129667559Y-146577505D01*
X129381508Y-146294693D01*
X129183971Y-146099392D01*
X129182050Y-146097382D01*
X129037820Y-145937565D01*
X128726423Y-145592515D01*
X128724620Y-145590398D01*
X128471080Y-145275108D01*
X128298461Y-145060446D01*
X128296778Y-145058227D01*
X127901456Y-144504895D01*
X127899900Y-144502581D01*
X127536682Y-143927643D01*
X127535261Y-143925244D01*
X127205349Y-143330599D01*
X127204066Y-143328123D01*
X127028175Y-142963642D01*
X126908501Y-142715654D01*
X126907375Y-142713142D01*
X126647117Y-142084827D01*
X126646127Y-142082227D01*
X126569200Y-141861807D01*
X126422041Y-141440153D01*
X126421212Y-141437542D01*
X126234003Y-140783734D01*
X126233315Y-140781042D01*
X126164868Y-140477750D01*
X126083602Y-140117660D01*
X126083070Y-140114940D01*
X125971335Y-139444114D01*
X125970964Y-139441410D01*
X125897564Y-138765282D01*
X125897345Y-138762551D01*
X125862524Y-138083330D01*
X125862462Y-138080610D01*
X125866332Y-137400553D01*
X125866427Y-137397768D01*
X125891992Y-136989934D01*
X125908974Y-136719030D01*
X125909227Y-136716267D01*
X125928432Y-136556343D01*
X125990310Y-136041064D01*
X125990715Y-136038346D01*
X126110079Y-135368829D01*
X126110644Y-135366111D01*
X126205645Y-134966392D01*
X126260400Y-134736006D01*
X126260549Y-134735402D01*
X126261489Y-134731677D01*
X126270918Y-134709607D01*
X126275936Y-134674469D01*
X126276571Y-134671958D01*
X126276623Y-134671888D01*
X126276749Y-134671273D01*
X126285267Y-134639488D01*
X126285267Y-134612649D01*
X126285759Y-134605720D01*
X126289555Y-134579148D01*
X126285619Y-134546477D01*
X126285267Y-134540616D01*
X126285267Y-134507703D01*
X126278319Y-134481775D01*
X126278319Y-134481774D01*
X126277417Y-134478411D01*
X126273792Y-134448310D01*
X126260438Y-134415042D01*
X126251159Y-134380410D01*
X126235995Y-134354145D01*
X126224702Y-134326010D01*
X126203195Y-134297334D01*
X126185267Y-134266281D01*
X126166277Y-134247292D01*
X126161732Y-134242051D01*
X125852511Y-133829759D01*
X125792996Y-133755837D01*
X125157140Y-132966055D01*
X124432520Y-132126736D01*
X124432515Y-132126730D01*
X123679499Y-131312784D01*
X122899006Y-130525204D01*
X122091886Y-129764845D01*
X121466693Y-129215148D01*
X121259155Y-129032671D01*
X120724581Y-128594259D01*
X120401768Y-128329515D01*
X119520740Y-127656215D01*
X118617132Y-127013578D01*
X117691958Y-126402325D01*
X116746365Y-125823217D01*
X115781451Y-125276923D01*
X114982119Y-124859949D01*
X114798325Y-124764072D01*
X113798178Y-124285286D01*
X113798168Y-124285281D01*
X112782186Y-123841127D01*
X111751516Y-123432107D01*
X110707460Y-123058737D01*
X109651141Y-122721418D01*
X108763053Y-122471082D01*
X108583901Y-122420582D01*
X107905885Y-122254365D01*
X107506935Y-122156562D01*
X106421566Y-121929684D01*
X105329031Y-121740207D01*
X104230647Y-121588357D01*
X103127668Y-121474310D01*
X103041522Y-121468384D01*
X103007940Y-121451688D01*
X102996001Y-121416137D01*
X103012697Y-121382555D01*
X103044885Y-121370500D01*
X124453811Y-121370500D01*
X124488459Y-121384852D01*
X129116497Y-126012889D01*
X129130849Y-126047537D01*
X129116497Y-126082185D01*
X128065100Y-127133581D01*
X128065097Y-127133585D01*
X128010054Y-127203650D01*
X128010052Y-127203654D01*
X127949767Y-127342445D01*
X127949765Y-127342452D01*
X127929159Y-127492373D01*
X127949765Y-127642293D01*
X127949767Y-127642300D01*
X128010052Y-127781091D01*
X128010054Y-127781095D01*
X128045660Y-127826418D01*
X128064075Y-127849860D01*
X128065097Y-127851160D01*
X128065100Y-127851164D01*
X128176152Y-127962216D01*
X128190504Y-127996864D01*
X128176152Y-128031512D01*
X128141504Y-128045864D01*
X128126362Y-128043466D01*
X128053978Y-128019947D01*
X128053975Y-128019946D01*
X127898664Y-127995347D01*
X127851796Y-127987924D01*
X127647092Y-127987924D01*
X127609043Y-127993950D01*
X127444912Y-128019946D01*
X127444909Y-128019947D01*
X127250226Y-128083203D01*
X127067831Y-128176138D01*
X127067828Y-128176140D01*
X126902223Y-128296459D01*
X126757479Y-128441203D01*
X126637160Y-128606808D01*
X126637158Y-128606811D01*
X126544223Y-128789206D01*
X126480967Y-128983889D01*
X126480966Y-128983892D01*
X126448944Y-129186072D01*
X126448944Y-129390775D01*
X126480966Y-129592955D01*
X126480967Y-129592958D01*
X126544223Y-129787641D01*
X126637158Y-129970036D01*
X126637160Y-129970039D01*
X126721168Y-130085666D01*
X126754621Y-130131711D01*
X126757479Y-130135644D01*
X126757483Y-130135649D01*
X126902219Y-130280385D01*
X126902223Y-130280388D01*
X126902225Y-130280390D01*
X127067834Y-130400711D01*
X127250225Y-130493644D01*
X127444910Y-130556901D01*
X127647092Y-130588924D01*
X127647093Y-130588924D01*
X127851795Y-130588924D01*
X127851796Y-130588924D01*
X128053978Y-130556901D01*
X128248663Y-130493644D01*
X128431054Y-130400711D01*
X128583632Y-130289858D01*
X128612433Y-130280500D01*
X130322730Y-130280500D01*
X130322730Y-130280499D01*
X130424588Y-130253207D01*
X130515913Y-130200480D01*
X131741878Y-128974512D01*
X131741883Y-128974509D01*
X131745911Y-128970480D01*
X131745913Y-128970480D01*
X131820480Y-128895913D01*
X131873207Y-128804587D01*
X131884763Y-128761460D01*
X131900501Y-128702727D01*
X131900501Y-128597273D01*
X131900501Y-128594277D01*
X131900500Y-128594259D01*
X131900500Y-126687272D01*
X131899274Y-126682698D01*
X131896823Y-126673550D01*
X131873207Y-126585412D01*
X131820480Y-126494087D01*
X125415913Y-120089520D01*
X125324589Y-120036793D01*
X125324587Y-120036792D01*
X125222730Y-120009500D01*
X125222727Y-120009500D01*
X107658067Y-120009500D01*
X107623419Y-119995148D01*
X105807791Y-118179520D01*
X105716467Y-118126793D01*
X105716465Y-118126792D01*
X105614608Y-118099500D01*
X105614605Y-118099500D01*
X105094500Y-118099500D01*
X105059852Y-118085148D01*
X105045500Y-118050500D01*
X105045500Y-117595743D01*
X105045499Y-117595724D01*
X105042646Y-117565301D01*
X105042646Y-117565300D01*
X104997795Y-117437123D01*
X104997791Y-117437114D01*
X104917150Y-117327849D01*
X104807885Y-117247208D01*
X104807876Y-117247204D01*
X104679698Y-117202353D01*
X104649275Y-117199500D01*
X104649266Y-117199500D01*
X104240734Y-117199500D01*
X104240724Y-117199500D01*
X104210301Y-117202353D01*
X104210300Y-117202353D01*
X104082123Y-117247204D01*
X104082114Y-117247208D01*
X103972849Y-117327849D01*
X103892208Y-117437114D01*
X103892204Y-117437123D01*
X103847353Y-117565300D01*
X103847353Y-117565301D01*
X103844500Y-117595724D01*
X103844500Y-119404275D01*
X103847353Y-119434698D01*
X103847353Y-119434699D01*
X103892204Y-119562876D01*
X103892208Y-119562885D01*
X103972849Y-119672150D01*
X104082114Y-119752791D01*
X104082117Y-119752792D01*
X104082118Y-119752793D01*
X104082120Y-119752793D01*
X104082123Y-119752795D01*
X104196380Y-119792775D01*
X104210301Y-119797646D01*
X104240734Y-119800500D01*
X104240744Y-119800500D01*
X104649256Y-119800500D01*
X104649266Y-119800500D01*
X104679699Y-119797646D01*
X104807882Y-119752793D01*
X104917150Y-119672150D01*
X104997793Y-119562882D01*
X105042646Y-119434699D01*
X105045500Y-119404266D01*
X105045500Y-118949500D01*
X105059852Y-118914852D01*
X105094500Y-118900500D01*
X105375689Y-118900500D01*
X105410337Y-118914852D01*
X106981337Y-120485852D01*
X106995689Y-120520500D01*
X106981337Y-120555148D01*
X106946689Y-120569500D01*
X102316189Y-120569500D01*
X102281541Y-120555148D01*
X101235869Y-119509476D01*
X101221517Y-119474828D01*
X101224267Y-119458643D01*
X101225526Y-119455045D01*
X101232646Y-119434699D01*
X101235500Y-119404266D01*
X101235500Y-117595734D01*
X101232646Y-117565301D01*
X101225526Y-117544954D01*
X101187795Y-117437123D01*
X101187791Y-117437114D01*
X101107150Y-117327849D01*
X100997885Y-117247208D01*
X100997876Y-117247204D01*
X100869698Y-117202353D01*
X100839275Y-117199500D01*
X100839266Y-117199500D01*
X100430734Y-117199500D01*
X100430724Y-117199500D01*
X100400301Y-117202353D01*
X100400300Y-117202353D01*
X100272123Y-117247204D01*
X100272114Y-117247208D01*
X100162849Y-117327849D01*
X100082208Y-117437114D01*
X100082204Y-117437123D01*
X100046250Y-117539876D01*
X100021261Y-117567840D01*
X99983817Y-117569943D01*
X99955853Y-117544954D01*
X99953750Y-117539876D01*
X99917795Y-117437123D01*
X99917791Y-117437114D01*
X99837150Y-117327849D01*
X99727885Y-117247208D01*
X99727876Y-117247204D01*
X99599698Y-117202353D01*
X99569275Y-117199500D01*
X99569266Y-117199500D01*
X99160734Y-117199500D01*
X99160724Y-117199500D01*
X99130301Y-117202353D01*
X99130300Y-117202353D01*
X99002123Y-117247204D01*
X99002114Y-117247208D01*
X98892849Y-117327849D01*
X98812208Y-117437114D01*
X98812204Y-117437123D01*
X98767353Y-117565300D01*
X98767353Y-117565301D01*
X98764500Y-117595724D01*
X98764500Y-118885779D01*
X98750148Y-118920427D01*
X97745427Y-119925148D01*
X97710779Y-119939500D01*
X76367270Y-119939500D01*
X76265414Y-119966792D01*
X76265410Y-119966793D01*
X76191442Y-120009499D01*
X76191442Y-120009500D01*
X76174087Y-120019520D01*
X76174084Y-120019522D01*
X71221097Y-124972510D01*
X71221096Y-124972510D01*
X71168369Y-125063834D01*
X71168368Y-125063836D01*
X71156769Y-125107128D01*
X71141076Y-125165693D01*
X71141076Y-126266547D01*
X71126724Y-126301195D01*
X71107218Y-126313149D01*
X71042358Y-126334223D01*
X70859963Y-126427158D01*
X70859960Y-126427160D01*
X70694355Y-126547479D01*
X70549611Y-126692223D01*
X70429292Y-126857828D01*
X70429290Y-126857831D01*
X70336355Y-127040226D01*
X70273099Y-127234909D01*
X70273098Y-127234912D01*
X70241076Y-127437092D01*
X70241076Y-127641795D01*
X70273098Y-127843975D01*
X70273099Y-127843978D01*
X70336355Y-128038661D01*
X70429290Y-128221056D01*
X70429292Y-128221059D01*
X70549611Y-128386664D01*
X70549615Y-128386669D01*
X70694351Y-128531405D01*
X70694355Y-128531408D01*
X70694357Y-128531410D01*
X70859966Y-128651731D01*
X71042357Y-128744664D01*
X71237042Y-128807921D01*
X71439224Y-128839944D01*
X71439225Y-128839944D01*
X71643927Y-128839944D01*
X71643928Y-128839944D01*
X71846110Y-128807921D01*
X71918493Y-128784402D01*
X71955880Y-128787345D01*
X71980237Y-128815862D01*
X71977294Y-128853249D01*
X71968283Y-128865652D01*
X71857232Y-128976703D01*
X71857229Y-128976707D01*
X71802186Y-129046772D01*
X71802184Y-129046776D01*
X71741898Y-129185569D01*
X71741896Y-129185576D01*
X71741677Y-129187174D01*
X71741239Y-129187921D01*
X71740994Y-129188799D01*
X71740764Y-129188734D01*
X71722740Y-129219544D01*
X71693134Y-129229500D01*
X71076188Y-129229500D01*
X71041540Y-129215148D01*
X69624852Y-127798459D01*
X69610500Y-127763811D01*
X69610500Y-126336189D01*
X69624852Y-126301541D01*
X76821541Y-119104852D01*
X76856189Y-119090500D01*
X94905500Y-119090500D01*
X94940148Y-119104852D01*
X94954500Y-119139500D01*
X94954500Y-119404275D01*
X94957353Y-119434698D01*
X94957353Y-119434699D01*
X95002204Y-119562876D01*
X95002208Y-119562885D01*
X95082849Y-119672150D01*
X95192114Y-119752791D01*
X95192117Y-119752792D01*
X95192118Y-119752793D01*
X95192120Y-119752793D01*
X95192123Y-119752795D01*
X95306380Y-119792775D01*
X95320301Y-119797646D01*
X95350734Y-119800500D01*
X95350744Y-119800500D01*
X95759256Y-119800500D01*
X95759266Y-119800500D01*
X95789699Y-119797646D01*
X95917882Y-119752793D01*
X96027150Y-119672150D01*
X96107793Y-119562882D01*
X96152646Y-119434699D01*
X96155500Y-119404266D01*
X96155500Y-117595734D01*
X96152646Y-117565301D01*
X96145526Y-117544954D01*
X96107795Y-117437123D01*
X96107791Y-117437114D01*
X96027150Y-117327849D01*
X95917885Y-117247208D01*
X95917876Y-117247204D01*
X95789698Y-117202353D01*
X95759275Y-117199500D01*
X95759266Y-117199500D01*
X95350734Y-117199500D01*
X95350724Y-117199500D01*
X95320301Y-117202353D01*
X95320300Y-117202353D01*
X95192123Y-117247204D01*
X95192114Y-117247208D01*
X95082849Y-117327849D01*
X95002208Y-117437114D01*
X95002204Y-117437123D01*
X94957353Y-117565300D01*
X94957353Y-117565301D01*
X94954500Y-117595724D01*
X94954500Y-118240500D01*
X94940148Y-118275148D01*
X94905500Y-118289500D01*
X76617270Y-118289500D01*
X76515412Y-118316792D01*
X76515410Y-118316793D01*
X76424086Y-118369520D01*
X76424086Y-118369521D01*
X68889521Y-125904086D01*
X68889520Y-125904086D01*
X68836793Y-125995410D01*
X68835124Y-126001642D01*
X68835123Y-126001641D01*
X68835123Y-126001645D01*
X68809500Y-126097269D01*
X68809500Y-128002730D01*
X68836792Y-128104587D01*
X68836793Y-128104589D01*
X68889520Y-128195913D01*
X70567804Y-129874196D01*
X70567809Y-129874202D01*
X70569520Y-129875913D01*
X70644087Y-129950480D01*
X70665558Y-129962876D01*
X70735412Y-130003207D01*
X70837269Y-130030499D01*
X70837270Y-130030500D01*
X70837273Y-130030500D01*
X70942727Y-130030500D01*
X72173151Y-130030500D01*
X72207799Y-130044852D01*
X72978835Y-130815889D01*
X72978839Y-130815892D01*
X72978842Y-130815895D01*
X73015951Y-130845047D01*
X73048904Y-130870935D01*
X73048908Y-130870937D01*
X73187699Y-130931222D01*
X73187702Y-130931222D01*
X73187707Y-130931225D01*
X73337627Y-130951831D01*
X73487547Y-130931225D01*
X73626348Y-130870936D01*
X73696412Y-130815895D01*
X74818027Y-129694280D01*
X74873068Y-129624216D01*
X74933357Y-129485415D01*
X74953963Y-129335495D01*
X74933357Y-129185575D01*
X74933354Y-129185570D01*
X74933354Y-129185567D01*
X74873069Y-129046776D01*
X74873067Y-129046772D01*
X74823667Y-128983890D01*
X74818027Y-128976710D01*
X74818024Y-128976707D01*
X74818021Y-128976703D01*
X73696418Y-127855100D01*
X73696414Y-127855097D01*
X73696412Y-127855095D01*
X73671672Y-127835660D01*
X73626349Y-127800054D01*
X73626345Y-127800052D01*
X73487554Y-127739767D01*
X73487547Y-127739765D01*
X73337627Y-127719159D01*
X73187706Y-127739765D01*
X73187699Y-127739767D01*
X73048908Y-127800052D01*
X73048904Y-127800054D01*
X72978839Y-127855097D01*
X72978835Y-127855100D01*
X72867784Y-127966151D01*
X72833136Y-127980503D01*
X72798488Y-127966151D01*
X72784136Y-127931503D01*
X72786534Y-127916361D01*
X72792736Y-127897273D01*
X72810053Y-127843978D01*
X72842076Y-127641796D01*
X72842076Y-127437092D01*
X72810053Y-127234910D01*
X72746796Y-127040225D01*
X72653863Y-126857834D01*
X72653500Y-126857335D01*
X72606161Y-126792177D01*
X72533542Y-126692225D01*
X72533540Y-126692223D01*
X72533537Y-126692219D01*
X72388801Y-126547483D01*
X72388796Y-126547479D01*
X72223191Y-126427160D01*
X72223188Y-126427158D01*
X72113309Y-126371172D01*
X72040795Y-126334224D01*
X72040794Y-126334223D01*
X72040793Y-126334223D01*
X71975934Y-126313149D01*
X71947417Y-126288792D01*
X71942076Y-126266547D01*
X71942076Y-125404613D01*
X71956428Y-125369965D01*
X76571541Y-120754852D01*
X76606189Y-120740500D01*
X97949698Y-120740500D01*
X97949698Y-120740499D01*
X98051556Y-120713207D01*
X98142881Y-120660480D01*
X99016237Y-119787121D01*
X99050884Y-119772770D01*
X99067068Y-119775520D01*
X99130297Y-119797645D01*
X99130298Y-119797645D01*
X99130301Y-119797646D01*
X99160734Y-119800500D01*
X99160744Y-119800500D01*
X99569256Y-119800500D01*
X99569266Y-119800500D01*
X99599699Y-119797646D01*
X99727882Y-119752793D01*
X99837150Y-119672150D01*
X99917793Y-119562882D01*
X99929415Y-119529666D01*
X99953750Y-119460123D01*
X99978739Y-119432159D01*
X100016183Y-119430056D01*
X100044147Y-119455045D01*
X100046250Y-119460123D01*
X100082204Y-119562876D01*
X100082208Y-119562885D01*
X100162849Y-119672150D01*
X100272116Y-119752792D01*
X100272119Y-119752794D01*
X100375825Y-119789081D01*
X100394290Y-119800683D01*
X101884087Y-121290480D01*
X101903797Y-121301860D01*
X101926627Y-121331612D01*
X101921731Y-121368795D01*
X101891978Y-121391625D01*
X101877613Y-121393265D01*
X100913266Y-121360132D01*
X100913263Y-121360132D01*
X99804421Y-121360132D01*
X99804418Y-121360132D01*
X98696221Y-121398207D01*
X97590015Y-121474310D01*
X96487036Y-121588357D01*
X95388652Y-121740207D01*
X94296117Y-121929684D01*
X93210748Y-122156562D01*
X92508747Y-122328658D01*
X92133783Y-122420582D01*
X92133774Y-122420584D01*
X92133772Y-122420585D01*
X91066542Y-122721418D01*
X90010223Y-123058737D01*
X88966167Y-123432107D01*
X87935497Y-123841127D01*
X86919515Y-124285281D01*
X86189107Y-124634939D01*
X85919359Y-124764072D01*
X85919353Y-124764075D01*
X85919347Y-124764078D01*
X84936232Y-125276923D01*
X83971318Y-125823217D01*
X83025725Y-126402325D01*
X82100551Y-127013578D01*
X81196943Y-127656215D01*
X80315915Y-128329515D01*
X79458524Y-129032675D01*
X78625797Y-129764845D01*
X77818677Y-130525204D01*
X77038184Y-131312784D01*
X76285168Y-132126730D01*
X75560539Y-132966060D01*
X74865172Y-133829759D01*
X74555947Y-134242054D01*
X74553855Y-134244842D01*
X74532418Y-134266281D01*
X74514498Y-134297317D01*
X74512730Y-134299675D01*
X74512727Y-134299681D01*
X74492983Y-134326009D01*
X74492979Y-134326016D01*
X74482986Y-134350912D01*
X74479949Y-134357158D01*
X74466525Y-134380410D01*
X74466523Y-134380414D01*
X74458006Y-134412199D01*
X74457242Y-134415048D01*
X74443892Y-134448310D01*
X74440266Y-134478398D01*
X74439364Y-134481767D01*
X74439364Y-134481770D01*
X74432417Y-134507702D01*
X74432417Y-134507703D01*
X74432417Y-134543556D01*
X74428129Y-134579148D01*
X74432417Y-134609164D01*
X74432417Y-134639489D01*
X74440935Y-134671277D01*
X74441113Y-134671962D01*
X74441746Y-134674469D01*
X74446766Y-134709607D01*
X74456193Y-134731676D01*
X74457135Y-134735405D01*
X74457117Y-134735523D01*
X74457299Y-134736073D01*
X74607040Y-135366111D01*
X74607607Y-135368841D01*
X74726965Y-136038326D01*
X74727376Y-136041084D01*
X74808457Y-136716267D01*
X74808711Y-136719043D01*
X74851257Y-137397769D01*
X74851352Y-137400556D01*
X74855222Y-138080577D01*
X74855159Y-138083365D01*
X74820340Y-138762529D01*
X74820118Y-138765308D01*
X74746724Y-139441383D01*
X74746344Y-139444146D01*
X74634613Y-140114943D01*
X74634077Y-140117679D01*
X74484369Y-140781044D01*
X74483678Y-140783745D01*
X74296478Y-141437522D01*
X74295634Y-141440180D01*
X74071556Y-142082230D01*
X74070563Y-142084836D01*
X73810315Y-142713129D01*
X73809175Y-142715673D01*
X73513618Y-143328127D01*
X73512335Y-143330603D01*
X73182421Y-143925247D01*
X73181000Y-143927646D01*
X72817783Y-144502585D01*
X72816227Y-144504899D01*
X72420898Y-145058239D01*
X72419213Y-145060460D01*
X71993069Y-145590394D01*
X71991261Y-145592517D01*
X71535632Y-146097386D01*
X71533705Y-146099402D01*
X71050122Y-146577510D01*
X71048085Y-146579413D01*
X70538069Y-147029258D01*
X70535926Y-147031042D01*
X70001165Y-147451134D01*
X69998924Y-147452794D01*
X69441113Y-147841801D01*
X69438781Y-147843330D01*
X68859768Y-148199965D01*
X68857354Y-148201359D01*
X68258979Y-148524488D01*
X68256488Y-148525743D01*
X67640708Y-148814308D01*
X67638151Y-148815419D01*
X67006932Y-149068499D01*
X67004315Y-149069462D01*
X66359751Y-149286218D01*
X66357084Y-149287031D01*
X65701240Y-149466770D01*
X65698531Y-149467431D01*
X65033494Y-149609579D01*
X65030752Y-149610084D01*
X64358714Y-149714173D01*
X64355947Y-149714521D01*
X63679084Y-149780212D01*
X63676303Y-149780402D01*
X62996806Y-149807487D01*
X62994017Y-149807519D01*
X62314065Y-149795907D01*
X62311280Y-149795780D01*
X61633101Y-149745511D01*
X61630327Y-149745226D01*
X60956088Y-149656460D01*
X60953335Y-149656017D01*
X60285262Y-149529048D01*
X60282539Y-149528450D01*
X59622758Y-149363681D01*
X59620073Y-149362929D01*
X58970724Y-149160894D01*
X58968086Y-149159990D01*
X58331280Y-148921347D01*
X58328720Y-148920304D01*
X57706493Y-148645812D01*
X57704005Y-148644628D01*
X57611763Y-148597496D01*
X57098412Y-148335193D01*
X57095990Y-148333867D01*
X56834717Y-148181032D01*
X56508988Y-147990491D01*
X56506622Y-147989015D01*
X55940114Y-147612813D01*
X55937836Y-147611205D01*
X55393645Y-147203388D01*
X55391462Y-147201653D01*
X54871345Y-146763538D01*
X54869265Y-146761682D01*
X54374916Y-146294695D01*
X54372944Y-146292723D01*
X53905958Y-145798373D01*
X53904102Y-145796293D01*
X53465988Y-145276174D01*
X53464253Y-145273991D01*
X53304225Y-145060449D01*
X53056431Y-144729792D01*
X53054829Y-144727522D01*
X53054828Y-144727521D01*
X52678628Y-144161011D01*
X52677153Y-144158646D01*
X52333785Y-143571655D01*
X52332446Y-143569209D01*
X52023027Y-142963642D01*
X52021831Y-142961129D01*
X51747338Y-142338898D01*
X51746303Y-142336358D01*
X51507657Y-141699540D01*
X51506755Y-141696908D01*
X51451629Y-141519729D01*
X51304716Y-141047539D01*
X51303971Y-141044875D01*
X51139198Y-140385070D01*
X51138610Y-140382391D01*
X51011636Y-139714293D01*
X51011194Y-139711543D01*
X50975991Y-139444144D01*
X50922428Y-139037284D01*
X50922147Y-139034549D01*
X50871877Y-138356343D01*
X50871751Y-138353565D01*
X50871627Y-138346283D01*
X50860141Y-137673587D01*
X50860172Y-137670850D01*
X50887259Y-136991316D01*
X50887449Y-136988547D01*
X50913740Y-136717661D01*
X50953145Y-136311655D01*
X50953486Y-136308943D01*
X51057584Y-135636854D01*
X51058080Y-135634162D01*
X51200238Y-134969086D01*
X51200896Y-134966392D01*
X51249182Y-134790204D01*
X51380644Y-134310520D01*
X51381437Y-134307919D01*
X51598215Y-133663292D01*
X51599170Y-133660699D01*
X51599171Y-133660698D01*
X51852253Y-133029477D01*
X51853354Y-133026942D01*
X52141944Y-132411114D01*
X52143174Y-132408674D01*
X52466314Y-131810281D01*
X52467705Y-131807874D01*
X52824350Y-131228846D01*
X52825875Y-131226520D01*
X53214893Y-130668696D01*
X53216530Y-130666486D01*
X53636650Y-130131692D01*
X53638402Y-130129587D01*
X54088278Y-129619539D01*
X54090156Y-129617529D01*
X54568300Y-129133911D01*
X54570269Y-129132029D01*
X55075182Y-128676363D01*
X55077268Y-128674586D01*
X55607250Y-128248405D01*
X55609413Y-128246764D01*
X56162801Y-127851404D01*
X56165080Y-127849871D01*
X56740056Y-127486632D01*
X56742426Y-127485229D01*
X57337093Y-127155306D01*
X57339547Y-127154034D01*
X57952050Y-126858454D01*
X57954530Y-126857343D01*
X58582865Y-126597080D01*
X58585429Y-126596102D01*
X59227541Y-126372005D01*
X59230131Y-126371182D01*
X59883959Y-126183969D01*
X59886625Y-126183287D01*
X60550032Y-126033571D01*
X60552723Y-126033044D01*
X61223577Y-125921306D01*
X61226271Y-125920935D01*
X61902407Y-125847536D01*
X61905133Y-125847319D01*
X62584357Y-125812498D01*
X62587076Y-125812436D01*
X63267133Y-125816308D01*
X63269918Y-125816402D01*
X63948655Y-125858950D01*
X63951410Y-125859203D01*
X64626619Y-125940289D01*
X64629347Y-125940695D01*
X65298850Y-126060059D01*
X65301572Y-126060624D01*
X65931658Y-126210378D01*
X65932265Y-126210527D01*
X65935979Y-126211465D01*
X65958081Y-126220906D01*
X65993227Y-126225926D01*
X65995731Y-126226559D01*
X65995801Y-126226611D01*
X65996395Y-126226733D01*
X66022100Y-126233620D01*
X66028198Y-126235255D01*
X66028199Y-126235255D01*
X66058525Y-126235255D01*
X66088541Y-126239543D01*
X66124133Y-126235255D01*
X66159983Y-126235255D01*
X66159984Y-126235255D01*
X66167280Y-126233299D01*
X66185915Y-126228306D01*
X66192725Y-126226990D01*
X66219379Y-126223780D01*
X66219385Y-126223777D01*
X66219387Y-126223777D01*
X66228740Y-126220022D01*
X66252651Y-126210424D01*
X66287277Y-126201147D01*
X66313536Y-126185986D01*
X66341679Y-126174690D01*
X66370358Y-126153179D01*
X66401406Y-126135255D01*
X66422848Y-126113812D01*
X66837927Y-125802500D01*
X67701633Y-125107128D01*
X68540951Y-124382507D01*
X69354893Y-123629494D01*
X70142499Y-122848977D01*
X70902838Y-122041875D01*
X71635016Y-121209141D01*
X72338168Y-120351757D01*
X73011465Y-119470733D01*
X73654112Y-118567111D01*
X74265353Y-117641954D01*
X74293660Y-117595734D01*
X74423783Y-117383263D01*
X74839088Y-116705134D01*
X116149500Y-116705134D01*
X116149500Y-118494858D01*
X116149501Y-118494868D01*
X116152415Y-118519992D01*
X116197794Y-118622766D01*
X116277233Y-118702205D01*
X116380006Y-118747584D01*
X116380009Y-118747585D01*
X116405135Y-118750500D01*
X118194864Y-118750499D01*
X118219991Y-118747585D01*
X118322765Y-118702206D01*
X118402206Y-118622765D01*
X118447585Y-118519991D01*
X118450500Y-118494865D01*
X118450499Y-116705136D01*
X118447585Y-116680009D01*
X118402206Y-116577235D01*
X118402205Y-116577234D01*
X118402205Y-116577233D01*
X118322766Y-116497794D01*
X118322767Y-116497794D01*
X118219993Y-116452415D01*
X118207428Y-116450957D01*
X118194865Y-116449500D01*
X118194863Y-116449500D01*
X116405141Y-116449500D01*
X116405131Y-116449501D01*
X116380007Y-116452415D01*
X116277233Y-116497794D01*
X116197794Y-116577233D01*
X116152415Y-116680006D01*
X116149500Y-116705134D01*
X74839088Y-116705134D01*
X74844465Y-116696354D01*
X74853963Y-116679578D01*
X74853964Y-116679577D01*
X75390762Y-115731436D01*
X75426465Y-115662994D01*
X75903613Y-114748310D01*
X76382399Y-113748162D01*
X76826560Y-112732165D01*
X77235572Y-111701515D01*
X77608953Y-110657428D01*
X77946262Y-109601136D01*
X78227018Y-108605134D01*
X91849500Y-108605134D01*
X91849500Y-110394858D01*
X91849501Y-110394868D01*
X91852415Y-110419992D01*
X91897794Y-110522766D01*
X91977233Y-110602205D01*
X92080006Y-110647584D01*
X92080009Y-110647585D01*
X92105135Y-110650500D01*
X93354313Y-110650499D01*
X93388961Y-110664851D01*
X95039915Y-112315805D01*
X95054267Y-112350453D01*
X95044693Y-112379550D01*
X95002206Y-112437119D01*
X95002204Y-112437123D01*
X94957353Y-112565300D01*
X94957353Y-112565301D01*
X94954500Y-112595724D01*
X94954500Y-114404275D01*
X94957353Y-114434698D01*
X94957353Y-114434699D01*
X95002204Y-114562876D01*
X95002208Y-114562885D01*
X95082847Y-114672148D01*
X95082850Y-114672150D01*
X95192118Y-114752793D01*
X95192121Y-114752794D01*
X95194277Y-114754385D01*
X95204007Y-114765273D01*
X95204557Y-114764852D01*
X95206510Y-114767398D01*
X95206513Y-114767402D01*
X96617598Y-116178487D01*
X96716904Y-116235821D01*
X96768306Y-116249594D01*
X96827664Y-116265500D01*
X96827666Y-116265500D01*
X104717337Y-116265500D01*
X104755983Y-116255144D01*
X104828097Y-116235821D01*
X104927403Y-116178487D01*
X105008487Y-116097403D01*
X105633538Y-115472352D01*
X105668186Y-115458000D01*
X105711560Y-115458000D01*
X105711560Y-115457999D01*
X105864284Y-115417077D01*
X105881626Y-115407065D01*
X106001209Y-115338024D01*
X106001208Y-115338024D01*
X106001216Y-115338020D01*
X106113020Y-115226216D01*
X106192077Y-115089284D01*
X106232999Y-114936560D01*
X106233000Y-114936560D01*
X106233000Y-114778440D01*
X106198842Y-114650964D01*
X106203737Y-114613782D01*
X106233490Y-114590952D01*
X106270672Y-114595847D01*
X106280820Y-114603634D01*
X106590148Y-114912962D01*
X106604500Y-114947610D01*
X106604500Y-114959060D01*
X106645422Y-115111782D01*
X106645423Y-115111786D01*
X106724475Y-115248709D01*
X106724478Y-115248713D01*
X106724480Y-115248716D01*
X106836284Y-115360520D01*
X106836287Y-115360521D01*
X106836290Y-115360524D01*
X106973213Y-115439576D01*
X106973215Y-115439576D01*
X106973216Y-115439577D01*
X107041968Y-115457999D01*
X107125939Y-115480499D01*
X107125940Y-115480500D01*
X107125943Y-115480500D01*
X107284060Y-115480500D01*
X107284060Y-115480499D01*
X107436784Y-115439577D01*
X107493097Y-115407065D01*
X107517597Y-115400500D01*
X107850500Y-115400500D01*
X107885148Y-115414852D01*
X107899500Y-115449500D01*
X107899500Y-115993105D01*
X107910121Y-116081556D01*
X107910122Y-116081560D01*
X107910123Y-116081564D01*
X107948345Y-116178487D01*
X107965640Y-116222344D01*
X107975860Y-116235821D01*
X108057078Y-116342922D01*
X108177658Y-116434361D01*
X108318436Y-116489877D01*
X108318442Y-116489877D01*
X108318443Y-116489878D01*
X108406895Y-116500500D01*
X108406898Y-116500500D01*
X109593105Y-116500500D01*
X109681556Y-116489878D01*
X109681556Y-116489877D01*
X109681564Y-116489877D01*
X109822342Y-116434361D01*
X109942922Y-116342922D01*
X110034361Y-116222342D01*
X110089877Y-116081564D01*
X110089878Y-116081556D01*
X110100500Y-115993105D01*
X110100500Y-114969454D01*
X116149500Y-114969454D01*
X116149500Y-115150545D01*
X116177828Y-115329406D01*
X116177829Y-115329409D01*
X116226920Y-115480500D01*
X116233789Y-115501639D01*
X116316004Y-115662994D01*
X116365741Y-115731451D01*
X116422448Y-115809502D01*
X116422452Y-115809507D01*
X116550493Y-115937548D01*
X116550497Y-115937551D01*
X116550499Y-115937553D01*
X116697006Y-116043996D01*
X116858361Y-116126211D01*
X117030591Y-116182171D01*
X117209454Y-116210500D01*
X117209455Y-116210500D01*
X117390545Y-116210500D01*
X117390546Y-116210500D01*
X117569409Y-116182171D01*
X117741639Y-116126211D01*
X117902994Y-116043996D01*
X118049501Y-115937553D01*
X118049504Y-115937549D01*
X118049507Y-115937548D01*
X118177548Y-115809507D01*
X118177549Y-115809504D01*
X118177553Y-115809501D01*
X118283996Y-115662994D01*
X118366211Y-115501639D01*
X118422171Y-115329409D01*
X118450500Y-115150546D01*
X118450500Y-114969454D01*
X118422171Y-114790591D01*
X118366211Y-114618361D01*
X118283996Y-114457006D01*
X118177553Y-114310499D01*
X118177551Y-114310497D01*
X118177548Y-114310493D01*
X118049507Y-114182452D01*
X118049502Y-114182448D01*
X118012955Y-114155895D01*
X117902994Y-114076004D01*
X117741639Y-113993789D01*
X117741638Y-113993788D01*
X117741637Y-113993788D01*
X117569409Y-113937829D01*
X117569406Y-113937828D01*
X117432007Y-113916066D01*
X117390546Y-113909500D01*
X117209454Y-113909500D01*
X117175794Y-113914831D01*
X117030593Y-113937828D01*
X117030590Y-113937829D01*
X116858362Y-113993788D01*
X116697006Y-114076004D01*
X116550497Y-114182448D01*
X116422448Y-114310497D01*
X116316004Y-114457006D01*
X116233788Y-114618362D01*
X116177829Y-114790590D01*
X116177828Y-114790593D01*
X116149500Y-114969454D01*
X110100500Y-114969454D01*
X110100500Y-114527610D01*
X110114852Y-114492962D01*
X110210499Y-114397315D01*
X110210500Y-114397314D01*
X110276392Y-114283186D01*
X110310499Y-114155895D01*
X110310500Y-114155895D01*
X110310500Y-112429454D01*
X116149500Y-112429454D01*
X116149500Y-112610545D01*
X116177828Y-112789406D01*
X116177829Y-112789409D01*
X116233789Y-112961639D01*
X116316004Y-113122994D01*
X116357058Y-113179500D01*
X116422448Y-113269502D01*
X116422452Y-113269507D01*
X116550493Y-113397548D01*
X116550497Y-113397551D01*
X116550499Y-113397553D01*
X116697006Y-113503996D01*
X116858361Y-113586211D01*
X117030591Y-113642171D01*
X117209454Y-113670500D01*
X117209455Y-113670500D01*
X117390545Y-113670500D01*
X117390546Y-113670500D01*
X117569409Y-113642171D01*
X117741639Y-113586211D01*
X117902994Y-113503996D01*
X118049501Y-113397553D01*
X118049504Y-113397549D01*
X118049507Y-113397548D01*
X118177548Y-113269507D01*
X118177549Y-113269504D01*
X118177553Y-113269501D01*
X118283996Y-113122994D01*
X118366211Y-112961639D01*
X118422171Y-112789409D01*
X118450500Y-112610546D01*
X118450500Y-112429454D01*
X118422171Y-112250591D01*
X118366211Y-112078361D01*
X118283996Y-111917006D01*
X118177553Y-111770499D01*
X118177551Y-111770497D01*
X118177548Y-111770493D01*
X118049507Y-111642452D01*
X118049502Y-111642448D01*
X118049501Y-111642447D01*
X117902994Y-111536004D01*
X117741639Y-111453789D01*
X117741638Y-111453788D01*
X117741637Y-111453788D01*
X117569409Y-111397829D01*
X117569406Y-111397828D01*
X117432007Y-111376066D01*
X117390546Y-111369500D01*
X117209454Y-111369500D01*
X117175794Y-111374831D01*
X117030593Y-111397828D01*
X117030590Y-111397829D01*
X116858362Y-111453788D01*
X116697006Y-111536004D01*
X116550497Y-111642448D01*
X116422448Y-111770497D01*
X116316004Y-111917006D01*
X116233788Y-112078362D01*
X116177829Y-112250590D01*
X116177828Y-112250593D01*
X116149500Y-112429454D01*
X110310500Y-112429454D01*
X110310500Y-108167609D01*
X110324851Y-108132962D01*
X118224268Y-100233544D01*
X118258915Y-100219193D01*
X118274052Y-100221590D01*
X118402966Y-100263477D01*
X118605148Y-100295500D01*
X118605149Y-100295500D01*
X118809851Y-100295500D01*
X118809852Y-100295500D01*
X119012034Y-100263477D01*
X119206719Y-100200220D01*
X119389110Y-100107287D01*
X119554719Y-99986966D01*
X119554722Y-99986962D01*
X119554725Y-99986961D01*
X119699461Y-99842225D01*
X119699462Y-99842222D01*
X119699466Y-99842219D01*
X119819787Y-99676610D01*
X119912720Y-99494219D01*
X119975977Y-99299534D01*
X120008000Y-99097352D01*
X120008000Y-98892648D01*
X119975977Y-98690466D01*
X119912720Y-98495781D01*
X119819787Y-98313390D01*
X119791015Y-98273789D01*
X119729776Y-98189500D01*
X119699466Y-98147781D01*
X119699464Y-98147779D01*
X119699461Y-98147775D01*
X119554725Y-98003039D01*
X119554720Y-98003035D01*
X119389115Y-97882716D01*
X119389112Y-97882714D01*
X119206717Y-97789779D01*
X119012034Y-97726523D01*
X119012031Y-97726522D01*
X118856720Y-97701923D01*
X118809852Y-97694500D01*
X118605148Y-97694500D01*
X118567099Y-97700526D01*
X118402968Y-97726522D01*
X118402965Y-97726523D01*
X118208282Y-97789779D01*
X118025887Y-97882714D01*
X118025884Y-97882716D01*
X117860279Y-98003035D01*
X117715535Y-98147779D01*
X117595216Y-98313384D01*
X117595214Y-98313387D01*
X117502279Y-98495782D01*
X117439023Y-98690465D01*
X117439022Y-98690468D01*
X117407000Y-98892648D01*
X117407000Y-99097351D01*
X117439022Y-99299531D01*
X117439023Y-99299534D01*
X117502281Y-99494223D01*
X117503014Y-99495991D01*
X117502874Y-99496048D01*
X117502875Y-99496050D01*
X117502859Y-99496055D01*
X117501852Y-99496472D01*
X117504459Y-99530219D01*
X117492527Y-99549657D01*
X109502686Y-107539500D01*
X109409501Y-107632685D01*
X109409500Y-107632685D01*
X109343608Y-107746811D01*
X109343607Y-107746815D01*
X109309500Y-107874104D01*
X109309500Y-108682382D01*
X109295148Y-108717030D01*
X109260500Y-108731382D01*
X109236000Y-108724817D01*
X109141786Y-108670423D01*
X109141782Y-108670422D01*
X108989060Y-108629500D01*
X108989057Y-108629500D01*
X108830943Y-108629500D01*
X108830940Y-108629500D01*
X108678217Y-108670422D01*
X108678213Y-108670423D01*
X108541290Y-108749475D01*
X108541281Y-108749482D01*
X108429482Y-108861281D01*
X108429475Y-108861290D01*
X108350423Y-108998213D01*
X108350422Y-108998217D01*
X108309500Y-109150939D01*
X108309500Y-109243811D01*
X108295148Y-109278459D01*
X107718459Y-109855148D01*
X107683811Y-109869500D01*
X105460741Y-109869500D01*
X105460725Y-109869499D01*
X105457728Y-109869499D01*
X105352274Y-109869499D01*
X105352272Y-109869499D01*
X105250415Y-109896792D01*
X105250411Y-109896793D01*
X105156758Y-109950865D01*
X105119576Y-109955760D01*
X105089823Y-109932930D01*
X105084928Y-109895748D01*
X105097608Y-109873784D01*
X105236541Y-109734852D01*
X105271189Y-109720500D01*
X106602730Y-109720500D01*
X106602730Y-109720499D01*
X106704588Y-109693207D01*
X106795913Y-109640480D01*
X107719816Y-108716577D01*
X107754464Y-108702225D01*
X107847335Y-108702225D01*
X107847335Y-108702224D01*
X108000059Y-108661302D01*
X108136991Y-108582245D01*
X108248795Y-108470441D01*
X108327852Y-108333509D01*
X108368774Y-108180785D01*
X108368775Y-108180785D01*
X108368775Y-108022665D01*
X108368774Y-108022664D01*
X108347926Y-107944859D01*
X108327852Y-107869941D01*
X108327851Y-107869940D01*
X108327851Y-107869938D01*
X108248799Y-107733015D01*
X108248796Y-107733012D01*
X108248795Y-107733009D01*
X108136991Y-107621205D01*
X108136988Y-107621203D01*
X108136984Y-107621200D01*
X108000061Y-107542148D01*
X108000057Y-107542147D01*
X107847335Y-107501225D01*
X107847332Y-107501225D01*
X107689218Y-107501225D01*
X107689215Y-107501225D01*
X107552197Y-107537939D01*
X107515015Y-107533044D01*
X107492185Y-107503291D01*
X107497080Y-107466109D01*
X107497081Y-107466107D01*
X107499577Y-107461784D01*
X107540499Y-107309060D01*
X107540500Y-107309060D01*
X107540500Y-107150940D01*
X107540499Y-107150939D01*
X107499577Y-106998217D01*
X107499576Y-106998213D01*
X107420524Y-106861290D01*
X107420521Y-106861287D01*
X107420520Y-106861284D01*
X107308716Y-106749480D01*
X107308713Y-106749478D01*
X107308709Y-106749475D01*
X107171786Y-106670423D01*
X107171782Y-106670422D01*
X107019060Y-106629500D01*
X107019057Y-106629500D01*
X106860943Y-106629500D01*
X106860940Y-106629500D01*
X106708217Y-106670422D01*
X106708213Y-106670423D01*
X106571290Y-106749475D01*
X106571281Y-106749482D01*
X106459482Y-106861281D01*
X106459475Y-106861290D01*
X106380423Y-106998213D01*
X106380422Y-106998217D01*
X106339500Y-107150939D01*
X106339500Y-107243811D01*
X106325148Y-107278459D01*
X105578459Y-108025148D01*
X105543811Y-108039500D01*
X104707409Y-108039500D01*
X104672761Y-108025148D01*
X104658409Y-107990500D01*
X104672761Y-107955852D01*
X104691799Y-107944859D01*
X104691623Y-107944435D01*
X104694584Y-107943208D01*
X104694588Y-107943207D01*
X104785913Y-107890480D01*
X105839815Y-106836576D01*
X105874463Y-106822225D01*
X105967335Y-106822225D01*
X105967335Y-106822224D01*
X106120059Y-106781302D01*
X106175186Y-106749475D01*
X106256984Y-106702249D01*
X106256983Y-106702249D01*
X106256991Y-106702245D01*
X106368795Y-106590441D01*
X106447852Y-106453509D01*
X106488774Y-106300785D01*
X106488775Y-106300785D01*
X106488775Y-106142665D01*
X106488774Y-106142664D01*
X106447852Y-105989942D01*
X106447851Y-105989938D01*
X106368799Y-105853015D01*
X106368796Y-105853012D01*
X106368795Y-105853009D01*
X106256991Y-105741205D01*
X106256988Y-105741203D01*
X106256984Y-105741200D01*
X106120061Y-105662148D01*
X106120057Y-105662147D01*
X105967335Y-105621225D01*
X105967332Y-105621225D01*
X105809218Y-105621225D01*
X105809215Y-105621225D01*
X105656492Y-105662147D01*
X105656488Y-105662148D01*
X105519565Y-105741200D01*
X105519556Y-105741207D01*
X105407757Y-105853006D01*
X105407750Y-105853015D01*
X105328698Y-105989938D01*
X105328697Y-105989942D01*
X105287775Y-106142664D01*
X105287775Y-106235536D01*
X105273423Y-106270184D01*
X104388459Y-107155148D01*
X104353811Y-107169500D01*
X101702271Y-107169500D01*
X101600413Y-107196792D01*
X101600411Y-107196793D01*
X101509087Y-107249520D01*
X101509086Y-107249521D01*
X96545835Y-112212771D01*
X96527371Y-112224373D01*
X96462115Y-112247208D01*
X96352849Y-112327849D01*
X96272208Y-112437114D01*
X96272204Y-112437123D01*
X96236250Y-112539876D01*
X96211261Y-112567840D01*
X96173817Y-112569943D01*
X96145853Y-112544954D01*
X96143750Y-112539876D01*
X96107795Y-112437123D01*
X96107791Y-112437114D01*
X96027151Y-112327851D01*
X96027148Y-112327849D01*
X96010830Y-112315805D01*
X96010402Y-112315489D01*
X95991047Y-112283367D01*
X95990500Y-112276064D01*
X95990500Y-112157663D01*
X95974915Y-112099502D01*
X95974915Y-112099501D01*
X95960822Y-112046904D01*
X95960821Y-112046901D01*
X95903486Y-111947596D01*
X94164851Y-110208961D01*
X94150499Y-110174313D01*
X94150499Y-108605141D01*
X94150498Y-108605135D01*
X94147585Y-108580009D01*
X94102206Y-108477235D01*
X94102205Y-108477234D01*
X94102205Y-108477233D01*
X94022766Y-108397794D01*
X94022767Y-108397794D01*
X93919993Y-108352415D01*
X93907428Y-108350957D01*
X93894865Y-108349500D01*
X93894863Y-108349500D01*
X92105141Y-108349500D01*
X92105131Y-108349501D01*
X92080007Y-108352415D01*
X91977233Y-108397794D01*
X91897794Y-108477233D01*
X91852415Y-108580006D01*
X91849500Y-108605134D01*
X78227018Y-108605134D01*
X78247102Y-108533885D01*
X78511118Y-107456933D01*
X78737999Y-106371550D01*
X78927476Y-105279017D01*
X79079327Y-104180622D01*
X79096033Y-104019057D01*
X79129080Y-103699454D01*
X82094500Y-103699454D01*
X82094500Y-103880545D01*
X82122828Y-104059406D01*
X82122829Y-104059409D01*
X82159340Y-104171782D01*
X82178789Y-104231639D01*
X82261004Y-104392994D01*
X82346410Y-104510546D01*
X82367448Y-104539502D01*
X82367452Y-104539507D01*
X82495493Y-104667548D01*
X82495497Y-104667551D01*
X82495499Y-104667553D01*
X82642006Y-104773996D01*
X82803361Y-104856211D01*
X82964680Y-104908626D01*
X82984186Y-104920579D01*
X84934087Y-106870480D01*
X85000938Y-106909077D01*
X85025410Y-106923206D01*
X85025412Y-106923207D01*
X85127269Y-106950499D01*
X85127270Y-106950500D01*
X85127273Y-106950500D01*
X86892730Y-106950500D01*
X86892730Y-106950499D01*
X86994588Y-106923207D01*
X87085913Y-106870480D01*
X88550480Y-105405913D01*
X88550480Y-105405912D01*
X89111878Y-104844512D01*
X89111883Y-104844509D01*
X89115911Y-104840480D01*
X89115913Y-104840480D01*
X89190480Y-104765913D01*
X89243207Y-104674587D01*
X89248858Y-104653497D01*
X89270501Y-104572727D01*
X89270501Y-104467273D01*
X89270501Y-104464277D01*
X89270500Y-104464259D01*
X89270500Y-100659032D01*
X89284852Y-100624384D01*
X89350520Y-100558716D01*
X89429577Y-100421784D01*
X89470499Y-100269060D01*
X89470500Y-100269060D01*
X89470500Y-100110940D01*
X89470499Y-100110939D01*
X89461851Y-100078665D01*
X89429577Y-99958216D01*
X89429576Y-99958215D01*
X89429576Y-99958213D01*
X89350524Y-99821290D01*
X89350521Y-99821287D01*
X89350520Y-99821284D01*
X89238716Y-99709480D01*
X89238713Y-99709478D01*
X89238709Y-99709475D01*
X89101786Y-99630423D01*
X89101782Y-99630422D01*
X88949060Y-99589500D01*
X88949057Y-99589500D01*
X88790943Y-99589500D01*
X88790940Y-99589500D01*
X88638217Y-99630422D01*
X88638213Y-99630423D01*
X88501290Y-99709475D01*
X88501281Y-99709482D01*
X88389482Y-99821281D01*
X88389475Y-99821290D01*
X88310423Y-99958213D01*
X88310422Y-99958217D01*
X88269500Y-100110939D01*
X88269500Y-100269060D01*
X88310422Y-100421782D01*
X88310423Y-100421786D01*
X88389475Y-100558709D01*
X88389482Y-100558718D01*
X88455148Y-100624384D01*
X88469500Y-100659032D01*
X88469500Y-104333810D01*
X88455148Y-104368458D01*
X87977194Y-104846412D01*
X86688459Y-106135148D01*
X86653811Y-106149500D01*
X85366189Y-106149500D01*
X85331541Y-106135148D01*
X83959452Y-104763059D01*
X83945100Y-104728411D01*
X83959452Y-104693763D01*
X83965299Y-104688769D01*
X83994501Y-104667553D01*
X83994504Y-104667549D01*
X83994507Y-104667548D01*
X84122548Y-104539507D01*
X84122549Y-104539504D01*
X84122553Y-104539501D01*
X84228996Y-104392994D01*
X84311211Y-104231639D01*
X84367171Y-104059409D01*
X84395500Y-103880546D01*
X84395500Y-103699454D01*
X84634500Y-103699454D01*
X84634500Y-103880545D01*
X84662828Y-104059406D01*
X84662829Y-104059409D01*
X84699340Y-104171782D01*
X84718789Y-104231639D01*
X84801004Y-104392994D01*
X84886410Y-104510546D01*
X84907448Y-104539502D01*
X84907452Y-104539507D01*
X85035493Y-104667548D01*
X85035497Y-104667551D01*
X85035499Y-104667553D01*
X85182006Y-104773996D01*
X85343361Y-104856211D01*
X85515591Y-104912171D01*
X85694454Y-104940500D01*
X85694455Y-104940500D01*
X85875545Y-104940500D01*
X85875546Y-104940500D01*
X86054409Y-104912171D01*
X86226639Y-104856211D01*
X86387994Y-104773996D01*
X86534501Y-104667553D01*
X86534504Y-104667549D01*
X86534507Y-104667548D01*
X86662548Y-104539507D01*
X86662549Y-104539504D01*
X86662553Y-104539501D01*
X86768996Y-104392994D01*
X86851211Y-104231639D01*
X86907171Y-104059409D01*
X86935500Y-103880546D01*
X86935500Y-103699454D01*
X86907171Y-103520591D01*
X86851211Y-103348361D01*
X86768996Y-103187006D01*
X86662553Y-103040499D01*
X86662551Y-103040497D01*
X86662548Y-103040493D01*
X86534507Y-102912452D01*
X86534502Y-102912448D01*
X86477371Y-102870940D01*
X86387994Y-102806004D01*
X86226639Y-102723789D01*
X86226638Y-102723788D01*
X86226637Y-102723788D01*
X86054409Y-102667829D01*
X86054406Y-102667828D01*
X85917007Y-102646066D01*
X85875546Y-102639500D01*
X85694454Y-102639500D01*
X85660794Y-102644831D01*
X85515593Y-102667828D01*
X85515590Y-102667829D01*
X85343362Y-102723788D01*
X85182006Y-102806004D01*
X85035497Y-102912448D01*
X84907448Y-103040497D01*
X84801004Y-103187006D01*
X84718788Y-103348362D01*
X84662829Y-103520590D01*
X84662828Y-103520593D01*
X84634500Y-103699454D01*
X84395500Y-103699454D01*
X84367171Y-103520591D01*
X84311211Y-103348361D01*
X84228996Y-103187006D01*
X84122553Y-103040499D01*
X84122551Y-103040497D01*
X84122548Y-103040493D01*
X83994507Y-102912452D01*
X83994502Y-102912448D01*
X83937371Y-102870940D01*
X83847994Y-102806004D01*
X83686639Y-102723789D01*
X83686638Y-102723788D01*
X83686637Y-102723788D01*
X83514409Y-102667829D01*
X83514406Y-102667828D01*
X83377007Y-102646066D01*
X83335546Y-102639500D01*
X83154454Y-102639500D01*
X83120794Y-102644831D01*
X82975593Y-102667828D01*
X82975590Y-102667829D01*
X82803362Y-102723788D01*
X82642006Y-102806004D01*
X82495497Y-102912448D01*
X82367448Y-103040497D01*
X82261004Y-103187006D01*
X82178788Y-103348362D01*
X82122829Y-103520590D01*
X82122828Y-103520593D01*
X82094500Y-103699454D01*
X79129080Y-103699454D01*
X79129800Y-103692489D01*
X79193373Y-103077651D01*
X79239959Y-102400500D01*
X79269477Y-101971434D01*
X79297375Y-101159454D01*
X82094500Y-101159454D01*
X82094500Y-101340545D01*
X82122828Y-101519406D01*
X82122829Y-101519409D01*
X82178789Y-101691639D01*
X82261004Y-101852994D01*
X82347065Y-101971447D01*
X82367448Y-101999502D01*
X82367452Y-101999507D01*
X82495493Y-102127548D01*
X82495497Y-102127551D01*
X82495499Y-102127553D01*
X82642006Y-102233996D01*
X82803361Y-102316211D01*
X82975591Y-102372171D01*
X83154454Y-102400500D01*
X83154455Y-102400500D01*
X83335545Y-102400500D01*
X83335546Y-102400500D01*
X83514409Y-102372171D01*
X83686639Y-102316211D01*
X83847994Y-102233996D01*
X83994501Y-102127553D01*
X83994504Y-102127549D01*
X83994507Y-102127548D01*
X84122548Y-101999507D01*
X84122549Y-101999504D01*
X84122553Y-101999501D01*
X84228996Y-101852994D01*
X84311211Y-101691639D01*
X84367171Y-101519409D01*
X84395500Y-101340546D01*
X84395500Y-101159454D01*
X84634500Y-101159454D01*
X84634500Y-101340545D01*
X84662828Y-101519406D01*
X84662829Y-101519409D01*
X84718789Y-101691639D01*
X84801004Y-101852994D01*
X84887065Y-101971447D01*
X84907448Y-101999502D01*
X84907452Y-101999507D01*
X85035493Y-102127548D01*
X85035497Y-102127551D01*
X85035499Y-102127553D01*
X85182006Y-102233996D01*
X85343361Y-102316211D01*
X85515591Y-102372171D01*
X85694454Y-102400500D01*
X85694455Y-102400500D01*
X85875545Y-102400500D01*
X85875546Y-102400500D01*
X86054409Y-102372171D01*
X86226639Y-102316211D01*
X86387994Y-102233996D01*
X86534501Y-102127553D01*
X86534504Y-102127549D01*
X86534507Y-102127548D01*
X86662548Y-101999507D01*
X86662549Y-101999504D01*
X86662553Y-101999501D01*
X86768996Y-101852994D01*
X86851211Y-101691639D01*
X86907171Y-101519409D01*
X86935500Y-101340546D01*
X86935500Y-101159454D01*
X86907171Y-100980591D01*
X86851211Y-100808361D01*
X86768996Y-100647006D01*
X86662553Y-100500499D01*
X86662551Y-100500497D01*
X86662548Y-100500493D01*
X86534507Y-100372452D01*
X86534502Y-100372448D01*
X86534501Y-100372447D01*
X86387994Y-100266004D01*
X86226639Y-100183789D01*
X86226638Y-100183788D01*
X86226637Y-100183788D01*
X86054409Y-100127829D01*
X86054406Y-100127828D01*
X85917007Y-100106066D01*
X85875546Y-100099500D01*
X85694454Y-100099500D01*
X85660794Y-100104831D01*
X85515593Y-100127828D01*
X85515590Y-100127829D01*
X85343362Y-100183788D01*
X85182006Y-100266004D01*
X85035497Y-100372448D01*
X84907448Y-100500497D01*
X84801004Y-100647006D01*
X84718788Y-100808362D01*
X84662829Y-100980590D01*
X84662828Y-100980593D01*
X84634500Y-101159454D01*
X84395500Y-101159454D01*
X84367171Y-100980591D01*
X84311211Y-100808361D01*
X84228996Y-100647006D01*
X84122553Y-100500499D01*
X84122551Y-100500497D01*
X84122548Y-100500493D01*
X83994507Y-100372452D01*
X83994502Y-100372448D01*
X83994501Y-100372447D01*
X83847994Y-100266004D01*
X83686639Y-100183789D01*
X83686638Y-100183788D01*
X83686637Y-100183788D01*
X83514409Y-100127829D01*
X83514406Y-100127828D01*
X83377007Y-100106066D01*
X83335546Y-100099500D01*
X83154454Y-100099500D01*
X83120794Y-100104831D01*
X82975593Y-100127828D01*
X82975590Y-100127829D01*
X82803362Y-100183788D01*
X82642006Y-100266004D01*
X82495497Y-100372448D01*
X82367448Y-100500497D01*
X82261004Y-100647006D01*
X82178788Y-100808362D01*
X82122829Y-100980590D01*
X82122828Y-100980593D01*
X82094500Y-101159454D01*
X79297375Y-101159454D01*
X79307552Y-100863246D01*
X79307552Y-99754404D01*
X79305476Y-99693995D01*
X79298676Y-99496055D01*
X79269477Y-98646216D01*
X79267636Y-98619454D01*
X82094500Y-98619454D01*
X82094500Y-98800545D01*
X82122828Y-98979406D01*
X82122829Y-98979409D01*
X82178789Y-99151639D01*
X82261004Y-99312994D01*
X82346410Y-99430546D01*
X82367448Y-99459502D01*
X82367452Y-99459507D01*
X82495493Y-99587548D01*
X82495497Y-99587551D01*
X82495499Y-99587553D01*
X82642006Y-99693996D01*
X82803361Y-99776211D01*
X82975591Y-99832171D01*
X83154454Y-99860500D01*
X83154455Y-99860500D01*
X83335545Y-99860500D01*
X83335546Y-99860500D01*
X83514409Y-99832171D01*
X83686639Y-99776211D01*
X83847994Y-99693996D01*
X83994501Y-99587553D01*
X83994504Y-99587549D01*
X83994507Y-99587548D01*
X84122548Y-99459507D01*
X84122549Y-99459504D01*
X84122553Y-99459501D01*
X84228996Y-99312994D01*
X84311211Y-99151639D01*
X84367171Y-98979409D01*
X84395500Y-98800546D01*
X84395500Y-98619454D01*
X84634500Y-98619454D01*
X84634500Y-98800545D01*
X84662828Y-98979406D01*
X84662829Y-98979409D01*
X84718789Y-99151639D01*
X84801004Y-99312994D01*
X84886410Y-99430546D01*
X84907448Y-99459502D01*
X84907452Y-99459507D01*
X85035493Y-99587548D01*
X85035497Y-99587551D01*
X85035499Y-99587553D01*
X85182006Y-99693996D01*
X85343361Y-99776211D01*
X85515591Y-99832171D01*
X85694454Y-99860500D01*
X85694455Y-99860500D01*
X85875545Y-99860500D01*
X85875546Y-99860500D01*
X86054409Y-99832171D01*
X86226639Y-99776211D01*
X86387994Y-99693996D01*
X86534501Y-99587553D01*
X86534504Y-99587549D01*
X86534507Y-99587548D01*
X86662548Y-99459507D01*
X86662549Y-99459504D01*
X86662553Y-99459501D01*
X86768996Y-99312994D01*
X86801371Y-99249454D01*
X91849500Y-99249454D01*
X91849500Y-99430545D01*
X91877828Y-99609406D01*
X91877829Y-99609409D01*
X91927258Y-99761540D01*
X91933789Y-99781639D01*
X92016004Y-99942994D01*
X92122447Y-100089501D01*
X92122448Y-100089502D01*
X92122452Y-100089507D01*
X92250493Y-100217548D01*
X92250497Y-100217551D01*
X92250499Y-100217553D01*
X92397006Y-100323996D01*
X92558361Y-100406211D01*
X92730591Y-100462171D01*
X92909454Y-100490500D01*
X92909455Y-100490500D01*
X93090545Y-100490500D01*
X93090546Y-100490500D01*
X93269409Y-100462171D01*
X93441639Y-100406211D01*
X93602994Y-100323996D01*
X93749501Y-100217553D01*
X93749504Y-100217549D01*
X93749507Y-100217548D01*
X93877548Y-100089507D01*
X93877549Y-100089504D01*
X93877553Y-100089501D01*
X93983996Y-99942994D01*
X94066211Y-99781639D01*
X94122171Y-99609409D01*
X94150500Y-99430546D01*
X94150500Y-99249454D01*
X94122171Y-99070591D01*
X94066211Y-98898361D01*
X93983996Y-98737006D01*
X93877553Y-98590499D01*
X93877551Y-98590497D01*
X93877548Y-98590493D01*
X93749507Y-98462452D01*
X93749502Y-98462448D01*
X93719421Y-98440593D01*
X93602994Y-98356004D01*
X93441639Y-98273789D01*
X93441638Y-98273788D01*
X93441637Y-98273788D01*
X93269409Y-98217829D01*
X93269406Y-98217828D01*
X93132007Y-98196066D01*
X93090546Y-98189500D01*
X92909454Y-98189500D01*
X92875794Y-98194831D01*
X92730593Y-98217828D01*
X92730590Y-98217829D01*
X92558362Y-98273788D01*
X92397006Y-98356004D01*
X92250497Y-98462448D01*
X92122448Y-98590497D01*
X92016004Y-98737006D01*
X91933788Y-98898362D01*
X91877829Y-99070590D01*
X91877828Y-99070593D01*
X91849500Y-99249454D01*
X86801371Y-99249454D01*
X86851211Y-99151639D01*
X86907171Y-98979409D01*
X86935500Y-98800546D01*
X86935500Y-98619454D01*
X86907171Y-98440591D01*
X86851211Y-98268361D01*
X86768996Y-98107006D01*
X86662553Y-97960499D01*
X86662551Y-97960497D01*
X86662548Y-97960493D01*
X86534507Y-97832452D01*
X86534502Y-97832448D01*
X86534501Y-97832447D01*
X86387994Y-97726004D01*
X86226639Y-97643789D01*
X86226638Y-97643788D01*
X86226637Y-97643788D01*
X86054409Y-97587829D01*
X86054406Y-97587828D01*
X85896880Y-97562879D01*
X85875546Y-97559500D01*
X85694454Y-97559500D01*
X85673120Y-97562879D01*
X85515593Y-97587828D01*
X85515590Y-97587829D01*
X85343362Y-97643788D01*
X85182006Y-97726004D01*
X85035497Y-97832448D01*
X84907448Y-97960497D01*
X84801004Y-98107006D01*
X84718788Y-98268362D01*
X84662829Y-98440590D01*
X84662828Y-98440593D01*
X84634500Y-98619454D01*
X84395500Y-98619454D01*
X84367171Y-98440591D01*
X84311211Y-98268361D01*
X84228996Y-98107006D01*
X84122553Y-97960499D01*
X84122551Y-97960497D01*
X84122548Y-97960493D01*
X83994507Y-97832452D01*
X83994502Y-97832448D01*
X83994501Y-97832447D01*
X83847994Y-97726004D01*
X83686639Y-97643789D01*
X83686638Y-97643788D01*
X83686637Y-97643788D01*
X83514409Y-97587829D01*
X83514406Y-97587828D01*
X83356880Y-97562879D01*
X83335546Y-97559500D01*
X83154454Y-97559500D01*
X83133120Y-97562879D01*
X82975593Y-97587828D01*
X82975590Y-97587829D01*
X82803362Y-97643788D01*
X82642006Y-97726004D01*
X82495497Y-97832448D01*
X82367448Y-97960497D01*
X82261004Y-98107006D01*
X82178788Y-98268362D01*
X82122829Y-98440590D01*
X82122828Y-98440593D01*
X82094500Y-98619454D01*
X79267636Y-98619454D01*
X79265644Y-98590497D01*
X79193373Y-97539998D01*
X79126220Y-96890545D01*
X79079327Y-96437028D01*
X79079325Y-96437014D01*
X79030555Y-96084239D01*
X79029893Y-96079454D01*
X82094500Y-96079454D01*
X82094500Y-96260545D01*
X82122828Y-96439406D01*
X82122829Y-96439409D01*
X82177755Y-96608459D01*
X82178789Y-96611639D01*
X82261004Y-96772994D01*
X82346410Y-96890546D01*
X82367448Y-96919502D01*
X82367452Y-96919507D01*
X82495493Y-97047548D01*
X82495497Y-97047551D01*
X82495499Y-97047553D01*
X82642006Y-97153996D01*
X82803361Y-97236211D01*
X82975591Y-97292171D01*
X83154454Y-97320500D01*
X83154455Y-97320500D01*
X83335545Y-97320500D01*
X83335546Y-97320500D01*
X83514409Y-97292171D01*
X83686639Y-97236211D01*
X83847994Y-97153996D01*
X83994501Y-97047553D01*
X83994504Y-97047549D01*
X83994507Y-97047548D01*
X84122548Y-96919507D01*
X84122549Y-96919504D01*
X84122553Y-96919501D01*
X84228996Y-96772994D01*
X84261371Y-96709454D01*
X91849500Y-96709454D01*
X91849500Y-96890545D01*
X91877828Y-97069406D01*
X91877829Y-97069409D01*
X91931341Y-97234107D01*
X91933789Y-97241639D01*
X92016004Y-97402994D01*
X92115536Y-97539989D01*
X92122448Y-97549502D01*
X92122452Y-97549507D01*
X92250493Y-97677548D01*
X92250497Y-97677551D01*
X92250499Y-97677553D01*
X92397006Y-97783996D01*
X92558361Y-97866211D01*
X92730591Y-97922171D01*
X92909454Y-97950500D01*
X92909455Y-97950500D01*
X93090545Y-97950500D01*
X93090546Y-97950500D01*
X93269409Y-97922171D01*
X93441639Y-97866211D01*
X93602994Y-97783996D01*
X93749501Y-97677553D01*
X93749504Y-97677549D01*
X93749507Y-97677548D01*
X93877548Y-97549507D01*
X93877549Y-97549504D01*
X93877553Y-97549501D01*
X93983996Y-97402994D01*
X94066211Y-97241639D01*
X94122171Y-97069409D01*
X94150500Y-96890546D01*
X94150500Y-96709454D01*
X94122171Y-96530591D01*
X94066211Y-96358361D01*
X93983996Y-96197006D01*
X93877553Y-96050499D01*
X93877551Y-96050497D01*
X93877548Y-96050493D01*
X93749507Y-95922452D01*
X93749502Y-95922448D01*
X93733057Y-95910500D01*
X93602994Y-95816004D01*
X93441639Y-95733789D01*
X93441638Y-95733788D01*
X93441637Y-95733788D01*
X93269409Y-95677829D01*
X93269406Y-95677828D01*
X93124375Y-95654858D01*
X93090546Y-95649500D01*
X92909454Y-95649500D01*
X92875794Y-95654831D01*
X92730593Y-95677828D01*
X92730590Y-95677829D01*
X92558362Y-95733788D01*
X92397006Y-95816004D01*
X92250497Y-95922448D01*
X92122448Y-96050497D01*
X92016004Y-96197006D01*
X91933788Y-96358362D01*
X91877829Y-96530590D01*
X91877828Y-96530593D01*
X91849500Y-96709454D01*
X84261371Y-96709454D01*
X84311211Y-96611639D01*
X84367171Y-96439409D01*
X84395500Y-96260546D01*
X84395500Y-96079454D01*
X84367171Y-95900591D01*
X84311211Y-95728361D01*
X84228996Y-95567006D01*
X84122553Y-95420499D01*
X84122551Y-95420497D01*
X84122548Y-95420493D01*
X83994507Y-95292452D01*
X83994502Y-95292448D01*
X83994501Y-95292447D01*
X83847994Y-95186004D01*
X83686639Y-95103789D01*
X83686638Y-95103788D01*
X83686637Y-95103788D01*
X83514409Y-95047829D01*
X83514406Y-95047828D01*
X83377007Y-95026066D01*
X83335546Y-95019500D01*
X83154454Y-95019500D01*
X83120794Y-95024831D01*
X82975593Y-95047828D01*
X82975590Y-95047829D01*
X82803362Y-95103788D01*
X82642006Y-95186004D01*
X82495497Y-95292448D01*
X82367448Y-95420497D01*
X82261004Y-95567006D01*
X82178788Y-95728362D01*
X82122829Y-95900590D01*
X82122828Y-95900593D01*
X82094500Y-96079454D01*
X79029893Y-96079454D01*
X78945391Y-95468217D01*
X78927476Y-95338633D01*
X78737999Y-94246100D01*
X78695114Y-94040939D01*
X78511121Y-93160731D01*
X78511118Y-93160717D01*
X78247102Y-92083765D01*
X77946262Y-91016514D01*
X77918461Y-90929454D01*
X82049500Y-90929454D01*
X82049500Y-91110545D01*
X82077828Y-91289406D01*
X82077829Y-91289409D01*
X82133756Y-91461539D01*
X82133789Y-91461639D01*
X82216004Y-91622994D01*
X82264670Y-91689977D01*
X82322448Y-91769502D01*
X82322452Y-91769507D01*
X82450493Y-91897548D01*
X82450497Y-91897551D01*
X82450499Y-91897553D01*
X82597006Y-92003996D01*
X82758361Y-92086211D01*
X82930591Y-92142171D01*
X83109454Y-92170500D01*
X83109455Y-92170500D01*
X83290545Y-92170500D01*
X83290546Y-92170500D01*
X83469409Y-92142171D01*
X83641639Y-92086211D01*
X83802994Y-92003996D01*
X83949501Y-91897553D01*
X83949504Y-91897549D01*
X83949507Y-91897548D01*
X84077548Y-91769507D01*
X84077549Y-91769504D01*
X84077553Y-91769501D01*
X84148737Y-91671524D01*
X84156602Y-91660699D01*
X84188579Y-91641103D01*
X84196244Y-91640500D01*
X87834776Y-91640500D01*
X87869424Y-91654852D01*
X87880359Y-91671524D01*
X87887635Y-91689974D01*
X87908729Y-91717791D01*
X87974922Y-91805078D01*
X88090025Y-91892364D01*
X88224410Y-91945359D01*
X88224413Y-91945359D01*
X88224415Y-91945360D01*
X88224414Y-91945360D01*
X88308853Y-91955500D01*
X88308856Y-91955500D01*
X88891147Y-91955500D01*
X88975585Y-91945360D01*
X88975586Y-91945359D01*
X88975590Y-91945359D01*
X89109975Y-91892364D01*
X89225078Y-91805078D01*
X89312364Y-91689975D01*
X89365359Y-91555590D01*
X89368984Y-91525410D01*
X89375500Y-91471147D01*
X89375500Y-90938852D01*
X89366019Y-90859904D01*
X89366018Y-90859903D01*
X89365702Y-90857271D01*
X91079500Y-90857271D01*
X91079500Y-92792730D01*
X91106792Y-92894587D01*
X91106793Y-92894589D01*
X91159520Y-92985913D01*
X91928253Y-93754646D01*
X91942605Y-93789294D01*
X91937265Y-93811538D01*
X91933792Y-93818353D01*
X91933789Y-93818361D01*
X91877829Y-93990590D01*
X91877828Y-93990593D01*
X91859815Y-94104326D01*
X91849500Y-94169454D01*
X91849500Y-94350546D01*
X91850424Y-94356381D01*
X91877828Y-94529406D01*
X91877829Y-94529409D01*
X91928544Y-94685498D01*
X91933789Y-94701639D01*
X92016004Y-94862994D01*
X92122447Y-95009501D01*
X92122448Y-95009502D01*
X92122452Y-95009507D01*
X92250493Y-95137548D01*
X92250497Y-95137551D01*
X92250499Y-95137553D01*
X92397006Y-95243996D01*
X92558361Y-95326211D01*
X92730591Y-95382171D01*
X92909454Y-95410500D01*
X92909455Y-95410500D01*
X93090545Y-95410500D01*
X93090546Y-95410500D01*
X93269409Y-95382171D01*
X93441639Y-95326211D01*
X93602994Y-95243996D01*
X93749501Y-95137553D01*
X93749504Y-95137549D01*
X93749507Y-95137548D01*
X93877548Y-95009507D01*
X93877549Y-95009504D01*
X93877553Y-95009501D01*
X93983996Y-94862994D01*
X94066211Y-94701639D01*
X94122171Y-94529409D01*
X94150500Y-94350546D01*
X94150500Y-94169454D01*
X94122171Y-93990591D01*
X94066211Y-93818361D01*
X93983996Y-93657006D01*
X93877553Y-93510499D01*
X93877551Y-93510497D01*
X93877548Y-93510493D01*
X93749507Y-93382452D01*
X93749502Y-93382448D01*
X93749501Y-93382447D01*
X93602994Y-93276004D01*
X93441639Y-93193789D01*
X93441638Y-93193788D01*
X93441637Y-93193788D01*
X93269409Y-93137829D01*
X93269406Y-93137828D01*
X93132007Y-93116066D01*
X93090546Y-93109500D01*
X92909454Y-93109500D01*
X92875794Y-93114831D01*
X92730593Y-93137828D01*
X92730590Y-93137829D01*
X92558361Y-93193789D01*
X92558353Y-93193792D01*
X92551538Y-93197265D01*
X92514151Y-93200206D01*
X92494646Y-93188253D01*
X91894852Y-92588459D01*
X91880500Y-92553811D01*
X91880500Y-92261151D01*
X91894852Y-92226503D01*
X91929500Y-92212151D01*
X91964148Y-92226503D01*
X91973158Y-92238904D01*
X92016004Y-92322994D01*
X92094111Y-92430500D01*
X92122448Y-92469502D01*
X92122452Y-92469507D01*
X92250493Y-92597548D01*
X92250497Y-92597551D01*
X92250499Y-92597553D01*
X92397006Y-92703996D01*
X92558361Y-92786211D01*
X92730591Y-92842171D01*
X92909454Y-92870500D01*
X92909455Y-92870500D01*
X93090545Y-92870500D01*
X93090546Y-92870500D01*
X93269409Y-92842171D01*
X93441639Y-92786211D01*
X93602994Y-92703996D01*
X93749501Y-92597553D01*
X93749504Y-92597549D01*
X93749507Y-92597548D01*
X93877548Y-92469507D01*
X93877549Y-92469504D01*
X93877553Y-92469501D01*
X93983996Y-92322994D01*
X94066211Y-92161639D01*
X94066213Y-92161633D01*
X94068578Y-92154357D01*
X94092935Y-92125840D01*
X94115179Y-92120500D01*
X95133811Y-92120500D01*
X95168459Y-92134852D01*
X97066236Y-94032629D01*
X97118957Y-94063068D01*
X97157557Y-94085354D01*
X97157558Y-94085354D01*
X97157561Y-94085356D01*
X97215681Y-94100928D01*
X97237646Y-94113610D01*
X97316705Y-94192669D01*
X97316708Y-94192670D01*
X97316711Y-94192673D01*
X97372002Y-94224595D01*
X97394832Y-94254348D01*
X97389937Y-94291530D01*
X97360185Y-94314360D01*
X97268215Y-94339004D01*
X97268213Y-94339004D01*
X97131290Y-94418056D01*
X97131281Y-94418063D01*
X97019482Y-94529862D01*
X97019475Y-94529871D01*
X96940423Y-94666794D01*
X96940422Y-94666798D01*
X96899500Y-94819520D01*
X96899500Y-94977641D01*
X96940422Y-95130363D01*
X96940423Y-95130367D01*
X97019476Y-95267291D01*
X97019478Y-95267293D01*
X97019480Y-95267297D01*
X97019482Y-95267299D01*
X97021136Y-95269454D01*
X97030848Y-95305677D01*
X97021145Y-95329112D01*
X97019480Y-95331281D01*
X96940423Y-95468213D01*
X96940422Y-95468217D01*
X96899500Y-95620939D01*
X96899500Y-95779060D01*
X96940422Y-95931782D01*
X96940423Y-95931786D01*
X97019475Y-96068709D01*
X97019482Y-96068718D01*
X97065148Y-96114384D01*
X97079500Y-96149032D01*
X97079500Y-97213810D01*
X97065148Y-97248458D01*
X93505353Y-100808252D01*
X93470705Y-100822604D01*
X93448461Y-100817264D01*
X93441647Y-100813792D01*
X93441639Y-100813789D01*
X93269409Y-100757829D01*
X93269406Y-100757828D01*
X93132007Y-100736066D01*
X93090546Y-100729500D01*
X92909454Y-100729500D01*
X92875794Y-100734831D01*
X92730593Y-100757828D01*
X92730590Y-100757829D01*
X92558362Y-100813788D01*
X92397006Y-100896004D01*
X92250497Y-101002448D01*
X92122448Y-101130497D01*
X92016004Y-101277006D01*
X91933788Y-101438362D01*
X91877829Y-101610590D01*
X91877828Y-101610593D01*
X91864992Y-101691639D01*
X91849500Y-101789454D01*
X91849500Y-101970546D01*
X91849643Y-101971447D01*
X91877828Y-102149406D01*
X91877829Y-102149409D01*
X91905312Y-102233996D01*
X91933789Y-102321639D01*
X92016004Y-102482994D01*
X92107916Y-102609500D01*
X92122448Y-102629502D01*
X92122452Y-102629507D01*
X92250493Y-102757548D01*
X92250497Y-102757551D01*
X92250499Y-102757553D01*
X92397006Y-102863996D01*
X92558361Y-102946211D01*
X92730591Y-103002171D01*
X92909454Y-103030500D01*
X92909455Y-103030500D01*
X93090545Y-103030500D01*
X93090546Y-103030500D01*
X93269409Y-103002171D01*
X93441639Y-102946211D01*
X93602994Y-102863996D01*
X93749501Y-102757553D01*
X93749504Y-102757549D01*
X93749507Y-102757548D01*
X93877548Y-102629507D01*
X93877549Y-102629504D01*
X93877553Y-102629501D01*
X93983996Y-102482994D01*
X94066211Y-102321639D01*
X94122171Y-102149409D01*
X94150500Y-101970546D01*
X94150500Y-101789454D01*
X94122171Y-101610591D01*
X94066211Y-101438361D01*
X94062733Y-101431536D01*
X94059793Y-101394150D01*
X94071744Y-101374647D01*
X97721878Y-97724512D01*
X97721883Y-97724509D01*
X97725911Y-97720480D01*
X97725913Y-97720480D01*
X97800480Y-97645913D01*
X97838065Y-97580813D01*
X97867818Y-97557984D01*
X97905000Y-97562879D01*
X97927830Y-97592632D01*
X97929500Y-97605314D01*
X97929500Y-98903810D01*
X97915148Y-98938458D01*
X93505353Y-103348252D01*
X93470705Y-103362604D01*
X93448461Y-103357264D01*
X93441647Y-103353792D01*
X93441639Y-103353789D01*
X93269409Y-103297829D01*
X93269406Y-103297828D01*
X93132007Y-103276066D01*
X93090546Y-103269500D01*
X92909454Y-103269500D01*
X92875794Y-103274831D01*
X92730593Y-103297828D01*
X92730590Y-103297829D01*
X92558362Y-103353788D01*
X92397006Y-103436004D01*
X92250497Y-103542448D01*
X92122448Y-103670497D01*
X92016004Y-103817006D01*
X91933788Y-103978362D01*
X91877829Y-104150590D01*
X91877828Y-104150593D01*
X91849500Y-104329454D01*
X91849500Y-104510545D01*
X91877828Y-104689406D01*
X91877829Y-104689409D01*
X91932025Y-104856212D01*
X91933789Y-104861639D01*
X92016004Y-105022994D01*
X92122447Y-105169501D01*
X92122448Y-105169502D01*
X92122452Y-105169507D01*
X92250493Y-105297548D01*
X92250497Y-105297551D01*
X92250499Y-105297553D01*
X92397006Y-105403996D01*
X92558361Y-105486211D01*
X92730591Y-105542171D01*
X92909454Y-105570500D01*
X92909455Y-105570500D01*
X93090545Y-105570500D01*
X93090546Y-105570500D01*
X93269409Y-105542171D01*
X93441639Y-105486211D01*
X93602994Y-105403996D01*
X93749501Y-105297553D01*
X93749504Y-105297549D01*
X93749507Y-105297548D01*
X93877548Y-105169507D01*
X93877549Y-105169504D01*
X93877553Y-105169501D01*
X93983996Y-105022994D01*
X94066211Y-104861639D01*
X94122171Y-104689409D01*
X94150500Y-104510546D01*
X94150500Y-104329454D01*
X94122171Y-104150591D01*
X94066211Y-103978361D01*
X94062733Y-103971536D01*
X94059793Y-103934150D01*
X94071744Y-103914647D01*
X98650480Y-99335913D01*
X98703207Y-99244588D01*
X98730499Y-99142730D01*
X98730500Y-99142730D01*
X98730500Y-95277270D01*
X98730499Y-95277269D01*
X98704877Y-95181645D01*
X98704876Y-95181641D01*
X98704876Y-95181642D01*
X98703207Y-95175413D01*
X98703207Y-95175412D01*
X98650480Y-95084087D01*
X98145910Y-94579517D01*
X98054586Y-94526790D01*
X98054583Y-94526789D01*
X97961891Y-94501952D01*
X97939925Y-94489270D01*
X97868718Y-94418063D01*
X97868716Y-94418061D01*
X97868713Y-94418059D01*
X97868709Y-94418056D01*
X97813418Y-94386134D01*
X97790588Y-94356381D01*
X97795483Y-94319199D01*
X97825236Y-94296369D01*
X97843295Y-94291530D01*
X97917205Y-94271726D01*
X98054137Y-94192669D01*
X98165941Y-94080865D01*
X98244998Y-93943933D01*
X98272845Y-93840009D01*
X98273700Y-93836818D01*
X98296530Y-93807065D01*
X98321030Y-93800500D01*
X98379060Y-93800500D01*
X98379060Y-93800499D01*
X98531784Y-93759577D01*
X98668716Y-93680520D01*
X98780520Y-93568716D01*
X98859577Y-93431784D01*
X98900499Y-93279060D01*
X98900500Y-93279060D01*
X98900500Y-93120940D01*
X98900499Y-93120939D01*
X98859577Y-92968217D01*
X98859576Y-92968213D01*
X98780524Y-92831290D01*
X98780521Y-92831287D01*
X98780520Y-92831284D01*
X98668716Y-92719480D01*
X98668713Y-92719478D01*
X98668709Y-92719475D01*
X98531786Y-92640423D01*
X98531782Y-92640422D01*
X98379060Y-92599500D01*
X98379057Y-92599500D01*
X98220943Y-92599500D01*
X98220940Y-92599500D01*
X98212735Y-92601698D01*
X98175554Y-92596801D01*
X98165408Y-92589015D01*
X95897852Y-90321459D01*
X95883500Y-90286811D01*
X95897852Y-90252163D01*
X95919814Y-90239482D01*
X95956784Y-90229577D01*
X96093716Y-90150520D01*
X96205520Y-90038716D01*
X96284577Y-89901784D01*
X96289955Y-89881713D01*
X96312785Y-89851960D01*
X96349967Y-89847065D01*
X96371933Y-89859747D01*
X105369500Y-98857314D01*
X105462686Y-98950500D01*
X105504457Y-98974617D01*
X105576811Y-99016391D01*
X105576813Y-99016391D01*
X105576814Y-99016392D01*
X105654744Y-99037273D01*
X105704104Y-99050499D01*
X105704105Y-99050500D01*
X105704108Y-99050500D01*
X108945895Y-99050500D01*
X108945895Y-99050499D01*
X109073186Y-99016392D01*
X109187314Y-98950500D01*
X111180500Y-96957314D01*
X111246392Y-96843186D01*
X111280499Y-96715895D01*
X111280500Y-96715895D01*
X111280500Y-87667610D01*
X111294852Y-87632962D01*
X111622962Y-87304852D01*
X111657610Y-87290500D01*
X112123153Y-87290500D01*
X112157801Y-87304852D01*
X112172153Y-87339500D01*
X112157801Y-87374148D01*
X112147653Y-87381935D01*
X112091290Y-87414475D01*
X112091281Y-87414482D01*
X111979482Y-87526281D01*
X111979475Y-87526290D01*
X111900423Y-87663213D01*
X111900422Y-87663217D01*
X111859500Y-87815939D01*
X111859500Y-87974060D01*
X111900422Y-88126782D01*
X111900423Y-88126786D01*
X111979475Y-88263709D01*
X111979482Y-88263718D01*
X112045148Y-88329384D01*
X112059500Y-88364032D01*
X112059500Y-96573811D01*
X112045148Y-96608459D01*
X106058459Y-102595148D01*
X106023811Y-102609500D01*
X102459032Y-102609500D01*
X102424384Y-102595148D01*
X102358718Y-102529482D01*
X102358716Y-102529480D01*
X102358713Y-102529478D01*
X102358709Y-102529475D01*
X102221786Y-102450423D01*
X102221782Y-102450422D01*
X102069060Y-102409500D01*
X102069057Y-102409500D01*
X101910943Y-102409500D01*
X101910940Y-102409500D01*
X101758217Y-102450422D01*
X101758213Y-102450423D01*
X101621290Y-102529475D01*
X101621281Y-102529482D01*
X101509482Y-102641281D01*
X101509475Y-102641290D01*
X101430423Y-102778213D01*
X101430422Y-102778217D01*
X101389500Y-102930939D01*
X101389500Y-103089060D01*
X101430422Y-103241782D01*
X101430423Y-103241786D01*
X101509475Y-103378709D01*
X101509478Y-103378713D01*
X101509480Y-103378716D01*
X101621284Y-103490520D01*
X101621287Y-103490521D01*
X101621290Y-103490524D01*
X101758213Y-103569576D01*
X101758215Y-103569576D01*
X101758216Y-103569577D01*
X101878665Y-103601851D01*
X101910939Y-103610499D01*
X101910940Y-103610500D01*
X101910943Y-103610500D01*
X102069060Y-103610500D01*
X102069060Y-103610499D01*
X102221784Y-103569577D01*
X102358716Y-103490520D01*
X102424384Y-103424852D01*
X102459032Y-103410500D01*
X106262730Y-103410500D01*
X106262730Y-103410499D01*
X106364588Y-103383207D01*
X106455913Y-103330480D01*
X107335852Y-102450539D01*
X107370500Y-102436188D01*
X107405148Y-102450540D01*
X107419500Y-102485188D01*
X107419500Y-102530968D01*
X107405148Y-102565616D01*
X107389482Y-102581281D01*
X107389475Y-102581290D01*
X107310423Y-102718213D01*
X107310422Y-102718217D01*
X107269500Y-102870939D01*
X107269500Y-103029060D01*
X107310422Y-103181782D01*
X107310423Y-103181786D01*
X107389475Y-103318709D01*
X107389482Y-103318718D01*
X107419585Y-103348821D01*
X107433937Y-103383469D01*
X107419585Y-103418117D01*
X107409438Y-103425904D01*
X107351281Y-103459482D01*
X107239482Y-103571281D01*
X107239475Y-103571290D01*
X107160423Y-103708213D01*
X107160422Y-103708217D01*
X107119500Y-103860939D01*
X107119500Y-104019060D01*
X107160422Y-104171782D01*
X107160423Y-104171786D01*
X107239475Y-104308709D01*
X107239478Y-104308713D01*
X107239480Y-104308716D01*
X107351284Y-104420520D01*
X107351287Y-104420521D01*
X107351290Y-104420524D01*
X107488213Y-104499576D01*
X107488215Y-104499576D01*
X107488216Y-104499577D01*
X107608665Y-104531851D01*
X107640939Y-104540499D01*
X107640940Y-104540500D01*
X107640943Y-104540500D01*
X107799060Y-104540500D01*
X107799060Y-104540499D01*
X107951784Y-104499577D01*
X108088716Y-104420520D01*
X108168972Y-104340262D01*
X108190935Y-104327583D01*
X108223952Y-104318735D01*
X108244588Y-104313207D01*
X108335913Y-104260480D01*
X117741878Y-94854512D01*
X117741883Y-94854509D01*
X117745911Y-94850480D01*
X117745913Y-94850480D01*
X117820480Y-94775913D01*
X117873207Y-94684587D01*
X117885374Y-94639179D01*
X117900501Y-94582727D01*
X117900501Y-94477273D01*
X117900501Y-94474277D01*
X117900500Y-94474259D01*
X117900500Y-91866188D01*
X117914851Y-91831541D01*
X118994646Y-90751745D01*
X119029293Y-90737394D01*
X119051536Y-90742733D01*
X119058361Y-90746211D01*
X119230591Y-90802171D01*
X119409454Y-90830500D01*
X119409455Y-90830500D01*
X119590545Y-90830500D01*
X119590546Y-90830500D01*
X119769409Y-90802171D01*
X119941639Y-90746211D01*
X120102994Y-90663996D01*
X120249501Y-90557553D01*
X120249504Y-90557549D01*
X120249507Y-90557548D01*
X120377548Y-90429507D01*
X120377549Y-90429504D01*
X120377553Y-90429501D01*
X120475859Y-90294193D01*
X120507834Y-90274598D01*
X120544301Y-90283353D01*
X120563897Y-90315329D01*
X120564500Y-90322995D01*
X120564500Y-92799313D01*
X120550148Y-92833961D01*
X119788961Y-93595148D01*
X119754313Y-93609500D01*
X118605141Y-93609500D01*
X118605131Y-93609501D01*
X118580007Y-93612415D01*
X118477233Y-93657794D01*
X118397794Y-93737233D01*
X118352415Y-93840006D01*
X118349500Y-93865134D01*
X118349500Y-95654858D01*
X118349501Y-95654868D01*
X118352415Y-95679992D01*
X118397794Y-95782766D01*
X118477233Y-95862205D01*
X118580006Y-95907584D01*
X118580009Y-95907585D01*
X118605135Y-95910500D01*
X120394864Y-95910499D01*
X120419991Y-95907585D01*
X120522765Y-95862206D01*
X120602206Y-95782765D01*
X120647585Y-95679991D01*
X120650500Y-95654865D01*
X120650499Y-93985685D01*
X120664851Y-93951038D01*
X120958883Y-93657006D01*
X121348487Y-93267403D01*
X121369141Y-93231629D01*
X121405821Y-93168097D01*
X121435500Y-93057335D01*
X121435500Y-85442665D01*
X121435500Y-85442663D01*
X121423214Y-85396815D01*
X121423214Y-85396814D01*
X121405822Y-85331904D01*
X121405821Y-85331901D01*
X121348486Y-85232596D01*
X119087403Y-82971513D01*
X118988098Y-82914179D01*
X118877337Y-82884500D01*
X118877335Y-82884500D01*
X118167335Y-82884500D01*
X118057335Y-82884500D01*
X112419500Y-82884500D01*
X112384852Y-82870148D01*
X112370500Y-82835500D01*
X112370500Y-82716894D01*
X112359878Y-82628443D01*
X112359877Y-82628442D01*
X112359877Y-82628436D01*
X112304361Y-82487658D01*
X112212922Y-82367078D01*
X112121558Y-82297794D01*
X112092344Y-82275640D01*
X112092342Y-82275639D01*
X111951564Y-82220123D01*
X111951560Y-82220122D01*
X111951556Y-82220121D01*
X111863105Y-82209500D01*
X111863102Y-82209500D01*
X109676898Y-82209500D01*
X109676895Y-82209500D01*
X109588443Y-82220121D01*
X109588437Y-82220122D01*
X109588436Y-82220123D01*
X109513942Y-82249500D01*
X109447655Y-82275640D01*
X109327078Y-82367078D01*
X109235640Y-82487655D01*
X109180123Y-82628437D01*
X109180121Y-82628443D01*
X109169500Y-82716894D01*
X109169500Y-83903105D01*
X109180121Y-83991556D01*
X109180122Y-83991560D01*
X109180123Y-83991564D01*
X109235639Y-84132342D01*
X109235640Y-84132344D01*
X109258016Y-84161851D01*
X109327078Y-84252922D01*
X109447658Y-84344361D01*
X109588436Y-84399877D01*
X109588442Y-84399877D01*
X109588443Y-84399878D01*
X109676895Y-84410500D01*
X109676898Y-84410500D01*
X111863105Y-84410500D01*
X111951556Y-84399878D01*
X111951556Y-84399877D01*
X111951564Y-84399877D01*
X112092342Y-84344361D01*
X112212922Y-84252922D01*
X112304361Y-84132342D01*
X112359877Y-83991564D01*
X112370500Y-83903102D01*
X112370500Y-83804500D01*
X112384852Y-83769852D01*
X112419500Y-83755500D01*
X117942665Y-83755500D01*
X118167335Y-83755500D01*
X118619314Y-83755500D01*
X118653962Y-83769852D01*
X120550148Y-85666038D01*
X120564500Y-85700686D01*
X120564500Y-86497004D01*
X120550148Y-86531652D01*
X120515500Y-86546004D01*
X120480852Y-86531652D01*
X120475858Y-86525805D01*
X120468132Y-86515171D01*
X120377553Y-86390499D01*
X120377551Y-86390497D01*
X120377548Y-86390493D01*
X120249507Y-86262452D01*
X120249502Y-86262448D01*
X120248631Y-86261815D01*
X120102994Y-86156004D01*
X119941639Y-86073789D01*
X119941638Y-86073788D01*
X119941637Y-86073788D01*
X119769409Y-86017829D01*
X119769406Y-86017828D01*
X119632007Y-85996066D01*
X119590546Y-85989500D01*
X119409454Y-85989500D01*
X119375794Y-85994831D01*
X119230593Y-86017828D01*
X119230590Y-86017829D01*
X119058362Y-86073788D01*
X118897006Y-86156004D01*
X118750497Y-86262448D01*
X118622448Y-86390497D01*
X118516004Y-86537006D01*
X118433788Y-86698362D01*
X118377829Y-86870590D01*
X118377828Y-86870593D01*
X118349500Y-87049454D01*
X118349500Y-87230545D01*
X118377828Y-87409406D01*
X118377829Y-87409409D01*
X118433788Y-87581638D01*
X118437265Y-87588461D01*
X118440206Y-87625848D01*
X118428253Y-87645353D01*
X115094148Y-90979459D01*
X115059500Y-90993811D01*
X115024852Y-90979459D01*
X115010500Y-90944811D01*
X115010500Y-87304105D01*
X115010499Y-87304104D01*
X115003292Y-87277207D01*
X114976392Y-87176814D01*
X114976391Y-87176813D01*
X114976391Y-87176811D01*
X114910499Y-87062685D01*
X114237314Y-86389500D01*
X114123188Y-86323608D01*
X114123184Y-86323607D01*
X113995895Y-86289500D01*
X113995892Y-86289500D01*
X111495893Y-86289500D01*
X111364108Y-86289500D01*
X111364105Y-86289500D01*
X111236815Y-86323607D01*
X111236811Y-86323608D01*
X111122685Y-86389500D01*
X111122685Y-86389501D01*
X110379501Y-87132685D01*
X110379500Y-87132685D01*
X110313608Y-87246811D01*
X110313607Y-87246815D01*
X110279500Y-87374104D01*
X110279500Y-96422390D01*
X110265148Y-96457038D01*
X108687038Y-98035148D01*
X108652390Y-98049500D01*
X105997610Y-98049500D01*
X105962962Y-98035148D01*
X100441962Y-92514148D01*
X100427610Y-92479500D01*
X100441962Y-92444852D01*
X100476610Y-92430500D01*
X106310968Y-92430500D01*
X106345616Y-92444852D01*
X106411284Y-92510520D01*
X106411287Y-92510521D01*
X106411290Y-92510524D01*
X106548213Y-92589576D01*
X106548215Y-92589576D01*
X106548216Y-92589577D01*
X106668665Y-92621851D01*
X106700939Y-92630499D01*
X106700940Y-92630500D01*
X106700943Y-92630500D01*
X106859060Y-92630500D01*
X106859060Y-92630499D01*
X107011784Y-92589577D01*
X107012758Y-92589015D01*
X107148709Y-92510524D01*
X107148708Y-92510524D01*
X107148716Y-92510520D01*
X107260520Y-92398716D01*
X107304238Y-92322993D01*
X107339576Y-92261786D01*
X107339576Y-92261785D01*
X107339577Y-92261784D01*
X107380499Y-92109060D01*
X107380500Y-92109060D01*
X107380500Y-91950940D01*
X107380499Y-91950939D01*
X107348506Y-91831540D01*
X107339577Y-91798216D01*
X107339576Y-91798215D01*
X107339576Y-91798213D01*
X107260524Y-91661290D01*
X107260521Y-91661287D01*
X107260520Y-91661284D01*
X107222229Y-91622993D01*
X107171308Y-91572071D01*
X107156956Y-91537423D01*
X107171307Y-91502776D01*
X107309020Y-91365062D01*
X107309023Y-91365061D01*
X107315912Y-91358172D01*
X107315913Y-91358172D01*
X107390480Y-91283605D01*
X107443207Y-91192279D01*
X107453085Y-91155413D01*
X107467719Y-91100799D01*
X107480399Y-91078836D01*
X107550520Y-91008716D01*
X107629577Y-90871784D01*
X107670499Y-90719060D01*
X107670500Y-90719060D01*
X107670500Y-90560940D01*
X107670499Y-90560939D01*
X107635282Y-90429507D01*
X107629577Y-90408216D01*
X107629576Y-90408215D01*
X107629576Y-90408213D01*
X107552227Y-90274240D01*
X107547332Y-90237058D01*
X107560012Y-90215094D01*
X107640678Y-90134429D01*
X107695936Y-90038718D01*
X107719734Y-89997499D01*
X107719734Y-89997498D01*
X107719735Y-89997497D01*
X107760657Y-89844773D01*
X107760658Y-89844773D01*
X107760658Y-89686653D01*
X107760657Y-89686652D01*
X107734613Y-89589454D01*
X107719735Y-89533929D01*
X107719734Y-89533928D01*
X107719734Y-89533926D01*
X107640682Y-89397003D01*
X107640679Y-89397000D01*
X107640678Y-89396997D01*
X107544684Y-89301003D01*
X107530332Y-89266355D01*
X107544683Y-89231709D01*
X107680480Y-89095913D01*
X107694224Y-89072108D01*
X107733207Y-89004587D01*
X107760499Y-88902730D01*
X107760500Y-88902730D01*
X107760500Y-88829032D01*
X107774852Y-88794384D01*
X107804088Y-88765148D01*
X107840520Y-88728716D01*
X107919577Y-88591784D01*
X107960499Y-88439060D01*
X107960500Y-88439060D01*
X107960500Y-88280940D01*
X107960499Y-88280939D01*
X107940475Y-88206210D01*
X107919577Y-88128216D01*
X107919576Y-88128215D01*
X107919576Y-88128213D01*
X107840524Y-87991290D01*
X107840521Y-87991287D01*
X107840520Y-87991284D01*
X107728716Y-87879480D01*
X107728713Y-87879478D01*
X107728709Y-87879475D01*
X107591786Y-87800423D01*
X107591782Y-87800422D01*
X107439060Y-87759500D01*
X107439057Y-87759500D01*
X107280943Y-87759500D01*
X107280940Y-87759500D01*
X107128217Y-87800422D01*
X107128213Y-87800423D01*
X106991290Y-87879475D01*
X106991281Y-87879482D01*
X106879482Y-87991281D01*
X106879475Y-87991290D01*
X106800423Y-88128213D01*
X106800422Y-88128217D01*
X106759500Y-88280939D01*
X106759500Y-88439060D01*
X106800422Y-88591782D01*
X106800423Y-88591786D01*
X106866364Y-88706000D01*
X106871259Y-88743183D01*
X106848429Y-88772935D01*
X106823929Y-88779500D01*
X104920606Y-88779500D01*
X104885958Y-88765148D01*
X104871606Y-88730500D01*
X104885958Y-88695852D01*
X104891509Y-88691075D01*
X104917150Y-88672150D01*
X104997791Y-88562885D01*
X104997791Y-88562884D01*
X104997793Y-88562882D01*
X105042646Y-88434699D01*
X105045500Y-88404266D01*
X105045500Y-86595734D01*
X105042646Y-86565301D01*
X105042611Y-86565202D01*
X104997795Y-86437123D01*
X104997791Y-86437114D01*
X104917150Y-86327849D01*
X104805722Y-86245612D01*
X104795996Y-86234726D01*
X104795445Y-86235150D01*
X104793489Y-86232601D01*
X104793487Y-86232598D01*
X103222402Y-84661513D01*
X103123097Y-84604179D01*
X103012336Y-84574500D01*
X103012334Y-84574500D01*
X95507335Y-84574500D01*
X95392665Y-84574500D01*
X95392663Y-84574500D01*
X95281902Y-84604179D01*
X95281900Y-84604179D01*
X95182596Y-84661513D01*
X95182596Y-84661514D01*
X94181514Y-85662596D01*
X94181513Y-85662596D01*
X94124179Y-85761900D01*
X94124179Y-85761902D01*
X94094500Y-85872663D01*
X94094500Y-89317336D01*
X94124179Y-89428097D01*
X94124179Y-89428099D01*
X94165969Y-89500480D01*
X94181513Y-89527403D01*
X94609962Y-89955852D01*
X94624314Y-89990500D01*
X94609962Y-90025148D01*
X94575314Y-90039500D01*
X91897270Y-90039500D01*
X91795414Y-90066792D01*
X91795410Y-90066793D01*
X91704086Y-90119520D01*
X91704086Y-90119521D01*
X91159521Y-90664086D01*
X91159520Y-90664086D01*
X91106793Y-90755410D01*
X91106792Y-90755412D01*
X91080939Y-90851901D01*
X91079500Y-90857271D01*
X89365702Y-90857271D01*
X89365359Y-90854410D01*
X89312364Y-90720025D01*
X89225078Y-90604922D01*
X89156618Y-90553007D01*
X89109977Y-90517637D01*
X89109975Y-90517636D01*
X88975590Y-90464641D01*
X88975588Y-90464640D01*
X88975584Y-90464639D01*
X88975585Y-90464639D01*
X88891147Y-90454500D01*
X88891144Y-90454500D01*
X88308856Y-90454500D01*
X88308853Y-90454500D01*
X88224414Y-90464639D01*
X88090022Y-90517637D01*
X87974922Y-90604922D01*
X87887635Y-90720025D01*
X87880359Y-90738476D01*
X87854297Y-90765444D01*
X87834776Y-90769500D01*
X84363916Y-90769500D01*
X84329268Y-90755148D01*
X84317314Y-90735642D01*
X84266211Y-90578362D01*
X84266211Y-90578361D01*
X84183996Y-90417006D01*
X84077553Y-90270499D01*
X84077551Y-90270497D01*
X84077548Y-90270493D01*
X83949507Y-90142452D01*
X83949502Y-90142448D01*
X83949501Y-90142447D01*
X83802994Y-90036004D01*
X83641639Y-89953789D01*
X83641638Y-89953788D01*
X83641637Y-89953788D01*
X83469409Y-89897829D01*
X83469406Y-89897828D01*
X83332007Y-89876066D01*
X83290546Y-89869500D01*
X83109454Y-89869500D01*
X83075794Y-89874831D01*
X82930593Y-89897828D01*
X82930590Y-89897829D01*
X82758362Y-89953788D01*
X82597006Y-90036004D01*
X82450497Y-90142448D01*
X82322448Y-90270497D01*
X82216004Y-90417006D01*
X82133788Y-90578362D01*
X82077829Y-90750590D01*
X82077828Y-90750593D01*
X82049500Y-90929454D01*
X77918461Y-90929454D01*
X77608953Y-89960222D01*
X77606652Y-89953789D01*
X77235577Y-88916149D01*
X77235572Y-88916136D01*
X77235572Y-88916135D01*
X76826560Y-87885485D01*
X76382399Y-86869488D01*
X75903613Y-85869340D01*
X75893239Y-85849454D01*
X82049500Y-85849454D01*
X82049500Y-86030545D01*
X82077828Y-86209406D01*
X82077829Y-86209409D01*
X82125844Y-86357188D01*
X82133789Y-86381639D01*
X82216004Y-86542994D01*
X82322447Y-86689501D01*
X82322448Y-86689502D01*
X82322452Y-86689507D01*
X82450493Y-86817548D01*
X82450497Y-86817551D01*
X82450499Y-86817553D01*
X82597006Y-86923996D01*
X82758361Y-87006211D01*
X82930591Y-87062171D01*
X83109454Y-87090500D01*
X83109455Y-87090500D01*
X83290545Y-87090500D01*
X83290546Y-87090500D01*
X83469409Y-87062171D01*
X83641639Y-87006211D01*
X83802994Y-86923996D01*
X83949501Y-86817553D01*
X83949504Y-86817549D01*
X83949507Y-86817548D01*
X84077548Y-86689507D01*
X84077549Y-86689504D01*
X84077553Y-86689501D01*
X84183996Y-86542994D01*
X84266211Y-86381639D01*
X84322171Y-86209409D01*
X84350500Y-86030546D01*
X84350500Y-85849454D01*
X84322171Y-85670591D01*
X84266211Y-85498361D01*
X84183996Y-85337006D01*
X84077553Y-85190499D01*
X84077551Y-85190497D01*
X84077548Y-85190493D01*
X83949507Y-85062452D01*
X83949502Y-85062448D01*
X83949501Y-85062447D01*
X83802994Y-84956004D01*
X83641639Y-84873789D01*
X83641638Y-84873788D01*
X83641637Y-84873788D01*
X83469409Y-84817829D01*
X83469406Y-84817828D01*
X83332007Y-84796066D01*
X83290546Y-84789500D01*
X83109454Y-84789500D01*
X83075794Y-84794831D01*
X82930593Y-84817828D01*
X82930590Y-84817829D01*
X82758362Y-84873788D01*
X82597006Y-84956004D01*
X82450497Y-85062448D01*
X82322448Y-85190497D01*
X82216004Y-85337006D01*
X82133788Y-85498362D01*
X82077829Y-85670590D01*
X82077828Y-85670593D01*
X82049500Y-85849454D01*
X75893239Y-85849454D01*
X75482695Y-85062447D01*
X75390762Y-84886213D01*
X74844467Y-83921299D01*
X74265360Y-82975706D01*
X73971370Y-82530731D01*
X73954458Y-82505134D01*
X82049500Y-82505134D01*
X82049500Y-84294858D01*
X82049501Y-84294868D01*
X82052415Y-84319992D01*
X82097794Y-84422766D01*
X82177233Y-84502205D01*
X82280006Y-84547584D01*
X82280009Y-84547585D01*
X82305135Y-84550500D01*
X84094864Y-84550499D01*
X84119991Y-84547585D01*
X84222765Y-84502206D01*
X84302206Y-84422765D01*
X84347585Y-84319991D01*
X84350500Y-84294865D01*
X84350499Y-82505136D01*
X84347585Y-82480009D01*
X84302206Y-82377235D01*
X84302205Y-82377234D01*
X84302205Y-82377233D01*
X84222766Y-82297794D01*
X84222767Y-82297794D01*
X84119993Y-82252415D01*
X84107428Y-82250957D01*
X84094865Y-82249500D01*
X84094863Y-82249500D01*
X82305141Y-82249500D01*
X82305131Y-82249501D01*
X82280007Y-82252415D01*
X82177233Y-82297794D01*
X82097794Y-82377233D01*
X82052415Y-82480006D01*
X82049500Y-82505134D01*
X73954458Y-82505134D01*
X73654107Y-82050532D01*
X73011470Y-81146924D01*
X73011453Y-81146902D01*
X72338168Y-80265893D01*
X72338159Y-80265881D01*
X71635023Y-79408518D01*
X71635016Y-79408509D01*
X70902838Y-78575775D01*
X70142499Y-77768673D01*
X70142483Y-77768656D01*
X69354902Y-76988164D01*
X68540956Y-76235147D01*
X67812423Y-75606172D01*
X67701633Y-75510522D01*
X67637750Y-75459090D01*
X66973849Y-74924581D01*
X66837927Y-74815150D01*
X66422848Y-74503837D01*
X66401406Y-74482395D01*
X66370362Y-74464472D01*
X66368007Y-74462706D01*
X66368006Y-74462704D01*
X66341678Y-74442959D01*
X66316768Y-74432960D01*
X66313534Y-74431662D01*
X66287277Y-74416503D01*
X66252654Y-74407225D01*
X66249929Y-74406132D01*
X66219378Y-74393869D01*
X66192729Y-74390658D01*
X66192729Y-74390657D01*
X66189260Y-74390239D01*
X66159983Y-74382395D01*
X66124134Y-74382395D01*
X66121212Y-74382043D01*
X66121211Y-74382043D01*
X66088541Y-74378107D01*
X66088540Y-74378107D01*
X66061968Y-74381903D01*
X66055039Y-74382395D01*
X66028198Y-74382395D01*
X65996399Y-74390914D01*
X65995718Y-74391091D01*
X65993205Y-74391725D01*
X65958081Y-74396744D01*
X65936011Y-74406170D01*
X65932283Y-74407112D01*
X65932164Y-74407094D01*
X65931614Y-74407276D01*
X65301575Y-74557021D01*
X65298845Y-74557588D01*
X64629361Y-74676947D01*
X64626603Y-74677358D01*
X63951420Y-74758441D01*
X63948644Y-74758695D01*
X63269919Y-74801242D01*
X63267132Y-74801337D01*
X62587111Y-74805209D01*
X62584323Y-74805146D01*
X61905159Y-74770328D01*
X61902380Y-74770106D01*
X61226306Y-74696714D01*
X61223543Y-74696334D01*
X60552746Y-74584605D01*
X60550010Y-74584069D01*
X59886644Y-74434362D01*
X59883943Y-74433671D01*
X59230166Y-74246473D01*
X59227508Y-74245629D01*
X58585452Y-74021550D01*
X58582847Y-74020557D01*
X57954565Y-73760316D01*
X57952020Y-73759176D01*
X57339560Y-73463617D01*
X57337084Y-73462334D01*
X56742438Y-73132423D01*
X56740039Y-73131002D01*
X56208950Y-72795487D01*
X56165100Y-72767785D01*
X56165099Y-72767784D01*
X56162786Y-72766229D01*
X56150245Y-72757269D01*
X68769500Y-72757269D01*
X68769500Y-74042730D01*
X68796792Y-74144587D01*
X68796793Y-74144589D01*
X68803252Y-74155776D01*
X68849520Y-74235913D01*
X75873087Y-81259480D01*
X75939938Y-81298077D01*
X75964410Y-81312206D01*
X75964412Y-81312207D01*
X76066269Y-81339499D01*
X76066270Y-81339500D01*
X76066273Y-81339500D01*
X93807811Y-81339500D01*
X93842459Y-81353852D01*
X94940148Y-82451541D01*
X94954500Y-82486189D01*
X94954500Y-83404275D01*
X94957353Y-83434698D01*
X94957353Y-83434699D01*
X95002204Y-83562876D01*
X95002208Y-83562885D01*
X95082849Y-83672150D01*
X95192114Y-83752791D01*
X95192117Y-83752792D01*
X95192118Y-83752793D01*
X95192120Y-83752793D01*
X95192123Y-83752795D01*
X95199854Y-83755500D01*
X95320301Y-83797646D01*
X95350734Y-83800500D01*
X95350744Y-83800500D01*
X95759256Y-83800500D01*
X95759266Y-83800500D01*
X95789699Y-83797646D01*
X95917882Y-83752793D01*
X96027150Y-83672150D01*
X96107793Y-83562882D01*
X96152646Y-83434699D01*
X96155500Y-83404266D01*
X96155500Y-81595734D01*
X96152646Y-81565301D01*
X96145526Y-81544954D01*
X96107795Y-81437123D01*
X96107791Y-81437114D01*
X96027150Y-81327849D01*
X95917885Y-81247208D01*
X95917876Y-81247204D01*
X95789698Y-81202353D01*
X95759275Y-81199500D01*
X95759266Y-81199500D01*
X95350734Y-81199500D01*
X95350724Y-81199500D01*
X95320301Y-81202353D01*
X95320300Y-81202353D01*
X95192123Y-81247204D01*
X95192114Y-81247208D01*
X95082850Y-81327848D01*
X95059926Y-81358910D01*
X95027804Y-81378265D01*
X94991403Y-81369237D01*
X94985853Y-81364460D01*
X94325541Y-80704148D01*
X94311189Y-80669500D01*
X94325541Y-80634852D01*
X94360189Y-80620500D01*
X97383811Y-80620500D01*
X97418459Y-80634852D01*
X98750148Y-81966541D01*
X98764500Y-82001189D01*
X98764500Y-83404275D01*
X98767353Y-83434698D01*
X98767353Y-83434699D01*
X98812204Y-83562876D01*
X98812208Y-83562885D01*
X98892849Y-83672150D01*
X99002114Y-83752791D01*
X99002117Y-83752792D01*
X99002118Y-83752793D01*
X99002120Y-83752793D01*
X99002123Y-83752795D01*
X99009854Y-83755500D01*
X99130301Y-83797646D01*
X99160734Y-83800500D01*
X99160744Y-83800500D01*
X99569256Y-83800500D01*
X99569266Y-83800500D01*
X99599699Y-83797646D01*
X99727882Y-83752793D01*
X99837150Y-83672150D01*
X99917793Y-83562882D01*
X99953750Y-83460123D01*
X99978739Y-83432159D01*
X100016183Y-83430056D01*
X100044147Y-83455045D01*
X100046250Y-83460123D01*
X100082204Y-83562876D01*
X100082208Y-83562885D01*
X100162849Y-83672150D01*
X100272114Y-83752791D01*
X100272117Y-83752792D01*
X100272118Y-83752793D01*
X100272120Y-83752793D01*
X100272123Y-83752795D01*
X100279854Y-83755500D01*
X100400301Y-83797646D01*
X100430734Y-83800500D01*
X100430744Y-83800500D01*
X100839256Y-83800500D01*
X100839266Y-83800500D01*
X100869699Y-83797646D01*
X100997882Y-83752793D01*
X101107150Y-83672150D01*
X101187793Y-83562882D01*
X101232646Y-83434699D01*
X101235500Y-83404266D01*
X101235500Y-81781189D01*
X101249852Y-81746541D01*
X102401541Y-80594852D01*
X102436189Y-80580500D01*
X105717005Y-80580500D01*
X105751653Y-80594852D01*
X105766005Y-80629500D01*
X105751653Y-80664148D01*
X105741505Y-80671935D01*
X105659086Y-80719520D01*
X105014146Y-81364460D01*
X104979498Y-81378812D01*
X104944850Y-81364460D01*
X104940073Y-81358910D01*
X104917150Y-81327850D01*
X104917149Y-81327849D01*
X104917148Y-81327847D01*
X104807885Y-81247208D01*
X104807876Y-81247204D01*
X104679698Y-81202353D01*
X104649275Y-81199500D01*
X104649266Y-81199500D01*
X104240734Y-81199500D01*
X104240724Y-81199500D01*
X104210301Y-81202353D01*
X104210300Y-81202353D01*
X104082123Y-81247204D01*
X104082114Y-81247208D01*
X103972849Y-81327849D01*
X103892208Y-81437114D01*
X103892204Y-81437123D01*
X103847353Y-81565300D01*
X103847353Y-81565301D01*
X103844500Y-81595724D01*
X103844500Y-83404275D01*
X103847353Y-83434698D01*
X103847353Y-83434699D01*
X103892204Y-83562876D01*
X103892208Y-83562885D01*
X103972849Y-83672150D01*
X104082114Y-83752791D01*
X104082117Y-83752792D01*
X104082118Y-83752793D01*
X104082120Y-83752793D01*
X104082123Y-83752795D01*
X104089854Y-83755500D01*
X104210301Y-83797646D01*
X104240734Y-83800500D01*
X104240744Y-83800500D01*
X104649256Y-83800500D01*
X104649266Y-83800500D01*
X104679699Y-83797646D01*
X104807882Y-83752793D01*
X104917150Y-83672150D01*
X104997793Y-83562882D01*
X105042646Y-83434699D01*
X105045500Y-83404266D01*
X105045500Y-82486189D01*
X105059852Y-82451541D01*
X106056541Y-81454852D01*
X106091189Y-81440500D01*
X124542730Y-81440500D01*
X124542730Y-81440499D01*
X124644588Y-81413207D01*
X124735913Y-81360480D01*
X132360480Y-73735913D01*
X132413206Y-73644588D01*
X132413207Y-73644587D01*
X132416536Y-73632166D01*
X132440499Y-73542730D01*
X132440500Y-73542730D01*
X132440500Y-72187270D01*
X132440499Y-72187269D01*
X132414877Y-72091645D01*
X132414876Y-72091641D01*
X132414876Y-72091642D01*
X132413207Y-72085413D01*
X132413207Y-72085412D01*
X132360480Y-71994087D01*
X130365913Y-69999520D01*
X130282180Y-69951176D01*
X130274589Y-69946793D01*
X130274587Y-69946792D01*
X130172730Y-69919500D01*
X130172727Y-69919500D01*
X128439605Y-69919500D01*
X128334151Y-69919500D01*
X128334148Y-69919500D01*
X128232291Y-69946792D01*
X128229317Y-69948024D01*
X128228668Y-69946458D01*
X128196909Y-69950607D01*
X128174990Y-69937937D01*
X127911164Y-69674110D01*
X127911160Y-69674107D01*
X127911158Y-69674105D01*
X127886418Y-69654670D01*
X127841095Y-69619064D01*
X127841091Y-69619062D01*
X127702300Y-69558777D01*
X127702293Y-69558775D01*
X127552373Y-69538169D01*
X127402452Y-69558775D01*
X127402445Y-69558777D01*
X127263654Y-69619062D01*
X127263650Y-69619064D01*
X127193585Y-69674107D01*
X127193581Y-69674110D01*
X126071978Y-70795713D01*
X126071975Y-70795717D01*
X126016932Y-70865782D01*
X126016930Y-70865786D01*
X125956645Y-71004577D01*
X125956643Y-71004584D01*
X125936037Y-71154505D01*
X125956643Y-71304425D01*
X125956645Y-71304432D01*
X126016930Y-71443223D01*
X126016932Y-71443227D01*
X126049522Y-71484711D01*
X126071972Y-71513289D01*
X126071975Y-71513292D01*
X126071978Y-71513296D01*
X127193581Y-72634899D01*
X127193585Y-72634902D01*
X127193588Y-72634905D01*
X127230697Y-72664057D01*
X127263650Y-72689945D01*
X127263654Y-72689947D01*
X127402445Y-72750232D01*
X127402448Y-72750232D01*
X127402453Y-72750235D01*
X127552373Y-72770841D01*
X127702293Y-72750235D01*
X127841094Y-72689946D01*
X127911158Y-72634905D01*
X128022217Y-72523844D01*
X128056864Y-72509494D01*
X128091512Y-72523845D01*
X128105864Y-72558494D01*
X128103466Y-72573636D01*
X128079947Y-72646021D01*
X128079946Y-72646024D01*
X128047924Y-72848204D01*
X128047924Y-73052907D01*
X128079946Y-73255087D01*
X128079947Y-73255090D01*
X128113239Y-73357554D01*
X128143204Y-73449775D01*
X128149948Y-73463010D01*
X128174165Y-73510539D01*
X128177107Y-73547926D01*
X128165153Y-73567432D01*
X128027945Y-73704641D01*
X128027944Y-73704642D01*
X127975217Y-73795966D01*
X127973548Y-73802198D01*
X127973547Y-73802197D01*
X127973547Y-73802201D01*
X127947924Y-73897825D01*
X127947924Y-75885387D01*
X127933572Y-75920035D01*
X124088459Y-79765148D01*
X124053811Y-79779500D01*
X102197270Y-79779500D01*
X102095412Y-79806792D01*
X102095410Y-79806793D01*
X102004086Y-79859520D01*
X102004086Y-79859521D01*
X100678459Y-81185148D01*
X100643811Y-81199500D01*
X100430724Y-81199500D01*
X100400301Y-81202353D01*
X100400300Y-81202353D01*
X100272123Y-81247204D01*
X100272114Y-81247208D01*
X100162849Y-81327849D01*
X100082208Y-81437114D01*
X100082204Y-81437123D01*
X100046250Y-81539876D01*
X100021261Y-81567840D01*
X99983817Y-81569943D01*
X99955853Y-81544954D01*
X99953750Y-81539876D01*
X99917795Y-81437123D01*
X99917791Y-81437114D01*
X99837150Y-81327849D01*
X99727885Y-81247208D01*
X99727876Y-81247204D01*
X99599698Y-81202353D01*
X99569275Y-81199500D01*
X99569266Y-81199500D01*
X99160734Y-81199500D01*
X99160726Y-81199500D01*
X99160719Y-81199501D01*
X99142669Y-81201193D01*
X99106832Y-81190137D01*
X99103448Y-81187055D01*
X97815913Y-79899520D01*
X97724589Y-79846793D01*
X97724587Y-79846792D01*
X97622730Y-79819500D01*
X97622727Y-79819500D01*
X77167509Y-79819500D01*
X77132861Y-79805148D01*
X71864163Y-74536450D01*
X71849811Y-74501802D01*
X71864163Y-74467154D01*
X72764899Y-73566418D01*
X72764905Y-73566412D01*
X72819946Y-73496348D01*
X72880235Y-73357547D01*
X72900841Y-73207627D01*
X72880235Y-73057707D01*
X72878150Y-73052907D01*
X72819947Y-72918908D01*
X72819945Y-72918904D01*
X72783038Y-72871924D01*
X72764905Y-72848842D01*
X72764902Y-72848839D01*
X72764899Y-72848835D01*
X72653847Y-72737783D01*
X72639495Y-72703135D01*
X72653847Y-72668487D01*
X72688495Y-72654135D01*
X72703632Y-72656532D01*
X72776022Y-72680053D01*
X72978204Y-72712076D01*
X72978205Y-72712076D01*
X73182907Y-72712076D01*
X73182908Y-72712076D01*
X73385090Y-72680053D01*
X73579775Y-72616796D01*
X73762166Y-72523863D01*
X73927775Y-72403542D01*
X73927778Y-72403538D01*
X73927781Y-72403537D01*
X74072517Y-72258801D01*
X74072518Y-72258798D01*
X74072522Y-72258795D01*
X74192843Y-72093186D01*
X74285776Y-71910795D01*
X74349033Y-71716110D01*
X74381056Y-71513928D01*
X74381056Y-71309224D01*
X74349033Y-71107042D01*
X74285776Y-70912357D01*
X74192843Y-70729966D01*
X74072522Y-70564357D01*
X74072520Y-70564355D01*
X74072517Y-70564351D01*
X73927781Y-70419615D01*
X73927776Y-70419611D01*
X73762171Y-70299292D01*
X73762168Y-70299290D01*
X73579773Y-70206355D01*
X73385090Y-70143099D01*
X73385087Y-70143098D01*
X73229776Y-70118499D01*
X73182908Y-70111076D01*
X72978204Y-70111076D01*
X72940155Y-70117102D01*
X72776024Y-70143098D01*
X72776021Y-70143099D01*
X72581338Y-70206355D01*
X72398943Y-70299290D01*
X72398940Y-70299292D01*
X72233336Y-70419610D01*
X72215568Y-70437379D01*
X72197798Y-70455148D01*
X72163152Y-70469500D01*
X71057270Y-70469500D01*
X70955414Y-70496792D01*
X70955410Y-70496793D01*
X70870736Y-70545681D01*
X70870735Y-70545682D01*
X70864090Y-70549518D01*
X70864084Y-70549522D01*
X68849521Y-72564086D01*
X68849520Y-72564086D01*
X68796793Y-72655410D01*
X68795124Y-72661642D01*
X68795123Y-72661641D01*
X68795123Y-72661645D01*
X68769500Y-72757269D01*
X56150245Y-72757269D01*
X55722029Y-72451337D01*
X55609439Y-72370898D01*
X55607224Y-72369218D01*
X55586430Y-72352497D01*
X55160061Y-72009634D01*
X55077290Y-71943074D01*
X55075167Y-71941266D01*
X54913865Y-71795697D01*
X54570290Y-71485634D01*
X54568280Y-71483712D01*
X54528253Y-71443227D01*
X54301860Y-71214242D01*
X54090172Y-71000130D01*
X54088269Y-70998093D01*
X53638422Y-70488078D01*
X53636638Y-70485935D01*
X53636636Y-70485933D01*
X53216543Y-69951173D01*
X53214885Y-69948935D01*
X52825882Y-69391132D01*
X52824353Y-69388801D01*
X52467708Y-68809774D01*
X52466314Y-68807359D01*
X52143191Y-68208999D01*
X52143189Y-68208996D01*
X52143185Y-68208988D01*
X52141936Y-68206509D01*
X52137327Y-68196674D01*
X51853362Y-67590714D01*
X51852252Y-67588159D01*
X51599176Y-66956954D01*
X51598213Y-66954337D01*
X51381452Y-66309761D01*
X51380639Y-66307094D01*
X51307029Y-66038502D01*
X51200898Y-65651250D01*
X51200239Y-65648547D01*
X51058085Y-64983493D01*
X51057587Y-64980789D01*
X50953491Y-64308710D01*
X50953149Y-64305990D01*
X50887452Y-63629094D01*
X50887263Y-63626321D01*
X50871062Y-63219881D01*
X50860176Y-62946799D01*
X50860145Y-62944062D01*
X50871755Y-62264075D01*
X50871882Y-62261299D01*
X50871882Y-62261297D01*
X50922151Y-61583096D01*
X50922431Y-61580369D01*
X51011199Y-60906098D01*
X51011641Y-60903354D01*
X51011642Y-60903351D01*
X51138615Y-60235251D01*
X51139200Y-60232587D01*
X51303982Y-59572748D01*
X51304718Y-59570120D01*
X51506764Y-58920726D01*
X51507657Y-58918122D01*
X51746312Y-58281279D01*
X51747337Y-58278764D01*
X52021840Y-57656507D01*
X52023020Y-57654027D01*
X52332456Y-57048430D01*
X52333789Y-57045996D01*
X52399426Y-56933790D01*
X52677160Y-56458997D01*
X52678632Y-56456639D01*
X53054850Y-55890105D01*
X53056423Y-55887876D01*
X53464272Y-55343639D01*
X53465975Y-55341496D01*
X53904118Y-54821343D01*
X53905948Y-54819293D01*
X54372949Y-54324926D01*
X54374919Y-54322957D01*
X54374920Y-54322956D01*
X54869281Y-53855956D01*
X54871331Y-53854127D01*
X55391483Y-53415983D01*
X55393626Y-53414280D01*
X55937862Y-53006429D01*
X55940091Y-53004856D01*
X56506632Y-52628633D01*
X56508991Y-52627162D01*
X57096019Y-52283770D01*
X57098387Y-52282474D01*
X57704036Y-51973010D01*
X57706466Y-51971854D01*
X58328752Y-51697336D01*
X58331260Y-51696314D01*
X58968104Y-51457656D01*
X58970709Y-51456763D01*
X59620102Y-51254716D01*
X59622730Y-51253979D01*
X60282569Y-51089196D01*
X60285233Y-51088611D01*
X60953344Y-50961634D01*
X60956079Y-50961194D01*
X61630350Y-50872423D01*
X61633077Y-50872143D01*
X62311288Y-50821872D01*
X62314056Y-50821746D01*
X62994043Y-50810134D01*
X62996780Y-50810165D01*
X63676311Y-50837251D01*
X63679075Y-50837440D01*
X64355971Y-50903135D01*
X64358691Y-50903477D01*
X65030770Y-51007572D01*
X65033474Y-51008070D01*
X65698544Y-51150225D01*
X65701224Y-51150879D01*
X66357101Y-51330627D01*
X66359732Y-51331429D01*
X67004314Y-51548191D01*
X67006931Y-51549154D01*
X67638149Y-51802234D01*
X67640706Y-51803345D01*
X68256486Y-52091910D01*
X68258977Y-52093165D01*
X68857352Y-52416293D01*
X68859766Y-52417687D01*
X69438779Y-52774322D01*
X69441111Y-52775851D01*
X69998922Y-53164858D01*
X70001163Y-53166518D01*
X70535923Y-53586610D01*
X70538066Y-53588394D01*
X71048082Y-54038239D01*
X71050119Y-54040142D01*
X71533702Y-54518249D01*
X71535624Y-54520260D01*
X71806395Y-54820293D01*
X71991258Y-55025135D01*
X71993054Y-55027243D01*
X72419229Y-55557215D01*
X72420890Y-55559406D01*
X72619404Y-55837265D01*
X72816223Y-56112752D01*
X72817779Y-56115066D01*
X73180997Y-56690005D01*
X73182418Y-56692404D01*
X73512331Y-57287048D01*
X73513614Y-57289524D01*
X73809171Y-57901978D01*
X73810311Y-57904522D01*
X74070559Y-58532815D01*
X74071552Y-58535421D01*
X74295631Y-59177470D01*
X74296475Y-59180128D01*
X74483674Y-59833905D01*
X74484365Y-59836606D01*
X74634073Y-60499971D01*
X74634609Y-60502707D01*
X74746340Y-61173504D01*
X74746720Y-61176267D01*
X74820114Y-61852342D01*
X74820336Y-61855121D01*
X74855155Y-62534284D01*
X74855218Y-62537072D01*
X74851348Y-63217093D01*
X74851253Y-63219880D01*
X74808707Y-63898605D01*
X74808453Y-63901381D01*
X74727372Y-64576565D01*
X74726961Y-64579323D01*
X74607603Y-65248807D01*
X74607036Y-65251537D01*
X74457288Y-65881601D01*
X74457125Y-65882266D01*
X74456184Y-65885989D01*
X74446766Y-65908043D01*
X74441746Y-65943178D01*
X74441114Y-65945683D01*
X74441061Y-65945754D01*
X74440935Y-65946370D01*
X74432417Y-65978158D01*
X74432417Y-65978162D01*
X74432417Y-66008486D01*
X74428129Y-66038502D01*
X74432417Y-66074093D01*
X74432417Y-66109949D01*
X74439363Y-66135872D01*
X74440265Y-66139237D01*
X74443892Y-66169340D01*
X74457244Y-66202605D01*
X74458006Y-66205448D01*
X74458008Y-66205455D01*
X74466524Y-66237238D01*
X74466525Y-66237242D01*
X74479947Y-66260488D01*
X74481688Y-66263503D01*
X74492982Y-66291640D01*
X74514488Y-66320315D01*
X74515961Y-66322866D01*
X74515962Y-66322867D01*
X74532414Y-66351363D01*
X74532416Y-66351365D01*
X74532418Y-66351369D01*
X74532421Y-66351372D01*
X74551395Y-66370346D01*
X74555947Y-66375594D01*
X74865171Y-66787889D01*
X75001286Y-66956954D01*
X75560539Y-67651589D01*
X76285168Y-68490919D01*
X77038184Y-69304865D01*
X77818677Y-70092445D01*
X78625797Y-70852804D01*
X78640560Y-70865784D01*
X79458529Y-71584979D01*
X79957372Y-71994087D01*
X80315915Y-72288134D01*
X80624369Y-72523861D01*
X81196936Y-72961429D01*
X82100558Y-73604076D01*
X82545168Y-73897825D01*
X83025725Y-74215324D01*
X83971318Y-74794432D01*
X84936232Y-75340726D01*
X84936242Y-75340731D01*
X85919359Y-75853578D01*
X86919506Y-76332364D01*
X87935503Y-76776525D01*
X88966153Y-77185537D01*
X88966167Y-77185542D01*
X89708026Y-77450842D01*
X90010240Y-77558918D01*
X91066531Y-77896228D01*
X92133783Y-78197068D01*
X93210734Y-78461084D01*
X94296117Y-78687965D01*
X95388650Y-78877442D01*
X95971870Y-78958071D01*
X96487036Y-79029292D01*
X96487043Y-79029292D01*
X96487045Y-79029293D01*
X97038525Y-79086315D01*
X97590015Y-79143339D01*
X98348705Y-79195534D01*
X98696233Y-79219443D01*
X99639059Y-79251836D01*
X99804418Y-79257518D01*
X99804421Y-79257518D01*
X100913266Y-79257518D01*
X101070789Y-79252105D01*
X102021451Y-79219443D01*
X102506035Y-79186105D01*
X103127668Y-79143339D01*
X103127678Y-79143338D01*
X104230639Y-79029293D01*
X104230643Y-79029292D01*
X104230647Y-79029292D01*
X104454202Y-78998385D01*
X105329034Y-78877442D01*
X106421567Y-78687965D01*
X107506950Y-78461084D01*
X108583901Y-78197068D01*
X109651153Y-77896228D01*
X110707444Y-77558918D01*
X111751531Y-77185537D01*
X112782181Y-76776525D01*
X113798178Y-76332364D01*
X114798325Y-75853578D01*
X115781442Y-75340731D01*
X116746369Y-74794430D01*
X117378798Y-74407112D01*
X117691958Y-74215324D01*
X117691969Y-74215317D01*
X118617126Y-73604076D01*
X119520748Y-72961429D01*
X120401771Y-72288132D01*
X121259155Y-71584979D01*
X122091889Y-70852802D01*
X122898990Y-70092461D01*
X123679508Y-69304856D01*
X124432520Y-68490914D01*
X125157140Y-67651595D01*
X125852513Y-66787889D01*
X126163821Y-66372813D01*
X126185267Y-66351369D01*
X126203195Y-66320315D01*
X126224702Y-66291640D01*
X126234699Y-66266732D01*
X126237736Y-66260488D01*
X126251159Y-66237240D01*
X126260438Y-66202607D01*
X126273792Y-66169340D01*
X126277418Y-66139237D01*
X126285267Y-66109947D01*
X126285267Y-66074093D01*
X126289555Y-66038502D01*
X126285267Y-66008486D01*
X126285267Y-65978162D01*
X126276735Y-65946323D01*
X126276570Y-65945690D01*
X126275937Y-65943186D01*
X126270918Y-65908043D01*
X126261488Y-65885969D01*
X126260549Y-65882248D01*
X126260566Y-65882128D01*
X126260386Y-65881581D01*
X126110643Y-65251538D01*
X126110076Y-65248808D01*
X126062535Y-64982148D01*
X125990715Y-64579309D01*
X125990307Y-64576566D01*
X125971204Y-64417492D01*
X125909225Y-63901373D01*
X125908972Y-63898607D01*
X125891991Y-63627719D01*
X125866425Y-63219880D01*
X125866331Y-63217094D01*
X125866331Y-63217093D01*
X125862461Y-62537038D01*
X125862523Y-62534320D01*
X125897345Y-61855096D01*
X125897562Y-61852370D01*
X125970963Y-61176234D01*
X125971334Y-61173540D01*
X126083073Y-60502686D01*
X126083600Y-60499995D01*
X126233318Y-59836589D01*
X126234000Y-59833923D01*
X126421214Y-59180097D01*
X126422037Y-59177506D01*
X126646132Y-58535404D01*
X126647111Y-58532834D01*
X126907379Y-57904494D01*
X126908493Y-57902008D01*
X127204070Y-57289514D01*
X127205348Y-57287049D01*
X127256585Y-57194699D01*
X127535262Y-56692401D01*
X127536681Y-56690006D01*
X127594059Y-56599182D01*
X127899910Y-56115049D01*
X127901443Y-56112770D01*
X128296804Y-55559384D01*
X128298432Y-55557237D01*
X128724641Y-55027223D01*
X128726404Y-55025154D01*
X129182071Y-54520242D01*
X129183953Y-54518273D01*
X129667572Y-54040130D01*
X129669582Y-54038252D01*
X130179631Y-53588379D01*
X130181736Y-53586626D01*
X130716530Y-53166507D01*
X130718740Y-53164870D01*
X131276581Y-52775842D01*
X131278884Y-52774332D01*
X131857927Y-52417679D01*
X131860310Y-52416302D01*
X132458719Y-52093156D01*
X132461174Y-52091919D01*
X133076977Y-51803343D01*
X133079528Y-51802235D01*
X133710758Y-51549150D01*
X133713350Y-51548196D01*
X134357956Y-51331426D01*
X134360567Y-51330630D01*
X135016461Y-51150878D01*
X135019125Y-51150228D01*
X135684209Y-51008069D01*
X135686901Y-51007573D01*
X136358990Y-50903477D01*
X136361702Y-50903136D01*
X137038605Y-50837440D01*
X137041363Y-50837251D01*
X137720897Y-50810165D01*
X137723634Y-50810134D01*
X138403619Y-50821746D01*
G37*
%TD.AperFunction*%
%TD*%
%TA.AperFunction,NonConductor*%
G36*
X130029643Y-125836036D02*
G01*
X130029645Y-125836038D01*
X131085148Y-126891541D01*
X131099500Y-126926189D01*
X131099500Y-127088896D01*
X131085148Y-127123544D01*
X131050500Y-127137896D01*
X131015852Y-127123544D01*
X129960347Y-126068039D01*
X129945995Y-126033391D01*
X129945995Y-125932177D01*
X129945995Y-125928224D01*
X129945996Y-125928222D01*
X129945996Y-125870684D01*
X129960348Y-125836036D01*
X129990291Y-125823634D01*
X129994996Y-125821685D01*
X129994997Y-125821685D01*
X130029643Y-125836036D01*
G37*
%TD.AperFunction*%
%TA.AperFunction,NonConductor*%
G36*
X131085148Y-127861202D02*
G01*
X131099500Y-127895850D01*
X131099500Y-128463811D01*
X131085148Y-128498459D01*
X130118459Y-129465148D01*
X130083811Y-129479500D01*
X129093263Y-129479500D01*
X129058615Y-129465148D01*
X129044263Y-129430500D01*
X129044866Y-129422834D01*
X129049944Y-129390774D01*
X129049944Y-129186072D01*
X129037691Y-129108709D01*
X129017921Y-128983890D01*
X128994401Y-128911503D01*
X128997343Y-128874118D01*
X129025861Y-128849761D01*
X129063248Y-128852703D01*
X129075651Y-128861715D01*
X129186703Y-128972767D01*
X129186707Y-128972770D01*
X129186710Y-128972773D01*
X129200864Y-128983892D01*
X129256772Y-129027813D01*
X129256776Y-129027815D01*
X129395567Y-129088100D01*
X129395570Y-129088100D01*
X129395575Y-129088103D01*
X129545495Y-129108709D01*
X129695415Y-129088103D01*
X129834216Y-129027814D01*
X129904280Y-128972773D01*
X130435850Y-128441203D01*
X131015852Y-127861202D01*
X131050500Y-127846850D01*
X131085148Y-127861202D01*
G37*
%TD.AperFunction*%
%TA.AperFunction,NonConductor*%
G36*
X71765704Y-71284852D02*
G01*
X71780056Y-71319500D01*
X71780056Y-71513927D01*
X71812078Y-71716107D01*
X71812079Y-71716110D01*
X71835598Y-71788494D01*
X71832655Y-71825881D01*
X71804138Y-71850238D01*
X71766751Y-71847295D01*
X71754348Y-71838284D01*
X71643296Y-71727232D01*
X71643292Y-71727229D01*
X71643290Y-71727227D01*
X71612011Y-71702655D01*
X71573227Y-71672186D01*
X71573223Y-71672184D01*
X71434432Y-71611899D01*
X71434425Y-71611897D01*
X71284505Y-71591291D01*
X71134584Y-71611897D01*
X71134583Y-71611897D01*
X71017323Y-71662830D01*
X70979826Y-71663469D01*
X70952858Y-71637407D01*
X70952219Y-71599910D01*
X70963152Y-71583240D01*
X71261541Y-71284852D01*
X71296189Y-71270500D01*
X71731056Y-71270500D01*
X71765704Y-71284852D01*
G37*
%TD.AperFunction*%
%TA.AperFunction,NonConductor*%
G36*
X129968459Y-70734852D02*
G01*
X131625148Y-72391541D01*
X131639500Y-72426189D01*
X131639500Y-73303810D01*
X131625148Y-73338458D01*
X128832572Y-76131034D01*
X128797924Y-76145386D01*
X128763276Y-76131034D01*
X128748924Y-76096386D01*
X128748924Y-74184640D01*
X128763276Y-74149992D01*
X128797924Y-74135640D01*
X128820167Y-74140980D01*
X128849205Y-74155776D01*
X129043890Y-74219033D01*
X129246072Y-74251056D01*
X129246073Y-74251056D01*
X129450775Y-74251056D01*
X129450776Y-74251056D01*
X129652958Y-74219033D01*
X129847643Y-74155776D01*
X130030034Y-74062843D01*
X130195643Y-73942522D01*
X130195646Y-73942518D01*
X130195649Y-73942517D01*
X130340385Y-73797781D01*
X130340386Y-73797778D01*
X130340390Y-73797775D01*
X130460711Y-73632166D01*
X130553644Y-73449775D01*
X130616901Y-73255090D01*
X130648924Y-73052908D01*
X130648924Y-72848204D01*
X130616901Y-72646022D01*
X130553644Y-72451337D01*
X130460711Y-72268946D01*
X130453340Y-72258801D01*
X130413009Y-72203289D01*
X130340390Y-72103337D01*
X130340388Y-72103335D01*
X130340385Y-72103331D01*
X130195649Y-71958595D01*
X130195644Y-71958591D01*
X130171795Y-71941264D01*
X130129856Y-71910793D01*
X130030039Y-71838272D01*
X130030036Y-71838270D01*
X129932345Y-71788494D01*
X129847643Y-71745336D01*
X129847642Y-71745335D01*
X129847641Y-71745335D01*
X129652958Y-71682079D01*
X129652955Y-71682078D01*
X129497644Y-71657479D01*
X129450776Y-71650056D01*
X129246072Y-71650056D01*
X129208023Y-71656082D01*
X129043892Y-71682078D01*
X129043889Y-71682079D01*
X128971504Y-71705598D01*
X128934116Y-71702655D01*
X128909760Y-71674138D01*
X128912703Y-71636750D01*
X128921709Y-71624352D01*
X129032773Y-71513290D01*
X129087814Y-71443226D01*
X129148103Y-71304425D01*
X129168709Y-71154505D01*
X129148103Y-71004585D01*
X129146163Y-71000119D01*
X129087815Y-70865786D01*
X129087813Y-70865782D01*
X129035955Y-70799770D01*
X129025837Y-70763658D01*
X129044217Y-70730968D01*
X129074487Y-70720500D01*
X129933811Y-70720500D01*
X129968459Y-70734852D01*
G37*
%TD.AperFunction*%
%TA.AperFunction,NonConductor*%
G36*
X69729412Y-72886276D02*
G01*
X69743764Y-72920924D01*
X69739708Y-72940445D01*
X69688775Y-73057705D01*
X69688775Y-73057706D01*
X69688775Y-73057707D01*
X69668169Y-73207627D01*
X69674693Y-73255090D01*
X69688775Y-73357547D01*
X69688777Y-73357554D01*
X69749062Y-73496345D01*
X69749064Y-73496349D01*
X69760212Y-73510539D01*
X69785498Y-73542727D01*
X69804107Y-73566414D01*
X69804110Y-73566418D01*
X70901457Y-74663764D01*
X70909166Y-74675295D01*
X70909692Y-74674992D01*
X70964025Y-74769098D01*
X76649779Y-80454852D01*
X76664131Y-80489500D01*
X76649779Y-80524148D01*
X76615131Y-80538500D01*
X76305189Y-80538500D01*
X76270541Y-80524148D01*
X69584852Y-73838459D01*
X69570500Y-73803811D01*
X69570500Y-72996189D01*
X69584852Y-72961541D01*
X69605948Y-72940445D01*
X69660117Y-72886275D01*
X69694764Y-72871924D01*
X69729412Y-72886276D01*
G37*
%TD.AperFunction*%
%TA.AperFunction,NonConductor*%
G36*
X95773038Y-85459852D02*
G01*
X95787390Y-85494500D01*
X95773038Y-85529148D01*
X95154501Y-86147685D01*
X95154500Y-86147685D01*
X95088608Y-86261811D01*
X95088607Y-86261815D01*
X95066510Y-86344283D01*
X95058607Y-86360696D01*
X95053927Y-86367038D01*
X95021806Y-86386395D01*
X94985405Y-86377370D01*
X94966048Y-86345249D01*
X94965500Y-86337943D01*
X94965500Y-86130686D01*
X94979852Y-86096038D01*
X95616038Y-85459852D01*
X95650686Y-85445500D01*
X95738390Y-85445500D01*
X95773038Y-85459852D01*
G37*
%TD.AperFunction*%
%TA.AperFunction,NonConductor*%
G36*
X102788961Y-85459852D02*
G01*
X103447936Y-86118827D01*
X103462288Y-86153475D01*
X103447936Y-86188123D01*
X103413288Y-86202475D01*
X103408714Y-86202261D01*
X103379278Y-86199501D01*
X103379275Y-86199500D01*
X103379266Y-86199500D01*
X102970734Y-86199500D01*
X102970724Y-86199500D01*
X102940301Y-86202353D01*
X102940300Y-86202353D01*
X102812123Y-86247204D01*
X102812114Y-86247208D01*
X102702849Y-86327849D01*
X102622208Y-86437114D01*
X102622204Y-86437123D01*
X102586250Y-86539876D01*
X102561261Y-86567840D01*
X102523817Y-86569943D01*
X102495853Y-86544954D01*
X102493750Y-86539876D01*
X102457795Y-86437123D01*
X102457791Y-86437114D01*
X102377150Y-86327849D01*
X102267885Y-86247208D01*
X102267876Y-86247204D01*
X102139698Y-86202353D01*
X102109275Y-86199500D01*
X102109266Y-86199500D01*
X101700734Y-86199500D01*
X101700724Y-86199500D01*
X101670301Y-86202353D01*
X101670300Y-86202353D01*
X101542123Y-86247204D01*
X101542114Y-86247208D01*
X101432849Y-86327849D01*
X101352208Y-86437114D01*
X101352204Y-86437123D01*
X101316250Y-86539876D01*
X101291261Y-86567840D01*
X101253817Y-86569943D01*
X101225853Y-86544954D01*
X101223750Y-86539876D01*
X101187795Y-86437123D01*
X101187791Y-86437114D01*
X101145075Y-86379236D01*
X101135500Y-86350139D01*
X101135500Y-86129106D01*
X101127190Y-86098096D01*
X101127190Y-86098095D01*
X101115509Y-86054500D01*
X101101392Y-86001814D01*
X101093767Y-85988608D01*
X101035500Y-85887686D01*
X100942314Y-85794500D01*
X100940608Y-85792794D01*
X100940597Y-85792784D01*
X100676962Y-85529148D01*
X100662610Y-85494500D01*
X100676962Y-85459852D01*
X100711610Y-85445500D01*
X102754313Y-85445500D01*
X102788961Y-85459852D01*
G37*
%TD.AperFunction*%
%TA.AperFunction,NonConductor*%
G36*
X100049146Y-86316960D02*
G01*
X100089375Y-86357189D01*
X100103726Y-86391837D01*
X100094152Y-86420932D01*
X100082208Y-86437116D01*
X100082204Y-86437122D01*
X100046249Y-86539877D01*
X100044310Y-86542046D01*
X100044147Y-86544952D01*
X100032061Y-86555753D01*
X100021259Y-86567841D01*
X100018353Y-86568004D01*
X100016184Y-86569943D01*
X99999999Y-86569034D01*
X99983815Y-86569943D01*
X99981645Y-86568004D01*
X99978740Y-86567841D01*
X99967938Y-86555755D01*
X99955851Y-86544953D01*
X99953756Y-86539897D01*
X99950095Y-86529434D01*
X99949016Y-86500574D01*
X99965500Y-86439057D01*
X99965500Y-86351609D01*
X99979852Y-86316961D01*
X100014500Y-86302609D01*
X100049146Y-86316960D01*
G37*
%TD.AperFunction*%
%TA.AperFunction,NonConductor*%
G36*
X98786319Y-86104852D02*
G01*
X98800671Y-86139500D01*
X98799001Y-86152182D01*
X98764500Y-86280939D01*
X98764500Y-86280943D01*
X98764500Y-86439057D01*
X98767479Y-86450176D01*
X98780982Y-86500571D01*
X98779902Y-86529435D01*
X98776250Y-86539873D01*
X98751261Y-86567838D01*
X98713817Y-86569942D01*
X98685852Y-86544953D01*
X98683749Y-86539874D01*
X98647795Y-86437123D01*
X98647791Y-86437114D01*
X98567150Y-86327849D01*
X98457885Y-86247208D01*
X98457876Y-86247204D01*
X98329698Y-86202353D01*
X98299275Y-86199500D01*
X98299266Y-86199500D01*
X97890734Y-86199500D01*
X97890724Y-86199500D01*
X97860301Y-86202353D01*
X97860300Y-86202353D01*
X97732123Y-86247204D01*
X97732114Y-86247208D01*
X97622849Y-86327849D01*
X97542208Y-86437114D01*
X97542204Y-86437123D01*
X97506250Y-86539876D01*
X97481261Y-86567840D01*
X97443817Y-86569943D01*
X97415853Y-86544954D01*
X97413750Y-86539876D01*
X97377795Y-86437123D01*
X97377791Y-86437114D01*
X97297150Y-86327849D01*
X97187885Y-86247208D01*
X97187876Y-86247204D01*
X97059698Y-86202353D01*
X97029275Y-86199500D01*
X97029266Y-86199500D01*
X96636610Y-86199500D01*
X96601962Y-86185148D01*
X96587610Y-86150500D01*
X96601962Y-86115852D01*
X96612962Y-86104852D01*
X96647610Y-86090500D01*
X98751671Y-86090500D01*
X98786319Y-86104852D01*
G37*
%TD.AperFunction*%
%TA.AperFunction,NonConductor*%
G36*
X103854146Y-88455045D02*
G01*
X103856249Y-88460122D01*
X103892205Y-88562878D01*
X103892208Y-88562885D01*
X103972849Y-88672150D01*
X103998491Y-88691075D01*
X104017847Y-88723197D01*
X104008819Y-88759597D01*
X103976697Y-88778953D01*
X103969394Y-88779500D01*
X103866189Y-88779500D01*
X103831541Y-88765148D01*
X103715775Y-88649382D01*
X103701423Y-88614734D01*
X103710998Y-88585637D01*
X103727793Y-88562882D01*
X103763750Y-88460121D01*
X103788738Y-88432159D01*
X103826182Y-88430056D01*
X103854146Y-88455045D01*
G37*
%TD.AperFunction*%
%TA.AperFunction,NonConductor*%
G36*
X95049148Y-88627407D02*
G01*
X95053920Y-88632951D01*
X95066047Y-88649382D01*
X95082851Y-88672152D01*
X95192116Y-88752792D01*
X95192119Y-88752794D01*
X95293639Y-88788316D01*
X95312104Y-88799918D01*
X95535252Y-89023066D01*
X95549604Y-89057714D01*
X95535252Y-89092362D01*
X95513288Y-89105044D01*
X95493214Y-89110423D01*
X95493213Y-89110423D01*
X95356290Y-89189475D01*
X95356281Y-89189482D01*
X95325616Y-89220148D01*
X95290968Y-89234500D01*
X95140686Y-89234500D01*
X95106038Y-89220148D01*
X94979852Y-89093962D01*
X94965500Y-89059314D01*
X94965500Y-88662055D01*
X94979852Y-88627407D01*
X95014500Y-88613055D01*
X95049148Y-88627407D01*
G37*
%TD.AperFunction*%
%TA.AperFunction,NonConductor*%
G36*
X102584147Y-88455045D02*
G01*
X102586250Y-88460123D01*
X102622204Y-88562876D01*
X102622208Y-88562885D01*
X102702845Y-88672144D01*
X102702852Y-88672152D01*
X102759802Y-88714183D01*
X102778035Y-88740925D01*
X102801793Y-88829588D01*
X102801793Y-88829589D01*
X102822434Y-88865339D01*
X102854520Y-88920913D01*
X103434087Y-89500480D01*
X103471583Y-89522129D01*
X103516505Y-89548065D01*
X103539336Y-89577818D01*
X103534440Y-89615000D01*
X103504687Y-89637831D01*
X103492005Y-89639500D01*
X102996189Y-89639500D01*
X102961541Y-89625148D01*
X102319852Y-88983459D01*
X102305500Y-88948811D01*
X102305500Y-88749765D01*
X102319852Y-88715117D01*
X102325393Y-88710347D01*
X102377150Y-88672150D01*
X102436461Y-88591786D01*
X102457791Y-88562885D01*
X102457791Y-88562884D01*
X102457793Y-88562882D01*
X102481506Y-88495113D01*
X102493750Y-88460123D01*
X102518739Y-88432159D01*
X102556183Y-88430056D01*
X102584147Y-88455045D01*
G37*
%TD.AperFunction*%
%TA.AperFunction,NonConductor*%
G36*
X92114302Y-90911386D02*
G01*
X92128654Y-90946034D01*
X92119296Y-90974835D01*
X92045874Y-91075893D01*
X92016004Y-91117006D01*
X91976779Y-91193990D01*
X91973159Y-91201094D01*
X91944642Y-91225450D01*
X91907254Y-91222507D01*
X91882898Y-91193990D01*
X91880500Y-91178848D01*
X91880500Y-91096189D01*
X91894852Y-91061541D01*
X91962582Y-90993811D01*
X92045007Y-90911385D01*
X92079654Y-90897034D01*
X92114302Y-90911386D01*
G37*
%TD.AperFunction*%
%TA.AperFunction,NonConductor*%
G36*
X95298459Y-90854852D02*
G01*
X97506044Y-93062437D01*
X97520396Y-93097085D01*
X97506044Y-93131733D01*
X97484078Y-93144415D01*
X97453638Y-93152571D01*
X97453637Y-93152571D01*
X97400818Y-93183066D01*
X97363636Y-93187960D01*
X97341671Y-93175278D01*
X95565913Y-91399520D01*
X95474589Y-91346793D01*
X95474587Y-91346792D01*
X95372730Y-91319500D01*
X95372727Y-91319500D01*
X94115179Y-91319500D01*
X94080531Y-91305148D01*
X94068578Y-91285643D01*
X94066213Y-91278366D01*
X94066211Y-91278363D01*
X94066211Y-91278361D01*
X93983996Y-91117006D01*
X93877553Y-90970499D01*
X93877551Y-90970497D01*
X93877548Y-90970493D01*
X93831203Y-90924148D01*
X93816851Y-90889500D01*
X93831203Y-90854852D01*
X93865851Y-90840500D01*
X95263811Y-90840500D01*
X95298459Y-90854852D01*
G37*
%TD.AperFunction*%
%TA.AperFunction,NonConductor*%
G36*
X113737038Y-87304852D02*
G01*
X113995148Y-87562962D01*
X114009500Y-87597610D01*
X114009500Y-93772761D01*
X114002935Y-93797261D01*
X113950424Y-93888214D01*
X113950421Y-93888220D01*
X113909500Y-94040939D01*
X113909500Y-94199060D01*
X113950422Y-94351782D01*
X113950423Y-94351786D01*
X114029475Y-94488709D01*
X114029478Y-94488713D01*
X114029480Y-94488716D01*
X114141284Y-94600520D01*
X114141287Y-94600521D01*
X114141290Y-94600524D01*
X114278213Y-94679576D01*
X114278215Y-94679576D01*
X114278216Y-94679577D01*
X114360553Y-94701639D01*
X114430939Y-94720499D01*
X114430940Y-94720500D01*
X114430943Y-94720500D01*
X114589060Y-94720500D01*
X114589060Y-94720499D01*
X114741784Y-94679577D01*
X114826994Y-94630380D01*
X114864176Y-94625486D01*
X114893929Y-94648316D01*
X114898824Y-94685498D01*
X114886142Y-94707464D01*
X112944148Y-96649459D01*
X112909500Y-96663811D01*
X112874852Y-96649459D01*
X112860500Y-96614811D01*
X112860500Y-88364032D01*
X112874852Y-88329384D01*
X112907550Y-88296686D01*
X112940520Y-88263716D01*
X112973721Y-88206210D01*
X113019576Y-88126786D01*
X113019576Y-88126785D01*
X113019577Y-88126784D01*
X113060499Y-87974060D01*
X113060500Y-87974060D01*
X113060500Y-87815940D01*
X113060499Y-87815939D01*
X113019577Y-87663217D01*
X113019576Y-87663213D01*
X112940524Y-87526290D01*
X112940521Y-87526287D01*
X112940520Y-87526284D01*
X112828716Y-87414480D01*
X112828713Y-87414478D01*
X112828709Y-87414475D01*
X112772347Y-87381935D01*
X112749517Y-87352182D01*
X112754412Y-87315000D01*
X112784165Y-87292170D01*
X112796847Y-87290500D01*
X113702390Y-87290500D01*
X113737038Y-87304852D01*
G37*
%TD.AperFunction*%
%TA.AperFunction,NonConductor*%
G36*
X102022241Y-107984852D02*
G01*
X102036593Y-108019500D01*
X102022241Y-108054148D01*
X102003202Y-108065140D01*
X102003379Y-108065565D01*
X102000411Y-108066793D01*
X101906761Y-108120863D01*
X101869579Y-108125758D01*
X101839826Y-108102928D01*
X101834931Y-108065746D01*
X101847610Y-108043783D01*
X101906543Y-107984850D01*
X101941190Y-107970500D01*
X101987593Y-107970500D01*
X102022241Y-107984852D01*
G37*
%TD.AperFunction*%
%TA.AperFunction,NonConductor*%
G36*
X107193259Y-107798680D02*
G01*
X107216089Y-107828432D01*
X107211197Y-107865609D01*
X107208701Y-107869933D01*
X107208697Y-107869942D01*
X107167775Y-108022664D01*
X107167775Y-108115536D01*
X107153423Y-108150184D01*
X106398459Y-108905148D01*
X106363811Y-108919500D01*
X105860088Y-108919500D01*
X105825440Y-108905148D01*
X105811088Y-108870500D01*
X105825440Y-108835852D01*
X105847406Y-108823170D01*
X105867704Y-108817730D01*
X105884588Y-108813207D01*
X105975913Y-108760480D01*
X106891541Y-107844852D01*
X106926189Y-107830500D01*
X107019059Y-107830500D01*
X107068875Y-107817151D01*
X107156078Y-107793785D01*
X107193259Y-107798680D01*
G37*
%TD.AperFunction*%
%TA.AperFunction,NonConductor*%
G36*
X103364459Y-110404852D02*
G01*
X103378811Y-110439500D01*
X103364459Y-110474148D01*
X101625835Y-112212771D01*
X101607371Y-112224373D01*
X101542115Y-112247208D01*
X101432849Y-112327849D01*
X101352208Y-112437114D01*
X101352204Y-112437123D01*
X101316250Y-112539876D01*
X101291261Y-112567840D01*
X101253817Y-112569943D01*
X101225853Y-112544954D01*
X101223750Y-112539877D01*
X101187847Y-112437271D01*
X101189950Y-112399827D01*
X101199446Y-112386442D01*
X102773206Y-110812682D01*
X102795167Y-110800002D01*
X102848097Y-110785821D01*
X102947403Y-110728487D01*
X103028487Y-110647403D01*
X103271038Y-110404852D01*
X103305686Y-110390500D01*
X103329811Y-110390500D01*
X103364459Y-110404852D01*
G37*
%TD.AperFunction*%
%TA.AperFunction,NonConductor*%
G36*
X109302935Y-109753117D02*
G01*
X109309500Y-109777617D01*
X109309500Y-113250500D01*
X109295148Y-113285148D01*
X109260500Y-113299500D01*
X108406895Y-113299500D01*
X108318443Y-113310121D01*
X108318437Y-113310122D01*
X108318436Y-113310123D01*
X108222286Y-113348039D01*
X108177655Y-113365640D01*
X108057078Y-113457078D01*
X107965640Y-113577655D01*
X107910123Y-113718437D01*
X107910121Y-113718443D01*
X107899500Y-113806894D01*
X107899500Y-114350500D01*
X107885148Y-114385148D01*
X107850500Y-114399500D01*
X107586881Y-114399500D01*
X107562381Y-114392935D01*
X107436786Y-114320423D01*
X107436782Y-114320422D01*
X107417300Y-114315202D01*
X107395334Y-114302520D01*
X106272314Y-113179500D01*
X106158188Y-113113608D01*
X106158184Y-113113607D01*
X106030895Y-113079500D01*
X106030892Y-113079500D01*
X105094500Y-113079500D01*
X105059852Y-113065148D01*
X105045500Y-113030500D01*
X105045500Y-112595743D01*
X105045499Y-112595724D01*
X105042646Y-112565301D01*
X105042646Y-112565300D01*
X104997795Y-112437123D01*
X104997791Y-112437114D01*
X104917150Y-112327849D01*
X104807885Y-112247208D01*
X104807876Y-112247204D01*
X104679698Y-112202353D01*
X104649275Y-112199500D01*
X104649266Y-112199500D01*
X104240734Y-112199500D01*
X104240724Y-112199500D01*
X104210304Y-112202353D01*
X104149490Y-112223632D01*
X104112046Y-112221528D01*
X104087056Y-112193564D01*
X104089160Y-112156120D01*
X104098656Y-112142736D01*
X105556541Y-110684852D01*
X105591189Y-110670500D01*
X107922730Y-110670500D01*
X107922730Y-110670499D01*
X108024588Y-110643207D01*
X108115913Y-110590480D01*
X108861541Y-109844852D01*
X108896189Y-109830500D01*
X108989060Y-109830500D01*
X108989060Y-109830499D01*
X109141784Y-109789577D01*
X109236000Y-109735182D01*
X109273182Y-109730287D01*
X109302935Y-109753117D01*
G37*
%TD.AperFunction*%
%TA.AperFunction,NonConductor*%
G36*
X102584147Y-114455045D02*
G01*
X102586250Y-114460123D01*
X102621105Y-114559738D01*
X102621108Y-114559743D01*
X102622207Y-114562882D01*
X102658233Y-114611697D01*
X102658459Y-114612012D01*
X102662617Y-114629954D01*
X102667044Y-114647803D01*
X102666834Y-114648151D01*
X102666926Y-114648547D01*
X102657175Y-114664179D01*
X102647688Y-114679925D01*
X102647269Y-114680062D01*
X102647079Y-114680368D01*
X102644586Y-114680945D01*
X102618591Y-114689500D01*
X102461409Y-114689500D01*
X102426761Y-114675148D01*
X102412409Y-114640500D01*
X102421984Y-114611403D01*
X102457791Y-114562885D01*
X102457791Y-114562884D01*
X102457793Y-114562882D01*
X102493750Y-114460123D01*
X102518739Y-114432159D01*
X102556183Y-114430056D01*
X102584147Y-114455045D01*
G37*
%TD.AperFunction*%
%TA.AperFunction,NonConductor*%
G36*
X101314147Y-114455045D02*
G01*
X101316250Y-114460123D01*
X101352204Y-114562876D01*
X101352208Y-114562885D01*
X101388016Y-114611403D01*
X101397044Y-114647803D01*
X101377688Y-114679925D01*
X101348591Y-114689500D01*
X101191409Y-114689500D01*
X101156761Y-114675148D01*
X101142409Y-114640500D01*
X101151984Y-114611403D01*
X101187791Y-114562885D01*
X101187791Y-114562884D01*
X101187793Y-114562882D01*
X101223750Y-114460123D01*
X101248739Y-114432159D01*
X101286183Y-114430056D01*
X101314147Y-114455045D01*
G37*
%TD.AperFunction*%
%TA.AperFunction,NonConductor*%
G36*
X105772038Y-114094852D02*
G01*
X105886365Y-114209179D01*
X105900717Y-114243827D01*
X105886365Y-114278475D01*
X105851717Y-114292827D01*
X105839035Y-114291157D01*
X105711560Y-114257000D01*
X105711557Y-114257000D01*
X105553443Y-114257000D01*
X105553440Y-114257000D01*
X105400717Y-114297922D01*
X105400713Y-114297923D01*
X105263790Y-114376975D01*
X105263781Y-114376982D01*
X105151982Y-114488781D01*
X105151975Y-114488790D01*
X105087660Y-114600189D01*
X105076313Y-114608895D01*
X105073727Y-114622569D01*
X105074153Y-114622746D01*
X105073307Y-114624787D01*
X105073234Y-114625176D01*
X105072924Y-114625711D01*
X105072922Y-114625717D01*
X105032000Y-114778439D01*
X105032000Y-114821814D01*
X105017648Y-114856462D01*
X104493962Y-115380148D01*
X104459314Y-115394500D01*
X104376609Y-115394500D01*
X104341961Y-115380148D01*
X104327609Y-115345500D01*
X104341961Y-115310852D01*
X104845499Y-114807314D01*
X104845500Y-114807313D01*
X104911392Y-114693185D01*
X104914559Y-114681365D01*
X104922464Y-114664950D01*
X104991371Y-114571584D01*
X104998688Y-114567174D01*
X104998975Y-114559505D01*
X105023722Y-114488781D01*
X105042646Y-114434699D01*
X105045500Y-114404266D01*
X105045500Y-114129500D01*
X105059852Y-114094852D01*
X105094500Y-114080500D01*
X105737390Y-114080500D01*
X105772038Y-114094852D01*
G37*
%TD.AperFunction*%
%TA.AperFunction,NonConductor*%
G36*
X98774147Y-114455045D02*
G01*
X98776250Y-114460123D01*
X98812204Y-114562876D01*
X98812208Y-114562885D01*
X98887534Y-114664948D01*
X98895439Y-114681360D01*
X98898608Y-114693186D01*
X98898608Y-114693187D01*
X98964500Y-114807313D01*
X99468039Y-115310852D01*
X99482391Y-115345500D01*
X99468039Y-115380148D01*
X99433391Y-115394500D01*
X97085687Y-115394500D01*
X97051039Y-115380148D01*
X96552063Y-114881172D01*
X96537711Y-114846524D01*
X96552063Y-114811876D01*
X96586711Y-114797524D01*
X96591277Y-114797737D01*
X96620734Y-114800500D01*
X96620744Y-114800500D01*
X97029256Y-114800500D01*
X97029266Y-114800500D01*
X97059699Y-114797646D01*
X97187882Y-114752793D01*
X97193923Y-114748335D01*
X97297150Y-114672150D01*
X97377791Y-114562885D01*
X97377791Y-114562884D01*
X97377793Y-114562882D01*
X97413750Y-114460123D01*
X97438739Y-114432159D01*
X97476183Y-114430056D01*
X97504147Y-114455045D01*
X97506250Y-114460123D01*
X97542204Y-114562876D01*
X97542208Y-114562885D01*
X97622849Y-114672150D01*
X97732114Y-114752791D01*
X97732117Y-114752792D01*
X97732118Y-114752793D01*
X97732120Y-114752793D01*
X97732123Y-114752795D01*
X97859952Y-114797524D01*
X97860301Y-114797646D01*
X97890734Y-114800500D01*
X97890744Y-114800500D01*
X98299256Y-114800500D01*
X98299266Y-114800500D01*
X98329699Y-114797646D01*
X98457882Y-114752793D01*
X98463923Y-114748335D01*
X98567150Y-114672150D01*
X98647791Y-114562885D01*
X98647791Y-114562884D01*
X98647793Y-114562882D01*
X98683750Y-114460123D01*
X98708739Y-114432159D01*
X98746183Y-114430056D01*
X98774147Y-114455045D01*
G37*
%TD.AperFunction*%
M02*
