%TF.GenerationSoftware,KiCad,Pcbnew,9.0.0*%
%TF.CreationDate,2025-07-06T23:34:01+07:00*%
%TF.ProjectId,MiniDrone_aDat,4d696e69-4472-46f6-9e65-5f614461742e,rev?*%
%TF.SameCoordinates,Original*%
%TF.FileFunction,Legend,Bot*%
%TF.FilePolarity,Positive*%
%FSLAX46Y46*%
G04 Gerber Fmt 4.6, Leading zero omitted, Abs format (unit mm)*
G04 Created by KiCad (PCBNEW 9.0.0) date 2025-07-06 23:34:01*
%MOMM*%
%LPD*%
G01*
G04 APERTURE LIST*
%ADD10C,0.150000*%
%ADD11C,0.100000*%
%ADD12C,0.120000*%
G04 APERTURE END LIST*
D10*
X125513680Y-124785204D02*
X126018756Y-125290280D01*
X126018756Y-125290280D02*
X126153443Y-125357624D01*
X126153443Y-125357624D02*
X126288130Y-125357624D01*
X126288130Y-125357624D02*
X126422817Y-125290280D01*
X126422817Y-125290280D02*
X126490161Y-125222937D01*
X125244306Y-125054578D02*
X124806573Y-125492311D01*
X124806573Y-125492311D02*
X125311649Y-125525983D01*
X125311649Y-125525983D02*
X125210634Y-125626998D01*
X125210634Y-125626998D02*
X125176962Y-125728013D01*
X125176962Y-125728013D02*
X125176962Y-125795357D01*
X125176962Y-125795357D02*
X125210634Y-125896372D01*
X125210634Y-125896372D02*
X125378993Y-126064731D01*
X125378993Y-126064731D02*
X125480008Y-126098402D01*
X125480008Y-126098402D02*
X125547351Y-126098402D01*
X125547351Y-126098402D02*
X125648367Y-126064731D01*
X125648367Y-126064731D02*
X125850397Y-125862700D01*
X125850397Y-125862700D02*
X125884069Y-125761685D01*
X125884069Y-125761685D02*
X125884069Y-125694341D01*
X90389580Y-90263333D02*
X90437200Y-90215714D01*
X90437200Y-90215714D02*
X90484819Y-90072857D01*
X90484819Y-90072857D02*
X90484819Y-89977619D01*
X90484819Y-89977619D02*
X90437200Y-89834762D01*
X90437200Y-89834762D02*
X90341961Y-89739524D01*
X90341961Y-89739524D02*
X90246723Y-89691905D01*
X90246723Y-89691905D02*
X90056247Y-89644286D01*
X90056247Y-89644286D02*
X89913390Y-89644286D01*
X89913390Y-89644286D02*
X89722914Y-89691905D01*
X89722914Y-89691905D02*
X89627676Y-89739524D01*
X89627676Y-89739524D02*
X89532438Y-89834762D01*
X89532438Y-89834762D02*
X89484819Y-89977619D01*
X89484819Y-89977619D02*
X89484819Y-90072857D01*
X89484819Y-90072857D02*
X89532438Y-90215714D01*
X89532438Y-90215714D02*
X89580057Y-90263333D01*
X89484819Y-90596667D02*
X89484819Y-91215714D01*
X89484819Y-91215714D02*
X89865771Y-90882381D01*
X89865771Y-90882381D02*
X89865771Y-91025238D01*
X89865771Y-91025238D02*
X89913390Y-91120476D01*
X89913390Y-91120476D02*
X89961009Y-91168095D01*
X89961009Y-91168095D02*
X90056247Y-91215714D01*
X90056247Y-91215714D02*
X90294342Y-91215714D01*
X90294342Y-91215714D02*
X90389580Y-91168095D01*
X90389580Y-91168095D02*
X90437200Y-91120476D01*
X90437200Y-91120476D02*
X90484819Y-91025238D01*
X90484819Y-91025238D02*
X90484819Y-90739524D01*
X90484819Y-90739524D02*
X90437200Y-90644286D01*
X90437200Y-90644286D02*
X90389580Y-90596667D01*
X76044795Y-125303680D02*
X75539719Y-125808756D01*
X75539719Y-125808756D02*
X75472375Y-125943443D01*
X75472375Y-125943443D02*
X75472375Y-126078130D01*
X75472375Y-126078130D02*
X75539719Y-126212817D01*
X75539719Y-126212817D02*
X75607062Y-126280161D01*
X75169329Y-124899619D02*
X74697925Y-125371023D01*
X75607062Y-124798603D02*
X75270345Y-125472038D01*
X75270345Y-125472038D02*
X74832612Y-125034306D01*
D11*
X75520000Y-76990200D02*
X75662857Y-76942580D01*
X75662857Y-76942580D02*
X75900952Y-76942580D01*
X75900952Y-76942580D02*
X75996190Y-76990200D01*
X75996190Y-76990200D02*
X76043809Y-77037819D01*
X76043809Y-77037819D02*
X76091428Y-77133057D01*
X76091428Y-77133057D02*
X76091428Y-77228295D01*
X76091428Y-77228295D02*
X76043809Y-77323533D01*
X76043809Y-77323533D02*
X75996190Y-77371152D01*
X75996190Y-77371152D02*
X75900952Y-77418771D01*
X75900952Y-77418771D02*
X75710476Y-77466390D01*
X75710476Y-77466390D02*
X75615238Y-77514009D01*
X75615238Y-77514009D02*
X75567619Y-77561628D01*
X75567619Y-77561628D02*
X75520000Y-77656866D01*
X75520000Y-77656866D02*
X75520000Y-77752104D01*
X75520000Y-77752104D02*
X75567619Y-77847342D01*
X75567619Y-77847342D02*
X75615238Y-77894961D01*
X75615238Y-77894961D02*
X75710476Y-77942580D01*
X75710476Y-77942580D02*
X75948571Y-77942580D01*
X75948571Y-77942580D02*
X76091428Y-77894961D01*
X76948571Y-76990200D02*
X76853333Y-76942580D01*
X76853333Y-76942580D02*
X76662857Y-76942580D01*
X76662857Y-76942580D02*
X76567619Y-76990200D01*
X76567619Y-76990200D02*
X76520000Y-77037819D01*
X76520000Y-77037819D02*
X76472381Y-77133057D01*
X76472381Y-77133057D02*
X76472381Y-77418771D01*
X76472381Y-77418771D02*
X76520000Y-77514009D01*
X76520000Y-77514009D02*
X76567619Y-77561628D01*
X76567619Y-77561628D02*
X76662857Y-77609247D01*
X76662857Y-77609247D02*
X76853333Y-77609247D01*
X76853333Y-77609247D02*
X76948571Y-77561628D01*
X77377143Y-76942580D02*
X77377143Y-77609247D01*
X77377143Y-77418771D02*
X77424762Y-77514009D01*
X77424762Y-77514009D02*
X77472381Y-77561628D01*
X77472381Y-77561628D02*
X77567619Y-77609247D01*
X77567619Y-77609247D02*
X77662857Y-77609247D01*
X77948572Y-77847342D02*
X77996191Y-77894961D01*
X77996191Y-77894961D02*
X78091429Y-77942580D01*
X78091429Y-77942580D02*
X78329524Y-77942580D01*
X78329524Y-77942580D02*
X78424762Y-77894961D01*
X78424762Y-77894961D02*
X78472381Y-77847342D01*
X78472381Y-77847342D02*
X78520000Y-77752104D01*
X78520000Y-77752104D02*
X78520000Y-77656866D01*
X78520000Y-77656866D02*
X78472381Y-77514009D01*
X78472381Y-77514009D02*
X77900953Y-76942580D01*
X77900953Y-76942580D02*
X78520000Y-76942580D01*
D10*
X93554819Y-115238095D02*
X94364342Y-115238095D01*
X94364342Y-115238095D02*
X94459580Y-115285714D01*
X94459580Y-115285714D02*
X94507200Y-115333333D01*
X94507200Y-115333333D02*
X94554819Y-115428571D01*
X94554819Y-115428571D02*
X94554819Y-115619047D01*
X94554819Y-115619047D02*
X94507200Y-115714285D01*
X94507200Y-115714285D02*
X94459580Y-115761904D01*
X94459580Y-115761904D02*
X94364342Y-115809523D01*
X94364342Y-115809523D02*
X93554819Y-115809523D01*
X93554819Y-116190476D02*
X93554819Y-116809523D01*
X93554819Y-116809523D02*
X93935771Y-116476190D01*
X93935771Y-116476190D02*
X93935771Y-116619047D01*
X93935771Y-116619047D02*
X93983390Y-116714285D01*
X93983390Y-116714285D02*
X94031009Y-116761904D01*
X94031009Y-116761904D02*
X94126247Y-116809523D01*
X94126247Y-116809523D02*
X94364342Y-116809523D01*
X94364342Y-116809523D02*
X94459580Y-116761904D01*
X94459580Y-116761904D02*
X94507200Y-116714285D01*
X94507200Y-116714285D02*
X94554819Y-116619047D01*
X94554819Y-116619047D02*
X94554819Y-116333333D01*
X94554819Y-116333333D02*
X94507200Y-116238095D01*
X94507200Y-116238095D02*
X94459580Y-116190476D01*
X120309523Y-96544819D02*
X120309523Y-97259104D01*
X120309523Y-97259104D02*
X120357142Y-97401961D01*
X120357142Y-97401961D02*
X120452380Y-97497200D01*
X120452380Y-97497200D02*
X120595237Y-97544819D01*
X120595237Y-97544819D02*
X120690475Y-97544819D01*
X119309523Y-97544819D02*
X119880951Y-97544819D01*
X119595237Y-97544819D02*
X119595237Y-96544819D01*
X119595237Y-96544819D02*
X119690475Y-96687676D01*
X119690475Y-96687676D02*
X119785713Y-96782914D01*
X119785713Y-96782914D02*
X119880951Y-96830533D01*
X118690475Y-96544819D02*
X118595237Y-96544819D01*
X118595237Y-96544819D02*
X118499999Y-96592438D01*
X118499999Y-96592438D02*
X118452380Y-96640057D01*
X118452380Y-96640057D02*
X118404761Y-96735295D01*
X118404761Y-96735295D02*
X118357142Y-96925771D01*
X118357142Y-96925771D02*
X118357142Y-97163866D01*
X118357142Y-97163866D02*
X118404761Y-97354342D01*
X118404761Y-97354342D02*
X118452380Y-97449580D01*
X118452380Y-97449580D02*
X118499999Y-97497200D01*
X118499999Y-97497200D02*
X118595237Y-97544819D01*
X118595237Y-97544819D02*
X118690475Y-97544819D01*
X118690475Y-97544819D02*
X118785713Y-97497200D01*
X118785713Y-97497200D02*
X118833332Y-97449580D01*
X118833332Y-97449580D02*
X118880951Y-97354342D01*
X118880951Y-97354342D02*
X118928570Y-97163866D01*
X118928570Y-97163866D02*
X118928570Y-96925771D01*
X118928570Y-96925771D02*
X118880951Y-96735295D01*
X118880951Y-96735295D02*
X118833332Y-96640057D01*
X118833332Y-96640057D02*
X118785713Y-96592438D01*
X118785713Y-96592438D02*
X118690475Y-96544819D01*
X84848333Y-93294819D02*
X84848333Y-94009104D01*
X84848333Y-94009104D02*
X84895952Y-94151961D01*
X84895952Y-94151961D02*
X84991190Y-94247200D01*
X84991190Y-94247200D02*
X85134047Y-94294819D01*
X85134047Y-94294819D02*
X85229285Y-94294819D01*
X84229285Y-93723390D02*
X84324523Y-93675771D01*
X84324523Y-93675771D02*
X84372142Y-93628152D01*
X84372142Y-93628152D02*
X84419761Y-93532914D01*
X84419761Y-93532914D02*
X84419761Y-93485295D01*
X84419761Y-93485295D02*
X84372142Y-93390057D01*
X84372142Y-93390057D02*
X84324523Y-93342438D01*
X84324523Y-93342438D02*
X84229285Y-93294819D01*
X84229285Y-93294819D02*
X84038809Y-93294819D01*
X84038809Y-93294819D02*
X83943571Y-93342438D01*
X83943571Y-93342438D02*
X83895952Y-93390057D01*
X83895952Y-93390057D02*
X83848333Y-93485295D01*
X83848333Y-93485295D02*
X83848333Y-93532914D01*
X83848333Y-93532914D02*
X83895952Y-93628152D01*
X83895952Y-93628152D02*
X83943571Y-93675771D01*
X83943571Y-93675771D02*
X84038809Y-93723390D01*
X84038809Y-93723390D02*
X84229285Y-93723390D01*
X84229285Y-93723390D02*
X84324523Y-93771009D01*
X84324523Y-93771009D02*
X84372142Y-93818628D01*
X84372142Y-93818628D02*
X84419761Y-93913866D01*
X84419761Y-93913866D02*
X84419761Y-94104342D01*
X84419761Y-94104342D02*
X84372142Y-94199580D01*
X84372142Y-94199580D02*
X84324523Y-94247200D01*
X84324523Y-94247200D02*
X84229285Y-94294819D01*
X84229285Y-94294819D02*
X84038809Y-94294819D01*
X84038809Y-94294819D02*
X83943571Y-94247200D01*
X83943571Y-94247200D02*
X83895952Y-94199580D01*
X83895952Y-94199580D02*
X83848333Y-94104342D01*
X83848333Y-94104342D02*
X83848333Y-93913866D01*
X83848333Y-93913866D02*
X83895952Y-93818628D01*
X83895952Y-93818628D02*
X83943571Y-93771009D01*
X83943571Y-93771009D02*
X84038809Y-93723390D01*
X106649580Y-111677142D02*
X106697200Y-111629523D01*
X106697200Y-111629523D02*
X106744819Y-111486666D01*
X106744819Y-111486666D02*
X106744819Y-111391428D01*
X106744819Y-111391428D02*
X106697200Y-111248571D01*
X106697200Y-111248571D02*
X106601961Y-111153333D01*
X106601961Y-111153333D02*
X106506723Y-111105714D01*
X106506723Y-111105714D02*
X106316247Y-111058095D01*
X106316247Y-111058095D02*
X106173390Y-111058095D01*
X106173390Y-111058095D02*
X105982914Y-111105714D01*
X105982914Y-111105714D02*
X105887676Y-111153333D01*
X105887676Y-111153333D02*
X105792438Y-111248571D01*
X105792438Y-111248571D02*
X105744819Y-111391428D01*
X105744819Y-111391428D02*
X105744819Y-111486666D01*
X105744819Y-111486666D02*
X105792438Y-111629523D01*
X105792438Y-111629523D02*
X105840057Y-111677142D01*
X106744819Y-112629523D02*
X106744819Y-112058095D01*
X106744819Y-112343809D02*
X105744819Y-112343809D01*
X105744819Y-112343809D02*
X105887676Y-112248571D01*
X105887676Y-112248571D02*
X105982914Y-112153333D01*
X105982914Y-112153333D02*
X106030533Y-112058095D01*
X105744819Y-113534285D02*
X105744819Y-113058095D01*
X105744819Y-113058095D02*
X106221009Y-113010476D01*
X106221009Y-113010476D02*
X106173390Y-113058095D01*
X106173390Y-113058095D02*
X106125771Y-113153333D01*
X106125771Y-113153333D02*
X106125771Y-113391428D01*
X106125771Y-113391428D02*
X106173390Y-113486666D01*
X106173390Y-113486666D02*
X106221009Y-113534285D01*
X106221009Y-113534285D02*
X106316247Y-113581904D01*
X106316247Y-113581904D02*
X106554342Y-113581904D01*
X106554342Y-113581904D02*
X106649580Y-113534285D01*
X106649580Y-113534285D02*
X106697200Y-113486666D01*
X106697200Y-113486666D02*
X106744819Y-113391428D01*
X106744819Y-113391428D02*
X106744819Y-113153333D01*
X106744819Y-113153333D02*
X106697200Y-113058095D01*
X106697200Y-113058095D02*
X106649580Y-113010476D01*
D11*
X122600000Y-76980200D02*
X122742857Y-76932580D01*
X122742857Y-76932580D02*
X122980952Y-76932580D01*
X122980952Y-76932580D02*
X123076190Y-76980200D01*
X123076190Y-76980200D02*
X123123809Y-77027819D01*
X123123809Y-77027819D02*
X123171428Y-77123057D01*
X123171428Y-77123057D02*
X123171428Y-77218295D01*
X123171428Y-77218295D02*
X123123809Y-77313533D01*
X123123809Y-77313533D02*
X123076190Y-77361152D01*
X123076190Y-77361152D02*
X122980952Y-77408771D01*
X122980952Y-77408771D02*
X122790476Y-77456390D01*
X122790476Y-77456390D02*
X122695238Y-77504009D01*
X122695238Y-77504009D02*
X122647619Y-77551628D01*
X122647619Y-77551628D02*
X122600000Y-77646866D01*
X122600000Y-77646866D02*
X122600000Y-77742104D01*
X122600000Y-77742104D02*
X122647619Y-77837342D01*
X122647619Y-77837342D02*
X122695238Y-77884961D01*
X122695238Y-77884961D02*
X122790476Y-77932580D01*
X122790476Y-77932580D02*
X123028571Y-77932580D01*
X123028571Y-77932580D02*
X123171428Y-77884961D01*
X124028571Y-76980200D02*
X123933333Y-76932580D01*
X123933333Y-76932580D02*
X123742857Y-76932580D01*
X123742857Y-76932580D02*
X123647619Y-76980200D01*
X123647619Y-76980200D02*
X123600000Y-77027819D01*
X123600000Y-77027819D02*
X123552381Y-77123057D01*
X123552381Y-77123057D02*
X123552381Y-77408771D01*
X123552381Y-77408771D02*
X123600000Y-77504009D01*
X123600000Y-77504009D02*
X123647619Y-77551628D01*
X123647619Y-77551628D02*
X123742857Y-77599247D01*
X123742857Y-77599247D02*
X123933333Y-77599247D01*
X123933333Y-77599247D02*
X124028571Y-77551628D01*
X124457143Y-76932580D02*
X124457143Y-77599247D01*
X124457143Y-77408771D02*
X124504762Y-77504009D01*
X124504762Y-77504009D02*
X124552381Y-77551628D01*
X124552381Y-77551628D02*
X124647619Y-77599247D01*
X124647619Y-77599247D02*
X124742857Y-77599247D01*
X125600000Y-76932580D02*
X125028572Y-76932580D01*
X125314286Y-76932580D02*
X125314286Y-77932580D01*
X125314286Y-77932580D02*
X125219048Y-77789723D01*
X125219048Y-77789723D02*
X125123810Y-77694485D01*
X125123810Y-77694485D02*
X125028572Y-77646866D01*
D10*
X75016722Y-74672388D02*
X75521798Y-75177464D01*
X75521798Y-75177464D02*
X75656485Y-75244808D01*
X75656485Y-75244808D02*
X75791172Y-75244808D01*
X75791172Y-75244808D02*
X75925859Y-75177464D01*
X75925859Y-75177464D02*
X75993203Y-75110121D01*
X74781019Y-75042777D02*
X74713676Y-75042777D01*
X74713676Y-75042777D02*
X74612661Y-75076449D01*
X74612661Y-75076449D02*
X74444302Y-75244808D01*
X74444302Y-75244808D02*
X74410630Y-75345823D01*
X74410630Y-75345823D02*
X74410630Y-75413167D01*
X74410630Y-75413167D02*
X74444302Y-75514182D01*
X74444302Y-75514182D02*
X74511645Y-75581525D01*
X74511645Y-75581525D02*
X74646332Y-75648869D01*
X74646332Y-75648869D02*
X75454454Y-75648869D01*
X75454454Y-75648869D02*
X75016722Y-76086602D01*
X126087611Y-74886722D02*
X125582535Y-75391798D01*
X125582535Y-75391798D02*
X125515191Y-75526485D01*
X125515191Y-75526485D02*
X125515191Y-75661172D01*
X125515191Y-75661172D02*
X125582535Y-75795859D01*
X125582535Y-75795859D02*
X125649878Y-75863203D01*
X124673397Y-74886722D02*
X125077458Y-75290783D01*
X124875428Y-75088752D02*
X125582535Y-74381645D01*
X125582535Y-74381645D02*
X125548863Y-74550004D01*
X125548863Y-74550004D02*
X125548863Y-74684691D01*
X125548863Y-74684691D02*
X125582535Y-74785706D01*
D11*
X122760000Y-123550200D02*
X122902857Y-123502580D01*
X122902857Y-123502580D02*
X123140952Y-123502580D01*
X123140952Y-123502580D02*
X123236190Y-123550200D01*
X123236190Y-123550200D02*
X123283809Y-123597819D01*
X123283809Y-123597819D02*
X123331428Y-123693057D01*
X123331428Y-123693057D02*
X123331428Y-123788295D01*
X123331428Y-123788295D02*
X123283809Y-123883533D01*
X123283809Y-123883533D02*
X123236190Y-123931152D01*
X123236190Y-123931152D02*
X123140952Y-123978771D01*
X123140952Y-123978771D02*
X122950476Y-124026390D01*
X122950476Y-124026390D02*
X122855238Y-124074009D01*
X122855238Y-124074009D02*
X122807619Y-124121628D01*
X122807619Y-124121628D02*
X122760000Y-124216866D01*
X122760000Y-124216866D02*
X122760000Y-124312104D01*
X122760000Y-124312104D02*
X122807619Y-124407342D01*
X122807619Y-124407342D02*
X122855238Y-124454961D01*
X122855238Y-124454961D02*
X122950476Y-124502580D01*
X122950476Y-124502580D02*
X123188571Y-124502580D01*
X123188571Y-124502580D02*
X123331428Y-124454961D01*
X124188571Y-123550200D02*
X124093333Y-123502580D01*
X124093333Y-123502580D02*
X123902857Y-123502580D01*
X123902857Y-123502580D02*
X123807619Y-123550200D01*
X123807619Y-123550200D02*
X123760000Y-123597819D01*
X123760000Y-123597819D02*
X123712381Y-123693057D01*
X123712381Y-123693057D02*
X123712381Y-123978771D01*
X123712381Y-123978771D02*
X123760000Y-124074009D01*
X123760000Y-124074009D02*
X123807619Y-124121628D01*
X123807619Y-124121628D02*
X123902857Y-124169247D01*
X123902857Y-124169247D02*
X124093333Y-124169247D01*
X124093333Y-124169247D02*
X124188571Y-124121628D01*
X124617143Y-123502580D02*
X124617143Y-124169247D01*
X124617143Y-123978771D02*
X124664762Y-124074009D01*
X124664762Y-124074009D02*
X124712381Y-124121628D01*
X124712381Y-124121628D02*
X124807619Y-124169247D01*
X124807619Y-124169247D02*
X124902857Y-124169247D01*
X125140953Y-124502580D02*
X125760000Y-124502580D01*
X125760000Y-124502580D02*
X125426667Y-124121628D01*
X125426667Y-124121628D02*
X125569524Y-124121628D01*
X125569524Y-124121628D02*
X125664762Y-124074009D01*
X125664762Y-124074009D02*
X125712381Y-124026390D01*
X125712381Y-124026390D02*
X125760000Y-123931152D01*
X125760000Y-123931152D02*
X125760000Y-123693057D01*
X125760000Y-123693057D02*
X125712381Y-123597819D01*
X125712381Y-123597819D02*
X125664762Y-123550200D01*
X125664762Y-123550200D02*
X125569524Y-123502580D01*
X125569524Y-123502580D02*
X125283810Y-123502580D01*
X125283810Y-123502580D02*
X125188572Y-123550200D01*
X125188572Y-123550200D02*
X125140953Y-123597819D01*
X75570000Y-123600200D02*
X75712857Y-123552580D01*
X75712857Y-123552580D02*
X75950952Y-123552580D01*
X75950952Y-123552580D02*
X76046190Y-123600200D01*
X76046190Y-123600200D02*
X76093809Y-123647819D01*
X76093809Y-123647819D02*
X76141428Y-123743057D01*
X76141428Y-123743057D02*
X76141428Y-123838295D01*
X76141428Y-123838295D02*
X76093809Y-123933533D01*
X76093809Y-123933533D02*
X76046190Y-123981152D01*
X76046190Y-123981152D02*
X75950952Y-124028771D01*
X75950952Y-124028771D02*
X75760476Y-124076390D01*
X75760476Y-124076390D02*
X75665238Y-124124009D01*
X75665238Y-124124009D02*
X75617619Y-124171628D01*
X75617619Y-124171628D02*
X75570000Y-124266866D01*
X75570000Y-124266866D02*
X75570000Y-124362104D01*
X75570000Y-124362104D02*
X75617619Y-124457342D01*
X75617619Y-124457342D02*
X75665238Y-124504961D01*
X75665238Y-124504961D02*
X75760476Y-124552580D01*
X75760476Y-124552580D02*
X75998571Y-124552580D01*
X75998571Y-124552580D02*
X76141428Y-124504961D01*
X76998571Y-123600200D02*
X76903333Y-123552580D01*
X76903333Y-123552580D02*
X76712857Y-123552580D01*
X76712857Y-123552580D02*
X76617619Y-123600200D01*
X76617619Y-123600200D02*
X76570000Y-123647819D01*
X76570000Y-123647819D02*
X76522381Y-123743057D01*
X76522381Y-123743057D02*
X76522381Y-124028771D01*
X76522381Y-124028771D02*
X76570000Y-124124009D01*
X76570000Y-124124009D02*
X76617619Y-124171628D01*
X76617619Y-124171628D02*
X76712857Y-124219247D01*
X76712857Y-124219247D02*
X76903333Y-124219247D01*
X76903333Y-124219247D02*
X76998571Y-124171628D01*
X77427143Y-123552580D02*
X77427143Y-124219247D01*
X77427143Y-124028771D02*
X77474762Y-124124009D01*
X77474762Y-124124009D02*
X77522381Y-124171628D01*
X77522381Y-124171628D02*
X77617619Y-124219247D01*
X77617619Y-124219247D02*
X77712857Y-124219247D01*
X78474762Y-124219247D02*
X78474762Y-123552580D01*
X78236667Y-124600200D02*
X77998572Y-123885914D01*
X77998572Y-123885914D02*
X78617619Y-123885914D01*
D10*
X93333333Y-111284819D02*
X93333333Y-111999104D01*
X93333333Y-111999104D02*
X93380952Y-112141961D01*
X93380952Y-112141961D02*
X93476190Y-112237200D01*
X93476190Y-112237200D02*
X93619047Y-112284819D01*
X93619047Y-112284819D02*
X93714285Y-112284819D01*
X92428571Y-111284819D02*
X92619047Y-111284819D01*
X92619047Y-111284819D02*
X92714285Y-111332438D01*
X92714285Y-111332438D02*
X92761904Y-111380057D01*
X92761904Y-111380057D02*
X92857142Y-111522914D01*
X92857142Y-111522914D02*
X92904761Y-111713390D01*
X92904761Y-111713390D02*
X92904761Y-112094342D01*
X92904761Y-112094342D02*
X92857142Y-112189580D01*
X92857142Y-112189580D02*
X92809523Y-112237200D01*
X92809523Y-112237200D02*
X92714285Y-112284819D01*
X92714285Y-112284819D02*
X92523809Y-112284819D01*
X92523809Y-112284819D02*
X92428571Y-112237200D01*
X92428571Y-112237200D02*
X92380952Y-112189580D01*
X92380952Y-112189580D02*
X92333333Y-112094342D01*
X92333333Y-112094342D02*
X92333333Y-111856247D01*
X92333333Y-111856247D02*
X92380952Y-111761009D01*
X92380952Y-111761009D02*
X92428571Y-111713390D01*
X92428571Y-111713390D02*
X92523809Y-111665771D01*
X92523809Y-111665771D02*
X92714285Y-111665771D01*
X92714285Y-111665771D02*
X92809523Y-111713390D01*
X92809523Y-111713390D02*
X92857142Y-111761009D01*
X92857142Y-111761009D02*
X92904761Y-111856247D01*
X106034819Y-86268095D02*
X106844342Y-86268095D01*
X106844342Y-86268095D02*
X106939580Y-86315714D01*
X106939580Y-86315714D02*
X106987200Y-86363333D01*
X106987200Y-86363333D02*
X107034819Y-86458571D01*
X107034819Y-86458571D02*
X107034819Y-86649047D01*
X107034819Y-86649047D02*
X106987200Y-86744285D01*
X106987200Y-86744285D02*
X106939580Y-86791904D01*
X106939580Y-86791904D02*
X106844342Y-86839523D01*
X106844342Y-86839523D02*
X106034819Y-86839523D01*
X106034819Y-87791904D02*
X106034819Y-87315714D01*
X106034819Y-87315714D02*
X106511009Y-87268095D01*
X106511009Y-87268095D02*
X106463390Y-87315714D01*
X106463390Y-87315714D02*
X106415771Y-87410952D01*
X106415771Y-87410952D02*
X106415771Y-87649047D01*
X106415771Y-87649047D02*
X106463390Y-87744285D01*
X106463390Y-87744285D02*
X106511009Y-87791904D01*
X106511009Y-87791904D02*
X106606247Y-87839523D01*
X106606247Y-87839523D02*
X106844342Y-87839523D01*
X106844342Y-87839523D02*
X106939580Y-87791904D01*
X106939580Y-87791904D02*
X106987200Y-87744285D01*
X106987200Y-87744285D02*
X107034819Y-87649047D01*
X107034819Y-87649047D02*
X107034819Y-87410952D01*
X107034819Y-87410952D02*
X106987200Y-87315714D01*
X106987200Y-87315714D02*
X106939580Y-87268095D01*
X109612857Y-80469580D02*
X109660476Y-80517200D01*
X109660476Y-80517200D02*
X109803333Y-80564819D01*
X109803333Y-80564819D02*
X109898571Y-80564819D01*
X109898571Y-80564819D02*
X110041428Y-80517200D01*
X110041428Y-80517200D02*
X110136666Y-80421961D01*
X110136666Y-80421961D02*
X110184285Y-80326723D01*
X110184285Y-80326723D02*
X110231904Y-80136247D01*
X110231904Y-80136247D02*
X110231904Y-79993390D01*
X110231904Y-79993390D02*
X110184285Y-79802914D01*
X110184285Y-79802914D02*
X110136666Y-79707676D01*
X110136666Y-79707676D02*
X110041428Y-79612438D01*
X110041428Y-79612438D02*
X109898571Y-79564819D01*
X109898571Y-79564819D02*
X109803333Y-79564819D01*
X109803333Y-79564819D02*
X109660476Y-79612438D01*
X109660476Y-79612438D02*
X109612857Y-79660057D01*
X108660476Y-80564819D02*
X109231904Y-80564819D01*
X108946190Y-80564819D02*
X108946190Y-79564819D01*
X108946190Y-79564819D02*
X109041428Y-79707676D01*
X109041428Y-79707676D02*
X109136666Y-79802914D01*
X109136666Y-79802914D02*
X109231904Y-79850533D01*
X108327142Y-79564819D02*
X107708095Y-79564819D01*
X107708095Y-79564819D02*
X108041428Y-79945771D01*
X108041428Y-79945771D02*
X107898571Y-79945771D01*
X107898571Y-79945771D02*
X107803333Y-79993390D01*
X107803333Y-79993390D02*
X107755714Y-80041009D01*
X107755714Y-80041009D02*
X107708095Y-80136247D01*
X107708095Y-80136247D02*
X107708095Y-80374342D01*
X107708095Y-80374342D02*
X107755714Y-80469580D01*
X107755714Y-80469580D02*
X107803333Y-80517200D01*
X107803333Y-80517200D02*
X107898571Y-80564819D01*
X107898571Y-80564819D02*
X108184285Y-80564819D01*
X108184285Y-80564819D02*
X108279523Y-80517200D01*
X108279523Y-80517200D02*
X108327142Y-80469580D01*
D12*
%TO.C,J3*%
X124312905Y-128171196D02*
X129078805Y-132937095D01*
X128428266Y-124055834D02*
X124312905Y-128171196D01*
X128428266Y-124055834D02*
X133194166Y-128821734D01*
X129644490Y-125272058D02*
X125529128Y-129387419D01*
X131822379Y-130193521D02*
X129078805Y-132937095D01*
X131836521Y-127464089D02*
X127721160Y-131579450D01*
X132543628Y-128171196D02*
X128428266Y-132286557D01*
X133194166Y-128821734D02*
X132246643Y-129769257D01*
X132776973Y-130101597D02*
X132154719Y-130723851D01*
X132034511Y-129981389D01*
X132776973Y-130101597D01*
G36*
X132776973Y-130101597D02*
G01*
X132154719Y-130723851D01*
X132034511Y-129981389D01*
X132776973Y-130101597D01*
G37*
%TO.C,C3*%
X88090000Y-90570580D02*
X88090000Y-90289420D01*
X89110000Y-90570580D02*
X89110000Y-90289420D01*
%TO.C,J4*%
X70636479Y-131612379D02*
X67892905Y-128868805D01*
X72008266Y-132984166D02*
X71060743Y-132036643D01*
X72658804Y-124102905D02*
X67892905Y-128868805D01*
X72658804Y-132333628D02*
X68543443Y-128218266D01*
X73365911Y-131626521D02*
X69250550Y-127511160D01*
X75557942Y-129434490D02*
X71442581Y-125319128D01*
X76774166Y-128218266D02*
X72008266Y-132984166D01*
X76774166Y-128218266D02*
X72658804Y-124102905D01*
X70728403Y-132566973D02*
X70106149Y-131944719D01*
X70848611Y-131824511D01*
X70728403Y-132566973D01*
G36*
X70728403Y-132566973D02*
G01*
X70106149Y-131944719D01*
X70848611Y-131824511D01*
X70728403Y-132566973D01*
G37*
%TO.C,U3*%
X94940000Y-116000000D02*
X94940000Y-114050000D01*
X94940000Y-116000000D02*
X94940000Y-117950000D01*
X105060000Y-116000000D02*
X105060000Y-114050000D01*
X105060000Y-116000000D02*
X105060000Y-117950000D01*
X94995000Y-113275000D02*
X94665000Y-113515000D01*
X94665000Y-113035000D01*
X94995000Y-113275000D01*
G36*
X94995000Y-113275000D02*
G01*
X94665000Y-113515000D01*
X94665000Y-113035000D01*
X94995000Y-113275000D01*
G37*
%TO.C,J10*%
X118170000Y-85810000D02*
X120830000Y-85810000D01*
X118170000Y-93490000D02*
X118170000Y-85810000D01*
X118170000Y-93490000D02*
X120830000Y-93490000D01*
X118170000Y-94760000D02*
X118170000Y-96090000D01*
X118170000Y-96090000D02*
X119500000Y-96090000D01*
X120830000Y-93490000D02*
X120830000Y-85810000D01*
%TO.C,J8*%
X81915000Y-94840000D02*
X81915000Y-105120000D01*
X84515000Y-94840000D02*
X81915000Y-94840000D01*
X84515000Y-97440000D02*
X84515000Y-94840000D01*
X87115000Y-94840000D02*
X85785000Y-94840000D01*
X87115000Y-96170000D02*
X87115000Y-94840000D01*
X87115000Y-97440000D02*
X84515000Y-97440000D01*
X87115000Y-97440000D02*
X87115000Y-105120000D01*
X87115000Y-105120000D02*
X81915000Y-105120000D01*
%TO.C,C15*%
X106740000Y-115504437D02*
X106740000Y-118960000D01*
X106740000Y-118960000D02*
X107940000Y-118960000D01*
X107190000Y-113950000D02*
X107690000Y-113950000D01*
X107440000Y-113700000D02*
X107440000Y-114200000D01*
X107804437Y-114440000D02*
X106740000Y-115504437D01*
X107804437Y-114440000D02*
X107940000Y-114440000D01*
X110195563Y-114440000D02*
X110060000Y-114440000D01*
X110195563Y-114440000D02*
X111260000Y-115504437D01*
X111260000Y-115504437D02*
X111260000Y-118960000D01*
X111260000Y-118960000D02*
X110060000Y-118960000D01*
%TO.C,J2*%
X67635834Y-71878266D02*
X68583357Y-70930743D01*
X68286372Y-72528804D02*
X72401734Y-68413443D01*
X68993479Y-73235911D02*
X73108840Y-69120550D01*
X69007621Y-70506479D02*
X71751195Y-67762905D01*
X71185510Y-75427942D02*
X75300872Y-71312581D01*
X72401734Y-76644166D02*
X67635834Y-71878266D01*
X72401734Y-76644166D02*
X76517095Y-72528804D01*
X76517095Y-72528804D02*
X71751195Y-67762905D01*
X68795489Y-70718611D02*
X68053027Y-70598403D01*
X68675281Y-69976149D01*
X68795489Y-70718611D01*
G36*
X68795489Y-70718611D02*
G01*
X68053027Y-70598403D01*
X68675281Y-69976149D01*
X68795489Y-70718611D01*
G37*
%TO.C,J1*%
X124115834Y-72271734D02*
X128231196Y-76387095D01*
X124115834Y-72271734D02*
X128881734Y-67505834D01*
X125332058Y-71055510D02*
X129447419Y-75170872D01*
X127524089Y-68863479D02*
X131639450Y-72978840D01*
X128231196Y-68156372D02*
X132346557Y-72271734D01*
X128231196Y-76387095D02*
X132997095Y-71621195D01*
X128881734Y-67505834D02*
X129829257Y-68453357D01*
X130253521Y-68877621D02*
X132997095Y-71621195D01*
X130783851Y-68545281D02*
X130041389Y-68665489D01*
X130161597Y-67923027D01*
X130783851Y-68545281D01*
G36*
X130783851Y-68545281D02*
G01*
X130041389Y-68665489D01*
X130161597Y-67923027D01*
X130783851Y-68545281D01*
G37*
%TO.C,J6*%
X91670000Y-90390000D02*
X94330000Y-90390000D01*
X91670000Y-108230000D02*
X91670000Y-90390000D01*
X91670000Y-108230000D02*
X94330000Y-108230000D01*
X91670000Y-109500000D02*
X91670000Y-110830000D01*
X91670000Y-110830000D02*
X93000000Y-110830000D01*
X94330000Y-108230000D02*
X94330000Y-90390000D01*
%TO.C,U5*%
X94940000Y-85000000D02*
X94940000Y-83050000D01*
X94940000Y-85000000D02*
X94940000Y-86950000D01*
X105060000Y-85000000D02*
X105060000Y-83050000D01*
X105060000Y-85000000D02*
X105060000Y-86950000D01*
X105335000Y-87965000D02*
X105005000Y-87725000D01*
X105335000Y-87485000D01*
X105335000Y-87965000D01*
G36*
X105335000Y-87965000D02*
G01*
X105005000Y-87725000D01*
X105335000Y-87485000D01*
X105335000Y-87965000D01*
G37*
%TO.C,C13*%
X106710000Y-81050000D02*
X106710000Y-82250000D01*
X106710000Y-85570000D02*
X106710000Y-84370000D01*
X110165563Y-81050000D02*
X106710000Y-81050000D01*
X110165563Y-85570000D02*
X106710000Y-85570000D01*
X111230000Y-82114437D02*
X110165563Y-81050000D01*
X111230000Y-82114437D02*
X111230000Y-82250000D01*
X111230000Y-84505563D02*
X110165563Y-85570000D01*
X111230000Y-84505563D02*
X111230000Y-84370000D01*
X111720000Y-81500000D02*
X111720000Y-82000000D01*
X111970000Y-81750000D02*
X111470000Y-81750000D01*
%TD*%
M02*
