%TF.GenerationSoftware,KiCad,Pcbnew,9.0.0*%
%TF.CreationDate,2025-07-06T23:34:02+07:00*%
%TF.ProjectId,MiniDrone_aDat,4d696e69-4472-46f6-9e65-5f614461742e,rev?*%
%TF.SameCoordinates,Original*%
%TF.FileFunction,Soldermask,Bot*%
%TF.FilePolarity,Negative*%
%FSLAX46Y46*%
G04 Gerber Fmt 4.6, Leading zero omitted, Abs format (unit mm)*
G04 Created by KiCad (PCBNEW 9.0.0) date 2025-07-06 23:34:02*
%MOMM*%
%LPD*%
G01*
G04 APERTURE LIST*
G04 Aperture macros list*
%AMRoundRect*
0 Rectangle with rounded corners*
0 $1 Rounding radius*
0 $2 $3 $4 $5 $6 $7 $8 $9 X,Y pos of 4 corners*
0 Add a 4 corners polygon primitive as box body*
4,1,4,$2,$3,$4,$5,$6,$7,$8,$9,$2,$3,0*
0 Add four circle primitives for the rounded corners*
1,1,$1+$1,$2,$3*
1,1,$1+$1,$4,$5*
1,1,$1+$1,$6,$7*
1,1,$1+$1,$8,$9*
0 Add four rect primitives between the rounded corners*
20,1,$1+$1,$2,$3,$4,$5,0*
20,1,$1+$1,$4,$5,$6,$7,0*
20,1,$1+$1,$6,$7,$8,$9,0*
20,1,$1+$1,$8,$9,$2,$3,0*%
G04 Aperture macros list end*
%ADD10C,2.500000*%
%ADD11C,9.000000*%
%ADD12R,1.700000X1.700000*%
%ADD13O,1.700000X1.700000*%
%ADD14RoundRect,0.250000X0.750000X-0.750000X0.750000X0.750000X-0.750000X0.750000X-0.750000X-0.750000X0*%
%ADD15C,2.000000*%
%ADD16RoundRect,0.250000X0.000000X1.060660X-1.060660X0.000000X0.000000X-1.060660X1.060660X0.000000X0*%
%ADD17RoundRect,0.225000X0.250000X-0.225000X0.250000X0.225000X-0.250000X0.225000X-0.250000X-0.225000X0*%
%ADD18RoundRect,0.250000X1.060660X0.000000X0.000000X1.060660X-1.060660X0.000000X0.000000X-1.060660X0*%
%ADD19RoundRect,0.150000X-0.150000X0.850000X-0.150000X-0.850000X0.150000X-0.850000X0.150000X0.850000X0*%
%ADD20RoundRect,0.250000X-0.550000X1.050000X-0.550000X-1.050000X0.550000X-1.050000X0.550000X1.050000X0*%
%ADD21RoundRect,0.250000X0.000000X-1.060660X1.060660X0.000000X0.000000X1.060660X-1.060660X0.000000X0*%
%ADD22RoundRect,0.250000X-1.060660X0.000000X0.000000X-1.060660X1.060660X0.000000X0.000000X1.060660X0*%
%ADD23RoundRect,0.150000X0.150000X-0.850000X0.150000X0.850000X-0.150000X0.850000X-0.150000X-0.850000X0*%
%ADD24RoundRect,0.250000X1.050000X0.550000X-1.050000X0.550000X-1.050000X-0.550000X1.050000X-0.550000X0*%
%ADD25C,0.600000*%
G04 APERTURE END LIST*
D10*
%TO.C,Scr11*%
X62858840Y-70824801D03*
%TD*%
D11*
%TO.C,Mt4*%
X137858842Y-137808825D03*
%TD*%
%TO.C,Mt3*%
X62858842Y-137808824D03*
%TD*%
D12*
%TO.C,J9*%
X83200000Y-83400000D03*
D13*
X83200000Y-85940000D03*
X83200000Y-88480000D03*
X83200000Y-91020000D03*
%TD*%
D10*
%TO.C,Scr5*%
X57490000Y-56840000D03*
%TD*%
%TO.C,Scr6*%
X137858840Y-70827263D03*
%TD*%
%TO.C,Scr7*%
X70880229Y-137808820D03*
%TD*%
D11*
%TO.C,Mt2*%
X62858842Y-62808826D03*
%TD*%
D10*
%TO.C,Scr15*%
X62858840Y-129787431D03*
%TD*%
%TO.C,Scr10*%
X143920000Y-143110000D03*
%TD*%
%TO.C,Scr9*%
X129840407Y-62808830D03*
%TD*%
D12*
%TO.C,J7*%
X117300000Y-117600000D03*
D13*
X117300000Y-115060000D03*
X117300000Y-112520000D03*
X117300000Y-109980000D03*
%TD*%
D10*
%TO.C,Scr16*%
X129852126Y-137808820D03*
%TD*%
%TO.C,Scr12*%
X56940000Y-143320000D03*
%TD*%
D11*
%TO.C,Mt1*%
X137750000Y-62400000D03*
%TD*%
D14*
%TO.C,J5*%
X118707500Y-101535000D03*
D15*
X118707500Y-98995000D03*
%TD*%
D10*
%TO.C,Scr14*%
X142990000Y-56640000D03*
%TD*%
%TO.C,Scr8*%
X70874811Y-62808830D03*
%TD*%
%TO.C,Scr13*%
X137858840Y-129802106D03*
%TD*%
D16*
%TO.C,J3*%
X129545495Y-127492373D03*
D15*
X127749444Y-129288424D03*
%TD*%
D17*
%TO.C,C3*%
X88600000Y-91205000D03*
X88600000Y-89655000D03*
%TD*%
D18*
%TO.C,J4*%
X73337627Y-129335495D03*
D15*
X71541576Y-127539444D03*
%TD*%
D10*
%TO.C,Scr2*%
X77020000Y-76900000D03*
%TD*%
D19*
%TO.C,U3*%
X95555000Y-113500000D03*
X96825000Y-113500000D03*
X98095000Y-113500000D03*
X99365000Y-113500000D03*
X100635000Y-113500000D03*
X101905000Y-113500000D03*
X103175000Y-113500000D03*
X104445000Y-113500000D03*
X104445000Y-118500000D03*
X103175000Y-118500000D03*
X101905000Y-118500000D03*
X100635000Y-118500000D03*
X99365000Y-118500000D03*
X98095000Y-118500000D03*
X96825000Y-118500000D03*
X95555000Y-118500000D03*
%TD*%
D12*
%TO.C,J10*%
X119500000Y-94760000D03*
D13*
X119500000Y-92220000D03*
X119500000Y-89680000D03*
X119500000Y-87140000D03*
%TD*%
D12*
%TO.C,J8*%
X85785000Y-96170000D03*
D13*
X83245000Y-96170000D03*
X85785000Y-98710000D03*
X83245000Y-98710000D03*
X85785000Y-101250000D03*
X83245000Y-101250000D03*
X85785000Y-103790000D03*
X83245000Y-103790000D03*
%TD*%
D20*
%TO.C,C15*%
X109000000Y-114900000D03*
X109000000Y-118500000D03*
%TD*%
D10*
%TO.C,Scr1*%
X124100000Y-76890000D03*
%TD*%
D21*
%TO.C,J2*%
X71284505Y-73207627D03*
D15*
X73080556Y-71411576D03*
%TD*%
D22*
%TO.C,J1*%
X127552373Y-71154505D03*
D15*
X129348424Y-72950556D03*
%TD*%
D10*
%TO.C,Scr3*%
X124260000Y-123460000D03*
%TD*%
%TO.C,Scr4*%
X77070000Y-123510000D03*
%TD*%
D12*
%TO.C,J6*%
X93000000Y-109500000D03*
D13*
X93000000Y-106960000D03*
X93000000Y-104420000D03*
X93000000Y-101880000D03*
X93000000Y-99340000D03*
X93000000Y-96800000D03*
X93000000Y-94260000D03*
X93000000Y-91720000D03*
%TD*%
D23*
%TO.C,U5*%
X104445000Y-87500000D03*
X103175000Y-87500000D03*
X101905000Y-87500000D03*
X100635000Y-87500000D03*
X99365000Y-87500000D03*
X98095000Y-87500000D03*
X96825000Y-87500000D03*
X95555000Y-87500000D03*
X95555000Y-82500000D03*
X96825000Y-82500000D03*
X98095000Y-82500000D03*
X99365000Y-82500000D03*
X100635000Y-82500000D03*
X101905000Y-82500000D03*
X103175000Y-82500000D03*
X104445000Y-82500000D03*
%TD*%
D24*
%TO.C,C13*%
X110770000Y-83310000D03*
X107170000Y-83310000D03*
%TD*%
D25*
X121180000Y-81870000D03*
M02*
