%TF.GenerationSoftware,KiCad,Pcbnew,9.0.0*%
%TF.CreationDate,2025-07-07T00:26:12+07:00*%
%TF.ProjectId,MiniDrone_aDat,4d696e69-4472-46f6-9e65-5f614461742e,rev?*%
%TF.SameCoordinates,Original*%
%TF.FileFunction,Legend,Top*%
%TF.FilePolarity,Positive*%
%FSLAX45Y45*%
G04 Gerber Fmt 4.5, Leading zero omitted, Abs format (unit mm)*
G04 Created by KiCad (PCBNEW 9.0.0) date 2025-07-07 00:26:12*
%MOMM*%
%LPD*%
G01*
G04 APERTURE LIST*
%ADD10C,0.200000*%
%ADD11C,0.150000*%
%ADD12C,0.120000*%
G04 APERTURE END LIST*
D10*
G36*
X8231400Y-10237900D02*
G01*
X8231400Y-10157554D01*
X8247578Y-10157554D01*
X8247578Y-10237900D01*
X8231400Y-10237900D01*
G37*
G36*
X8305826Y-10156781D02*
G01*
X8312105Y-10158146D01*
X8317650Y-10160336D01*
X8322569Y-10163334D01*
X8326938Y-10167172D01*
X8330555Y-10171656D01*
X8333427Y-10176825D01*
X8335557Y-10182780D01*
X8336902Y-10189652D01*
X8337377Y-10197595D01*
X8337030Y-10204454D01*
X8336044Y-10210485D01*
X8334480Y-10215791D01*
X8332779Y-10219654D01*
X8330467Y-10223513D01*
X8327485Y-10227393D01*
X8333691Y-10231200D01*
X8340439Y-10234148D01*
X8334480Y-10246028D01*
X8330879Y-10244758D01*
X8327324Y-10243068D01*
X8316557Y-10236019D01*
X8311213Y-10237908D01*
X8305426Y-10239066D01*
X8299123Y-10239463D01*
X8291687Y-10238978D01*
X8285205Y-10237594D01*
X8279535Y-10235386D01*
X8274557Y-10232380D01*
X8270185Y-10228550D01*
X8266564Y-10224049D01*
X8263686Y-10218850D01*
X8261550Y-10212849D01*
X8260199Y-10205913D01*
X8259722Y-10197883D01*
X8259733Y-10197693D01*
X8276389Y-10197693D01*
X8276846Y-10204834D01*
X8278099Y-10210556D01*
X8280016Y-10215119D01*
X8282534Y-10218732D01*
X8285845Y-10221808D01*
X8289486Y-10223959D01*
X8293529Y-10225260D01*
X8298083Y-10225707D01*
X8301505Y-10225413D01*
X8304697Y-10224545D01*
X8299683Y-10221613D01*
X8294698Y-10219455D01*
X8299231Y-10210076D01*
X8304411Y-10212201D01*
X8309488Y-10214960D01*
X8314481Y-10218390D01*
X8317170Y-10214414D01*
X8319151Y-10209543D01*
X8320298Y-10204138D01*
X8320709Y-10197639D01*
X8320255Y-10190598D01*
X8319007Y-10184960D01*
X8317098Y-10180468D01*
X8314589Y-10176913D01*
X8311304Y-10173922D01*
X8307602Y-10171806D01*
X8303401Y-10170510D01*
X8298576Y-10170059D01*
X8293755Y-10170512D01*
X8289548Y-10171814D01*
X8285836Y-10173944D01*
X8282534Y-10176957D01*
X8280012Y-10180532D01*
X8278095Y-10185036D01*
X8276844Y-10190672D01*
X8276389Y-10197693D01*
X8259733Y-10197693D01*
X8260199Y-10189883D01*
X8261552Y-10182963D01*
X8263693Y-10176967D01*
X8266580Y-10171764D01*
X8270215Y-10167250D01*
X8274606Y-10163386D01*
X8279556Y-10160368D01*
X8285142Y-10158161D01*
X8291474Y-10156785D01*
X8298684Y-10156303D01*
X8305826Y-10156781D01*
G37*
G36*
X8392828Y-10157860D02*
G01*
X8398838Y-10158642D01*
X8402829Y-10159723D01*
X8406435Y-10161533D01*
X8409522Y-10164079D01*
X8412149Y-10167441D01*
X8414075Y-10171269D01*
X8415245Y-10175468D01*
X8415647Y-10180127D01*
X8415292Y-10184600D01*
X8414275Y-10188526D01*
X8412629Y-10192000D01*
X8410342Y-10195094D01*
X8407527Y-10197652D01*
X8404033Y-10199760D01*
X8399740Y-10201405D01*
X8394495Y-10202534D01*
X8399390Y-10205830D01*
X8403156Y-10209260D01*
X8406726Y-10213722D01*
X8412369Y-10222268D01*
X8422148Y-10237900D01*
X8402804Y-10237900D01*
X8391110Y-10220442D01*
X8385269Y-10212019D01*
X8382586Y-10208679D01*
X8380159Y-10206590D01*
X8377721Y-10205352D01*
X8374773Y-10204718D01*
X8369578Y-10204448D01*
X8366300Y-10204448D01*
X8366300Y-10237900D01*
X8350121Y-10237900D01*
X8350121Y-10191631D01*
X8366300Y-10191631D01*
X8378268Y-10191631D01*
X8388845Y-10191294D01*
X8392805Y-10190634D01*
X8395399Y-10189264D01*
X8397338Y-10187195D01*
X8398546Y-10184533D01*
X8398980Y-10181094D01*
X8398719Y-10178433D01*
X8397989Y-10176257D01*
X8396820Y-10174465D01*
X8394289Y-10172443D01*
X8390729Y-10171275D01*
X8378922Y-10170997D01*
X8366300Y-10170997D01*
X8366300Y-10191631D01*
X8350121Y-10191631D01*
X8350121Y-10157554D01*
X8384169Y-10157554D01*
X8392828Y-10157860D01*
G37*
G36*
X9002518Y-9432766D02*
G01*
X9002518Y-9415962D01*
X9046097Y-9415962D01*
X9046097Y-9456024D01*
X9041587Y-9459694D01*
X9035555Y-9463296D01*
X9027687Y-9466801D01*
X9019546Y-9469403D01*
X9011424Y-9470943D01*
X9003263Y-9471454D01*
X8995413Y-9471012D01*
X8988290Y-9469735D01*
X8981803Y-9467671D01*
X8975871Y-9464841D01*
X8970380Y-9461165D01*
X8965659Y-9456818D01*
X8961648Y-9451759D01*
X8958316Y-9445912D01*
X8955073Y-9437534D01*
X8953110Y-9428645D01*
X8952442Y-9419137D01*
X8952875Y-9411303D01*
X8954133Y-9404091D01*
X8956179Y-9397424D01*
X8959000Y-9391232D01*
X8962662Y-9385481D01*
X8967048Y-9380479D01*
X8972200Y-9376166D01*
X8978198Y-9372511D01*
X8984803Y-9369832D01*
X8992710Y-9368118D01*
X9002176Y-9367504D01*
X9011620Y-9368068D01*
X9019457Y-9369636D01*
X9025947Y-9372069D01*
X9031308Y-9375289D01*
X9036060Y-9379526D01*
X9039863Y-9384462D01*
X9042779Y-9390181D01*
X9044803Y-9396813D01*
X9024720Y-9400721D01*
X9022861Y-9396057D01*
X9020219Y-9392188D01*
X9016758Y-9388998D01*
X9012670Y-9386663D01*
X9007866Y-9385211D01*
X9002176Y-9384699D01*
X8995666Y-9385269D01*
X8990092Y-9386895D01*
X8985280Y-9389518D01*
X8981104Y-9393174D01*
X8977870Y-9397590D01*
X8975433Y-9403085D01*
X8973854Y-9409894D01*
X8973282Y-9418307D01*
X8973869Y-9427427D01*
X8975481Y-9434754D01*
X8977952Y-9440614D01*
X8981202Y-9445271D01*
X8985462Y-9449196D01*
X8990263Y-9451971D01*
X8995711Y-9453669D01*
X9001969Y-9454259D01*
X9008273Y-9453641D01*
X9014712Y-9451737D01*
X9020760Y-9448883D01*
X9025672Y-9445619D01*
X9025672Y-9432766D01*
X9002518Y-9432766D01*
G37*
G36*
X9064971Y-9469500D02*
G01*
X9064971Y-9369067D01*
X9084645Y-9369067D01*
X9125629Y-9436301D01*
X9125629Y-9369067D01*
X9144417Y-9369067D01*
X9144417Y-9469500D01*
X9124127Y-9469500D01*
X9083753Y-9403267D01*
X9083753Y-9469500D01*
X9064971Y-9469500D01*
G37*
G36*
X9214423Y-9369625D02*
G01*
X9221726Y-9370985D01*
X9227340Y-9373177D01*
X9232348Y-9376246D01*
X9236826Y-9380235D01*
X9240626Y-9384916D01*
X9243814Y-9390310D01*
X9246389Y-9396508D01*
X9248127Y-9403006D01*
X9249259Y-9410842D01*
X9249667Y-9420242D01*
X9249293Y-9428485D01*
X9248240Y-9435560D01*
X9246596Y-9441620D01*
X9243631Y-9448662D01*
X9240049Y-9454523D01*
X9235868Y-9459358D01*
X9232123Y-9462417D01*
X9227441Y-9465100D01*
X9221659Y-9467375D01*
X9214388Y-9468901D01*
X9203762Y-9469500D01*
X9165715Y-9469500D01*
X9165715Y-9452696D01*
X9185932Y-9452696D01*
X9201033Y-9452696D01*
X9208914Y-9452405D01*
X9213257Y-9451731D01*
X9217833Y-9450025D01*
X9221421Y-9447536D01*
X9223298Y-9445364D01*
X9225074Y-9442208D01*
X9226715Y-9437797D01*
X9228183Y-9430396D01*
X9228766Y-9419320D01*
X9228173Y-9408310D01*
X9226715Y-9401356D01*
X9224162Y-9395621D01*
X9220975Y-9391587D01*
X9216868Y-9388682D01*
X9211621Y-9386836D01*
X9206376Y-9386178D01*
X9195018Y-9385871D01*
X9185932Y-9385871D01*
X9185932Y-9452696D01*
X9165715Y-9452696D01*
X9165715Y-9369067D01*
X9202669Y-9369067D01*
X9214423Y-9369625D01*
G37*
G36*
X8756806Y-8171455D02*
G01*
X8776480Y-8169501D01*
X8778195Y-8175709D01*
X8780620Y-8180341D01*
X8783685Y-8183722D01*
X8787546Y-8186159D01*
X8792348Y-8187703D01*
X8798339Y-8188259D01*
X8804743Y-8187733D01*
X8809525Y-8186321D01*
X8813061Y-8184186D01*
X8815891Y-8181209D01*
X8817486Y-8178072D01*
X8818013Y-8174661D01*
X8817481Y-8171392D01*
X8815931Y-8168708D01*
X8813326Y-8166565D01*
X8808652Y-8164433D01*
X8792465Y-8159988D01*
X8781710Y-8156687D01*
X8774384Y-8153317D01*
X8769647Y-8149968D01*
X8765551Y-8145492D01*
X8762710Y-8140678D01*
X8761008Y-8135443D01*
X8760427Y-8129659D01*
X8760906Y-8124647D01*
X8762336Y-8119869D01*
X8764762Y-8115243D01*
X8768027Y-8111175D01*
X8772154Y-8107775D01*
X8777267Y-8105015D01*
X8782819Y-8103132D01*
X8789332Y-8101931D01*
X8796972Y-8101504D01*
X8806533Y-8102118D01*
X8814240Y-8103807D01*
X8820424Y-8106400D01*
X8825359Y-8109814D01*
X8829532Y-8114278D01*
X8832565Y-8119375D01*
X8834523Y-8125221D01*
X8835367Y-8131986D01*
X8815143Y-8132767D01*
X8813840Y-8127826D01*
X8811962Y-8124231D01*
X8809574Y-8121685D01*
X8806537Y-8119923D01*
X8802381Y-8118749D01*
X8796770Y-8118308D01*
X8790988Y-8118767D01*
X8786476Y-8120018D01*
X8782970Y-8121941D01*
X8781170Y-8123689D01*
X8780119Y-8125731D01*
X8779759Y-8128169D01*
X8780490Y-8131438D01*
X8782763Y-8134269D01*
X8785640Y-8136037D01*
X8791357Y-8138269D01*
X8801344Y-8141029D01*
X8815059Y-8144917D01*
X8823167Y-8148301D01*
X8827582Y-8151122D01*
X8831246Y-8154507D01*
X8834231Y-8158492D01*
X8836390Y-8162967D01*
X8837749Y-8168235D01*
X8838230Y-8174466D01*
X8837702Y-8180073D01*
X8836124Y-8185425D01*
X8833449Y-8190610D01*
X8829850Y-8195168D01*
X8825381Y-8198880D01*
X8819924Y-8201796D01*
X8813981Y-8203739D01*
X8806793Y-8205000D01*
X8798132Y-8205454D01*
X8788547Y-8204825D01*
X8780679Y-8203079D01*
X8774231Y-8200371D01*
X8768963Y-8196771D01*
X8764527Y-8192114D01*
X8761013Y-8186464D01*
X8758414Y-8179654D01*
X8756806Y-8171455D01*
G37*
G36*
X8869438Y-8203500D02*
G01*
X8845527Y-8103067D01*
X8866227Y-8103067D01*
X8881327Y-8172054D01*
X8899633Y-8103067D01*
X8923679Y-8103067D01*
X8941234Y-8173220D01*
X8956603Y-8103067D01*
X8976960Y-8103067D01*
X8952640Y-8203500D01*
X8931189Y-8203500D01*
X8911247Y-8128414D01*
X8891365Y-8203500D01*
X8869438Y-8203500D01*
G37*
G36*
X9051393Y-8166375D02*
G01*
X9071000Y-8172628D01*
X9068202Y-8180729D01*
X9064747Y-8187371D01*
X9060682Y-8192766D01*
X9056003Y-8197076D01*
X9050597Y-8200475D01*
X9044451Y-8202962D01*
X9037438Y-8204518D01*
X9029399Y-8205063D01*
X9021509Y-8204489D01*
X9014396Y-8202825D01*
X9007936Y-8200114D01*
X9002029Y-8196342D01*
X8996603Y-8191434D01*
X8992131Y-8185809D01*
X8988593Y-8179399D01*
X8985981Y-8172091D01*
X8984339Y-8163739D01*
X8983762Y-8154169D01*
X8984353Y-8143987D01*
X8986025Y-8135196D01*
X8988665Y-8127598D01*
X8992215Y-8121024D01*
X8996671Y-8115340D01*
X9002113Y-8110396D01*
X9008133Y-8106573D01*
X9014810Y-8103807D01*
X9022260Y-8102097D01*
X9030626Y-8101504D01*
X9039698Y-8102236D01*
X9047566Y-8104326D01*
X9054440Y-8107696D01*
X9060479Y-8112367D01*
X9064477Y-8117016D01*
X9067911Y-8123070D01*
X9070725Y-8130813D01*
X9050709Y-8135503D01*
X9049052Y-8130582D01*
X9046588Y-8126532D01*
X9043297Y-8123211D01*
X9039332Y-8120733D01*
X9034815Y-8119223D01*
X9029601Y-8118699D01*
X9024187Y-8119221D01*
X9019455Y-8120729D01*
X9015266Y-8123202D01*
X9011527Y-8126716D01*
X9008750Y-8130841D01*
X9006582Y-8136306D01*
X9005134Y-8143446D01*
X9004596Y-8152667D01*
X9005138Y-8162517D01*
X9006585Y-8170020D01*
X9008725Y-8175647D01*
X9011429Y-8179790D01*
X9015124Y-8183341D01*
X9019248Y-8185831D01*
X9023892Y-8187345D01*
X9029192Y-8187868D01*
X9034367Y-8187280D01*
X9038941Y-8185562D01*
X9043058Y-8182684D01*
X9046366Y-8178866D01*
X9049172Y-8173558D01*
X9051393Y-8166375D01*
G37*
G36*
X9088878Y-8203500D02*
G01*
X9088878Y-8104240D01*
X9109102Y-8104240D01*
X9109102Y-8186696D01*
X9159379Y-8186696D01*
X9159379Y-8203500D01*
X9088878Y-8203500D01*
G37*
G36*
X9174095Y-8203500D02*
G01*
X9174095Y-8103067D01*
X9194312Y-8103067D01*
X9194312Y-8147428D01*
X9235162Y-8103067D01*
X9262352Y-8103067D01*
X9224641Y-8142109D01*
X9264404Y-8203500D01*
X9238239Y-8203500D01*
X9210707Y-8156440D01*
X9194312Y-8173226D01*
X9194312Y-8203500D01*
X9174095Y-8203500D01*
G37*
G36*
X8984673Y-10217900D02*
G01*
X8984673Y-10137554D01*
X9008883Y-10137554D01*
X9023420Y-10192362D01*
X9037791Y-10137554D01*
X9062059Y-10137554D01*
X9062059Y-10217900D01*
X9047028Y-10217900D01*
X9047028Y-10154656D01*
X9031128Y-10217900D01*
X9015550Y-10217900D01*
X8999704Y-10154656D01*
X8999704Y-10217900D01*
X8984673Y-10217900D01*
G37*
G36*
X9077642Y-10217900D02*
G01*
X9077642Y-10137554D01*
X9093820Y-10137554D01*
X9093820Y-10217900D01*
X9077642Y-10217900D01*
G37*
G36*
X9105144Y-10192264D02*
G01*
X9120883Y-10190701D01*
X9122255Y-10195668D01*
X9124195Y-10199373D01*
X9126647Y-10202078D01*
X9129736Y-10204028D01*
X9133577Y-10205263D01*
X9138370Y-10205707D01*
X9143493Y-10205286D01*
X9147319Y-10204157D01*
X9150148Y-10202449D01*
X9152411Y-10200067D01*
X9153688Y-10197558D01*
X9154109Y-10194829D01*
X9153684Y-10192213D01*
X9152444Y-10190066D01*
X9150360Y-10188352D01*
X9146621Y-10186647D01*
X9133671Y-10183091D01*
X9125067Y-10180450D01*
X9119206Y-10177754D01*
X9115416Y-10175074D01*
X9112139Y-10171493D01*
X9109867Y-10167643D01*
X9108505Y-10163454D01*
X9108040Y-10158827D01*
X9108423Y-10154818D01*
X9109568Y-10150995D01*
X9111509Y-10147294D01*
X9114121Y-10144040D01*
X9117422Y-10141320D01*
X9121513Y-10139112D01*
X9125954Y-10137606D01*
X9131165Y-10136645D01*
X9137276Y-10136303D01*
X9144925Y-10136795D01*
X9151091Y-10138146D01*
X9156038Y-10140220D01*
X9159986Y-10142952D01*
X9163324Y-10146523D01*
X9165751Y-10150600D01*
X9167317Y-10155277D01*
X9167992Y-10160689D01*
X9151814Y-10161314D01*
X9150771Y-10157361D01*
X9149268Y-10154485D01*
X9147359Y-10152448D01*
X9144928Y-10151039D01*
X9141604Y-10150099D01*
X9137115Y-10149746D01*
X9132489Y-10150114D01*
X9128880Y-10151115D01*
X9126075Y-10152653D01*
X9124635Y-10154051D01*
X9123794Y-10155684D01*
X9123506Y-10157636D01*
X9124091Y-10160251D01*
X9125909Y-10162515D01*
X9128211Y-10163930D01*
X9132784Y-10165716D01*
X9140774Y-10167923D01*
X9151746Y-10171033D01*
X9158232Y-10173741D01*
X9161765Y-10175998D01*
X9164695Y-10178706D01*
X9167084Y-10181894D01*
X9168811Y-10185474D01*
X9169898Y-10189688D01*
X9170283Y-10194673D01*
X9169861Y-10199159D01*
X9168598Y-10203440D01*
X9166458Y-10207588D01*
X9163579Y-10211234D01*
X9160003Y-10214204D01*
X9155638Y-10216537D01*
X9150884Y-10218092D01*
X9145134Y-10219100D01*
X9138204Y-10219463D01*
X9130536Y-10218960D01*
X9124242Y-10217563D01*
X9119084Y-10215397D01*
X9114869Y-10212517D01*
X9111320Y-10208791D01*
X9108509Y-10204271D01*
X9106430Y-10198823D01*
X9105144Y-10192264D01*
G37*
G36*
X9226429Y-10136783D02*
G01*
X9232689Y-10138160D01*
X9238256Y-10140375D01*
X9243230Y-10143419D01*
X9247684Y-10147328D01*
X9251376Y-10151883D01*
X9254301Y-10157113D01*
X9256467Y-10163118D01*
X9257832Y-10170026D01*
X9258313Y-10177991D01*
X9257837Y-10185887D01*
X9256483Y-10192746D01*
X9254335Y-10198716D01*
X9251432Y-10203924D01*
X9247767Y-10208467D01*
X9243346Y-10212365D01*
X9238403Y-10215400D01*
X9232863Y-10217610D01*
X9226626Y-10218984D01*
X9219566Y-10219463D01*
X9212407Y-10218984D01*
X9206102Y-10217611D01*
X9200523Y-10215408D01*
X9195565Y-10212389D01*
X9191151Y-10208521D01*
X9187477Y-10203994D01*
X9184573Y-10198823D01*
X9182428Y-10192915D01*
X9181079Y-10186147D01*
X9180605Y-10178377D01*
X9180635Y-10177830D01*
X9197272Y-10177830D01*
X9197731Y-10184762D01*
X9199000Y-10190392D01*
X9200958Y-10194952D01*
X9203554Y-10198629D01*
X9206934Y-10201745D01*
X9210665Y-10203928D01*
X9214820Y-10205251D01*
X9219513Y-10205707D01*
X9224209Y-10205253D01*
X9228350Y-10203937D01*
X9232051Y-10201770D01*
X9235389Y-10198683D01*
X9237935Y-10195042D01*
X9239871Y-10190462D01*
X9241133Y-10184736D01*
X9241592Y-10177610D01*
X9241142Y-10170553D01*
X9239909Y-10164913D01*
X9238025Y-10160431D01*
X9235555Y-10156893D01*
X9232311Y-10153920D01*
X9228622Y-10151809D01*
X9224399Y-10150512D01*
X9219513Y-10150059D01*
X9214635Y-10150515D01*
X9210399Y-10151824D01*
X9206681Y-10153961D01*
X9203393Y-10156976D01*
X9200884Y-10160559D01*
X9198974Y-10165081D01*
X9197727Y-10170753D01*
X9197272Y-10177830D01*
X9180635Y-10177830D01*
X9181057Y-10170236D01*
X9182315Y-10163430D01*
X9184268Y-10157753D01*
X9187493Y-10151931D01*
X9191723Y-10146728D01*
X9195040Y-10143700D01*
X9198486Y-10141303D01*
X9202084Y-10139483D01*
X9207167Y-10137759D01*
X9212889Y-10136680D01*
X9219352Y-10136303D01*
X9226429Y-10136783D01*
G37*
G36*
X12237380Y-11258450D02*
G01*
X12244891Y-11259428D01*
X12249880Y-11260778D01*
X12254388Y-11263041D01*
X12258247Y-11266223D01*
X12261531Y-11270426D01*
X12263938Y-11275211D01*
X12265400Y-11280460D01*
X12265903Y-11286283D01*
X12265460Y-11291874D01*
X12264188Y-11296783D01*
X12262131Y-11301125D01*
X12259272Y-11304992D01*
X12255753Y-11308190D01*
X12251385Y-11310825D01*
X12246019Y-11312881D01*
X12239463Y-11314292D01*
X12245582Y-11318412D01*
X12250290Y-11322700D01*
X12254752Y-11328277D01*
X12261806Y-11338960D01*
X12274030Y-11358500D01*
X12249850Y-11358500D01*
X12235232Y-11336677D01*
X12227931Y-11326148D01*
X12224577Y-11321973D01*
X12221543Y-11319363D01*
X12218495Y-11317815D01*
X12214810Y-11317023D01*
X12208316Y-11316686D01*
X12204219Y-11316686D01*
X12204219Y-11358500D01*
X12183996Y-11358500D01*
X12183996Y-11300663D01*
X12204219Y-11300663D01*
X12219179Y-11300663D01*
X12232400Y-11300242D01*
X12237351Y-11299418D01*
X12240593Y-11297705D01*
X12243017Y-11295119D01*
X12244527Y-11291791D01*
X12245069Y-11287492D01*
X12244744Y-11284167D01*
X12243831Y-11281447D01*
X12242370Y-11279206D01*
X12239206Y-11276678D01*
X12234756Y-11275219D01*
X12219997Y-11274871D01*
X12204219Y-11274871D01*
X12204219Y-11300663D01*
X12183996Y-11300663D01*
X12183996Y-11258067D01*
X12226555Y-11258067D01*
X12237380Y-11258450D01*
G37*
G36*
X12274769Y-11358500D02*
G01*
X12309415Y-11306256D01*
X12277981Y-11258067D01*
X12301617Y-11258067D01*
X12321444Y-11288121D01*
X12341374Y-11258067D01*
X12364803Y-11258067D01*
X12333326Y-11306128D01*
X12367880Y-11358500D01*
X12343493Y-11358500D01*
X12321303Y-11324483D01*
X12299022Y-11358500D01*
X12274769Y-11358500D01*
G37*
G36*
X8188007Y-9446542D02*
G01*
X8206588Y-9444191D01*
X8207584Y-9448973D01*
X8209199Y-9452677D01*
X8211369Y-9455518D01*
X8214164Y-9457702D01*
X8217270Y-9458991D01*
X8220797Y-9459432D01*
X8224563Y-9458927D01*
X8227856Y-9457446D01*
X8230805Y-9454919D01*
X8233000Y-9451686D01*
X8234378Y-9447695D01*
X8234871Y-9442738D01*
X8234399Y-9438049D01*
X8233080Y-9434283D01*
X8230976Y-9431240D01*
X8228159Y-9428861D01*
X8225033Y-9427469D01*
X8221481Y-9426996D01*
X8217647Y-9427321D01*
X8212670Y-9428431D01*
X8214788Y-9412928D01*
X8219867Y-9412597D01*
X8223734Y-9411437D01*
X8226671Y-9409569D01*
X8228936Y-9406954D01*
X8230298Y-9403846D01*
X8230774Y-9400093D01*
X8230416Y-9396867D01*
X8229405Y-9394242D01*
X8227764Y-9392082D01*
X8225595Y-9390449D01*
X8222976Y-9389445D01*
X8219777Y-9389090D01*
X8216633Y-9389472D01*
X8213862Y-9390591D01*
X8211369Y-9392479D01*
X8209434Y-9394946D01*
X8208005Y-9398180D01*
X8207138Y-9402376D01*
X8189442Y-9399397D01*
X8190983Y-9393388D01*
X8192858Y-9388584D01*
X8195011Y-9384791D01*
X8197773Y-9381454D01*
X8201204Y-9378596D01*
X8205391Y-9376200D01*
X8209928Y-9374484D01*
X8214880Y-9373430D01*
X8220321Y-9373067D01*
X8227267Y-9373672D01*
X8233253Y-9375400D01*
X8238456Y-9378193D01*
X8243005Y-9382092D01*
X8246152Y-9386008D01*
X8248322Y-9390053D01*
X8249607Y-9394282D01*
X8250039Y-9398774D01*
X8249489Y-9403722D01*
X8247870Y-9408203D01*
X8245140Y-9412341D01*
X8241142Y-9416210D01*
X8235622Y-9419828D01*
X8241055Y-9421605D01*
X8245595Y-9424352D01*
X8249385Y-9428107D01*
X8252223Y-9432630D01*
X8253948Y-9437752D01*
X8254545Y-9443635D01*
X8253934Y-9450040D01*
X8252145Y-9455847D01*
X8249172Y-9461185D01*
X8244910Y-9466148D01*
X8239822Y-9470206D01*
X8234208Y-9473086D01*
X8227962Y-9474846D01*
X8220937Y-9475454D01*
X8214229Y-9474922D01*
X8208320Y-9473391D01*
X8203075Y-9470911D01*
X8198388Y-9467461D01*
X8194409Y-9463186D01*
X8191373Y-9458339D01*
X8189233Y-9452832D01*
X8188007Y-9446542D01*
G37*
G36*
X8296243Y-9473500D02*
G01*
X8260450Y-9373067D01*
X8282377Y-9373067D01*
X8307723Y-9447317D01*
X8332245Y-9373067D01*
X8353695Y-9373067D01*
X8317828Y-9473500D01*
X8296243Y-9473500D01*
G37*
G36*
X8359075Y-9446542D02*
G01*
X8377656Y-9444191D01*
X8378652Y-9448973D01*
X8380267Y-9452677D01*
X8382437Y-9455518D01*
X8385232Y-9457702D01*
X8388338Y-9458991D01*
X8391865Y-9459432D01*
X8395631Y-9458927D01*
X8398924Y-9457446D01*
X8401872Y-9454919D01*
X8404068Y-9451686D01*
X8405446Y-9447695D01*
X8405939Y-9442738D01*
X8405466Y-9438049D01*
X8404147Y-9434283D01*
X8402043Y-9431240D01*
X8399227Y-9428861D01*
X8396101Y-9427469D01*
X8392548Y-9426996D01*
X8388715Y-9427321D01*
X8383737Y-9428431D01*
X8385856Y-9412928D01*
X8390934Y-9412597D01*
X8394801Y-9411437D01*
X8397739Y-9409569D01*
X8400004Y-9406954D01*
X8401366Y-9403846D01*
X8401842Y-9400093D01*
X8401483Y-9396867D01*
X8400472Y-9394242D01*
X8398832Y-9392082D01*
X8396663Y-9390449D01*
X8394043Y-9389445D01*
X8390845Y-9389090D01*
X8387701Y-9389472D01*
X8384930Y-9390591D01*
X8382437Y-9392479D01*
X8380501Y-9394946D01*
X8379072Y-9398180D01*
X8378205Y-9402376D01*
X8360510Y-9399397D01*
X8362050Y-9393388D01*
X8363926Y-9388584D01*
X8366079Y-9384791D01*
X8368841Y-9381454D01*
X8372271Y-9378596D01*
X8376459Y-9376200D01*
X8380995Y-9374484D01*
X8385947Y-9373430D01*
X8391388Y-9373067D01*
X8398335Y-9373672D01*
X8404321Y-9375400D01*
X8409524Y-9378193D01*
X8414072Y-9382092D01*
X8417220Y-9386008D01*
X8419389Y-9390053D01*
X8420674Y-9394282D01*
X8421107Y-9398774D01*
X8420557Y-9403722D01*
X8418938Y-9408203D01*
X8416208Y-9412341D01*
X8412210Y-9416210D01*
X8406690Y-9419828D01*
X8412123Y-9421605D01*
X8416662Y-9424352D01*
X8420453Y-9428107D01*
X8423291Y-9432630D01*
X8425015Y-9437752D01*
X8425613Y-9443635D01*
X8425002Y-9450040D01*
X8423213Y-9455847D01*
X8420239Y-9461185D01*
X8415977Y-9466148D01*
X8410889Y-9470206D01*
X8405276Y-9473086D01*
X8399029Y-9474846D01*
X8392005Y-9475454D01*
X8385296Y-9474922D01*
X8379388Y-9473391D01*
X8374143Y-9470911D01*
X8369455Y-9467461D01*
X8365476Y-9463186D01*
X8362441Y-9458339D01*
X8360301Y-9452832D01*
X8359075Y-9446542D01*
G37*
G36*
X8831518Y-8667766D02*
G01*
X8831518Y-8650962D01*
X8875097Y-8650962D01*
X8875097Y-8691024D01*
X8870587Y-8694694D01*
X8864555Y-8698296D01*
X8856687Y-8701801D01*
X8848546Y-8704403D01*
X8840424Y-8705943D01*
X8832263Y-8706454D01*
X8824413Y-8706012D01*
X8817290Y-8704735D01*
X8810803Y-8702671D01*
X8804871Y-8699841D01*
X8799380Y-8696165D01*
X8794659Y-8691818D01*
X8790648Y-8686759D01*
X8787316Y-8680912D01*
X8784073Y-8672534D01*
X8782110Y-8663645D01*
X8781442Y-8654137D01*
X8781875Y-8646303D01*
X8783133Y-8639091D01*
X8785179Y-8632424D01*
X8788000Y-8626232D01*
X8791662Y-8620481D01*
X8796048Y-8615479D01*
X8801200Y-8611166D01*
X8807198Y-8607511D01*
X8813803Y-8604832D01*
X8821710Y-8603118D01*
X8831176Y-8602504D01*
X8840620Y-8603068D01*
X8848457Y-8604636D01*
X8854947Y-8607069D01*
X8860308Y-8610289D01*
X8865060Y-8614526D01*
X8868863Y-8619462D01*
X8871779Y-8625181D01*
X8873803Y-8631813D01*
X8853720Y-8635721D01*
X8851861Y-8631057D01*
X8849219Y-8627188D01*
X8845758Y-8623998D01*
X8841670Y-8621663D01*
X8836866Y-8620211D01*
X8831176Y-8619699D01*
X8824666Y-8620269D01*
X8819092Y-8621895D01*
X8814280Y-8624518D01*
X8810104Y-8628174D01*
X8806870Y-8632590D01*
X8804433Y-8638085D01*
X8802854Y-8644894D01*
X8802282Y-8653307D01*
X8802869Y-8662427D01*
X8804481Y-8669754D01*
X8806952Y-8675614D01*
X8810202Y-8680271D01*
X8814462Y-8684196D01*
X8819263Y-8686971D01*
X8824711Y-8688669D01*
X8830969Y-8689259D01*
X8837273Y-8688641D01*
X8843712Y-8686737D01*
X8849760Y-8683883D01*
X8854672Y-8680619D01*
X8854672Y-8667766D01*
X8831518Y-8667766D01*
G37*
G36*
X8893971Y-8704500D02*
G01*
X8893971Y-8604067D01*
X8913645Y-8604067D01*
X8954629Y-8671301D01*
X8954629Y-8604067D01*
X8973417Y-8604067D01*
X8973417Y-8704500D01*
X8953127Y-8704500D01*
X8912753Y-8638267D01*
X8912753Y-8704500D01*
X8893971Y-8704500D01*
G37*
G36*
X9043423Y-8604625D02*
G01*
X9050726Y-8605985D01*
X9056340Y-8608177D01*
X9061348Y-8611246D01*
X9065826Y-8615235D01*
X9069626Y-8619916D01*
X9072814Y-8625310D01*
X9075389Y-8631508D01*
X9077127Y-8638006D01*
X9078259Y-8645842D01*
X9078667Y-8655242D01*
X9078293Y-8663485D01*
X9077240Y-8670560D01*
X9075596Y-8676620D01*
X9072631Y-8683662D01*
X9069049Y-8689523D01*
X9064868Y-8694358D01*
X9061123Y-8697417D01*
X9056441Y-8700100D01*
X9050659Y-8702375D01*
X9043388Y-8703901D01*
X9032762Y-8704500D01*
X8994715Y-8704500D01*
X8994715Y-8687696D01*
X9014932Y-8687696D01*
X9030033Y-8687696D01*
X9037914Y-8687405D01*
X9042257Y-8686731D01*
X9046833Y-8685025D01*
X9050421Y-8682536D01*
X9052298Y-8680364D01*
X9054074Y-8677208D01*
X9055715Y-8672797D01*
X9057183Y-8665396D01*
X9057766Y-8654320D01*
X9057173Y-8643310D01*
X9055715Y-8636356D01*
X9053162Y-8630621D01*
X9049975Y-8626587D01*
X9045868Y-8623682D01*
X9040621Y-8621836D01*
X9035376Y-8621178D01*
X9024018Y-8620871D01*
X9014932Y-8620871D01*
X9014932Y-8687696D01*
X8994715Y-8687696D01*
X8994715Y-8604067D01*
X9031669Y-8604067D01*
X9043423Y-8604625D01*
G37*
G36*
X8773007Y-8950542D02*
G01*
X8791588Y-8948191D01*
X8792584Y-8952973D01*
X8794199Y-8956677D01*
X8796369Y-8959518D01*
X8799164Y-8961702D01*
X8802270Y-8962991D01*
X8805797Y-8963432D01*
X8809563Y-8962927D01*
X8812856Y-8961446D01*
X8815805Y-8958919D01*
X8818001Y-8955686D01*
X8819378Y-8951695D01*
X8819871Y-8946738D01*
X8819399Y-8942049D01*
X8818080Y-8938283D01*
X8815976Y-8935240D01*
X8813159Y-8932861D01*
X8810033Y-8931469D01*
X8806481Y-8930996D01*
X8802647Y-8931321D01*
X8797670Y-8932431D01*
X8799789Y-8916928D01*
X8804867Y-8916597D01*
X8808734Y-8915437D01*
X8811671Y-8913569D01*
X8813937Y-8910954D01*
X8815299Y-8907846D01*
X8815774Y-8904093D01*
X8815416Y-8900867D01*
X8814405Y-8898242D01*
X8812764Y-8896082D01*
X8810595Y-8894449D01*
X8807976Y-8893445D01*
X8804777Y-8893090D01*
X8801633Y-8893472D01*
X8798862Y-8894591D01*
X8796369Y-8896479D01*
X8794434Y-8898946D01*
X8793005Y-8902180D01*
X8792138Y-8906376D01*
X8774442Y-8903397D01*
X8775983Y-8897388D01*
X8777858Y-8892584D01*
X8780011Y-8888791D01*
X8782773Y-8885454D01*
X8786204Y-8882596D01*
X8790391Y-8880200D01*
X8794928Y-8878484D01*
X8799880Y-8877430D01*
X8805321Y-8877067D01*
X8812268Y-8877672D01*
X8818253Y-8879400D01*
X8823456Y-8882193D01*
X8828005Y-8886092D01*
X8831152Y-8890008D01*
X8833322Y-8894053D01*
X8834607Y-8898282D01*
X8835039Y-8902774D01*
X8834489Y-8907722D01*
X8832870Y-8912203D01*
X8830140Y-8916341D01*
X8826142Y-8920210D01*
X8820622Y-8923828D01*
X8826055Y-8925605D01*
X8830595Y-8928352D01*
X8834386Y-8932107D01*
X8837224Y-8936630D01*
X8838948Y-8941752D01*
X8839545Y-8947635D01*
X8838934Y-8954040D01*
X8837145Y-8959847D01*
X8834172Y-8965185D01*
X8829910Y-8970148D01*
X8824822Y-8974206D01*
X8819208Y-8977086D01*
X8812962Y-8978846D01*
X8805937Y-8979454D01*
X8799229Y-8978922D01*
X8793321Y-8977391D01*
X8788075Y-8974911D01*
X8783388Y-8971461D01*
X8779409Y-8967186D01*
X8776373Y-8962339D01*
X8774234Y-8956832D01*
X8773007Y-8950542D01*
G37*
G36*
X8881244Y-8977500D02*
G01*
X8845450Y-8877067D01*
X8867377Y-8877067D01*
X8892723Y-8951317D01*
X8917245Y-8877067D01*
X8938696Y-8877067D01*
X8902829Y-8977500D01*
X8881244Y-8977500D01*
G37*
G36*
X8944075Y-8950542D02*
G01*
X8962656Y-8948191D01*
X8963652Y-8952973D01*
X8965267Y-8956677D01*
X8967437Y-8959518D01*
X8970232Y-8961702D01*
X8973338Y-8962991D01*
X8976865Y-8963432D01*
X8980631Y-8962927D01*
X8983924Y-8961446D01*
X8986872Y-8958919D01*
X8989068Y-8955686D01*
X8990446Y-8951695D01*
X8990939Y-8946738D01*
X8990466Y-8942049D01*
X8989147Y-8938283D01*
X8987043Y-8935240D01*
X8984227Y-8932861D01*
X8981101Y-8931469D01*
X8977548Y-8930996D01*
X8973715Y-8931321D01*
X8968737Y-8932431D01*
X8970856Y-8916928D01*
X8975934Y-8916597D01*
X8979801Y-8915437D01*
X8982739Y-8913569D01*
X8985004Y-8910954D01*
X8986366Y-8907846D01*
X8986842Y-8904093D01*
X8986483Y-8900867D01*
X8985472Y-8898242D01*
X8983832Y-8896082D01*
X8981663Y-8894449D01*
X8979043Y-8893445D01*
X8975845Y-8893090D01*
X8972701Y-8893472D01*
X8969930Y-8894591D01*
X8967437Y-8896479D01*
X8965501Y-8898946D01*
X8964073Y-8902180D01*
X8963205Y-8906376D01*
X8945510Y-8903397D01*
X8947050Y-8897388D01*
X8948926Y-8892584D01*
X8951079Y-8888791D01*
X8953841Y-8885454D01*
X8957271Y-8882596D01*
X8961459Y-8880200D01*
X8965996Y-8878484D01*
X8970948Y-8877430D01*
X8976388Y-8877067D01*
X8983335Y-8877672D01*
X8989321Y-8879400D01*
X8994524Y-8882193D01*
X8999072Y-8886092D01*
X9002220Y-8890008D01*
X9004389Y-8894053D01*
X9005674Y-8898282D01*
X9006107Y-8902774D01*
X9005557Y-8907722D01*
X9003938Y-8912203D01*
X9001208Y-8916341D01*
X8997210Y-8920210D01*
X8991690Y-8923828D01*
X8997123Y-8925605D01*
X9001662Y-8928352D01*
X9005453Y-8932107D01*
X9008291Y-8936630D01*
X9010015Y-8941752D01*
X9010613Y-8947635D01*
X9010002Y-8954040D01*
X9008213Y-8959847D01*
X9005239Y-8965185D01*
X9000977Y-8970148D01*
X8995889Y-8974206D01*
X8990276Y-8977086D01*
X8984029Y-8978846D01*
X8977005Y-8979454D01*
X8970296Y-8978922D01*
X8964388Y-8977391D01*
X8959143Y-8974911D01*
X8954455Y-8971461D01*
X8950477Y-8967186D01*
X8947441Y-8962339D01*
X8945301Y-8956832D01*
X8944075Y-8950542D01*
G37*
G36*
X11192238Y-8112500D02*
G01*
X11170237Y-8112500D01*
X11161494Y-8089834D01*
X11121468Y-8089834D01*
X11113201Y-8112500D01*
X11091750Y-8112500D01*
X11107079Y-8073030D01*
X11127684Y-8073030D01*
X11155009Y-8073030D01*
X11141209Y-8035515D01*
X11127684Y-8073030D01*
X11107079Y-8073030D01*
X11130756Y-8012067D01*
X11152139Y-8012067D01*
X11192238Y-8112500D01*
G37*
G36*
X11250563Y-8112500D02*
G01*
X11250563Y-8101637D01*
X11247660Y-8105235D01*
X11244204Y-8108330D01*
X11240140Y-8110949D01*
X11235730Y-8112906D01*
X11231209Y-8114066D01*
X11226517Y-8114454D01*
X11221725Y-8114082D01*
X11217377Y-8112999D01*
X11213395Y-8111224D01*
X11209848Y-8108752D01*
X11207074Y-8105747D01*
X11204993Y-8102150D01*
X11203649Y-8098159D01*
X11202738Y-8092878D01*
X11202398Y-8086000D01*
X11202398Y-8039813D01*
X11221596Y-8039813D01*
X11221596Y-8073274D01*
X11221959Y-8087197D01*
X11222652Y-8092093D01*
X11224159Y-8095213D01*
X11226511Y-8097583D01*
X11229590Y-8099070D01*
X11233618Y-8099604D01*
X11238303Y-8098921D01*
X11242429Y-8096899D01*
X11245746Y-8093817D01*
X11247760Y-8090176D01*
X11248713Y-8084747D01*
X11249195Y-8070533D01*
X11249195Y-8039813D01*
X11268392Y-8039813D01*
X11268392Y-8112500D01*
X11250563Y-8112500D01*
G37*
G36*
X11291986Y-8058962D02*
G01*
X11291986Y-8039813D01*
X11311178Y-8039813D01*
X11311178Y-8058962D01*
X11291986Y-8058962D01*
G37*
G36*
X11291986Y-8112500D02*
G01*
X11291986Y-8093351D01*
X11311178Y-8093351D01*
X11311178Y-8112500D01*
X11291986Y-8112500D01*
G37*
G36*
X11399111Y-8075375D02*
G01*
X11418718Y-8081628D01*
X11415920Y-8089729D01*
X11412465Y-8096371D01*
X11408400Y-8101766D01*
X11403721Y-8106076D01*
X11398315Y-8109475D01*
X11392169Y-8111962D01*
X11385156Y-8113518D01*
X11377117Y-8114063D01*
X11369227Y-8113489D01*
X11362114Y-8111825D01*
X11355654Y-8109114D01*
X11349747Y-8105342D01*
X11344321Y-8100434D01*
X11339849Y-8094809D01*
X11336311Y-8088399D01*
X11333699Y-8081091D01*
X11332057Y-8072739D01*
X11331480Y-8063169D01*
X11332071Y-8052987D01*
X11333743Y-8044196D01*
X11336383Y-8036598D01*
X11339933Y-8030024D01*
X11344389Y-8024340D01*
X11349831Y-8019396D01*
X11355851Y-8015573D01*
X11362528Y-8012807D01*
X11369978Y-8011097D01*
X11378344Y-8010504D01*
X11387416Y-8011236D01*
X11395284Y-8013326D01*
X11402158Y-8016696D01*
X11408197Y-8021367D01*
X11412195Y-8026016D01*
X11415629Y-8032070D01*
X11418443Y-8039813D01*
X11398427Y-8044503D01*
X11396770Y-8039582D01*
X11394306Y-8035532D01*
X11391015Y-8032211D01*
X11387050Y-8029733D01*
X11382533Y-8028223D01*
X11377319Y-8027699D01*
X11371905Y-8028221D01*
X11367173Y-8029729D01*
X11362984Y-8032202D01*
X11359245Y-8035716D01*
X11356468Y-8039841D01*
X11354300Y-8045306D01*
X11352852Y-8052446D01*
X11352314Y-8061667D01*
X11352856Y-8071517D01*
X11354303Y-8079020D01*
X11356443Y-8084647D01*
X11359147Y-8088790D01*
X11362842Y-8092341D01*
X11366966Y-8094831D01*
X11371610Y-8096345D01*
X11376910Y-8096868D01*
X11382085Y-8096280D01*
X11386659Y-8094562D01*
X11390776Y-8091684D01*
X11394084Y-8087866D01*
X11396890Y-8082558D01*
X11399111Y-8075375D01*
G37*
G36*
X11454292Y-8112500D02*
G01*
X11435094Y-8112500D01*
X11435094Y-8039813D01*
X11452924Y-8039813D01*
X11452924Y-8050126D01*
X11457634Y-8043601D01*
X11461155Y-8040338D01*
X11465033Y-8038487D01*
X11469453Y-8037859D01*
X11473730Y-8038253D01*
X11477922Y-8039442D01*
X11482093Y-8041474D01*
X11476152Y-8058193D01*
X11471283Y-8055774D01*
X11467133Y-8055054D01*
X11463359Y-8055631D01*
X11460300Y-8057295D01*
X11457958Y-8060154D01*
X11455898Y-8065385D01*
X11454811Y-8072821D01*
X11454292Y-8089907D01*
X11454292Y-8112500D01*
G37*
G36*
X11481250Y-8039813D02*
G01*
X11501675Y-8039813D01*
X11519022Y-8091550D01*
X11535967Y-8039813D01*
X11555842Y-8039813D01*
X11530227Y-8109807D01*
X11525653Y-8122685D01*
X11523023Y-8128602D01*
X11520836Y-8132369D01*
X11518339Y-8135436D01*
X11515572Y-8137797D01*
X11512361Y-8139604D01*
X11508263Y-8141040D01*
X11503770Y-8141895D01*
X11498463Y-8142200D01*
X11492972Y-8141910D01*
X11487600Y-8141046D01*
X11485891Y-8126061D01*
X11490303Y-8126749D01*
X11494018Y-8126959D01*
X11498301Y-8126467D01*
X11501515Y-8125123D01*
X11503922Y-8122990D01*
X11506688Y-8118626D01*
X11508843Y-8112891D01*
X11481250Y-8039813D01*
G37*
G36*
X11614147Y-8038486D02*
G01*
X11619668Y-8040326D01*
X11624760Y-8043407D01*
X11629512Y-8047867D01*
X11633204Y-8053070D01*
X11635948Y-8059306D01*
X11637697Y-8066778D01*
X11638323Y-8075741D01*
X11637689Y-8084960D01*
X11635920Y-8092620D01*
X11633153Y-8098987D01*
X11629438Y-8104275D01*
X11624644Y-8108822D01*
X11619527Y-8111954D01*
X11614000Y-8113820D01*
X11607927Y-8114454D01*
X11602127Y-8113841D01*
X11597027Y-8112060D01*
X11592275Y-8109016D01*
X11586751Y-8103860D01*
X11586751Y-8140246D01*
X11567553Y-8140246D01*
X11567553Y-8074740D01*
X11586543Y-8074740D01*
X11587184Y-8082978D01*
X11588877Y-8088962D01*
X11591391Y-8093235D01*
X11594955Y-8096623D01*
X11598845Y-8098562D01*
X11603213Y-8099213D01*
X11607417Y-8098605D01*
X11611076Y-8096814D01*
X11614344Y-8093724D01*
X11616616Y-8089785D01*
X11618184Y-8083996D01*
X11618789Y-8075717D01*
X11618187Y-8068035D01*
X11616590Y-8062418D01*
X11614210Y-8058376D01*
X11610845Y-8055176D01*
X11607116Y-8053332D01*
X11602871Y-8052709D01*
X11598438Y-8053330D01*
X11594598Y-8055151D01*
X11591190Y-8058272D01*
X11588750Y-8062245D01*
X11587142Y-8067597D01*
X11586543Y-8074740D01*
X11567553Y-8074740D01*
X11567553Y-8039813D01*
X11585450Y-8039813D01*
X11585450Y-8050468D01*
X11589512Y-8045514D01*
X11594878Y-8041431D01*
X11598964Y-8039454D01*
X11603333Y-8038264D01*
X11608061Y-8037859D01*
X11614147Y-8038486D01*
G37*
G36*
X11686854Y-8039813D02*
G01*
X11686854Y-8055054D01*
X11673738Y-8055054D01*
X11673738Y-8084571D01*
X11674110Y-8095018D01*
X11674719Y-8096361D01*
X11675820Y-8097467D01*
X11677266Y-8098181D01*
X11679068Y-8098432D01*
X11681980Y-8098051D01*
X11686787Y-8096587D01*
X11688423Y-8111566D01*
X11683877Y-8113140D01*
X11678847Y-8114116D01*
X11673255Y-8114454D01*
X11668241Y-8113999D01*
X11663895Y-8112695D01*
X11660174Y-8110595D01*
X11657783Y-8108146D01*
X11656200Y-8105036D01*
X11655090Y-8100605D01*
X11654671Y-8096376D01*
X11654473Y-8086958D01*
X11654473Y-8055054D01*
X11645662Y-8055054D01*
X11645662Y-8039813D01*
X11654473Y-8039813D01*
X11654473Y-8025745D01*
X11673738Y-8014412D01*
X11673738Y-8039813D01*
X11686854Y-8039813D01*
G37*
G36*
X8161673Y-9980900D02*
G01*
X8161673Y-9900554D01*
X8185882Y-9900554D01*
X8200420Y-9955362D01*
X8214791Y-9900554D01*
X8239059Y-9900554D01*
X8239059Y-9980900D01*
X8224028Y-9980900D01*
X8224028Y-9917656D01*
X8208128Y-9980900D01*
X8192550Y-9980900D01*
X8176704Y-9917656D01*
X8176704Y-9980900D01*
X8161673Y-9980900D01*
G37*
G36*
X8297682Y-9899783D02*
G01*
X8303942Y-9901160D01*
X8309509Y-9903375D01*
X8314482Y-9906419D01*
X8318936Y-9910328D01*
X8322628Y-9914883D01*
X8325554Y-9920113D01*
X8327719Y-9926118D01*
X8329085Y-9933026D01*
X8329566Y-9940991D01*
X8329089Y-9948887D01*
X8327736Y-9955746D01*
X8325588Y-9961716D01*
X8322685Y-9966924D01*
X8319019Y-9971467D01*
X8314599Y-9975365D01*
X8309655Y-9978400D01*
X8304116Y-9980610D01*
X8297879Y-9981984D01*
X8290819Y-9982463D01*
X8283660Y-9981984D01*
X8277355Y-9980611D01*
X8271776Y-9978408D01*
X8266818Y-9975389D01*
X8262404Y-9971521D01*
X8258730Y-9966994D01*
X8255825Y-9961823D01*
X8253681Y-9955915D01*
X8252332Y-9949147D01*
X8251857Y-9941377D01*
X8251888Y-9940830D01*
X8268524Y-9940830D01*
X8268984Y-9947762D01*
X8270252Y-9953392D01*
X8272211Y-9957952D01*
X8274806Y-9961629D01*
X8278187Y-9964745D01*
X8281917Y-9966928D01*
X8286073Y-9968251D01*
X8290765Y-9968707D01*
X8295461Y-9968253D01*
X8299603Y-9966937D01*
X8303304Y-9964770D01*
X8306641Y-9961683D01*
X8309187Y-9958042D01*
X8311123Y-9953462D01*
X8312385Y-9947736D01*
X8312845Y-9940610D01*
X8312395Y-9933553D01*
X8311162Y-9927913D01*
X8309278Y-9923431D01*
X8306807Y-9919893D01*
X8303564Y-9916920D01*
X8299875Y-9914809D01*
X8295652Y-9913512D01*
X8290765Y-9913059D01*
X8285887Y-9913515D01*
X8281652Y-9914824D01*
X8277933Y-9916961D01*
X8274645Y-9919976D01*
X8272136Y-9923559D01*
X8270226Y-9928081D01*
X8268979Y-9933753D01*
X8268524Y-9940830D01*
X8251888Y-9940830D01*
X8252309Y-9933236D01*
X8253568Y-9926430D01*
X8255521Y-9920753D01*
X8258745Y-9914931D01*
X8262975Y-9909728D01*
X8266292Y-9906700D01*
X8269739Y-9904303D01*
X8273336Y-9902483D01*
X8278419Y-9900759D01*
X8284142Y-9899680D01*
X8290604Y-9899303D01*
X8297682Y-9899783D01*
G37*
G36*
X8338104Y-9955264D02*
G01*
X8353843Y-9953701D01*
X8355216Y-9958668D01*
X8357156Y-9962373D01*
X8359608Y-9965078D01*
X8362697Y-9967028D01*
X8366538Y-9968263D01*
X8371331Y-9968707D01*
X8376454Y-9968286D01*
X8380280Y-9967157D01*
X8383109Y-9965449D01*
X8385372Y-9963067D01*
X8386648Y-9960558D01*
X8387070Y-9957829D01*
X8386645Y-9955213D01*
X8385404Y-9953066D01*
X8383321Y-9951352D01*
X8379582Y-9949647D01*
X8366632Y-9946091D01*
X8358028Y-9943450D01*
X8352167Y-9940754D01*
X8348377Y-9938074D01*
X8345100Y-9934493D01*
X8342828Y-9930643D01*
X8341466Y-9926454D01*
X8341001Y-9921827D01*
X8341384Y-9917818D01*
X8342529Y-9913995D01*
X8344469Y-9910294D01*
X8347082Y-9907040D01*
X8350383Y-9904320D01*
X8354474Y-9902112D01*
X8358915Y-9900606D01*
X8364125Y-9899645D01*
X8370237Y-9899303D01*
X8377886Y-9899795D01*
X8384051Y-9901146D01*
X8388999Y-9903220D01*
X8392947Y-9905952D01*
X8396285Y-9909523D01*
X8398712Y-9913600D01*
X8400278Y-9918277D01*
X8400953Y-9923689D01*
X8384774Y-9924314D01*
X8383732Y-9920361D01*
X8382229Y-9917485D01*
X8380319Y-9915448D01*
X8377889Y-9914039D01*
X8374565Y-9913099D01*
X8370076Y-9912746D01*
X8365450Y-9913114D01*
X8361841Y-9914115D01*
X8359036Y-9915653D01*
X8357596Y-9917051D01*
X8356755Y-9918684D01*
X8356467Y-9920636D01*
X8357052Y-9923251D01*
X8358870Y-9925515D01*
X8361172Y-9926930D01*
X8365745Y-9928716D01*
X8373735Y-9930923D01*
X8384707Y-9934033D01*
X8391193Y-9936741D01*
X8394726Y-9938998D01*
X8397656Y-9941706D01*
X8400044Y-9944894D01*
X8401772Y-9948474D01*
X8402859Y-9952688D01*
X8403244Y-9957673D01*
X8402821Y-9962159D01*
X8401559Y-9966440D01*
X8399419Y-9970588D01*
X8396539Y-9974234D01*
X8392964Y-9977204D01*
X8388599Y-9979537D01*
X8383845Y-9981092D01*
X8378094Y-9982100D01*
X8371165Y-9982463D01*
X8363497Y-9981960D01*
X8357203Y-9980563D01*
X8352045Y-9978397D01*
X8347830Y-9975517D01*
X8344281Y-9971791D01*
X8341470Y-9967271D01*
X8339391Y-9961823D01*
X8338104Y-9955264D01*
G37*
G36*
X8416350Y-9980900D02*
G01*
X8416350Y-9900554D01*
X8432529Y-9900554D01*
X8432529Y-9980900D01*
X8416350Y-9980900D01*
G37*
G36*
X12251006Y-11057375D02*
G01*
X12270612Y-11063628D01*
X12267815Y-11071729D01*
X12264360Y-11078371D01*
X12260294Y-11083766D01*
X12255616Y-11088076D01*
X12250210Y-11091475D01*
X12244064Y-11093962D01*
X12237051Y-11095518D01*
X12229012Y-11096063D01*
X12221121Y-11095489D01*
X12214009Y-11093825D01*
X12207549Y-11091114D01*
X12201641Y-11087343D01*
X12196216Y-11082434D01*
X12191743Y-11076809D01*
X12188206Y-11070400D01*
X12185594Y-11063091D01*
X12183952Y-11054739D01*
X12183375Y-11045169D01*
X12183965Y-11034987D01*
X12185637Y-11026196D01*
X12188278Y-11018598D01*
X12191828Y-11012024D01*
X12196283Y-11006341D01*
X12201726Y-11001396D01*
X12207746Y-10997573D01*
X12214423Y-10994807D01*
X12221873Y-10993098D01*
X12230239Y-10992504D01*
X12239311Y-10993236D01*
X12247178Y-10995327D01*
X12254052Y-10998696D01*
X12260092Y-11003367D01*
X12264090Y-11008017D01*
X12267523Y-11014070D01*
X12270338Y-11021813D01*
X12250322Y-11026503D01*
X12248665Y-11021582D01*
X12246200Y-11017532D01*
X12242909Y-11014211D01*
X12238944Y-11011733D01*
X12234427Y-11010223D01*
X12229213Y-11009699D01*
X12223800Y-11010222D01*
X12219068Y-11011729D01*
X12214878Y-11014202D01*
X12211139Y-11017716D01*
X12208363Y-11021841D01*
X12206195Y-11027306D01*
X12204746Y-11034447D01*
X12204209Y-11043667D01*
X12204750Y-11053517D01*
X12206197Y-11061021D01*
X12208338Y-11066647D01*
X12211042Y-11070790D01*
X12214736Y-11074341D01*
X12218861Y-11076832D01*
X12223505Y-11078345D01*
X12228804Y-11078868D01*
X12233980Y-11078280D01*
X12238554Y-11076562D01*
X12242671Y-11073684D01*
X12245979Y-11069866D01*
X12248784Y-11064558D01*
X12251006Y-11057375D01*
G37*
G36*
X12288222Y-11094500D02*
G01*
X12288222Y-10994067D01*
X12308440Y-10994067D01*
X12308440Y-11038428D01*
X12349289Y-10994067D01*
X12376479Y-10994067D01*
X12338768Y-11033110D01*
X12378531Y-11094500D01*
X12352367Y-11094500D01*
X12324834Y-11047441D01*
X12308440Y-11064226D01*
X12308440Y-11094500D01*
X12288222Y-11094500D01*
G37*
G36*
X8224006Y-9693375D02*
G01*
X8243612Y-9699628D01*
X8240815Y-9707729D01*
X8237360Y-9714371D01*
X8233294Y-9719766D01*
X8228616Y-9724076D01*
X8223210Y-9727475D01*
X8217064Y-9729962D01*
X8210051Y-9731518D01*
X8202012Y-9732063D01*
X8194121Y-9731489D01*
X8187009Y-9729825D01*
X8180549Y-9727114D01*
X8174641Y-9723343D01*
X8169216Y-9718434D01*
X8164743Y-9712809D01*
X8161206Y-9706400D01*
X8158594Y-9699091D01*
X8156952Y-9690739D01*
X8156375Y-9681169D01*
X8156965Y-9670987D01*
X8158637Y-9662196D01*
X8161278Y-9654598D01*
X8164828Y-9648024D01*
X8169283Y-9642341D01*
X8174726Y-9637396D01*
X8180746Y-9633573D01*
X8187423Y-9630807D01*
X8194873Y-9629098D01*
X8203239Y-9628504D01*
X8212311Y-9629236D01*
X8220178Y-9631327D01*
X8227052Y-9634696D01*
X8233092Y-9639367D01*
X8237090Y-9644017D01*
X8240523Y-9650070D01*
X8243338Y-9657813D01*
X8223322Y-9662503D01*
X8221665Y-9657582D01*
X8219200Y-9653532D01*
X8215909Y-9650211D01*
X8211944Y-9647733D01*
X8207427Y-9646223D01*
X8202213Y-9645699D01*
X8196800Y-9646222D01*
X8192068Y-9647729D01*
X8187878Y-9650202D01*
X8184139Y-9653716D01*
X8181363Y-9657841D01*
X8179195Y-9663306D01*
X8177746Y-9670447D01*
X8177209Y-9679667D01*
X8177750Y-9689517D01*
X8179197Y-9697021D01*
X8181338Y-9702647D01*
X8184042Y-9706790D01*
X8187736Y-9710341D01*
X8191861Y-9712832D01*
X8196505Y-9714345D01*
X8201804Y-9714868D01*
X8206980Y-9714280D01*
X8211554Y-9712562D01*
X8215671Y-9709684D01*
X8218979Y-9705866D01*
X8221784Y-9700558D01*
X8224006Y-9693375D01*
G37*
G36*
X8255825Y-9698455D02*
G01*
X8275498Y-9696501D01*
X8277214Y-9702710D01*
X8279639Y-9707341D01*
X8282703Y-9710722D01*
X8286565Y-9713160D01*
X8291367Y-9714703D01*
X8297358Y-9715259D01*
X8303761Y-9714733D01*
X8308544Y-9713321D01*
X8312080Y-9711186D01*
X8314909Y-9708209D01*
X8316505Y-9705073D01*
X8317032Y-9701661D01*
X8316500Y-9698392D01*
X8314950Y-9695708D01*
X8312345Y-9693565D01*
X8307671Y-9691433D01*
X8291484Y-9686988D01*
X8280729Y-9683687D01*
X8273403Y-9680317D01*
X8268666Y-9676968D01*
X8264569Y-9672492D01*
X8261729Y-9667678D01*
X8260026Y-9662443D01*
X8259445Y-9656659D01*
X8259924Y-9651647D01*
X8261355Y-9646869D01*
X8263781Y-9642243D01*
X8267046Y-9638175D01*
X8271173Y-9634776D01*
X8276286Y-9632015D01*
X8281838Y-9630133D01*
X8288351Y-9628931D01*
X8295990Y-9628504D01*
X8305552Y-9629118D01*
X8313258Y-9630807D01*
X8319443Y-9633400D01*
X8324377Y-9636815D01*
X8328550Y-9641278D01*
X8331584Y-9646375D01*
X8333541Y-9652221D01*
X8334385Y-9658986D01*
X8314162Y-9659767D01*
X8312859Y-9654827D01*
X8310981Y-9651232D01*
X8308593Y-9648685D01*
X8305555Y-9646923D01*
X8301400Y-9645749D01*
X8295789Y-9645308D01*
X8290007Y-9645767D01*
X8285495Y-9647018D01*
X8281989Y-9648941D01*
X8280189Y-9650689D01*
X8279138Y-9652731D01*
X8278777Y-9655169D01*
X8279509Y-9658438D01*
X8281781Y-9661269D01*
X8284659Y-9663037D01*
X8290376Y-9665269D01*
X8300362Y-9668029D01*
X8314078Y-9671917D01*
X8322185Y-9675301D01*
X8326601Y-9678122D01*
X8330264Y-9681507D01*
X8333250Y-9685492D01*
X8335409Y-9689967D01*
X8336768Y-9695235D01*
X8337249Y-9701466D01*
X8336721Y-9707073D01*
X8335142Y-9712425D01*
X8332468Y-9717610D01*
X8328868Y-9722168D01*
X8324399Y-9725880D01*
X8318943Y-9728796D01*
X8313000Y-9730739D01*
X8305812Y-9732000D01*
X8297150Y-9732454D01*
X8287565Y-9731825D01*
X8279697Y-9730079D01*
X8273250Y-9727371D01*
X8267982Y-9723771D01*
X8263546Y-9719114D01*
X8260032Y-9713464D01*
X8257433Y-9706654D01*
X8255825Y-9698455D01*
G37*
G36*
X8354456Y-9730500D02*
G01*
X8354456Y-9630067D01*
X8374130Y-9630067D01*
X8415114Y-9697301D01*
X8415114Y-9630067D01*
X8433902Y-9630067D01*
X8433902Y-9730500D01*
X8413612Y-9730500D01*
X8373238Y-9664267D01*
X8373238Y-9730500D01*
X8354456Y-9730500D01*
G37*
G36*
X12209472Y-11607500D02*
G01*
X12209472Y-11523871D01*
X12179754Y-11523871D01*
X12179754Y-11507067D01*
X12259341Y-11507067D01*
X12259341Y-11523871D01*
X12229690Y-11523871D01*
X12229690Y-11607500D01*
X12209472Y-11607500D01*
G37*
G36*
X12262235Y-11607500D02*
G01*
X12296881Y-11555256D01*
X12265447Y-11507067D01*
X12289083Y-11507067D01*
X12308910Y-11537121D01*
X12328840Y-11507067D01*
X12352269Y-11507067D01*
X12320792Y-11555128D01*
X12355346Y-11607500D01*
X12330959Y-11607500D01*
X12308769Y-11573483D01*
X12286488Y-11607500D01*
X12262235Y-11607500D01*
G37*
G36*
X8967795Y-9959264D02*
G01*
X8983534Y-9957701D01*
X8984906Y-9962668D01*
X8986846Y-9966373D01*
X8989298Y-9969078D01*
X8992387Y-9971028D01*
X8996228Y-9972263D01*
X9001021Y-9972707D01*
X9006144Y-9972286D01*
X9009970Y-9971157D01*
X9012799Y-9969449D01*
X9015062Y-9967067D01*
X9016339Y-9964558D01*
X9016760Y-9961829D01*
X9016335Y-9959213D01*
X9015095Y-9957066D01*
X9013011Y-9955352D01*
X9009272Y-9953647D01*
X8996322Y-9950091D01*
X8987718Y-9947450D01*
X8981857Y-9944754D01*
X8978068Y-9942074D01*
X8974790Y-9938493D01*
X8972518Y-9934643D01*
X8971156Y-9930454D01*
X8970691Y-9925827D01*
X8971074Y-9921818D01*
X8972219Y-9917995D01*
X8974160Y-9914294D01*
X8976772Y-9911040D01*
X8980073Y-9908320D01*
X8984164Y-9906112D01*
X8988605Y-9904606D01*
X8993816Y-9903645D01*
X8999927Y-9903303D01*
X9007577Y-9903795D01*
X9013742Y-9905146D01*
X9018689Y-9907220D01*
X9022637Y-9909952D01*
X9025975Y-9913523D01*
X9028402Y-9917600D01*
X9029968Y-9922277D01*
X9030643Y-9927689D01*
X9014465Y-9928314D01*
X9013422Y-9924361D01*
X9011920Y-9921485D01*
X9010010Y-9919448D01*
X9007579Y-9918039D01*
X9004255Y-9917099D01*
X8999766Y-9916746D01*
X8995140Y-9917114D01*
X8991531Y-9918115D01*
X8988726Y-9919653D01*
X8987286Y-9921051D01*
X8986446Y-9922684D01*
X8986157Y-9924636D01*
X8986742Y-9927251D01*
X8988560Y-9929515D01*
X8990862Y-9930930D01*
X8995435Y-9932716D01*
X9003425Y-9934923D01*
X9014397Y-9938033D01*
X9020883Y-9940741D01*
X9024416Y-9942998D01*
X9027347Y-9945706D01*
X9029735Y-9948894D01*
X9031462Y-9952474D01*
X9032549Y-9956688D01*
X9032934Y-9961673D01*
X9032512Y-9966159D01*
X9031249Y-9970440D01*
X9029109Y-9974588D01*
X9026230Y-9978234D01*
X9022654Y-9981204D01*
X9018289Y-9983537D01*
X9013535Y-9985092D01*
X9007785Y-9986100D01*
X9000855Y-9986463D01*
X8993187Y-9985960D01*
X8986893Y-9984563D01*
X8981735Y-9982397D01*
X8977520Y-9979517D01*
X8973971Y-9975791D01*
X8971160Y-9971271D01*
X8969081Y-9965823D01*
X8967795Y-9959264D01*
G37*
G36*
X9097795Y-9955200D02*
G01*
X9113481Y-9960202D01*
X9111243Y-9966683D01*
X9108478Y-9971997D01*
X9105226Y-9976313D01*
X9101483Y-9979761D01*
X9097158Y-9982480D01*
X9092242Y-9984470D01*
X9086631Y-9985714D01*
X9080200Y-9986151D01*
X9073888Y-9985691D01*
X9068198Y-9984360D01*
X9063030Y-9982192D01*
X9058304Y-9979174D01*
X9053964Y-9975248D01*
X9050385Y-9970747D01*
X9047555Y-9965620D01*
X9045466Y-9959773D01*
X9044152Y-9953091D01*
X9043691Y-9945435D01*
X9044163Y-9937289D01*
X9045501Y-9930257D01*
X9047613Y-9924178D01*
X9050453Y-9918919D01*
X9054017Y-9914372D01*
X9058372Y-9910417D01*
X9063187Y-9907358D01*
X9068529Y-9905146D01*
X9074489Y-9903778D01*
X9081182Y-9903303D01*
X9088439Y-9903889D01*
X9094733Y-9905561D01*
X9100233Y-9908257D01*
X9105064Y-9911994D01*
X9108263Y-9915713D01*
X9111009Y-9920556D01*
X9113261Y-9926751D01*
X9097248Y-9930502D01*
X9095923Y-9926566D01*
X9093951Y-9923325D01*
X9091318Y-9920669D01*
X9088146Y-9918687D01*
X9084533Y-9917479D01*
X9080361Y-9917059D01*
X9076031Y-9917477D01*
X9072245Y-9918683D01*
X9068893Y-9920662D01*
X9065902Y-9923473D01*
X9063681Y-9926773D01*
X9061947Y-9931145D01*
X9060788Y-9936857D01*
X9060358Y-9944234D01*
X9060791Y-9952114D01*
X9061949Y-9958116D01*
X9063661Y-9962618D01*
X9065824Y-9965932D01*
X9068780Y-9968773D01*
X9072079Y-9970765D01*
X9075794Y-9971976D01*
X9080034Y-9972395D01*
X9084175Y-9971924D01*
X9087834Y-9970550D01*
X9091128Y-9968248D01*
X9093774Y-9965193D01*
X9096018Y-9960947D01*
X9097795Y-9955200D01*
G37*
G36*
X9127569Y-9984900D02*
G01*
X9127569Y-9904554D01*
X9143742Y-9904554D01*
X9143742Y-9940042D01*
X9176422Y-9904554D01*
X9198174Y-9904554D01*
X9168005Y-9935788D01*
X9199816Y-9984900D01*
X9178884Y-9984900D01*
X9156858Y-9947252D01*
X9143742Y-9960681D01*
X9143742Y-9984900D01*
X9127569Y-9984900D01*
G37*
G36*
X12223518Y-10787766D02*
G01*
X12223518Y-10770962D01*
X12267097Y-10770962D01*
X12267097Y-10811024D01*
X12262587Y-10814694D01*
X12256555Y-10818296D01*
X12248687Y-10821801D01*
X12240546Y-10824403D01*
X12232424Y-10825943D01*
X12224263Y-10826454D01*
X12216413Y-10826012D01*
X12209290Y-10824735D01*
X12202803Y-10822671D01*
X12196871Y-10819841D01*
X12191379Y-10816165D01*
X12186659Y-10811818D01*
X12182648Y-10806759D01*
X12179316Y-10800912D01*
X12176073Y-10792534D01*
X12174110Y-10783645D01*
X12173442Y-10774137D01*
X12173875Y-10766303D01*
X12175133Y-10759091D01*
X12177179Y-10752424D01*
X12180000Y-10746232D01*
X12183662Y-10740481D01*
X12188047Y-10735479D01*
X12193200Y-10731166D01*
X12199198Y-10727511D01*
X12205803Y-10724832D01*
X12213709Y-10723118D01*
X12223176Y-10722504D01*
X12232620Y-10723068D01*
X12240457Y-10724636D01*
X12246947Y-10727069D01*
X12252308Y-10730289D01*
X12257060Y-10734526D01*
X12260863Y-10739462D01*
X12263779Y-10745181D01*
X12265803Y-10751813D01*
X12245720Y-10755721D01*
X12243861Y-10751057D01*
X12241219Y-10747188D01*
X12237757Y-10743998D01*
X12233669Y-10741663D01*
X12228866Y-10740211D01*
X12223176Y-10739699D01*
X12216666Y-10740269D01*
X12211092Y-10741895D01*
X12206280Y-10744518D01*
X12202104Y-10748174D01*
X12198870Y-10752590D01*
X12196433Y-10758085D01*
X12194854Y-10764894D01*
X12194282Y-10773307D01*
X12194869Y-10782427D01*
X12196481Y-10789754D01*
X12198952Y-10795614D01*
X12202202Y-10800271D01*
X12206462Y-10804196D01*
X12211262Y-10806971D01*
X12216711Y-10808669D01*
X12222968Y-10809259D01*
X12229273Y-10808641D01*
X12235712Y-10806737D01*
X12241760Y-10803883D01*
X12246672Y-10800619D01*
X12246672Y-10787766D01*
X12223518Y-10787766D01*
G37*
G36*
X12285971Y-10824500D02*
G01*
X12285971Y-10724067D01*
X12305645Y-10724067D01*
X12346629Y-10791301D01*
X12346629Y-10724067D01*
X12365417Y-10724067D01*
X12365417Y-10824500D01*
X12345127Y-10824500D01*
X12304753Y-10758267D01*
X12304753Y-10824500D01*
X12285971Y-10824500D01*
G37*
G36*
X12435423Y-10724625D02*
G01*
X12442726Y-10725985D01*
X12448340Y-10728177D01*
X12453348Y-10731246D01*
X12457826Y-10735235D01*
X12461626Y-10739916D01*
X12464814Y-10745310D01*
X12467388Y-10751508D01*
X12469127Y-10758006D01*
X12470259Y-10765842D01*
X12470667Y-10775242D01*
X12470293Y-10783485D01*
X12469240Y-10790560D01*
X12467596Y-10796620D01*
X12464631Y-10803662D01*
X12461049Y-10809523D01*
X12456868Y-10814358D01*
X12453123Y-10817417D01*
X12448441Y-10820100D01*
X12442659Y-10822375D01*
X12435388Y-10823901D01*
X12424762Y-10824500D01*
X12386715Y-10824500D01*
X12386715Y-10807696D01*
X12406932Y-10807696D01*
X12422033Y-10807696D01*
X12429913Y-10807405D01*
X12434257Y-10806731D01*
X12438833Y-10805025D01*
X12442421Y-10802536D01*
X12444298Y-10800364D01*
X12446074Y-10797208D01*
X12447715Y-10792797D01*
X12449183Y-10785396D01*
X12449766Y-10774320D01*
X12449173Y-10763310D01*
X12447715Y-10756356D01*
X12445162Y-10750621D01*
X12441975Y-10746587D01*
X12437868Y-10743682D01*
X12432620Y-10741836D01*
X12427376Y-10741178D01*
X12416018Y-10740871D01*
X12406932Y-10740871D01*
X12406932Y-10807696D01*
X12386715Y-10807696D01*
X12386715Y-10724067D01*
X12423669Y-10724067D01*
X12435423Y-10724625D01*
G37*
G36*
X9027006Y-9698375D02*
G01*
X9046613Y-9704628D01*
X9043815Y-9712729D01*
X9040360Y-9719371D01*
X9036295Y-9724766D01*
X9031616Y-9729076D01*
X9026210Y-9732475D01*
X9020064Y-9734962D01*
X9013051Y-9736518D01*
X9005012Y-9737063D01*
X8997121Y-9736489D01*
X8990009Y-9734825D01*
X8983549Y-9732114D01*
X8977641Y-9728343D01*
X8972216Y-9723434D01*
X8967743Y-9717809D01*
X8964206Y-9711400D01*
X8961594Y-9704091D01*
X8959952Y-9695739D01*
X8959375Y-9686169D01*
X8959966Y-9675987D01*
X8961637Y-9667196D01*
X8964278Y-9659598D01*
X8967828Y-9653024D01*
X8972283Y-9647341D01*
X8977726Y-9642396D01*
X8983746Y-9638573D01*
X8990423Y-9635807D01*
X8997873Y-9634098D01*
X9006239Y-9633504D01*
X9015311Y-9634236D01*
X9023179Y-9636327D01*
X9030052Y-9639696D01*
X9036092Y-9644367D01*
X9040090Y-9649017D01*
X9043523Y-9655070D01*
X9046338Y-9662813D01*
X9026322Y-9667503D01*
X9024665Y-9662582D01*
X9022200Y-9658532D01*
X9018909Y-9655211D01*
X9014944Y-9652733D01*
X9010427Y-9651223D01*
X9005213Y-9650699D01*
X8999800Y-9651222D01*
X8995068Y-9652729D01*
X8990878Y-9655202D01*
X8987139Y-9658716D01*
X8984363Y-9662841D01*
X8982195Y-9668306D01*
X8980746Y-9675447D01*
X8980209Y-9684667D01*
X8980750Y-9694517D01*
X8982197Y-9702021D01*
X8984338Y-9707647D01*
X8987042Y-9711790D01*
X8990736Y-9715341D01*
X8994861Y-9717832D01*
X8999505Y-9719345D01*
X9004804Y-9719868D01*
X9009980Y-9719280D01*
X9014554Y-9717562D01*
X9018671Y-9714684D01*
X9021979Y-9710866D01*
X9024784Y-9705558D01*
X9027006Y-9698375D01*
G37*
G36*
X9063948Y-9735500D02*
G01*
X9063948Y-9635067D01*
X9138204Y-9635067D01*
X9138204Y-9651871D01*
X9084165Y-9651871D01*
X9084165Y-9674146D01*
X9134442Y-9674146D01*
X9134442Y-9690950D01*
X9084165Y-9690950D01*
X9084165Y-9718696D01*
X9140115Y-9718696D01*
X9140115Y-9735500D01*
X9063948Y-9735500D01*
G37*
G36*
X8763806Y-8410455D02*
G01*
X8783480Y-8408501D01*
X8785195Y-8414710D01*
X8787620Y-8419341D01*
X8790685Y-8422722D01*
X8794546Y-8425160D01*
X8799348Y-8426703D01*
X8805339Y-8427259D01*
X8811743Y-8426733D01*
X8816525Y-8425321D01*
X8820061Y-8423186D01*
X8822891Y-8420209D01*
X8824486Y-8417073D01*
X8825013Y-8413661D01*
X8824481Y-8410392D01*
X8822931Y-8407708D01*
X8820326Y-8405565D01*
X8815652Y-8403433D01*
X8799465Y-8398988D01*
X8788710Y-8395687D01*
X8781384Y-8392317D01*
X8776647Y-8388968D01*
X8772551Y-8384492D01*
X8769710Y-8379678D01*
X8768008Y-8374443D01*
X8767427Y-8368659D01*
X8767906Y-8363647D01*
X8769336Y-8358869D01*
X8771762Y-8354243D01*
X8775027Y-8350175D01*
X8779154Y-8346775D01*
X8784267Y-8344015D01*
X8789819Y-8342132D01*
X8796332Y-8340931D01*
X8803972Y-8340504D01*
X8813533Y-8341118D01*
X8821240Y-8342807D01*
X8827424Y-8345400D01*
X8832359Y-8348814D01*
X8836532Y-8353278D01*
X8839565Y-8358375D01*
X8841523Y-8364221D01*
X8842367Y-8370986D01*
X8822143Y-8371767D01*
X8820840Y-8366826D01*
X8818962Y-8363231D01*
X8816574Y-8360685D01*
X8813537Y-8358923D01*
X8809381Y-8357749D01*
X8803770Y-8357308D01*
X8797988Y-8357767D01*
X8793476Y-8359018D01*
X8789970Y-8360941D01*
X8788170Y-8362689D01*
X8787119Y-8364731D01*
X8786759Y-8367169D01*
X8787490Y-8370438D01*
X8789763Y-8373269D01*
X8792640Y-8375037D01*
X8798357Y-8377269D01*
X8808344Y-8380029D01*
X8822059Y-8383917D01*
X8830167Y-8387301D01*
X8834582Y-8390122D01*
X8838246Y-8393507D01*
X8841231Y-8397492D01*
X8843390Y-8401967D01*
X8844749Y-8407235D01*
X8845230Y-8413466D01*
X8844702Y-8419073D01*
X8843124Y-8424425D01*
X8840449Y-8429610D01*
X8836850Y-8434168D01*
X8832381Y-8437880D01*
X8826924Y-8440796D01*
X8820981Y-8442739D01*
X8813793Y-8444000D01*
X8805132Y-8444454D01*
X8795547Y-8443825D01*
X8787679Y-8442079D01*
X8781231Y-8439371D01*
X8775963Y-8435771D01*
X8771527Y-8431114D01*
X8768013Y-8425464D01*
X8765414Y-8418654D01*
X8763806Y-8410455D01*
G37*
G36*
X8876438Y-8442500D02*
G01*
X8852527Y-8342067D01*
X8873227Y-8342067D01*
X8888327Y-8411054D01*
X8906633Y-8342067D01*
X8930679Y-8342067D01*
X8948234Y-8412220D01*
X8963603Y-8342067D01*
X8983960Y-8342067D01*
X8959640Y-8442500D01*
X8938189Y-8442500D01*
X8918247Y-8367414D01*
X8898365Y-8442500D01*
X8876438Y-8442500D01*
G37*
G36*
X9042957Y-8342625D02*
G01*
X9050260Y-8343985D01*
X9055874Y-8346177D01*
X9060882Y-8349246D01*
X9065360Y-8353235D01*
X9069160Y-8357916D01*
X9072348Y-8363310D01*
X9074922Y-8369508D01*
X9076661Y-8376006D01*
X9077793Y-8383842D01*
X9078201Y-8393242D01*
X9077827Y-8401485D01*
X9076774Y-8408560D01*
X9075130Y-8414620D01*
X9072165Y-8421662D01*
X9068583Y-8427523D01*
X9064402Y-8432358D01*
X9060657Y-8435417D01*
X9055975Y-8438100D01*
X9050193Y-8440375D01*
X9042922Y-8441901D01*
X9032296Y-8442500D01*
X8994249Y-8442500D01*
X8994249Y-8425696D01*
X9014466Y-8425696D01*
X9029566Y-8425696D01*
X9037447Y-8425405D01*
X9041791Y-8424731D01*
X9046366Y-8423025D01*
X9049955Y-8420536D01*
X9051832Y-8418364D01*
X9053608Y-8415208D01*
X9055249Y-8410797D01*
X9056717Y-8403396D01*
X9057300Y-8392320D01*
X9056707Y-8381310D01*
X9055249Y-8374356D01*
X9052696Y-8368621D01*
X9049509Y-8364586D01*
X9045402Y-8361682D01*
X9040154Y-8359836D01*
X9034910Y-8359178D01*
X9023552Y-8358871D01*
X9014466Y-8358871D01*
X9014466Y-8425696D01*
X8994249Y-8425696D01*
X8994249Y-8342067D01*
X9031203Y-8342067D01*
X9042957Y-8342625D01*
G37*
G36*
X9094718Y-8442500D02*
G01*
X9094718Y-8342067D01*
X9114942Y-8342067D01*
X9114942Y-8442500D01*
X9094718Y-8442500D01*
G37*
G36*
X9187402Y-8341104D02*
G01*
X9195227Y-8342825D01*
X9202185Y-8345594D01*
X9208402Y-8349398D01*
X9213970Y-8354285D01*
X9218585Y-8359978D01*
X9222242Y-8366516D01*
X9224949Y-8374022D01*
X9226655Y-8382658D01*
X9227257Y-8392613D01*
X9226661Y-8402484D01*
X9224969Y-8411057D01*
X9222284Y-8418520D01*
X9218655Y-8425030D01*
X9214074Y-8430709D01*
X9208548Y-8435581D01*
X9202369Y-8439375D01*
X9195444Y-8442138D01*
X9187648Y-8443855D01*
X9178823Y-8444454D01*
X9169874Y-8443855D01*
X9161993Y-8442139D01*
X9155019Y-8439384D01*
X9148822Y-8435611D01*
X9143304Y-8430776D01*
X9138712Y-8425118D01*
X9135081Y-8418654D01*
X9132400Y-8411269D01*
X9130714Y-8402809D01*
X9130121Y-8393096D01*
X9130159Y-8392412D01*
X9150955Y-8392412D01*
X9151529Y-8401078D01*
X9153115Y-8408115D01*
X9155563Y-8413815D01*
X9158808Y-8418412D01*
X9163033Y-8422306D01*
X9167696Y-8425035D01*
X9172890Y-8426689D01*
X9178756Y-8427259D01*
X9184626Y-8426691D01*
X9189803Y-8425046D01*
X9194429Y-8422337D01*
X9198601Y-8418479D01*
X9201784Y-8413928D01*
X9204203Y-8408203D01*
X9205781Y-8401045D01*
X9206356Y-8392137D01*
X9205793Y-8383317D01*
X9204252Y-8376267D01*
X9201897Y-8370663D01*
X9198808Y-8366241D01*
X9194754Y-8362525D01*
X9190143Y-8359887D01*
X9184864Y-8358265D01*
X9178756Y-8357699D01*
X9172658Y-8358269D01*
X9167364Y-8359905D01*
X9162716Y-8362576D01*
X9158606Y-8366345D01*
X9155470Y-8370823D01*
X9153083Y-8376476D01*
X9151523Y-8383566D01*
X9150955Y-8392412D01*
X9130159Y-8392412D01*
X9130686Y-8382920D01*
X9132260Y-8374412D01*
X9134701Y-8367316D01*
X9138731Y-8360038D01*
X9144019Y-8353534D01*
X9148165Y-8349750D01*
X9152473Y-8346753D01*
X9156970Y-8344479D01*
X9163323Y-8342323D01*
X9170476Y-8340975D01*
X9178555Y-8340504D01*
X9187402Y-8341104D01*
G37*
D11*
X11881464Y-9208458D02*
X11876702Y-9213220D01*
X11876702Y-9213220D02*
X11862417Y-9217982D01*
X11862417Y-9217982D02*
X11852893Y-9217982D01*
X11852893Y-9217982D02*
X11838607Y-9213220D01*
X11838607Y-9213220D02*
X11829083Y-9203696D01*
X11829083Y-9203696D02*
X11824321Y-9194172D01*
X11824321Y-9194172D02*
X11819559Y-9175125D01*
X11819559Y-9175125D02*
X11819559Y-9160839D01*
X11819559Y-9160839D02*
X11824321Y-9141791D01*
X11824321Y-9141791D02*
X11829083Y-9132268D01*
X11829083Y-9132268D02*
X11838607Y-9122744D01*
X11838607Y-9122744D02*
X11852893Y-9117982D01*
X11852893Y-9117982D02*
X11862417Y-9117982D01*
X11862417Y-9117982D02*
X11876702Y-9122744D01*
X11876702Y-9122744D02*
X11881464Y-9127506D01*
X11976702Y-9217982D02*
X11919559Y-9217982D01*
X11948131Y-9217982D02*
X11948131Y-9117982D01*
X11948131Y-9117982D02*
X11938607Y-9132268D01*
X11938607Y-9132268D02*
X11929083Y-9141791D01*
X11929083Y-9141791D02*
X11919559Y-9146553D01*
X12062417Y-9117982D02*
X12043369Y-9117982D01*
X12043369Y-9117982D02*
X12033845Y-9122744D01*
X12033845Y-9122744D02*
X12029083Y-9127506D01*
X12029083Y-9127506D02*
X12019559Y-9141791D01*
X12019559Y-9141791D02*
X12014798Y-9160839D01*
X12014798Y-9160839D02*
X12014798Y-9198934D01*
X12014798Y-9198934D02*
X12019559Y-9208458D01*
X12019559Y-9208458D02*
X12024321Y-9213220D01*
X12024321Y-9213220D02*
X12033845Y-9217982D01*
X12033845Y-9217982D02*
X12052893Y-9217982D01*
X12052893Y-9217982D02*
X12062417Y-9213220D01*
X12062417Y-9213220D02*
X12067178Y-9208458D01*
X12067178Y-9208458D02*
X12071940Y-9198934D01*
X12071940Y-9198934D02*
X12071940Y-9175125D01*
X12071940Y-9175125D02*
X12067178Y-9165601D01*
X12067178Y-9165601D02*
X12062417Y-9160839D01*
X12062417Y-9160839D02*
X12052893Y-9156077D01*
X12052893Y-9156077D02*
X12033845Y-9156077D01*
X12033845Y-9156077D02*
X12024321Y-9160839D01*
X12024321Y-9160839D02*
X12019559Y-9165601D01*
X12019559Y-9165601D02*
X12014798Y-9175125D01*
X11314083Y-9274982D02*
X11280750Y-9227363D01*
X11256940Y-9274982D02*
X11256940Y-9174982D01*
X11256940Y-9174982D02*
X11295036Y-9174982D01*
X11295036Y-9174982D02*
X11304559Y-9179744D01*
X11304559Y-9179744D02*
X11309321Y-9184506D01*
X11309321Y-9184506D02*
X11314083Y-9194030D01*
X11314083Y-9194030D02*
X11314083Y-9208315D01*
X11314083Y-9208315D02*
X11309321Y-9217839D01*
X11309321Y-9217839D02*
X11304559Y-9222601D01*
X11304559Y-9222601D02*
X11295036Y-9227363D01*
X11295036Y-9227363D02*
X11256940Y-9227363D01*
X11371226Y-9217839D02*
X11361702Y-9213077D01*
X11361702Y-9213077D02*
X11356940Y-9208315D01*
X11356940Y-9208315D02*
X11352179Y-9198791D01*
X11352179Y-9198791D02*
X11352179Y-9194030D01*
X11352179Y-9194030D02*
X11356940Y-9184506D01*
X11356940Y-9184506D02*
X11361702Y-9179744D01*
X11361702Y-9179744D02*
X11371226Y-9174982D01*
X11371226Y-9174982D02*
X11390274Y-9174982D01*
X11390274Y-9174982D02*
X11399798Y-9179744D01*
X11399798Y-9179744D02*
X11404559Y-9184506D01*
X11404559Y-9184506D02*
X11409321Y-9194030D01*
X11409321Y-9194030D02*
X11409321Y-9198791D01*
X11409321Y-9198791D02*
X11404559Y-9208315D01*
X11404559Y-9208315D02*
X11399798Y-9213077D01*
X11399798Y-9213077D02*
X11390274Y-9217839D01*
X11390274Y-9217839D02*
X11371226Y-9217839D01*
X11371226Y-9217839D02*
X11361702Y-9222601D01*
X11361702Y-9222601D02*
X11356940Y-9227363D01*
X11356940Y-9227363D02*
X11352179Y-9236887D01*
X11352179Y-9236887D02*
X11352179Y-9255934D01*
X11352179Y-9255934D02*
X11356940Y-9265458D01*
X11356940Y-9265458D02*
X11361702Y-9270220D01*
X11361702Y-9270220D02*
X11371226Y-9274982D01*
X11371226Y-9274982D02*
X11390274Y-9274982D01*
X11390274Y-9274982D02*
X11399798Y-9270220D01*
X11399798Y-9270220D02*
X11404559Y-9265458D01*
X11404559Y-9265458D02*
X11409321Y-9255934D01*
X11409321Y-9255934D02*
X11409321Y-9236887D01*
X11409321Y-9236887D02*
X11404559Y-9227363D01*
X11404559Y-9227363D02*
X11399798Y-9222601D01*
X11399798Y-9222601D02*
X11390274Y-9217839D01*
X11253083Y-10456982D02*
X11219750Y-10409363D01*
X11195940Y-10456982D02*
X11195940Y-10356982D01*
X11195940Y-10356982D02*
X11234036Y-10356982D01*
X11234036Y-10356982D02*
X11243559Y-10361744D01*
X11243559Y-10361744D02*
X11248321Y-10366506D01*
X11248321Y-10366506D02*
X11253083Y-10376030D01*
X11253083Y-10376030D02*
X11253083Y-10390315D01*
X11253083Y-10390315D02*
X11248321Y-10399839D01*
X11248321Y-10399839D02*
X11243559Y-10404601D01*
X11243559Y-10404601D02*
X11234036Y-10409363D01*
X11234036Y-10409363D02*
X11195940Y-10409363D01*
X11343559Y-10356982D02*
X11295940Y-10356982D01*
X11295940Y-10356982D02*
X11291179Y-10404601D01*
X11291179Y-10404601D02*
X11295940Y-10399839D01*
X11295940Y-10399839D02*
X11305464Y-10395077D01*
X11305464Y-10395077D02*
X11329274Y-10395077D01*
X11329274Y-10395077D02*
X11338798Y-10399839D01*
X11338798Y-10399839D02*
X11343559Y-10404601D01*
X11343559Y-10404601D02*
X11348321Y-10414125D01*
X11348321Y-10414125D02*
X11348321Y-10437934D01*
X11348321Y-10437934D02*
X11343559Y-10447458D01*
X11343559Y-10447458D02*
X11338798Y-10452220D01*
X11338798Y-10452220D02*
X11329274Y-10456982D01*
X11329274Y-10456982D02*
X11305464Y-10456982D01*
X11305464Y-10456982D02*
X11295940Y-10452220D01*
X11295940Y-10452220D02*
X11291179Y-10447458D01*
X9858708Y-10519167D02*
X9863470Y-10523929D01*
X9863470Y-10523929D02*
X9868232Y-10538214D01*
X9868232Y-10538214D02*
X9868232Y-10547738D01*
X9868232Y-10547738D02*
X9863470Y-10562024D01*
X9863470Y-10562024D02*
X9853946Y-10571548D01*
X9853946Y-10571548D02*
X9844422Y-10576309D01*
X9844422Y-10576309D02*
X9825375Y-10581071D01*
X9825375Y-10581071D02*
X9811089Y-10581071D01*
X9811089Y-10581071D02*
X9792041Y-10576309D01*
X9792041Y-10576309D02*
X9782518Y-10571548D01*
X9782518Y-10571548D02*
X9772994Y-10562024D01*
X9772994Y-10562024D02*
X9768232Y-10547738D01*
X9768232Y-10547738D02*
X9768232Y-10538214D01*
X9768232Y-10538214D02*
X9772994Y-10523929D01*
X9772994Y-10523929D02*
X9777756Y-10519167D01*
X9768232Y-10428690D02*
X9768232Y-10476309D01*
X9768232Y-10476309D02*
X9815851Y-10481071D01*
X9815851Y-10481071D02*
X9811089Y-10476309D01*
X9811089Y-10476309D02*
X9806327Y-10466786D01*
X9806327Y-10466786D02*
X9806327Y-10442976D01*
X9806327Y-10442976D02*
X9811089Y-10433452D01*
X9811089Y-10433452D02*
X9815851Y-10428690D01*
X9815851Y-10428690D02*
X9825375Y-10423929D01*
X9825375Y-10423929D02*
X9849184Y-10423929D01*
X9849184Y-10423929D02*
X9858708Y-10428690D01*
X9858708Y-10428690D02*
X9863470Y-10433452D01*
X9863470Y-10433452D02*
X9868232Y-10442976D01*
X9868232Y-10442976D02*
X9868232Y-10466786D01*
X9868232Y-10466786D02*
X9863470Y-10476309D01*
X9863470Y-10476309D02*
X9858708Y-10481071D01*
X10761232Y-11511309D02*
X10661232Y-11511309D01*
X10661232Y-11511309D02*
X10661232Y-11487500D01*
X10661232Y-11487500D02*
X10665994Y-11473214D01*
X10665994Y-11473214D02*
X10675518Y-11463690D01*
X10675518Y-11463690D02*
X10685041Y-11458928D01*
X10685041Y-11458928D02*
X10704089Y-11454167D01*
X10704089Y-11454167D02*
X10718375Y-11454167D01*
X10718375Y-11454167D02*
X10737422Y-11458928D01*
X10737422Y-11458928D02*
X10746946Y-11463690D01*
X10746946Y-11463690D02*
X10756470Y-11473214D01*
X10756470Y-11473214D02*
X10761232Y-11487500D01*
X10761232Y-11487500D02*
X10761232Y-11511309D01*
X10670756Y-11416071D02*
X10665994Y-11411309D01*
X10665994Y-11411309D02*
X10661232Y-11401786D01*
X10661232Y-11401786D02*
X10661232Y-11377976D01*
X10661232Y-11377976D02*
X10665994Y-11368452D01*
X10665994Y-11368452D02*
X10670756Y-11363690D01*
X10670756Y-11363690D02*
X10680280Y-11358928D01*
X10680280Y-11358928D02*
X10689803Y-11358928D01*
X10689803Y-11358928D02*
X10704089Y-11363690D01*
X10704089Y-11363690D02*
X10761232Y-11420833D01*
X10761232Y-11420833D02*
X10761232Y-11358928D01*
X10349708Y-11080167D02*
X10354470Y-11084929D01*
X10354470Y-11084929D02*
X10359232Y-11099214D01*
X10359232Y-11099214D02*
X10359232Y-11108738D01*
X10359232Y-11108738D02*
X10354470Y-11123024D01*
X10354470Y-11123024D02*
X10344946Y-11132548D01*
X10344946Y-11132548D02*
X10335422Y-11137309D01*
X10335422Y-11137309D02*
X10316375Y-11142071D01*
X10316375Y-11142071D02*
X10302089Y-11142071D01*
X10302089Y-11142071D02*
X10283041Y-11137309D01*
X10283041Y-11137309D02*
X10273518Y-11132548D01*
X10273518Y-11132548D02*
X10263994Y-11123024D01*
X10263994Y-11123024D02*
X10259232Y-11108738D01*
X10259232Y-11108738D02*
X10259232Y-11099214D01*
X10259232Y-11099214D02*
X10263994Y-11084929D01*
X10263994Y-11084929D02*
X10268756Y-11080167D01*
X10292565Y-10994452D02*
X10359232Y-10994452D01*
X10254470Y-11018262D02*
X10325899Y-11042071D01*
X10325899Y-11042071D02*
X10325899Y-10980167D01*
X8516417Y-7864982D02*
X8516417Y-7936410D01*
X8516417Y-7936410D02*
X8511655Y-7950696D01*
X8511655Y-7950696D02*
X8502131Y-7960220D01*
X8502131Y-7960220D02*
X8487845Y-7964982D01*
X8487845Y-7964982D02*
X8478321Y-7964982D01*
X8568798Y-7964982D02*
X8587845Y-7964982D01*
X8587845Y-7964982D02*
X8597369Y-7960220D01*
X8597369Y-7960220D02*
X8602131Y-7955458D01*
X8602131Y-7955458D02*
X8611655Y-7941172D01*
X8611655Y-7941172D02*
X8616417Y-7922125D01*
X8616417Y-7922125D02*
X8616417Y-7884029D01*
X8616417Y-7884029D02*
X8611655Y-7874506D01*
X8611655Y-7874506D02*
X8606893Y-7869744D01*
X8606893Y-7869744D02*
X8597369Y-7864982D01*
X8597369Y-7864982D02*
X8578321Y-7864982D01*
X8578321Y-7864982D02*
X8568798Y-7869744D01*
X8568798Y-7869744D02*
X8564036Y-7874506D01*
X8564036Y-7874506D02*
X8559274Y-7884029D01*
X8559274Y-7884029D02*
X8559274Y-7907839D01*
X8559274Y-7907839D02*
X8564036Y-7917363D01*
X8564036Y-7917363D02*
X8568798Y-7922125D01*
X8568798Y-7922125D02*
X8578321Y-7926887D01*
X8578321Y-7926887D02*
X8597369Y-7926887D01*
X8597369Y-7926887D02*
X8606893Y-7922125D01*
X8606893Y-7922125D02*
X8611655Y-7917363D01*
X8611655Y-7917363D02*
X8616417Y-7907839D01*
X10856083Y-11202982D02*
X10822750Y-11155363D01*
X10798941Y-11202982D02*
X10798941Y-11102982D01*
X10798941Y-11102982D02*
X10837036Y-11102982D01*
X10837036Y-11102982D02*
X10846560Y-11107744D01*
X10846560Y-11107744D02*
X10851321Y-11112506D01*
X10851321Y-11112506D02*
X10856083Y-11122030D01*
X10856083Y-11122030D02*
X10856083Y-11136315D01*
X10856083Y-11136315D02*
X10851321Y-11145839D01*
X10851321Y-11145839D02*
X10846560Y-11150601D01*
X10846560Y-11150601D02*
X10837036Y-11155363D01*
X10837036Y-11155363D02*
X10798941Y-11155363D01*
X10889417Y-11102982D02*
X10956083Y-11102982D01*
X10956083Y-11102982D02*
X10913226Y-11202982D01*
X10563708Y-8758167D02*
X10568470Y-8762929D01*
X10568470Y-8762929D02*
X10573232Y-8777214D01*
X10573232Y-8777214D02*
X10573232Y-8786738D01*
X10573232Y-8786738D02*
X10568470Y-8801024D01*
X10568470Y-8801024D02*
X10558946Y-8810548D01*
X10558946Y-8810548D02*
X10549422Y-8815309D01*
X10549422Y-8815309D02*
X10530375Y-8820071D01*
X10530375Y-8820071D02*
X10516089Y-8820071D01*
X10516089Y-8820071D02*
X10497041Y-8815309D01*
X10497041Y-8815309D02*
X10487518Y-8810548D01*
X10487518Y-8810548D02*
X10477994Y-8801024D01*
X10477994Y-8801024D02*
X10473232Y-8786738D01*
X10473232Y-8786738D02*
X10473232Y-8777214D01*
X10473232Y-8777214D02*
X10477994Y-8762929D01*
X10477994Y-8762929D02*
X10482756Y-8758167D01*
X10482756Y-8720071D02*
X10477994Y-8715309D01*
X10477994Y-8715309D02*
X10473232Y-8705786D01*
X10473232Y-8705786D02*
X10473232Y-8681976D01*
X10473232Y-8681976D02*
X10477994Y-8672452D01*
X10477994Y-8672452D02*
X10482756Y-8667690D01*
X10482756Y-8667690D02*
X10492280Y-8662929D01*
X10492280Y-8662929D02*
X10501803Y-8662929D01*
X10501803Y-8662929D02*
X10516089Y-8667690D01*
X10516089Y-8667690D02*
X10573232Y-8724833D01*
X10573232Y-8724833D02*
X10573232Y-8662929D01*
X9681470Y-11580833D02*
X9686232Y-11566547D01*
X9686232Y-11566547D02*
X9686232Y-11542738D01*
X9686232Y-11542738D02*
X9681470Y-11533214D01*
X9681470Y-11533214D02*
X9676708Y-11528452D01*
X9676708Y-11528452D02*
X9667184Y-11523690D01*
X9667184Y-11523690D02*
X9657660Y-11523690D01*
X9657660Y-11523690D02*
X9648137Y-11528452D01*
X9648137Y-11528452D02*
X9643375Y-11533214D01*
X9643375Y-11533214D02*
X9638613Y-11542738D01*
X9638613Y-11542738D02*
X9633851Y-11561786D01*
X9633851Y-11561786D02*
X9629089Y-11571309D01*
X9629089Y-11571309D02*
X9624327Y-11576071D01*
X9624327Y-11576071D02*
X9614803Y-11580833D01*
X9614803Y-11580833D02*
X9605280Y-11580833D01*
X9605280Y-11580833D02*
X9595756Y-11576071D01*
X9595756Y-11576071D02*
X9590994Y-11571309D01*
X9590994Y-11571309D02*
X9586232Y-11561786D01*
X9586232Y-11561786D02*
X9586232Y-11537976D01*
X9586232Y-11537976D02*
X9590994Y-11523690D01*
X9586232Y-11490357D02*
X9686232Y-11466547D01*
X9686232Y-11466547D02*
X9614803Y-11447500D01*
X9614803Y-11447500D02*
X9686232Y-11428452D01*
X9686232Y-11428452D02*
X9586232Y-11404643D01*
X9686232Y-11314167D02*
X9686232Y-11371309D01*
X9686232Y-11342738D02*
X9586232Y-11342738D01*
X9586232Y-11342738D02*
X9600518Y-11352262D01*
X9600518Y-11352262D02*
X9610041Y-11361786D01*
X9610041Y-11361786D02*
X9614803Y-11371309D01*
X11133464Y-9398458D02*
X11128702Y-9403220D01*
X11128702Y-9403220D02*
X11114417Y-9407982D01*
X11114417Y-9407982D02*
X11104893Y-9407982D01*
X11104893Y-9407982D02*
X11090607Y-9403220D01*
X11090607Y-9403220D02*
X11081083Y-9393696D01*
X11081083Y-9393696D02*
X11076321Y-9384172D01*
X11076321Y-9384172D02*
X11071560Y-9365125D01*
X11071560Y-9365125D02*
X11071560Y-9350839D01*
X11071560Y-9350839D02*
X11076321Y-9331791D01*
X11076321Y-9331791D02*
X11081083Y-9322268D01*
X11081083Y-9322268D02*
X11090607Y-9312744D01*
X11090607Y-9312744D02*
X11104893Y-9307982D01*
X11104893Y-9307982D02*
X11114417Y-9307982D01*
X11114417Y-9307982D02*
X11128702Y-9312744D01*
X11128702Y-9312744D02*
X11133464Y-9317506D01*
X11228702Y-9407982D02*
X11171560Y-9407982D01*
X11200131Y-9407982D02*
X11200131Y-9307982D01*
X11200131Y-9307982D02*
X11190607Y-9322268D01*
X11190607Y-9322268D02*
X11181083Y-9331791D01*
X11181083Y-9331791D02*
X11171560Y-9336553D01*
X11314417Y-9341315D02*
X11314417Y-9407982D01*
X11290607Y-9303220D02*
X11266798Y-9374649D01*
X11266798Y-9374649D02*
X11328702Y-9374649D01*
X13313152Y-12981504D02*
X13313152Y-12988238D01*
X13313152Y-12988238D02*
X13306418Y-13001707D01*
X13306418Y-13001707D02*
X13299684Y-13008441D01*
X13299684Y-13008441D02*
X13286215Y-13015176D01*
X13286215Y-13015176D02*
X13272746Y-13015176D01*
X13272746Y-13015176D02*
X13262645Y-13011809D01*
X13262645Y-13011809D02*
X13245809Y-13001707D01*
X13245809Y-13001707D02*
X13235707Y-12991606D01*
X13235707Y-12991606D02*
X13225606Y-12974770D01*
X13225606Y-12974770D02*
X13222239Y-12964668D01*
X13222239Y-12964668D02*
X13222239Y-12951199D01*
X13222239Y-12951199D02*
X13228973Y-12937731D01*
X13228973Y-12937731D02*
X13235707Y-12930996D01*
X13235707Y-12930996D02*
X13249176Y-12924262D01*
X13249176Y-12924262D02*
X13255910Y-12924262D01*
X13282848Y-12897325D02*
X13282848Y-12890590D01*
X13282848Y-12890590D02*
X13286215Y-12880489D01*
X13286215Y-12880489D02*
X13303051Y-12863653D01*
X13303051Y-12863653D02*
X13313152Y-12860286D01*
X13313152Y-12860286D02*
X13319887Y-12860286D01*
X13319887Y-12860286D02*
X13329988Y-12863653D01*
X13329988Y-12863653D02*
X13336723Y-12870387D01*
X13336723Y-12870387D02*
X13343457Y-12883856D01*
X13343457Y-12883856D02*
X13343457Y-12964668D01*
X13343457Y-12964668D02*
X13387230Y-12920895D01*
X13340090Y-12826614D02*
X13383863Y-12782841D01*
X13383863Y-12782841D02*
X13387230Y-12833348D01*
X13387230Y-12833348D02*
X13397332Y-12823247D01*
X13397332Y-12823247D02*
X13407433Y-12819880D01*
X13407433Y-12819880D02*
X13414168Y-12819880D01*
X13414168Y-12819880D02*
X13424269Y-12823247D01*
X13424269Y-12823247D02*
X13441105Y-12840083D01*
X13441105Y-12840083D02*
X13444472Y-12850184D01*
X13444472Y-12850184D02*
X13444472Y-12856918D01*
X13444472Y-12856918D02*
X13441105Y-12867020D01*
X13441105Y-12867020D02*
X13420902Y-12887223D01*
X13420902Y-12887223D02*
X13410801Y-12890590D01*
X13410801Y-12890590D02*
X13404066Y-12890590D01*
X11957083Y-9493982D02*
X11923750Y-9446363D01*
X11899940Y-9493982D02*
X11899940Y-9393982D01*
X11899940Y-9393982D02*
X11938036Y-9393982D01*
X11938036Y-9393982D02*
X11947559Y-9398744D01*
X11947559Y-9398744D02*
X11952321Y-9403506D01*
X11952321Y-9403506D02*
X11957083Y-9413030D01*
X11957083Y-9413030D02*
X11957083Y-9427315D01*
X11957083Y-9427315D02*
X11952321Y-9436839D01*
X11952321Y-9436839D02*
X11947559Y-9441601D01*
X11947559Y-9441601D02*
X11938036Y-9446363D01*
X11938036Y-9446363D02*
X11899940Y-9446363D01*
X12042798Y-9393982D02*
X12023750Y-9393982D01*
X12023750Y-9393982D02*
X12014226Y-9398744D01*
X12014226Y-9398744D02*
X12009464Y-9403506D01*
X12009464Y-9403506D02*
X11999940Y-9417791D01*
X11999940Y-9417791D02*
X11995179Y-9436839D01*
X11995179Y-9436839D02*
X11995179Y-9474934D01*
X11995179Y-9474934D02*
X11999940Y-9484458D01*
X11999940Y-9484458D02*
X12004702Y-9489220D01*
X12004702Y-9489220D02*
X12014226Y-9493982D01*
X12014226Y-9493982D02*
X12033274Y-9493982D01*
X12033274Y-9493982D02*
X12042798Y-9489220D01*
X12042798Y-9489220D02*
X12047559Y-9484458D01*
X12047559Y-9484458D02*
X12052321Y-9474934D01*
X12052321Y-9474934D02*
X12052321Y-9451125D01*
X12052321Y-9451125D02*
X12047559Y-9441601D01*
X12047559Y-9441601D02*
X12042798Y-9436839D01*
X12042798Y-9436839D02*
X12033274Y-9432077D01*
X12033274Y-9432077D02*
X12014226Y-9432077D01*
X12014226Y-9432077D02*
X12004702Y-9436839D01*
X12004702Y-9436839D02*
X11999940Y-9441601D01*
X11999940Y-9441601D02*
X11995179Y-9451125D01*
X12109083Y-10320458D02*
X12104321Y-10325220D01*
X12104321Y-10325220D02*
X12090036Y-10329982D01*
X12090036Y-10329982D02*
X12080512Y-10329982D01*
X12080512Y-10329982D02*
X12066226Y-10325220D01*
X12066226Y-10325220D02*
X12056702Y-10315696D01*
X12056702Y-10315696D02*
X12051940Y-10306172D01*
X12051940Y-10306172D02*
X12047179Y-10287125D01*
X12047179Y-10287125D02*
X12047179Y-10272839D01*
X12047179Y-10272839D02*
X12051940Y-10253791D01*
X12051940Y-10253791D02*
X12056702Y-10244268D01*
X12056702Y-10244268D02*
X12066226Y-10234744D01*
X12066226Y-10234744D02*
X12080512Y-10229982D01*
X12080512Y-10229982D02*
X12090036Y-10229982D01*
X12090036Y-10229982D02*
X12104321Y-10234744D01*
X12104321Y-10234744D02*
X12109083Y-10239506D01*
X12204321Y-10329982D02*
X12147179Y-10329982D01*
X12175750Y-10329982D02*
X12175750Y-10229982D01*
X12175750Y-10229982D02*
X12166226Y-10244268D01*
X12166226Y-10244268D02*
X12156702Y-10253791D01*
X12156702Y-10253791D02*
X12147179Y-10258553D01*
X7189286Y-6855262D02*
X7189286Y-6861996D01*
X7189286Y-6861996D02*
X7182552Y-6875465D01*
X7182552Y-6875465D02*
X7175817Y-6882199D01*
X7175817Y-6882199D02*
X7162349Y-6888934D01*
X7162349Y-6888934D02*
X7148880Y-6888934D01*
X7148880Y-6888934D02*
X7138778Y-6885567D01*
X7138778Y-6885567D02*
X7121943Y-6875465D01*
X7121943Y-6875465D02*
X7111841Y-6865364D01*
X7111841Y-6865364D02*
X7101739Y-6848528D01*
X7101739Y-6848528D02*
X7098372Y-6838426D01*
X7098372Y-6838426D02*
X7098372Y-6824957D01*
X7098372Y-6824957D02*
X7105107Y-6811489D01*
X7105107Y-6811489D02*
X7111841Y-6804754D01*
X7111841Y-6804754D02*
X7125310Y-6798020D01*
X7125310Y-6798020D02*
X7132044Y-6798020D01*
X7263364Y-6794653D02*
X7222958Y-6835059D01*
X7243161Y-6814856D02*
X7172450Y-6744145D01*
X7172450Y-6744145D02*
X7175817Y-6760981D01*
X7175817Y-6760981D02*
X7175817Y-6774450D01*
X7175817Y-6774450D02*
X7172450Y-6784551D01*
X7297036Y-6760981D02*
X7310504Y-6747512D01*
X7310504Y-6747512D02*
X7313872Y-6737411D01*
X7313872Y-6737411D02*
X7313872Y-6730676D01*
X7313872Y-6730676D02*
X7310504Y-6713841D01*
X7310504Y-6713841D02*
X7300403Y-6697005D01*
X7300403Y-6697005D02*
X7273465Y-6670067D01*
X7273465Y-6670067D02*
X7263364Y-6666700D01*
X7263364Y-6666700D02*
X7256630Y-6666700D01*
X7256630Y-6666700D02*
X7246528Y-6670067D01*
X7246528Y-6670067D02*
X7233059Y-6683536D01*
X7233059Y-6683536D02*
X7229692Y-6693638D01*
X7229692Y-6693638D02*
X7229692Y-6700372D01*
X7229692Y-6700372D02*
X7233059Y-6710473D01*
X7233059Y-6710473D02*
X7249895Y-6727309D01*
X7249895Y-6727309D02*
X7259997Y-6730676D01*
X7259997Y-6730676D02*
X7266731Y-6730676D01*
X7266731Y-6730676D02*
X7276833Y-6727309D01*
X7276833Y-6727309D02*
X7290301Y-6713841D01*
X7290301Y-6713841D02*
X7293668Y-6703739D01*
X7293668Y-6703739D02*
X7293668Y-6697005D01*
X7293668Y-6697005D02*
X7290301Y-6686903D01*
X10154232Y-11093167D02*
X10106613Y-11126500D01*
X10154232Y-11150309D02*
X10054232Y-11150309D01*
X10054232Y-11150309D02*
X10054232Y-11112214D01*
X10054232Y-11112214D02*
X10058994Y-11102690D01*
X10058994Y-11102690D02*
X10063756Y-11097929D01*
X10063756Y-11097929D02*
X10073280Y-11093167D01*
X10073280Y-11093167D02*
X10087565Y-11093167D01*
X10087565Y-11093167D02*
X10097089Y-11097929D01*
X10097089Y-11097929D02*
X10101851Y-11102690D01*
X10101851Y-11102690D02*
X10106613Y-11112214D01*
X10106613Y-11112214D02*
X10106613Y-11150309D01*
X10154232Y-10997929D02*
X10154232Y-11055071D01*
X10154232Y-11026500D02*
X10054232Y-11026500D01*
X10054232Y-11026500D02*
X10068518Y-11036024D01*
X10068518Y-11036024D02*
X10078041Y-11045548D01*
X10078041Y-11045548D02*
X10082803Y-11055071D01*
X11223232Y-8991167D02*
X11175613Y-9024500D01*
X11223232Y-9048309D02*
X11123232Y-9048309D01*
X11123232Y-9048309D02*
X11123232Y-9010214D01*
X11123232Y-9010214D02*
X11127994Y-9000690D01*
X11127994Y-9000690D02*
X11132756Y-8995929D01*
X11132756Y-8995929D02*
X11142280Y-8991167D01*
X11142280Y-8991167D02*
X11156565Y-8991167D01*
X11156565Y-8991167D02*
X11166089Y-8995929D01*
X11166089Y-8995929D02*
X11170851Y-9000690D01*
X11170851Y-9000690D02*
X11175613Y-9010214D01*
X11175613Y-9010214D02*
X11175613Y-9048309D01*
X11223232Y-8943548D02*
X11223232Y-8924500D01*
X11223232Y-8924500D02*
X11218470Y-8914976D01*
X11218470Y-8914976D02*
X11213708Y-8910214D01*
X11213708Y-8910214D02*
X11199422Y-8900690D01*
X11199422Y-8900690D02*
X11180375Y-8895929D01*
X11180375Y-8895929D02*
X11142280Y-8895929D01*
X11142280Y-8895929D02*
X11132756Y-8900690D01*
X11132756Y-8900690D02*
X11127994Y-8905452D01*
X11127994Y-8905452D02*
X11123232Y-8914976D01*
X11123232Y-8914976D02*
X11123232Y-8934024D01*
X11123232Y-8934024D02*
X11127994Y-8943548D01*
X11127994Y-8943548D02*
X11132756Y-8948309D01*
X11132756Y-8948309D02*
X11142280Y-8953071D01*
X11142280Y-8953071D02*
X11166089Y-8953071D01*
X11166089Y-8953071D02*
X11175613Y-8948309D01*
X11175613Y-8948309D02*
X11180375Y-8943548D01*
X11180375Y-8943548D02*
X11185137Y-8934024D01*
X11185137Y-8934024D02*
X11185137Y-8914976D01*
X11185137Y-8914976D02*
X11180375Y-8905452D01*
X11180375Y-8905452D02*
X11175613Y-8900690D01*
X11175613Y-8900690D02*
X11166089Y-8895929D01*
X9116589Y-11066317D02*
X9082918Y-11099989D01*
X9130058Y-11005708D02*
X9116589Y-11066317D01*
X9116589Y-11066317D02*
X9177199Y-11052848D01*
X9167097Y-11184168D02*
X9126691Y-11143762D01*
X9146894Y-11163965D02*
X9217605Y-11093254D01*
X9217605Y-11093254D02*
X9200769Y-11096622D01*
X9200769Y-11096622D02*
X9187300Y-11096622D01*
X9187300Y-11096622D02*
X9177199Y-11093254D01*
X11885464Y-9344458D02*
X11880702Y-9349220D01*
X11880702Y-9349220D02*
X11866417Y-9353982D01*
X11866417Y-9353982D02*
X11856893Y-9353982D01*
X11856893Y-9353982D02*
X11842607Y-9349220D01*
X11842607Y-9349220D02*
X11833083Y-9339696D01*
X11833083Y-9339696D02*
X11828321Y-9330172D01*
X11828321Y-9330172D02*
X11823559Y-9311125D01*
X11823559Y-9311125D02*
X11823559Y-9296839D01*
X11823559Y-9296839D02*
X11828321Y-9277791D01*
X11828321Y-9277791D02*
X11833083Y-9268268D01*
X11833083Y-9268268D02*
X11842607Y-9258744D01*
X11842607Y-9258744D02*
X11856893Y-9253982D01*
X11856893Y-9253982D02*
X11866417Y-9253982D01*
X11866417Y-9253982D02*
X11880702Y-9258744D01*
X11880702Y-9258744D02*
X11885464Y-9263506D01*
X11980702Y-9353982D02*
X11923559Y-9353982D01*
X11952131Y-9353982D02*
X11952131Y-9253982D01*
X11952131Y-9253982D02*
X11942607Y-9268268D01*
X11942607Y-9268268D02*
X11933083Y-9277791D01*
X11933083Y-9277791D02*
X11923559Y-9282553D01*
X12075940Y-9353982D02*
X12018798Y-9353982D01*
X12047369Y-9353982D02*
X12047369Y-9253982D01*
X12047369Y-9253982D02*
X12037845Y-9268268D01*
X12037845Y-9268268D02*
X12028321Y-9277791D01*
X12028321Y-9277791D02*
X12018798Y-9282553D01*
X10160083Y-8678982D02*
X10126750Y-8631363D01*
X10102941Y-8678982D02*
X10102941Y-8578982D01*
X10102941Y-8578982D02*
X10141036Y-8578982D01*
X10141036Y-8578982D02*
X10150560Y-8583744D01*
X10150560Y-8583744D02*
X10155321Y-8588506D01*
X10155321Y-8588506D02*
X10160083Y-8598030D01*
X10160083Y-8598030D02*
X10160083Y-8612315D01*
X10160083Y-8612315D02*
X10155321Y-8621839D01*
X10155321Y-8621839D02*
X10150560Y-8626601D01*
X10150560Y-8626601D02*
X10141036Y-8631363D01*
X10141036Y-8631363D02*
X10102941Y-8631363D01*
X10198179Y-8588506D02*
X10202941Y-8583744D01*
X10202941Y-8583744D02*
X10212464Y-8578982D01*
X10212464Y-8578982D02*
X10236274Y-8578982D01*
X10236274Y-8578982D02*
X10245798Y-8583744D01*
X10245798Y-8583744D02*
X10250560Y-8588506D01*
X10250560Y-8588506D02*
X10255321Y-8598030D01*
X10255321Y-8598030D02*
X10255321Y-8607553D01*
X10255321Y-8607553D02*
X10250560Y-8621839D01*
X10250560Y-8621839D02*
X10193417Y-8678982D01*
X10193417Y-8678982D02*
X10255321Y-8678982D01*
X12111083Y-10513458D02*
X12106321Y-10518220D01*
X12106321Y-10518220D02*
X12092036Y-10522982D01*
X12092036Y-10522982D02*
X12082512Y-10522982D01*
X12082512Y-10522982D02*
X12068226Y-10518220D01*
X12068226Y-10518220D02*
X12058702Y-10508696D01*
X12058702Y-10508696D02*
X12053940Y-10499172D01*
X12053940Y-10499172D02*
X12049179Y-10480125D01*
X12049179Y-10480125D02*
X12049179Y-10465839D01*
X12049179Y-10465839D02*
X12053940Y-10446791D01*
X12053940Y-10446791D02*
X12058702Y-10437268D01*
X12058702Y-10437268D02*
X12068226Y-10427744D01*
X12068226Y-10427744D02*
X12082512Y-10422982D01*
X12082512Y-10422982D02*
X12092036Y-10422982D01*
X12092036Y-10422982D02*
X12106321Y-10427744D01*
X12106321Y-10427744D02*
X12111083Y-10432506D01*
X12168226Y-10465839D02*
X12158702Y-10461077D01*
X12158702Y-10461077D02*
X12153940Y-10456315D01*
X12153940Y-10456315D02*
X12149179Y-10446791D01*
X12149179Y-10446791D02*
X12149179Y-10442030D01*
X12149179Y-10442030D02*
X12153940Y-10432506D01*
X12153940Y-10432506D02*
X12158702Y-10427744D01*
X12158702Y-10427744D02*
X12168226Y-10422982D01*
X12168226Y-10422982D02*
X12187274Y-10422982D01*
X12187274Y-10422982D02*
X12196798Y-10427744D01*
X12196798Y-10427744D02*
X12201559Y-10432506D01*
X12201559Y-10432506D02*
X12206321Y-10442030D01*
X12206321Y-10442030D02*
X12206321Y-10446791D01*
X12206321Y-10446791D02*
X12201559Y-10456315D01*
X12201559Y-10456315D02*
X12196798Y-10461077D01*
X12196798Y-10461077D02*
X12187274Y-10465839D01*
X12187274Y-10465839D02*
X12168226Y-10465839D01*
X12168226Y-10465839D02*
X12158702Y-10470601D01*
X12158702Y-10470601D02*
X12153940Y-10475363D01*
X12153940Y-10475363D02*
X12149179Y-10484887D01*
X12149179Y-10484887D02*
X12149179Y-10503934D01*
X12149179Y-10503934D02*
X12153940Y-10513458D01*
X12153940Y-10513458D02*
X12158702Y-10518220D01*
X12158702Y-10518220D02*
X12168226Y-10522982D01*
X12168226Y-10522982D02*
X12187274Y-10522982D01*
X12187274Y-10522982D02*
X12196798Y-10518220D01*
X12196798Y-10518220D02*
X12201559Y-10513458D01*
X12201559Y-10513458D02*
X12206321Y-10503934D01*
X12206321Y-10503934D02*
X12206321Y-10484887D01*
X12206321Y-10484887D02*
X12201559Y-10475363D01*
X12201559Y-10475363D02*
X12196798Y-10470601D01*
X12196798Y-10470601D02*
X12187274Y-10465839D01*
X9923668Y-9414167D02*
X9980910Y-9471409D01*
X9980910Y-9471409D02*
X9991011Y-9474776D01*
X9991011Y-9474776D02*
X9997745Y-9474776D01*
X9997745Y-9474776D02*
X10007847Y-9471409D01*
X10007847Y-9471409D02*
X10021316Y-9457940D01*
X10021316Y-9457940D02*
X10024683Y-9447839D01*
X10024683Y-9447839D02*
X10024683Y-9441105D01*
X10024683Y-9441105D02*
X10021316Y-9431003D01*
X10021316Y-9431003D02*
X9964074Y-9373761D01*
X10105495Y-9373761D02*
X10065089Y-9414167D01*
X10085292Y-9393964D02*
X10014581Y-9323253D01*
X10014581Y-9323253D02*
X10017948Y-9340089D01*
X10017948Y-9340089D02*
X10017948Y-9353558D01*
X10017948Y-9353558D02*
X10014581Y-9363660D01*
X11761232Y-9000690D02*
X11842184Y-9000690D01*
X11842184Y-9000690D02*
X11851708Y-8995929D01*
X11851708Y-8995929D02*
X11856470Y-8991167D01*
X11856470Y-8991167D02*
X11861232Y-8981643D01*
X11861232Y-8981643D02*
X11861232Y-8962595D01*
X11861232Y-8962595D02*
X11856470Y-8953071D01*
X11856470Y-8953071D02*
X11851708Y-8948310D01*
X11851708Y-8948310D02*
X11842184Y-8943548D01*
X11842184Y-8943548D02*
X11761232Y-8943548D01*
X11794565Y-8853071D02*
X11861232Y-8853071D01*
X11756470Y-8876881D02*
X11827898Y-8900690D01*
X11827898Y-8900690D02*
X11827898Y-8838786D01*
X11926417Y-11750982D02*
X11926417Y-11822410D01*
X11926417Y-11822410D02*
X11921655Y-11836696D01*
X11921655Y-11836696D02*
X11912131Y-11846220D01*
X11912131Y-11846220D02*
X11897845Y-11850982D01*
X11897845Y-11850982D02*
X11888321Y-11850982D01*
X11964512Y-11750982D02*
X12031178Y-11750982D01*
X12031178Y-11750982D02*
X11988321Y-11850982D01*
X9852083Y-8671982D02*
X9818750Y-8624363D01*
X9794941Y-8671982D02*
X9794941Y-8571982D01*
X9794941Y-8571982D02*
X9833036Y-8571982D01*
X9833036Y-8571982D02*
X9842560Y-8576744D01*
X9842560Y-8576744D02*
X9847321Y-8581506D01*
X9847321Y-8581506D02*
X9852083Y-8591030D01*
X9852083Y-8591030D02*
X9852083Y-8605315D01*
X9852083Y-8605315D02*
X9847321Y-8614839D01*
X9847321Y-8614839D02*
X9842560Y-8619601D01*
X9842560Y-8619601D02*
X9833036Y-8624363D01*
X9833036Y-8624363D02*
X9794941Y-8624363D01*
X9885417Y-8571982D02*
X9947321Y-8571982D01*
X9947321Y-8571982D02*
X9913988Y-8610077D01*
X9913988Y-8610077D02*
X9928274Y-8610077D01*
X9928274Y-8610077D02*
X9937798Y-8614839D01*
X9937798Y-8614839D02*
X9942560Y-8619601D01*
X9942560Y-8619601D02*
X9947321Y-8629125D01*
X9947321Y-8629125D02*
X9947321Y-8652934D01*
X9947321Y-8652934D02*
X9942560Y-8662458D01*
X9942560Y-8662458D02*
X9937798Y-8667220D01*
X9937798Y-8667220D02*
X9928274Y-8671982D01*
X9928274Y-8671982D02*
X9899702Y-8671982D01*
X9899702Y-8671982D02*
X9890179Y-8667220D01*
X9890179Y-8667220D02*
X9885417Y-8662458D01*
X11368708Y-8588786D02*
X11373470Y-8593548D01*
X11373470Y-8593548D02*
X11378232Y-8607833D01*
X11378232Y-8607833D02*
X11378232Y-8617357D01*
X11378232Y-8617357D02*
X11373470Y-8631643D01*
X11373470Y-8631643D02*
X11363946Y-8641167D01*
X11363946Y-8641167D02*
X11354422Y-8645929D01*
X11354422Y-8645929D02*
X11335375Y-8650690D01*
X11335375Y-8650690D02*
X11321089Y-8650690D01*
X11321089Y-8650690D02*
X11302041Y-8645929D01*
X11302041Y-8645929D02*
X11292518Y-8641167D01*
X11292518Y-8641167D02*
X11282994Y-8631643D01*
X11282994Y-8631643D02*
X11278232Y-8617357D01*
X11278232Y-8617357D02*
X11278232Y-8607833D01*
X11278232Y-8607833D02*
X11282994Y-8593548D01*
X11282994Y-8593548D02*
X11287756Y-8588786D01*
X11287756Y-8550690D02*
X11282994Y-8545929D01*
X11282994Y-8545929D02*
X11278232Y-8536405D01*
X11278232Y-8536405D02*
X11278232Y-8512595D01*
X11278232Y-8512595D02*
X11282994Y-8503071D01*
X11282994Y-8503071D02*
X11287756Y-8498310D01*
X11287756Y-8498310D02*
X11297279Y-8493548D01*
X11297279Y-8493548D02*
X11306803Y-8493548D01*
X11306803Y-8493548D02*
X11321089Y-8498310D01*
X11321089Y-8498310D02*
X11378232Y-8555452D01*
X11378232Y-8555452D02*
X11378232Y-8493548D01*
X11278232Y-8431643D02*
X11278232Y-8422119D01*
X11278232Y-8422119D02*
X11282994Y-8412595D01*
X11282994Y-8412595D02*
X11287756Y-8407833D01*
X11287756Y-8407833D02*
X11297279Y-8403071D01*
X11297279Y-8403071D02*
X11316327Y-8398310D01*
X11316327Y-8398310D02*
X11340137Y-8398310D01*
X11340137Y-8398310D02*
X11359184Y-8403071D01*
X11359184Y-8403071D02*
X11368708Y-8407833D01*
X11368708Y-8407833D02*
X11373470Y-8412595D01*
X11373470Y-8412595D02*
X11378232Y-8422119D01*
X11378232Y-8422119D02*
X11378232Y-8431643D01*
X11378232Y-8431643D02*
X11373470Y-8441167D01*
X11373470Y-8441167D02*
X11368708Y-8445929D01*
X11368708Y-8445929D02*
X11359184Y-8450690D01*
X11359184Y-8450690D02*
X11340137Y-8455452D01*
X11340137Y-8455452D02*
X11316327Y-8455452D01*
X11316327Y-8455452D02*
X11297279Y-8450690D01*
X11297279Y-8450690D02*
X11287756Y-8445929D01*
X11287756Y-8445929D02*
X11282994Y-8441167D01*
X11282994Y-8441167D02*
X11278232Y-8431643D01*
X10203232Y-10551309D02*
X10103232Y-10551309D01*
X10103232Y-10551309D02*
X10103232Y-10527500D01*
X10103232Y-10527500D02*
X10107994Y-10513214D01*
X10107994Y-10513214D02*
X10117518Y-10503690D01*
X10117518Y-10503690D02*
X10127041Y-10498929D01*
X10127041Y-10498929D02*
X10146089Y-10494167D01*
X10146089Y-10494167D02*
X10160375Y-10494167D01*
X10160375Y-10494167D02*
X10179422Y-10498929D01*
X10179422Y-10498929D02*
X10188946Y-10503690D01*
X10188946Y-10503690D02*
X10198470Y-10513214D01*
X10198470Y-10513214D02*
X10203232Y-10527500D01*
X10203232Y-10527500D02*
X10203232Y-10551309D01*
X10203232Y-10398929D02*
X10203232Y-10456071D01*
X10203232Y-10427500D02*
X10103232Y-10427500D01*
X10103232Y-10427500D02*
X10117518Y-10437024D01*
X10117518Y-10437024D02*
X10127041Y-10446548D01*
X10127041Y-10446548D02*
X10131803Y-10456071D01*
X9839708Y-9045167D02*
X9844470Y-9049929D01*
X9844470Y-9049929D02*
X9849232Y-9064214D01*
X9849232Y-9064214D02*
X9849232Y-9073738D01*
X9849232Y-9073738D02*
X9844470Y-9088024D01*
X9844470Y-9088024D02*
X9834946Y-9097548D01*
X9834946Y-9097548D02*
X9825422Y-9102309D01*
X9825422Y-9102309D02*
X9806375Y-9107071D01*
X9806375Y-9107071D02*
X9792089Y-9107071D01*
X9792089Y-9107071D02*
X9773041Y-9102309D01*
X9773041Y-9102309D02*
X9763518Y-9097548D01*
X9763518Y-9097548D02*
X9753994Y-9088024D01*
X9753994Y-9088024D02*
X9749232Y-9073738D01*
X9749232Y-9073738D02*
X9749232Y-9064214D01*
X9749232Y-9064214D02*
X9753994Y-9049929D01*
X9753994Y-9049929D02*
X9758756Y-9045167D01*
X9749232Y-9011833D02*
X9749232Y-8945167D01*
X9749232Y-8945167D02*
X9849232Y-8988024D01*
X11868708Y-8590786D02*
X11873470Y-8595548D01*
X11873470Y-8595548D02*
X11878232Y-8609833D01*
X11878232Y-8609833D02*
X11878232Y-8619357D01*
X11878232Y-8619357D02*
X11873470Y-8633643D01*
X11873470Y-8633643D02*
X11863946Y-8643167D01*
X11863946Y-8643167D02*
X11854422Y-8647929D01*
X11854422Y-8647929D02*
X11835375Y-8652690D01*
X11835375Y-8652690D02*
X11821089Y-8652690D01*
X11821089Y-8652690D02*
X11802041Y-8647929D01*
X11802041Y-8647929D02*
X11792518Y-8643167D01*
X11792518Y-8643167D02*
X11782994Y-8633643D01*
X11782994Y-8633643D02*
X11778232Y-8619357D01*
X11778232Y-8619357D02*
X11778232Y-8609833D01*
X11778232Y-8609833D02*
X11782994Y-8595548D01*
X11782994Y-8595548D02*
X11787756Y-8590786D01*
X11878232Y-8495548D02*
X11878232Y-8552690D01*
X11878232Y-8524119D02*
X11778232Y-8524119D01*
X11778232Y-8524119D02*
X11792518Y-8533643D01*
X11792518Y-8533643D02*
X11802041Y-8543167D01*
X11802041Y-8543167D02*
X11806803Y-8552690D01*
X11821089Y-8438405D02*
X11816327Y-8447929D01*
X11816327Y-8447929D02*
X11811565Y-8452690D01*
X11811565Y-8452690D02*
X11802041Y-8457452D01*
X11802041Y-8457452D02*
X11797279Y-8457452D01*
X11797279Y-8457452D02*
X11787756Y-8452690D01*
X11787756Y-8452690D02*
X11782994Y-8447929D01*
X11782994Y-8447929D02*
X11778232Y-8438405D01*
X11778232Y-8438405D02*
X11778232Y-8419357D01*
X11778232Y-8419357D02*
X11782994Y-8409833D01*
X11782994Y-8409833D02*
X11787756Y-8405071D01*
X11787756Y-8405071D02*
X11797279Y-8400310D01*
X11797279Y-8400310D02*
X11802041Y-8400310D01*
X11802041Y-8400310D02*
X11811565Y-8405071D01*
X11811565Y-8405071D02*
X11816327Y-8409833D01*
X11816327Y-8409833D02*
X11821089Y-8419357D01*
X11821089Y-8419357D02*
X11821089Y-8438405D01*
X11821089Y-8438405D02*
X11825851Y-8447929D01*
X11825851Y-8447929D02*
X11830613Y-8452690D01*
X11830613Y-8452690D02*
X11840137Y-8457452D01*
X11840137Y-8457452D02*
X11859184Y-8457452D01*
X11859184Y-8457452D02*
X11868708Y-8452690D01*
X11868708Y-8452690D02*
X11873470Y-8447929D01*
X11873470Y-8447929D02*
X11878232Y-8438405D01*
X11878232Y-8438405D02*
X11878232Y-8419357D01*
X11878232Y-8419357D02*
X11873470Y-8409833D01*
X11873470Y-8409833D02*
X11868708Y-8405071D01*
X11868708Y-8405071D02*
X11859184Y-8400310D01*
X11859184Y-8400310D02*
X11840137Y-8400310D01*
X11840137Y-8400310D02*
X11830613Y-8405071D01*
X11830613Y-8405071D02*
X11825851Y-8409833D01*
X11825851Y-8409833D02*
X11821089Y-8419357D01*
X13262988Y-6759036D02*
X13256253Y-6759036D01*
X13256253Y-6759036D02*
X13242785Y-6752302D01*
X13242785Y-6752302D02*
X13236050Y-6745567D01*
X13236050Y-6745567D02*
X13229316Y-6732099D01*
X13229316Y-6732099D02*
X13229316Y-6718630D01*
X13229316Y-6718630D02*
X13232683Y-6708528D01*
X13232683Y-6708528D02*
X13242785Y-6691693D01*
X13242785Y-6691693D02*
X13252886Y-6681591D01*
X13252886Y-6681591D02*
X13269722Y-6671489D01*
X13269722Y-6671489D02*
X13279824Y-6668122D01*
X13279824Y-6668122D02*
X13293292Y-6668122D01*
X13293292Y-6668122D02*
X13306761Y-6674857D01*
X13306761Y-6674857D02*
X13313495Y-6681591D01*
X13313495Y-6681591D02*
X13320230Y-6695060D01*
X13320230Y-6695060D02*
X13320230Y-6701794D01*
X13323597Y-6833114D02*
X13283191Y-6792708D01*
X13303394Y-6812911D02*
X13374105Y-6742200D01*
X13374105Y-6742200D02*
X13357269Y-6745567D01*
X13357269Y-6745567D02*
X13343800Y-6745567D01*
X13343800Y-6745567D02*
X13333698Y-6742200D01*
X13417878Y-6785973D02*
X13465018Y-6833114D01*
X13465018Y-6833114D02*
X13364003Y-6873520D01*
X10741708Y-8758167D02*
X10746470Y-8762929D01*
X10746470Y-8762929D02*
X10751232Y-8777214D01*
X10751232Y-8777214D02*
X10751232Y-8786738D01*
X10751232Y-8786738D02*
X10746470Y-8801024D01*
X10746470Y-8801024D02*
X10736946Y-8810548D01*
X10736946Y-8810548D02*
X10727422Y-8815309D01*
X10727422Y-8815309D02*
X10708375Y-8820071D01*
X10708375Y-8820071D02*
X10694089Y-8820071D01*
X10694089Y-8820071D02*
X10675041Y-8815309D01*
X10675041Y-8815309D02*
X10665518Y-8810548D01*
X10665518Y-8810548D02*
X10655994Y-8801024D01*
X10655994Y-8801024D02*
X10651232Y-8786738D01*
X10651232Y-8786738D02*
X10651232Y-8777214D01*
X10651232Y-8777214D02*
X10655994Y-8762929D01*
X10655994Y-8762929D02*
X10660756Y-8758167D01*
X10651232Y-8672452D02*
X10651232Y-8691500D01*
X10651232Y-8691500D02*
X10655994Y-8701024D01*
X10655994Y-8701024D02*
X10660756Y-8705786D01*
X10660756Y-8705786D02*
X10675041Y-8715309D01*
X10675041Y-8715309D02*
X10694089Y-8720071D01*
X10694089Y-8720071D02*
X10732184Y-8720071D01*
X10732184Y-8720071D02*
X10741708Y-8715309D01*
X10741708Y-8715309D02*
X10746470Y-8710548D01*
X10746470Y-8710548D02*
X10751232Y-8701024D01*
X10751232Y-8701024D02*
X10751232Y-8681976D01*
X10751232Y-8681976D02*
X10746470Y-8672452D01*
X10746470Y-8672452D02*
X10741708Y-8667690D01*
X10741708Y-8667690D02*
X10732184Y-8662929D01*
X10732184Y-8662929D02*
X10708375Y-8662929D01*
X10708375Y-8662929D02*
X10698851Y-8667690D01*
X10698851Y-8667690D02*
X10694089Y-8672452D01*
X10694089Y-8672452D02*
X10689327Y-8681976D01*
X10689327Y-8681976D02*
X10689327Y-8701024D01*
X10689327Y-8701024D02*
X10694089Y-8710548D01*
X10694089Y-8710548D02*
X10698851Y-8715309D01*
X10698851Y-8715309D02*
X10708375Y-8720071D01*
X10029232Y-10513167D02*
X9981613Y-10546500D01*
X10029232Y-10570309D02*
X9929232Y-10570309D01*
X9929232Y-10570309D02*
X9929232Y-10532214D01*
X9929232Y-10532214D02*
X9933994Y-10522690D01*
X9933994Y-10522690D02*
X9938756Y-10517929D01*
X9938756Y-10517929D02*
X9948280Y-10513167D01*
X9948280Y-10513167D02*
X9962565Y-10513167D01*
X9962565Y-10513167D02*
X9972089Y-10517929D01*
X9972089Y-10517929D02*
X9976851Y-10522690D01*
X9976851Y-10522690D02*
X9981613Y-10532214D01*
X9981613Y-10532214D02*
X9981613Y-10570309D01*
X9962565Y-10427452D02*
X10029232Y-10427452D01*
X9924470Y-10451262D02*
X9995899Y-10475071D01*
X9995899Y-10475071D02*
X9995899Y-10413167D01*
X11125464Y-9555458D02*
X11120702Y-9560220D01*
X11120702Y-9560220D02*
X11106417Y-9564982D01*
X11106417Y-9564982D02*
X11096893Y-9564982D01*
X11096893Y-9564982D02*
X11082607Y-9560220D01*
X11082607Y-9560220D02*
X11073083Y-9550696D01*
X11073083Y-9550696D02*
X11068321Y-9541172D01*
X11068321Y-9541172D02*
X11063560Y-9522125D01*
X11063560Y-9522125D02*
X11063560Y-9507839D01*
X11063560Y-9507839D02*
X11068321Y-9488791D01*
X11068321Y-9488791D02*
X11073083Y-9479268D01*
X11073083Y-9479268D02*
X11082607Y-9469744D01*
X11082607Y-9469744D02*
X11096893Y-9464982D01*
X11096893Y-9464982D02*
X11106417Y-9464982D01*
X11106417Y-9464982D02*
X11120702Y-9469744D01*
X11120702Y-9469744D02*
X11125464Y-9474506D01*
X11220702Y-9564982D02*
X11163560Y-9564982D01*
X11192131Y-9564982D02*
X11192131Y-9464982D01*
X11192131Y-9464982D02*
X11182607Y-9479268D01*
X11182607Y-9479268D02*
X11173083Y-9488791D01*
X11173083Y-9488791D02*
X11163560Y-9493553D01*
X11258798Y-9474506D02*
X11263559Y-9469744D01*
X11263559Y-9469744D02*
X11273083Y-9464982D01*
X11273083Y-9464982D02*
X11296893Y-9464982D01*
X11296893Y-9464982D02*
X11306417Y-9469744D01*
X11306417Y-9469744D02*
X11311178Y-9474506D01*
X11311178Y-9474506D02*
X11315940Y-9484030D01*
X11315940Y-9484030D02*
X11315940Y-9493553D01*
X11315940Y-9493553D02*
X11311178Y-9507839D01*
X11311178Y-9507839D02*
X11254036Y-9564982D01*
X11254036Y-9564982D02*
X11315940Y-9564982D01*
X7143746Y-12874902D02*
X7137011Y-12874902D01*
X7137011Y-12874902D02*
X7123543Y-12868168D01*
X7123543Y-12868168D02*
X7116808Y-12861434D01*
X7116808Y-12861434D02*
X7110074Y-12847965D01*
X7110074Y-12847965D02*
X7110074Y-12834496D01*
X7110074Y-12834496D02*
X7113441Y-12824395D01*
X7113441Y-12824395D02*
X7123543Y-12807559D01*
X7123543Y-12807559D02*
X7133644Y-12797457D01*
X7133644Y-12797457D02*
X7150480Y-12787356D01*
X7150480Y-12787356D02*
X7160582Y-12783989D01*
X7160582Y-12783989D02*
X7174050Y-12783989D01*
X7174050Y-12783989D02*
X7187519Y-12790723D01*
X7187519Y-12790723D02*
X7194253Y-12797457D01*
X7194253Y-12797457D02*
X7200988Y-12810926D01*
X7200988Y-12810926D02*
X7200988Y-12817660D01*
X7227925Y-12844598D02*
X7234660Y-12844598D01*
X7234660Y-12844598D02*
X7244761Y-12847965D01*
X7244761Y-12847965D02*
X7261597Y-12864801D01*
X7261597Y-12864801D02*
X7264964Y-12874902D01*
X7264964Y-12874902D02*
X7264964Y-12881637D01*
X7264964Y-12881637D02*
X7261597Y-12891738D01*
X7261597Y-12891738D02*
X7254863Y-12898473D01*
X7254863Y-12898473D02*
X7241394Y-12905207D01*
X7241394Y-12905207D02*
X7160582Y-12905207D01*
X7160582Y-12905207D02*
X7204355Y-12948980D01*
X7271698Y-13016324D02*
X7231292Y-12975918D01*
X7251495Y-12996121D02*
X7322206Y-12925410D01*
X7322206Y-12925410D02*
X7305370Y-12928777D01*
X7305370Y-12928777D02*
X7291902Y-12928777D01*
X7291902Y-12928777D02*
X7281800Y-12925410D01*
X8544867Y-11523392D02*
X8538133Y-11523392D01*
X8538133Y-11523392D02*
X8524664Y-11516658D01*
X8524664Y-11516658D02*
X8517930Y-11509923D01*
X8517930Y-11509923D02*
X8511195Y-11496455D01*
X8511195Y-11496455D02*
X8511195Y-11482986D01*
X8511195Y-11482986D02*
X8514562Y-11472884D01*
X8514562Y-11472884D02*
X8524664Y-11456048D01*
X8524664Y-11456048D02*
X8534765Y-11445947D01*
X8534765Y-11445947D02*
X8551601Y-11435845D01*
X8551601Y-11435845D02*
X8561703Y-11432478D01*
X8561703Y-11432478D02*
X8575171Y-11432478D01*
X8575171Y-11432478D02*
X8588640Y-11439213D01*
X8588640Y-11439213D02*
X8595375Y-11445947D01*
X8595375Y-11445947D02*
X8602109Y-11459416D01*
X8602109Y-11459416D02*
X8602109Y-11466150D01*
X8605476Y-11597470D02*
X8565070Y-11557064D01*
X8585273Y-11577267D02*
X8655984Y-11506556D01*
X8655984Y-11506556D02*
X8639148Y-11509923D01*
X8639148Y-11509923D02*
X8625679Y-11509923D01*
X8625679Y-11509923D02*
X8615578Y-11506556D01*
X8719960Y-11570532D02*
X8726694Y-11577267D01*
X8726694Y-11577267D02*
X8730062Y-11587368D01*
X8730062Y-11587368D02*
X8730062Y-11594103D01*
X8730062Y-11594103D02*
X8726694Y-11604204D01*
X8726694Y-11604204D02*
X8716593Y-11621040D01*
X8716593Y-11621040D02*
X8699757Y-11637876D01*
X8699757Y-11637876D02*
X8682921Y-11647977D01*
X8682921Y-11647977D02*
X8672820Y-11651345D01*
X8672820Y-11651345D02*
X8666085Y-11651345D01*
X8666085Y-11651345D02*
X8655984Y-11647977D01*
X8655984Y-11647977D02*
X8649249Y-11641243D01*
X8649249Y-11641243D02*
X8645882Y-11631142D01*
X8645882Y-11631142D02*
X8645882Y-11624407D01*
X8645882Y-11624407D02*
X8649249Y-11614306D01*
X8649249Y-11614306D02*
X8659351Y-11597470D01*
X8659351Y-11597470D02*
X8676187Y-11580634D01*
X8676187Y-11580634D02*
X8693023Y-11570532D01*
X8693023Y-11570532D02*
X8703124Y-11567165D01*
X8703124Y-11567165D02*
X8709859Y-11567165D01*
X8709859Y-11567165D02*
X8719960Y-11570532D01*
X12287232Y-10317833D02*
X12358660Y-10317833D01*
X12358660Y-10317833D02*
X12372946Y-10322595D01*
X12372946Y-10322595D02*
X12382470Y-10332119D01*
X12382470Y-10332119D02*
X12387232Y-10346405D01*
X12387232Y-10346405D02*
X12387232Y-10355929D01*
X12287232Y-10222595D02*
X12287232Y-10270214D01*
X12287232Y-10270214D02*
X12334851Y-10274976D01*
X12334851Y-10274976D02*
X12330089Y-10270214D01*
X12330089Y-10270214D02*
X12325327Y-10260690D01*
X12325327Y-10260690D02*
X12325327Y-10236881D01*
X12325327Y-10236881D02*
X12330089Y-10227357D01*
X12330089Y-10227357D02*
X12334851Y-10222595D01*
X12334851Y-10222595D02*
X12344375Y-10217833D01*
X12344375Y-10217833D02*
X12368184Y-10217833D01*
X12368184Y-10217833D02*
X12377708Y-10222595D01*
X12377708Y-10222595D02*
X12382470Y-10227357D01*
X12382470Y-10227357D02*
X12387232Y-10236881D01*
X12387232Y-10236881D02*
X12387232Y-10260690D01*
X12387232Y-10260690D02*
X12382470Y-10270214D01*
X12382470Y-10270214D02*
X12377708Y-10274976D01*
X8946223Y-11932058D02*
X8939489Y-11932058D01*
X8939489Y-11932058D02*
X8926020Y-11925324D01*
X8926020Y-11925324D02*
X8919286Y-11918589D01*
X8919286Y-11918589D02*
X8912551Y-11905121D01*
X8912551Y-11905121D02*
X8912551Y-11891652D01*
X8912551Y-11891652D02*
X8915919Y-11881551D01*
X8915919Y-11881551D02*
X8926020Y-11864715D01*
X8926020Y-11864715D02*
X8936122Y-11854613D01*
X8936122Y-11854613D02*
X8952958Y-11844512D01*
X8952958Y-11844512D02*
X8963059Y-11841144D01*
X8963059Y-11841144D02*
X8976528Y-11841144D01*
X8976528Y-11841144D02*
X8989996Y-11847879D01*
X8989996Y-11847879D02*
X8996731Y-11854613D01*
X8996731Y-11854613D02*
X9003465Y-11868082D01*
X9003465Y-11868082D02*
X9003465Y-11874816D01*
X8973161Y-11972464D02*
X8986629Y-11985933D01*
X8986629Y-11985933D02*
X8996731Y-11989300D01*
X8996731Y-11989300D02*
X9003465Y-11989300D01*
X9003465Y-11989300D02*
X9020301Y-11985933D01*
X9020301Y-11985933D02*
X9037137Y-11975831D01*
X9037137Y-11975831D02*
X9064074Y-11948894D01*
X9064074Y-11948894D02*
X9067442Y-11938792D01*
X9067442Y-11938792D02*
X9067442Y-11932058D01*
X9067442Y-11932058D02*
X9064074Y-11921957D01*
X9064074Y-11921957D02*
X9050606Y-11908488D01*
X9050606Y-11908488D02*
X9040504Y-11905121D01*
X9040504Y-11905121D02*
X9033770Y-11905121D01*
X9033770Y-11905121D02*
X9023668Y-11908488D01*
X9023668Y-11908488D02*
X9006832Y-11925324D01*
X9006832Y-11925324D02*
X9003465Y-11935425D01*
X9003465Y-11935425D02*
X9003465Y-11942160D01*
X9003465Y-11942160D02*
X9006832Y-11952261D01*
X9006832Y-11952261D02*
X9020301Y-11965730D01*
X9020301Y-11965730D02*
X9030403Y-11969097D01*
X9030403Y-11969097D02*
X9037137Y-11969097D01*
X9037137Y-11969097D02*
X9047238Y-11965730D01*
X11456559Y-10460982D02*
X11456559Y-10541934D01*
X11456559Y-10541934D02*
X11461321Y-10551458D01*
X11461321Y-10551458D02*
X11466083Y-10556220D01*
X11466083Y-10556220D02*
X11475607Y-10560982D01*
X11475607Y-10560982D02*
X11494655Y-10560982D01*
X11494655Y-10560982D02*
X11504178Y-10556220D01*
X11504178Y-10556220D02*
X11508940Y-10551458D01*
X11508940Y-10551458D02*
X11513702Y-10541934D01*
X11513702Y-10541934D02*
X11513702Y-10460982D01*
X11556559Y-10470506D02*
X11561321Y-10465744D01*
X11561321Y-10465744D02*
X11570845Y-10460982D01*
X11570845Y-10460982D02*
X11594655Y-10460982D01*
X11594655Y-10460982D02*
X11604178Y-10465744D01*
X11604178Y-10465744D02*
X11608940Y-10470506D01*
X11608940Y-10470506D02*
X11613702Y-10480030D01*
X11613702Y-10480030D02*
X11613702Y-10489553D01*
X11613702Y-10489553D02*
X11608940Y-10503839D01*
X11608940Y-10503839D02*
X11551798Y-10560982D01*
X11551798Y-10560982D02*
X11613702Y-10560982D01*
D12*
%TO.C,C16*%
X11574750Y-9460442D02*
X11574750Y-9488558D01*
X11676750Y-9460442D02*
X11676750Y-9488558D01*
%TO.C,R8*%
X11589192Y-9173500D02*
X11617308Y-9173500D01*
X11589192Y-9275500D02*
X11617308Y-9275500D01*
%TO.C,R5*%
X11212750Y-10154442D02*
X11212750Y-10182558D01*
X11314750Y-10154442D02*
X11314750Y-10182558D01*
%TO.C,C5*%
X9768750Y-10738442D02*
X9768750Y-10766558D01*
X9870750Y-10738442D02*
X9870750Y-10766558D01*
%TO.C,D2*%
X10404750Y-11171500D02*
X10404750Y-11612500D01*
X10626750Y-11171500D02*
X10404750Y-11171500D01*
X10626750Y-11612500D02*
X10626750Y-11171500D01*
%TO.C,C4*%
X10264750Y-11323442D02*
X10264750Y-11351558D01*
X10366750Y-11323442D02*
X10366750Y-11351558D01*
%TO.C,J9*%
X8416750Y-8019500D02*
X8549750Y-8019500D01*
X8416750Y-8152500D02*
X8416750Y-8019500D01*
X8416750Y-8279500D02*
X8416750Y-9047500D01*
X8416750Y-8279500D02*
X8682750Y-8279500D01*
X8416750Y-9047500D02*
X8682750Y-9047500D01*
X8682750Y-8279500D02*
X8682750Y-9047500D01*
%TO.C,R7*%
X10858692Y-11249500D02*
X10886808Y-11249500D01*
X10858692Y-11351500D02*
X10886808Y-11351500D01*
%TO.C,C2*%
X10485750Y-9021558D02*
X10485750Y-8993442D01*
X10587750Y-9021558D02*
X10587750Y-8993442D01*
%TO.C,SW1*%
X9708750Y-11240500D02*
X9738750Y-11240500D01*
X9708750Y-11654500D02*
X9708750Y-11240500D01*
X9738750Y-11654500D02*
X9708750Y-11654500D01*
X9992750Y-11240500D02*
X10022750Y-11240500D01*
X10022750Y-11240500D02*
X10022750Y-11654500D01*
X10022750Y-11654500D02*
X9992750Y-11654500D01*
%TO.C,C14*%
X11374750Y-9460442D02*
X11374750Y-9488558D01*
X11476750Y-9460442D02*
X11476750Y-9488558D01*
%TO.C,C23*%
X13388296Y-12985615D02*
X13408178Y-12965734D01*
X13460421Y-13057740D02*
X13480302Y-13037859D01*
%TO.C,R6*%
X11511692Y-9873500D02*
X11539808Y-9873500D01*
X11511692Y-9975500D02*
X11539808Y-9975500D01*
%TO.C,C1*%
X11861692Y-10223500D02*
X11889808Y-10223500D01*
X11861692Y-10325500D02*
X11889808Y-10325500D01*
%TO.C,C19*%
X7082079Y-6637260D02*
X7062197Y-6657141D01*
X7154203Y-6709385D02*
X7134322Y-6729266D01*
%TO.C,R1*%
X10064750Y-11323442D02*
X10064750Y-11351558D01*
X10166750Y-11323442D02*
X10166750Y-11351558D01*
%TO.C,R9*%
X11269750Y-8988558D02*
X11269750Y-8960442D01*
X11371750Y-8988558D02*
X11371750Y-8960442D01*
%TO.C,Y1*%
X8816353Y-11403661D02*
X9222939Y-11810248D01*
X9222939Y-11810248D02*
X9477498Y-11555689D01*
X9477498Y-11555689D02*
X9070911Y-11149103D01*
%TO.C,C11*%
X11539808Y-9673500D02*
X11511692Y-9673500D01*
X11539808Y-9775500D02*
X11511692Y-9775500D01*
%TO.C,R2*%
X10192808Y-8733500D02*
X10164692Y-8733500D01*
X10192808Y-8835500D02*
X10164692Y-8835500D01*
%TO.C,C8*%
X11861692Y-10423500D02*
X11889808Y-10423500D01*
X11861692Y-10525500D02*
X11889808Y-10525500D01*
%TO.C,U1*%
X9919219Y-9812500D02*
X9951039Y-9844320D01*
X9951039Y-9780680D02*
X9919219Y-9812500D01*
X10397930Y-9333789D02*
X10429750Y-9301969D01*
X10429750Y-9301969D02*
X10461570Y-9333789D01*
X10429750Y-10323031D02*
X10397930Y-10291211D01*
X10461570Y-10291211D02*
X10429750Y-10323031D01*
X10908461Y-9844320D02*
X10940281Y-9812500D01*
X10940281Y-9812500D02*
X10908461Y-9780680D01*
X9909319Y-9886039D02*
X9852044Y-9876847D01*
X9900127Y-9828764D01*
X9909319Y-9886039D01*
G36*
X9909319Y-9886039D02*
G01*
X9852044Y-9876847D01*
X9900127Y-9828764D01*
X9909319Y-9886039D01*
G37*
%TO.C,U4*%
X11419750Y-8924500D02*
X11419750Y-8844500D01*
X11419750Y-8924500D02*
X11419750Y-9004500D01*
X11731750Y-8924500D02*
X11731750Y-8844500D01*
X11731750Y-8924500D02*
X11731750Y-9004500D01*
X11759750Y-8818500D02*
X11726750Y-8794500D01*
X11759750Y-8770500D01*
X11759750Y-8818500D01*
G36*
X11759750Y-8818500D02*
G01*
X11726750Y-8794500D01*
X11759750Y-8770500D01*
X11759750Y-8818500D01*
G37*
%TO.C,J7*%
X11826750Y-11445500D02*
X11826750Y-10677500D01*
X12092750Y-10677500D02*
X11826750Y-10677500D01*
X12092750Y-11445500D02*
X11826750Y-11445500D01*
X12092750Y-11445500D02*
X12092750Y-10677500D01*
X12092750Y-11572500D02*
X12092750Y-11705500D01*
X12092750Y-11705500D02*
X11959750Y-11705500D01*
%TO.C,R3*%
X9892808Y-8733500D02*
X9864692Y-8733500D01*
X9892808Y-8835500D02*
X9864692Y-8835500D01*
%TO.C,C20*%
X11424750Y-8538558D02*
X11424750Y-8510442D01*
X11526750Y-8538558D02*
X11526750Y-8510442D01*
%TO.C,D1*%
X10108750Y-10738442D02*
X10108750Y-10766558D01*
X10210750Y-10738442D02*
X10210750Y-10766558D01*
%TO.C,C7*%
X9756250Y-9275942D02*
X9756250Y-9304058D01*
X9858250Y-9275942D02*
X9858250Y-9304058D01*
%TO.C,C18*%
X11624750Y-8538558D02*
X11624750Y-8510442D01*
X11726750Y-8538558D02*
X11726750Y-8510442D01*
%TO.C,C17*%
X13408865Y-6723953D02*
X13388984Y-6704072D01*
X13480990Y-6651829D02*
X13461109Y-6631947D01*
%TO.C,C6*%
X10655750Y-9021558D02*
X10655750Y-8993442D01*
X10757750Y-9021558D02*
X10757750Y-8993442D01*
%TO.C,R4*%
X9938750Y-10738442D02*
X9938750Y-10766558D01*
X10040750Y-10738442D02*
X10040750Y-10766558D01*
%TO.C,C12*%
X11228750Y-9826558D02*
X11228750Y-9798442D01*
X11330750Y-9826558D02*
X11330750Y-9798442D01*
%TO.C,C21*%
X7067510Y-13022171D02*
X7087391Y-13042052D01*
X7139635Y-12950046D02*
X7159516Y-12969928D01*
%TO.C,C10*%
X8738548Y-11543423D02*
X8758429Y-11563304D01*
X8810673Y-11471298D02*
X8830554Y-11491179D01*
%TO.C,J5*%
X11778500Y-9548000D02*
X12452500Y-9548000D01*
X11778500Y-10130000D02*
X11778500Y-9548000D01*
X11778500Y-10130000D02*
X12452500Y-10130000D01*
X11950500Y-10130000D02*
X11950500Y-9548000D01*
X12260500Y-10130000D02*
X12260500Y-9548000D01*
X12360500Y-10130000D02*
X12360500Y-9548000D01*
X12452500Y-9936000D02*
X12452500Y-9548000D01*
X12452500Y-10130000D02*
X12452500Y-9996000D01*
X12513500Y-10010000D02*
X12452500Y-9966000D01*
X12513500Y-9922000D01*
X12513500Y-10010000D01*
G36*
X12513500Y-10010000D02*
G01*
X12452500Y-9966000D01*
X12513500Y-9922000D01*
X12513500Y-10010000D01*
G37*
%TO.C,C9*%
X9058429Y-11863304D02*
X9038548Y-11843423D01*
X9130554Y-11791179D02*
X9110673Y-11771298D01*
%TO.C,U2*%
X11369750Y-10224500D02*
X11369750Y-10144500D01*
X11369750Y-10224500D02*
X11369750Y-10304500D01*
X11681750Y-10224500D02*
X11681750Y-10144500D01*
X11681750Y-10224500D02*
X11681750Y-10304500D01*
X11709750Y-10118500D02*
X11676750Y-10094500D01*
X11709750Y-10070500D01*
X11709750Y-10118500D01*
G36*
X11709750Y-10118500D02*
G01*
X11676750Y-10094500D01*
X11709750Y-10070500D01*
X11709750Y-10118500D01*
G37*
%TD*%
M02*
